<?xml version="1.0" encoding="UTF-8"?>
<svg width="528px" height="482px" viewBox="0 0 528 482" version="1.1" xmlns="http://www.w3.org/2000/svg" xmlns:xlink="http://www.w3.org/1999/xlink">
    <!-- Generator: Sketch 42 (36781) - http://www.bohemiancoding.com/sketch -->
    <title>cto-logo-hifi</title>
    <desc>Created with Sketch.</desc>
    <defs></defs>
    <g id="Page-1" stroke="none" stroke-width="1" fill="none" fill-rule="evenodd">
        <g id="cto-logo-hifi">
            <g id="left-box" transform="translate(0.000000, 110.000000)" fill="#EFF0F1">
                <path d="M137.148748,238.903013 L119.65214,249.004685 C118.032582,249.939737 116.071218,250.557436 114,250.858227 L114,250.858227 L114,126.885 C116.60058,126.556428 119.085829,125.795746 121.15214,124.602761 L169.777568,96.5288568 L210.823085,120.226497 L153.800888,153.148278 C144.075846,158.763034 137.148748,170.759873 137.148748,181.99063 L137.148748,238.903013 Z M108,250.858047 C105.927871,250.557051 103.966342,249.939116 102.34786,249.004685 L8.80088785,194.995315 C4.02244313,192.236479 0.148748316,185.519465 0.148748316,180.00937 L0.148748316,71.9906302 C0.148748316,69.8869259 0.712798808,67.6094312 1.67526232,65.4437786 C3.27459039,67.5736809 5.2027193,69.3820131 7.30088785,70.5933913 L100.84786,124.602761 C102.913754,125.795505 105.399067,126.556298 108,126.884947 L108,250.858047 L108,250.858047 Z" id="Combined-Shape" fill-opacity="0.799999952"></path>
                <path d="M163.777568,93.0647552 L118.15214,119.406609 C114.304313,121.628152 107.693956,121.627153 103.84786,119.406609 L10.3008879,65.3972389 C8.35321909,64.2727518 6.54480494,62.250577 5.23368717,59.9516386 C6.32181845,58.753388 7.52971721,57.7385956 8.80088785,57.0046849 L102.34786,2.99531509 C107.126305,0.236478745 114.880257,0.240267396 119.65214,2.99531509 L147.148748,18.8704896 L147.148748,70.0093698 C147.148748,77.66533 152.168002,86.3619693 158.800888,90.1914675 L163.777568,93.0647552 Z" id="Combined-Shape" fill-opacity="0.899999976"></path>
            </g>
            <g id="right-box" transform="translate(317.000000, 110.000000)" fill="#EFF0F1">
                <path d="M103,250.858227 C105.071218,250.557436 107.032582,249.939737 108.65214,249.004685 L202.199112,194.995315 C206.970995,192.240267 210.851252,185.527043 210.851252,180.00937 L210.851252,71.9906302 C210.851252,69.8884367 210.287416,67.6105702 209.324615,65.4438571 C207.725053,67.5739884 205.796819,69.3822795 203.699112,70.5933913 L110.15214,124.602761 C108.085829,125.795746 105.60058,126.556428 103,126.885 L103,250.858227 L103,250.858227 Z M73.8512517,238.903013 L91.3478605,249.004685 C92.9663421,249.939116 94.9278709,250.557051 97,250.858047 L97,250.858047 L97,126.884947 C94.3990666,126.556298 91.9137541,125.795505 89.8478605,124.602761 L41.2224319,96.5288568 L0.176914536,120.226497 L57.1991121,153.148278 C66.9252336,158.763657 73.8512517,170.761119 73.8512517,181.99063 L73.8512517,238.903013 Z" id="Combined-Shape" fill-opacity="0.799999952"></path>
                <path d="M47.2224319,93.0647552 L92.8478605,119.406609 C96.6939559,121.627153 103.304313,121.628152 107.15214,119.406609 L200.699112,65.3972389 C202.646274,64.2730444 204.455016,62.2508215 205.766418,59.9514589 L205.766418,59.9514589 C204.678735,58.7537163 203.470972,57.7389934 202.199112,57.0046849 L108.65214,2.99531509 C103.880257,0.240267396 96.1263052,0.236478745 91.3478605,2.99531509 L63.8512517,18.8704896 L63.8512517,70.0093698 C63.8512517,77.6683663 58.8293682,86.3634874 52.1991121,90.1914675 L47.2224319,93.0647552 Z" id="Combined-Shape" fill-opacity="0.899999976"></path>
            </g>
            <g id="bottom-box" transform="translate(143.000000, 233.000000)">
                <path d="M168.176915,0.690598923 L228.199112,35.3444309 C236.069802,39.8885756 241.851252,49.9058381 241.851252,58.9906302 L241.851252,167.00937 C241.851252,176.097659 236.066773,186.113173 228.199112,190.655569 L134.65214,244.664939 C126.78145,249.209084 115.215521,249.207335 107.34786,244.664939 L13.8008879,190.655569 C5.93019829,186.111424 0.148748316,176.094162 0.148748316,167.00937 L0.148748316,58.9906302 C0.148748316,49.9023407 5.93322712,39.8868269 13.8008879,35.3444309 L73.8230855,0.690598923 L109.34786,21.2008373 C115.978116,25.0288174 126.019254,25.0303356 132.65214,21.2008373 L168.176915,0.690598923 Z" id="Combined-Shape" fill="#7CBADB" fill-rule="nonzero"></path>
                <path d="M158.176915,6.46410162 L223.199112,44.0046849 C227.977557,46.7635213 231.851252,53.4805348 231.851252,58.9906302 L231.851252,167.00937 C231.851252,172.527043 227.970995,179.240267 223.199112,181.995315 L129.65214,236.004685 C124.873695,238.763521 117.119743,238.759733 112.34786,236.004685 L18.8008879,181.995315 C14.0224431,179.236479 10.1487483,172.519465 10.1487483,167.00937 L10.1487483,58.9906302 C10.1487483,53.4729575 14.0290053,46.7597326 18.8008879,44.0046849 L83.8230855,6.46410162 L109.34786,21.2008373 C115.978116,25.0288174 126.019254,25.0303356 132.65214,21.2008373 L158.176915,6.46410162 Z" id="Combined-Shape" fill="#B5D8EB"></path>
                <path d="M158.176915,6.46410162 L223.199112,44.0046849 C223.917375,44.4193744 224.615197,44.923495 225.282493,45.4995054 C224.127786,47.682627 222.458415,49.6494541 220.699112,50.6651881 L127.15214,104.674558 C123.923215,106.538778 118.075254,106.537894 114.84786,104.674558 L21.3008879,50.6651881 C19.5410524,49.6491466 17.8720278,47.6823385 16.7175837,45.4996136 C17.3850439,44.9233932 18.0828724,44.4192313 18.8008879,44.0046849 L83.8230855,6.46410162 L109.34786,21.2008373 C115.978116,25.0288174 126.019254,25.0303356 132.65214,21.2008373 L158.176915,6.46410162 Z" id="Combined-Shape" fill="#D2E7F3"></path>
                <path d="M116,115.583963 C113.777955,115.138666 111.673618,114.388914 109.84786,113.334812 L16.3008879,59.3254421 C14.3006274,58.1705912 12.4499319,56.5438856 10.854328,54.6283805 C11.9140693,51.1843351 14.0767705,47.7789853 16.7175205,45.499494 C17.8719668,47.6822667 19.5410203,49.6491281 21.3008879,50.6651881 L114.84786,104.674558 C118.075254,106.537894 123.923215,106.538778 127.15214,104.674558 L220.699112,50.6651881 C222.458383,49.6494727 224.127725,47.6826988 225.282429,45.499625 C227.92131,47.7777828 230.0855,51.1822896 231.145801,54.6281265 C229.549941,56.5439597 227.699095,58.1707516 225.699112,59.3254421 L132.15214,113.334812 C130.326078,114.389089 128.221779,115.138793 126,115.584031 L126,241 L116,241 L116,115.583963 L116,115.583963 Z" id="Combined-Shape" fill="#7CBADB"></path>
            </g>
            <g id="top-box" transform="translate(153.000000, 0.000000)" fill="#EFF0F1">
                <path d="M114,250.858227 C116.071218,250.557436 118.032582,249.939737 119.65214,249.004685 L213.199112,194.995315 C217.970995,192.240267 221.851252,185.527043 221.851252,180.00937 L221.851252,71.9906302 C221.851252,69.8884367 221.287416,67.6105702 220.324615,65.4438571 C218.725053,67.5739884 216.796819,69.3822795 214.699112,70.5933913 L121.15214,124.602761 C119.085829,125.795746 116.60058,126.556428 114,126.885 L114,250.858227 L114,250.858227 Z M108,250.858047 C105.927871,250.557051 103.966342,249.939116 102.34786,249.004685 L8.80088785,194.995315 C4.02244313,192.236479 0.148748316,185.519465 0.148748316,180.00937 L0.148748316,71.9906302 C0.148748316,69.8869259 0.712798808,67.6094312 1.67526232,65.4437786 C3.27459039,67.5736809 5.2027193,69.3820131 7.30088785,70.5933913 L100.84786,124.602761 C102.913754,125.795505 105.399067,126.556298 108,126.884947 L108,250.858047 L108,250.858047 Z" id="Combined-Shape" fill-opacity="0.799999952"></path>
                <path d="M216.766418,59.9514589 C215.678735,58.7537163 214.470972,57.7389934 213.199112,57.0046849 L119.65214,2.99531509 C114.880257,0.240267396 107.126305,0.236478745 102.34786,2.99531509 L8.80088785,57.0046849 C7.52971721,57.7385956 6.32181845,58.753388 5.23368717,59.9516386 C6.54480494,62.250577 8.35321909,64.2727518 10.3008879,65.3972389 L103.84786,119.406609 C107.693956,121.627153 114.304313,121.628152 118.15214,119.406609 L211.699112,65.3972389 C213.646274,64.2730444 215.455016,62.2508215 216.766418,59.9514589 L216.766418,59.9514589 Z" id="Combined-Shape" fill-opacity="0.899999976"></path>
            </g>
        </g>
    </g>
</svg>