<?xml version="1.0" encoding="UTF-8"?>
<svg width="202px" height="210px" viewBox="0 0 202 210" version="1.1" xmlns="http://www.w3.org/2000/svg" xmlns:xlink="http://www.w3.org/1999/xlink">
    <!-- Generator: Sketch 42 (36781) - http://www.bohemiancoding.com/sketch -->
    <title>Group 3</title>
    <desc>Created with Sketch.</desc>
    <defs>
        <path d="M11.4861931,154.077709 C12.3175083,154.026158 13.1556993,154 14,154 C21.6504037,154 28.7991727,156.147754 34.8762443,159.873199 C34.3065739,158.016055 34,156.04383 34,154 C34,142.954305 42.954305,134 54,134 C65.045695,134 74,142.954305 74,154 C74,165.045695 65.045695,174 54,174 C51.9561704,174 49.983945,173.693426 48.1268011,173.123756 C51.8522462,179.200827 54,186.349596 54,194 C54,194.527652 53.9897833,195.052917 53.969537,195.575609 C35.883891,186.464812 21.0070446,171.916447 11.4861931,154.077709 L11.4861931,154.077709 Z" id="path-1"></path>
        <filter x="-50%" y="-50%" width="200%" height="200%" filterUnits="objectBoundingBox" id="filter-2">
            <feGaussianBlur stdDeviation="10" in="SourceAlpha" result="shadowBlurInner1"></feGaussianBlur>
            <feOffset dx="10" dy="10" in="shadowBlurInner1" result="shadowOffsetInner1"></feOffset>
            <feComposite in="shadowOffsetInner1" in2="SourceAlpha" operator="arithmetic" k2="-1" k3="1" result="shadowInnerInner1"></feComposite>
            <feColorMatrix values="0 0 0 0 1   0 0 0 0 1   0 0 0 0 1  0 0 0 1 0" type="matrix" in="shadowInnerInner1" result="shadowMatrixInner1"></feColorMatrix>
            <feOffset dx="2" dy="2" in="SourceAlpha" result="shadowOffsetInner2"></feOffset>
            <feComposite in="shadowOffsetInner2" in2="SourceAlpha" operator="arithmetic" k2="-1" k3="1" result="shadowInnerInner2"></feComposite>
            <feColorMatrix values="0 0 0 0 0.730608702   0 0 0 0 0.759654224   0 0 0 0 0.779017866  0 0 0 1 0" type="matrix" in="shadowInnerInner2" result="shadowMatrixInner2"></feColorMatrix>
            <feMerge>
                <feMergeNode in="shadowMatrixInner1"></feMergeNode>
                <feMergeNode in="shadowMatrixInner2"></feMergeNode>
            </feMerge>
        </filter>
        <path d="M36.1328989,184.007009 C46.3842067,184.234284 55.3018017,189.969328 60.1413858,198.419696 C51.4274059,194.766843 43.353021,189.891059 36.1329029,184.007014 L36.1328989,184.007009 Z" id="path-3"></path>
        <filter x="-50%" y="-50%" width="200%" height="200%" filterUnits="objectBoundingBox" id="filter-4">
            <feGaussianBlur stdDeviation="10" in="SourceAlpha" result="shadowBlurInner1"></feGaussianBlur>
            <feOffset dx="10" dy="10" in="shadowBlurInner1" result="shadowOffsetInner1"></feOffset>
            <feComposite in="shadowOffsetInner1" in2="SourceAlpha" operator="arithmetic" k2="-1" k3="1" result="shadowInnerInner1"></feComposite>
            <feColorMatrix values="0 0 0 0 1   0 0 0 0 1   0 0 0 0 1  0 0 0 1 0" type="matrix" in="shadowInnerInner1" result="shadowMatrixInner1"></feColorMatrix>
            <feOffset dx="2" dy="2" in="SourceAlpha" result="shadowOffsetInner2"></feOffset>
            <feComposite in="shadowOffsetInner2" in2="SourceAlpha" operator="arithmetic" k2="-1" k3="1" result="shadowInnerInner2"></feComposite>
            <feColorMatrix values="0 0 0 0 0.730608702   0 0 0 0 0.759654224   0 0 0 0 0.779017866  0 0 0 1 0" type="matrix" in="shadowInnerInner2" result="shadowMatrixInner2"></feColorMatrix>
            <feMerge>
                <feMergeNode in="shadowMatrixInner1"></feMergeNode>
                <feMergeNode in="shadowMatrixInner2"></feMergeNode>
            </feMerge>
        </filter>
        <path d="M144,194 C144,186.349596 146.147754,179.200827 149.873199,173.123756 C148.016055,173.693426 146.04383,174 144,174 C132.954305,174 124,165.045695 124,154 C124,142.954305 132.954305,134 144,134 C155.045695,134 164,142.954305 164,154 C164,156.04383 163.693426,158.016055 163.123756,159.873199 C169.200827,156.147754 176.349596,154 184,154 C184.184709,154 184.369125,154.001252 184.55324,154.003748 C175.382066,171.222843 161.222843,185.382066 144.003748,194.55324 C144.001252,194.369125 144,194.184709 144,194 Z" id="path-5"></path>
        <filter x="-50%" y="-50%" width="200%" height="200%" filterUnits="objectBoundingBox" id="filter-6">
            <feGaussianBlur stdDeviation="10" in="SourceAlpha" result="shadowBlurInner1"></feGaussianBlur>
            <feOffset dx="-10" dy="10" in="shadowBlurInner1" result="shadowOffsetInner1"></feOffset>
            <feComposite in="shadowOffsetInner1" in2="SourceAlpha" operator="arithmetic" k2="-1" k3="1" result="shadowInnerInner1"></feComposite>
            <feColorMatrix values="0 0 0 0 1   0 0 0 0 1   0 0 0 0 1  0 0 0 1 0" type="matrix" in="shadowInnerInner1" result="shadowMatrixInner1"></feColorMatrix>
            <feOffset dx="-2" dy="2" in="SourceAlpha" result="shadowOffsetInner2"></feOffset>
            <feComposite in="shadowOffsetInner2" in2="SourceAlpha" operator="arithmetic" k2="-1" k3="1" result="shadowInnerInner2"></feComposite>
            <feColorMatrix values="0 0 0 0 0.730608702   0 0 0 0 0.759654224   0 0 0 0 0.779017866  0 0 0 1 0" type="matrix" in="shadowInnerInner2" result="shadowMatrixInner2"></feColorMatrix>
            <feMerge>
                <feMergeNode in="shadowMatrixInner1"></feMergeNode>
                <feMergeNode in="shadowMatrixInner2"></feMergeNode>
            </feMerge>
        </filter>
        <path d="M138.577691,197.230862 C143.18039,190.016088 150.849786,185.014229 159.706604,184.137527 C153.28559,189.347936 146.192551,193.762448 138.577691,197.230862 Z" id="path-7"></path>
        <filter x="-50%" y="-50%" width="200%" height="200%" filterUnits="objectBoundingBox" id="filter-8">
            <feGaussianBlur stdDeviation="10" in="SourceAlpha" result="shadowBlurInner1"></feGaussianBlur>
            <feOffset dx="-10" dy="10" in="shadowBlurInner1" result="shadowOffsetInner1"></feOffset>
            <feComposite in="shadowOffsetInner1" in2="SourceAlpha" operator="arithmetic" k2="-1" k3="1" result="shadowInnerInner1"></feComposite>
            <feColorMatrix values="0 0 0 0 1   0 0 0 0 1   0 0 0 0 1  0 0 0 1 0" type="matrix" in="shadowInnerInner1" result="shadowMatrixInner1"></feColorMatrix>
            <feOffset dx="-2" dy="2" in="SourceAlpha" result="shadowOffsetInner2"></feOffset>
            <feComposite in="shadowOffsetInner2" in2="SourceAlpha" operator="arithmetic" k2="-1" k3="1" result="shadowInnerInner2"></feComposite>
            <feColorMatrix values="0 0 0 0 0.730608702   0 0 0 0 0.759654224   0 0 0 0 0.779017866  0 0 0 1 0" type="matrix" in="shadowInnerInner2" result="shadowMatrixInner2"></feColorMatrix>
            <feMerge>
                <feMergeNode in="shadowMatrixInner1"></feMergeNode>
                <feMergeNode in="shadowMatrixInner2"></feMergeNode>
            </feMerge>
        </filter>
        <circle id="path-9" cx="98" cy="98" r="98"></circle>
    </defs>
    <g id="Page-1" stroke="none" stroke-width="1" fill="none" fill-rule="evenodd">
        <g id="Group-3" transform="translate(3.000000, 1.000000)">
            <g id="Combined-Shape">
                <use fill-opacity="0" fill="#EFF0F1" fill-rule="evenodd" xlink:href="#path-1"></use>
                <use fill="black" fill-opacity="1" filter="url(#filter-2)" xlink:href="#path-1"></use>
            </g>
            <g id="Combined-Shape">
                <use fill-opacity="0" fill="#EFF0F1" fill-rule="evenodd" xlink:href="#path-3"></use>
                <use fill="black" fill-opacity="1" filter="url(#filter-4)" xlink:href="#path-3"></use>
            </g>
            <g id="Combined-Shape">
                <use fill-opacity="0" fill="#EFF0F1" fill-rule="evenodd" xlink:href="#path-5"></use>
                <use fill="black" fill-opacity="1" filter="url(#filter-6)" xlink:href="#path-5"></use>
            </g>
            <g id="Combined-Shape">
                <use fill-opacity="0" fill="#EFF0F1" fill-rule="evenodd" xlink:href="#path-7"></use>
                <use fill="black" fill-opacity="1" filter="url(#filter-8)" xlink:href="#path-7"></use>
            </g>
            <g id="Group" transform="translate(0.000000, 10.000000)">
                <mask id="mask-10" fill="white">
                    <use xlink:href="#path-9"></use>
                </mask>
                <use id="Oval-Copy-5" fill-opacity="0" fill="#92A0C4" xlink:href="#path-9"></use>
                <path d="M61,234 L86,114 M112,114 L137,234" id="Rectangle-14" stroke="#92A0C4" stroke-width="2" stroke-linecap="round" stroke-dasharray="4" mask="url(#mask-10)"></path>
                <path d="M110,151 L117,198" id="Rectangle-2" stroke="#92A0C4" stroke-width="2" stroke-linecap="round" stroke-dasharray="4" mask="url(#mask-10)"></path>
                <polyline id="Rectangle-2-Copy" stroke="#92A0C4" stroke-width="2" stroke-linecap="round" stroke-dasharray="4" mask="url(#mask-10)" points="78 224 91 141 91 141"></polyline>
                <path d="M100,208 L100,179" id="Rectangle-6" stroke="#92A0C4" stroke-width="2" stroke-linecap="round" stroke-dasharray="4" mask="url(#mask-10)"></path>
            </g>
            <g id="Group-4" transform="translate(68.000000, 0.000000)">
                <path d="M30.0002174,95 C35.2721907,95.2894686 39.2934884,99.4862635 38.9831836,104.375 C38.9831836,110.322917 32.9548478,120 30.0002174,120 C27.0455869,120 21.0168019,110.322917 21.0168019,104.375 C20.7066287,99.4861509 24.7281235,95.2893603 30.0002174,95 L30.0002174,95 Z" id="Path" stroke="#BBC2C7" stroke-width="2.38095238" fill="#FFFFFF"></path>
                <path d="M33.4087326,18.251045 C32.4618616,17.3231559 31.3256181,16.8592124 30,16.8592124 C28.6743819,16.8592124 27.5381384,17.3231559 26.5912674,18.251045 C25.6443964,19.1789341 25.170962,20.2923993 25.170962,21.5914427 C25.170962,22.8904862 25.6443964,24.0039514 26.5912674,24.9318405 C27.5381363,25.8597275 28.6743819,26.3236731 30,26.3236731 C31.3256181,26.3236731 32.4618616,25.8597296 33.4087326,24.9318405 C34.3556036,24.0039514 34.829038,22.8904862 34.829038,21.5914427 C34.829038,20.2923993 34.3556015,19.178932 33.4087326,18.251045 Z M31.1362435,0.435591059 C37.03051,6.21169528 41.2322465,12.0805886 43.7414507,18.042269 C46.250657,24.0039514 47.5170974,31.1254926 47.5407676,39.4068967 C47.5170952,43.1416466 47.2922153,47.444727 46.8661213,52.31614 L59.6133605,66.1996658 C59.9447671,66.6172158 60.0631247,67.1043571 59.9684374,67.6610897 L54.2872157,88.8169414 C54.2162007,89.0721109 54.0741708,89.3040806 53.8611239,89.5128566 C53.577064,89.7912219 53.1983169,89.9536023 52.7248825,89.9999979 L48.1799043,89.9999979 C47.5407676,89.9768001 47.0673332,89.6984349 46.7595989,89.1649 L39.9776433,76.6036113 L20.0223546,76.6036134 L13.240399,89.164898 C13.1930564,89.2576871 13.098367,89.373674 12.9563371,89.5128566 C12.6249326,89.8376175 12.2461854,89.9999979 11.8200936,90 L7.27511753,89.9999979 C6.42293386,89.9536023 5.90215683,89.5592522 5.71278221,88.8169393 L0.0315626493,67.6610897 C-0.0631246615,67.1043571 0.0552328863,66.6172158 0.386637414,66.1996679 L13.1338745,52.31614 C12.7077848,47.444727 12.4829027,43.1416445 12.4592303,39.4068946 C12.4829027,30.7079447 13.6664909,23.5632057 16.0099949,17.9726777 C18.3534968,12.3821517 22.6144131,6.55965394 28.7927395,0.505184454 C29.124144,0.180423591 29.5206459,0.0122421512 29.9822452,0.000644291235 C30.4438445,-0.0109535687 30.8285113,0.134027994 31.1362435,0.435591059 Z" id="Shape" stroke="#2D4587" stroke-width="2" fill="#92A0C4" fill-rule="nonzero"></path>
            </g>
        </g>
    </g>
</svg>