<?xml version="1.0" encoding="UTF-8"?>
<svg width="228px" height="208px" viewBox="0 0 228 208" version="1.1" xmlns="http://www.w3.org/2000/svg" xmlns:xlink="http://www.w3.org/1999/xlink">
    <!-- Generator: Sketch 42 (36781) - http://www.bohemiancoding.com/sketch -->
    <title>Group 2</title>
    <desc>Created with Sketch.</desc>
    <defs></defs>
    <g id="Page-1" stroke="none" stroke-width="1" fill="none" fill-rule="evenodd">
        <g id="Group-2" transform="translate(13.000000, 4.000000)">
            <g id="Group-8" transform="translate(1.000000, 0.000000)">
                <circle id="Oval-Copy-2" stroke="#7696C2" stroke-width="2" fill-opacity="0.1" fill="#B5D8EB" cx="100" cy="100" r="100"></circle>
                <rect id="Rectangle-2-Copy-17" fill="#E5EAED" x="35" y="168" width="130" height="6" rx="2"></rect>
            </g>
            <path d="M21,124.992017 C21,123.891856 21.8995645,123 23.0029144,123 L148.997086,123 C150.103265,123 151,123.900176 151,124.992017 L151,132.007983 C151,133.108144 150.100436,134 148.997086,134 L23.0029144,134 C21.8967353,134 21,133.099824 21,132.007983 L21,124.992017 Z" id="Rectangle-2-Copy-16" fill="#FFFFFF"></path>
            <path d="M51,124.992017 C51,123.891856 51.8995645,123 53.0029144,123 L178.997086,123 C180.103265,123 181,123.900176 181,124.992017 L181,132.007983 C181,133.108144 180.100436,134 178.997086,134 L53.0029144,134 C51.8967353,134 51,133.099824 51,132.007983 L51,124.992017 Z" id="Rectangle-2-Copy-11" fill="#FFFFFF"></path>
            <rect id="Rectangle-2-Copy-15" fill="#E5EAED" x="36" y="130" width="63" height="16" rx="2"></rect>
            <rect id="Rectangle-2-Copy-14" fill="#E5EAED" x="103" y="130" width="63" height="16" rx="2"></rect>
            <rect id="Rectangle-Copy-2" stroke="#BBC2C7" stroke-width="2" fill="#FFFFFF" x="0" y="34" width="142" height="86" rx="4"></rect>
            <g id="Group-7" transform="translate(6.000000, 40.000000)" fill="#BBC2C7">
                <circle id="Oval" cx="2" cy="2" r="2"></circle>
                <rect id="Rectangle-2" x="0" y="10" width="14" height="14" rx="2"></rect>
                <rect id="Rectangle-2-Copy-3" x="0" y="28" width="17" height="9" rx="2"></rect>
                <rect id="Rectangle-2-Copy-8" x="0" y="65" width="41" height="14" rx="2"></rect>
            </g>
            <rect id="Rectangle-Copy-4" stroke="#BBC2C7" stroke-width="2" fill="#FFFFFF" x="60" y="34" width="142" height="86" rx="4"></rect>
            <rect id="Rectangle-2-Copy-9" fill="#BBC2C7" x="155" y="105" width="41" height="14" rx="2"></rect>
            <rect id="Rectangle-Copy" stroke="#BBC2C7" stroke-width="2" fill="#FFFFFF" x="15" y="27" width="142" height="100" rx="4"></rect>
            <g id="Group-7" transform="translate(21.000000, 33.000000)" fill="#BBC2C7">
                <circle id="Oval" cx="2" cy="2" r="2"></circle>
                <rect id="Rectangle-2" x="0" y="10" width="14" height="14" rx="2"></rect>
                <rect id="Rectangle-2-Copy-3" x="0" y="28" width="17" height="9" rx="2"></rect>
                <rect id="Rectangle-2-Copy-8" x="0" y="65" width="41" height="14" rx="2"></rect>
                <path d="M0,85.992017 C0,84.8918564 0.899564475,84 2.00291437,84 L127.997086,84 C129.103265,84 130,84.9001762 130,85.992017 L130,93.007983 C130,94.1081436 129.100436,95 127.997086,95 L2.00291437,95 C0.896735307,95 0,94.0998238 0,93.007983 L0,85.992017 Z" id="Rectangle-2-Copy-11"></path>
            </g>
            <rect id="Rectangle-Copy-3" stroke="#BBC2C7" stroke-width="2" fill="#FFFFFF" x="45" y="27" width="142" height="100" rx="4"></rect>
            <rect id="Rectangle-2-Copy-9" fill="#BBC2C7" x="140" y="98" width="41" height="14" rx="2"></rect>
            <path d="M51,118.992017 C51,117.891856 51.8995645,117 53.0029144,117 L178.997086,117 C180.103265,117 181,117.900176 181,118.992017 L181,126.007983 C181,127.108144 180.100436,128 178.997086,128 L53.0029144,128 C51.8967353,128 51,127.099824 51,126.007983 L51,118.992017 Z" id="Rectangle-2-Copy-11" fill="#BBC2C7"></path>
            <rect id="Rectangle" stroke="#7696C2" stroke-width="2" fill="#B5D8EB" x="30" y="20" width="142" height="114" rx="4"></rect>
            <circle id="Oval" fill="#7696C2" cx="38" cy="28" r="2"></circle>
            <circle id="Oval-Copy-3" fill="#7696C2" cx="44" cy="28" r="2"></circle>
            <circle id="Oval-Copy-4" fill="#7696C2" cx="50" cy="28" r="2"></circle>
            <rect id="Rectangle-2" fill="#7696C2" x="36" y="36" width="14" height="14" rx="2"></rect>
            <rect id="Rectangle-2-Copy" fill="#7696C2" x="54" y="36" width="45" height="7" rx="2"></rect>
            <rect id="Rectangle-2-Copy-2" fill="#7696C2" x="54" y="46" width="28" height="4" rx="2"></rect>
            <rect id="Rectangle-2-Copy-3" fill="#7696C2" x="36" y="54" width="17" height="9" rx="2"></rect>
            <rect id="Rectangle-2-Copy-4" fill="#7696C2" x="57" y="54" width="17" height="9" rx="2"></rect>
            <rect id="Rectangle-2-Copy-5" fill="#7696C2" x="78" y="54" width="17" height="9" rx="2"></rect>
            <rect id="Rectangle-2-Copy-6" fill="#7696C2" x="99" y="54" width="17" height="9" rx="2"></rect>
            <rect id="Rectangle-2-Copy-7" fill="#7696C2" x="70" y="73" width="62" height="14" rx="2"></rect>
            <rect id="Rectangle-2-Copy-8" fill="#7696C2" x="36" y="91" width="41" height="14" rx="2"></rect>
            <rect id="Rectangle-2-Copy-10" fill="#7696C2" x="81" y="91" width="40" height="14" rx="2"></rect>
            <rect id="Rectangle-2-Copy-9" fill="#7696C2" x="125" y="91" width="41" height="14" rx="2"></rect>
            <rect id="Rectangle-2-Copy-11" fill="#7696C2" x="36" y="110" width="130" height="16" rx="2"></rect>
            <path d="M36,132.004882 C36,130.897616 36.8905878,130 38.0071078,130 L96.9928922,130 C98.1013872,130 99,130.8939 99,132.004882 L99,135 L36,135 L36,132.004882 Z" id="Rectangle-2-Copy-12" fill="#7696C2"></path>
            <path d="M103,132.004882 C103,130.897616 103.890588,130 105.007108,130 L163.992892,130 C165.101387,130 166,130.8939 166,132.004882 L166,135 L103,135 L103,132.004882 Z" id="Rectangle-2-Copy-13" fill="#7696C2"></path>
            <rect id="Rectangle-2-Copy-8" fill="#E5EAED" x="36" y="150" width="41" height="14" rx="2"></rect>
            <rect id="Rectangle-2-Copy-10" fill="#E5EAED" x="81" y="150" width="40" height="14" rx="2"></rect>
            <rect id="Rectangle-2-Copy-9" fill="#E5EAED" x="125" y="150" width="41" height="14" rx="2"></rect>
        </g>
    </g>
</svg>