<?xml version="1.0" encoding="UTF-8"?>
<svg width="202px" height="221px" viewBox="0 0 202 221" version="1.1" xmlns="http://www.w3.org/2000/svg" xmlns:xlink="http://www.w3.org/1999/xlink">
    <!-- Generator: Sketch 42 (36781) - http://www.bohemiancoding.com/sketch -->
    <title>Group 2</title>
    <desc>Created with Sketch.</desc>
    <defs></defs>
    <g id="Page-1" stroke="none" stroke-width="1" fill="none" fill-rule="evenodd">
        <g id="Group-2" transform="translate(1.000000, 0.000000)">
            <path d="M31,89 L31,119.005137 C31,130.047995 39.9498074,139 51.0039875,139 L79.9960125,139 C91.0439097,139 100,147.958883 100,155 L100,155" id="Path-2" stroke="#7EB9C4" stroke-width="2" stroke-linecap="round" stroke-linejoin="round" stroke-dasharray="4"></path>
            <path d="M100,123 L100,148" id="Path-2-Copy-2" stroke="#7EB9C4" stroke-width="2" stroke-linecap="round" stroke-linejoin="round" stroke-dasharray="4"></path>
            <path d="M169,89 L169,119.005137 C169,130.047995 160.050193,139 148.996012,139 L120.003988,139 C108.95609,139 100,147.958883 100,155 L100,155" id="Path-2-Copy" stroke="#7EB9C4" stroke-width="2" stroke-linecap="round" stroke-linejoin="round" stroke-dasharray="4"></path>
            <g id="Group-9" transform="translate(29.000000, 155.000000)">
                <rect id="Rectangle" stroke="#BBC2C7" stroke-width="2" fill="#FFFFFF" x="0" y="0" width="142" height="65" rx="4"></rect>
                <circle id="Oval" fill="#BBC2C7" cx="8" cy="8" r="2"></circle>
                <circle id="Oval-Copy-3" fill="#BBC2C7" cx="14" cy="8" r="2"></circle>
                <circle id="Oval-Copy-4" fill="#BBC2C7" cx="20" cy="8" r="2"></circle>
                <rect id="Rectangle-2" fill="#BBC2C7" x="6" y="16" width="14" height="14" rx="2"></rect>
                <rect id="Rectangle-2-Copy" fill="#BBC2C7" x="24" y="16" width="45" height="7" rx="2"></rect>
                <rect id="Rectangle-2-Copy-2" fill="#BBC2C7" x="24" y="26" width="28" height="4" rx="2"></rect>
                <rect id="Rectangle-2-Copy-3" fill="#BBC2C7" x="6" y="34" width="17" height="9" rx="2"></rect>
                <rect id="Rectangle-2-Copy-4" fill="#BBC2C7" x="27" y="34" width="17" height="9" rx="2"></rect>
                <rect id="Rectangle-2-Copy-5" fill="#BBC2C7" x="48" y="34" width="17" height="9" rx="2"></rect>
                <rect id="Rectangle-2-Copy-6" fill="#BBC2C7" x="69" y="34" width="17" height="9" rx="2"></rect>
                <path d="M40,55.0085302 C40,53.8992496 40.900351,53 41.9926302,53 L100.00737,53 C101.107869,53 102,53.9019504 102,55.0085302 L102,65 L40,65 L40,55.0085302 Z" id="Rectangle-2-Copy-7" fill="#BBC2C7"></path>
            </g>
            <g id="Group" transform="translate(0.000000, 20.000000)">
                <path d="M52.6470849,58.9888245 C49.2433955,58.0047098 43.5567858,56.3568129 42.6739647,55.4981893 C42.0290914,54.8674312 39.1810319,52.5689618 38.8465255,49.9072286 C35.6256077,52.2519316 34.494075,53.5596814 30.9903785,53.5596814 C27.379778,53.5596814 26.1309956,52.1858836 22.8411074,49.7586207 C22.3514176,52.3543059 19.3550717,54.8344072 18.5653606,55.5906565 C17.6652968,56.4525825 12.46148,57.9915002 9.35781186,58.9095669 C2.93666741,60.8084461 1.06412098,61.4193898 0.619261889,62.9087715 C0.595122248,62.9979363 -1.33604902,72.0762298 1.74692797,73.2551861 C4.42987662,74.2855344 59.2544494,74.3515824 60.889048,72.7862455 C62.440882,71.3001661 62.2029341,63.6617184 61.1787236,62.2978278 C60.4545344,61.3335275 58.8130388,60.7721197 52.6470849,58.9888245 Z" id="Fill-311" stroke="#7EB9C4" stroke-width="2" fill="#B6E4ED"></path>
                <g id="Group-20" transform="translate(9.041667, 0.000000)">
                    <path d="M38.4784368,34.9455842 C38.2870664,35.059562 37.8236273,35.0572824 37.4039959,34.9888958 L36.481729,34.8270473 L36.1358789,35.6864397 C36.0620976,35.8254926 35.9122292,36.110437 35.9237575,36.4934023 C36.1105166,41.4833491 30.4639376,47.6791807 26.7241453,50.5400227 C25.6035911,51.7322302 23.8558953,52.4160968 21.9214405,52.4160968 C20.0238764,52.4160968 18.273875,51.7299506 17.0749281,50.4328836 C13.0054254,47.3987954 8.20041494,41.9164646 8.05976924,36.438693 C8.04824091,36.1035984 7.91912354,35.8482882 7.83611952,35.6841602 L7.4856581,34.8088109 L6.55186288,34.9843367 C6.11839745,35.0618415 5.63420733,35.0618415 5.43822562,34.9433047 C4.59896275,34.423566 3.08183372,30.2884525 3.05416572,27.9359514 C3.03572038,26.3721764 3.43460081,25.9527382 3.49915949,25.9413404 C5.18460222,25.9413404 5.30680259,25.9071471 5.44053128,25.8706742 L6.30746216,25.6336004 L6.28440549,24.7445738 C6.28209982,24.6921441 6.22906947,24.3866836 6.14145412,23.9649659 C6.43657952,21.7971087 7.87762153,15.8565873 11.0225516,13.991911 C12.8647797,12.900004 13.7778239,12.5763071 14.1951497,12.4828453 C14.1605647,12.8726493 14.0222247,13.4812906 13.929998,13.8847719 C13.6141216,15.2616234 13.2567431,16.8208393 14.3242671,17.693909 C15.30187,18.4963125 16.6991043,18.0517992 17.8081302,17.5730925 C23.5630756,15.0952158 25.5205871,15.2912576 27.9899567,15.5328905 C29.0989826,15.6445887 30.3555712,15.7722438 32.0179573,15.6719433 C33.1915419,15.6103954 34.2498431,15.9386513 35.1052457,16.7000228 C37.5976719,18.9203098 37.860518,23.8441494 37.8628237,23.8942997 L37.8789633,23.9581272 C37.736012,24.461909 37.7060383,24.5941232 37.701427,24.7605307 L37.6783703,25.6723529 L38.5752748,25.8911902 C38.7320602,25.9322222 38.8104529,25.9322222 40.4105859,25.9413404 C40.4843673,25.9527382 40.8809421,26.3767355 40.8624967,27.9359514 C40.8371344,30.2884525 39.3200053,34.423566 38.4784368,34.9455842 L38.4784368,34.9455842 Z" id="Fill-917" fill="#D6DCDE"></path>
                    <path d="M42.1029457,24.3752859 C42.8384535,25.1093027 43.1866093,26.2832737 43.1681639,27.9610265 C43.1451073,30.2952912 41.6625632,35.6659237 39.7004404,36.8763676 C39.2854203,37.1339574 38.7850906,37.2821285 38.2155908,37.3163218 C37.8351557,42.9787374 32.1816596,49.2497943 28.2689424,52.220055 C26.857874,53.7450776 24.4922595,54.6956522 21.9214405,54.6956522 C19.3413989,54.6956522 17.0080637,53.7496367 15.5209084,52.1037977 C14.1144513,51.0825569 6.50344387,45.0326168 5.80021537,37.3208809 C5.18921356,37.2980854 4.65429876,37.1476347 4.21391633,36.8740881 C2.25871053,35.6682033 0.773860841,30.2975708 0.748498502,27.9610265 C0.730053164,26.2832737 1.08051458,25.1115822 1.81371676,24.3775654 C2.4362469,23.7552468 3.13716974,23.661785 3.49915949,23.661785 L3.72280921,23.6595055 C2.95271636,20.0669262 2.16417817,15.8360713 2.46852624,13.622623 C3.01266371,9.60376688 4.89639382,7.56584436 6.8884903,5.4071054 C10.1072017,1.92622431 15.350289,0.00911822158 21.6539831,0.00911822158 L22.4840233,0.0136773324 L24.2916664,4.54747351e-13 C26.3483216,4.54747351e-13 30.4939112,4.54747351e-13 32.130935,3.47404242 C40.7011,4.21261837 41.2890451,10.0254846 41.5772536,12.858972 C41.6210612,13.3057648 41.6602576,13.7024075 41.7248163,14.0215452 C42.1928667,16.2965415 41.2821281,20.2698066 40.3529443,23.661785 L40.4198086,23.661785 C40.7817984,23.661785 41.4827212,23.7529672 42.1029457,24.3752859 Z M38.4784368,34.9455842 C39.3200053,34.423566 40.8371344,30.2884525 40.8624967,27.9359514 C40.8809421,26.3767355 40.4843673,25.9527382 40.4105859,25.9413404 C38.8104529,25.9322222 38.7320602,25.9322222 38.5752748,25.8911902 L37.6783703,25.6723529 L37.701427,24.7605307 C37.7060383,24.5941232 37.736012,24.461909 37.8789633,23.9581272 L37.8628237,23.8942997 C37.860518,23.8441494 37.5976719,18.9203098 35.1052457,16.7000228 C34.2498431,15.9386513 33.1915419,15.6103954 32.0179573,15.6719433 C30.3555712,15.7722438 29.0989826,15.6445887 27.9899567,15.5328905 C25.5205871,15.2912576 23.5630756,15.0952158 17.8081302,17.5730925 C16.6991043,18.0517992 15.30187,18.4963125 14.3242671,17.693909 C13.2567431,16.8208393 13.6141216,15.2616234 13.929998,13.8847719 C14.0222247,13.4812906 14.1605647,12.8726493 14.1951497,12.4828453 C13.7778239,12.5763071 12.8647797,12.900004 11.0225516,13.991911 C7.87762153,15.8565873 6.43657952,21.7971087 6.14145412,23.9649659 C6.22906947,24.3866836 6.28209982,24.6921441 6.28440549,24.7445738 L6.30746216,25.6336004 L5.44053128,25.8706742 C5.30680259,25.9071471 5.18460222,25.9413404 3.49915949,25.9413404 C3.43460081,25.9527382 3.03572038,26.3721764 3.05416572,27.9359514 C3.08183372,30.2884525 4.59896275,34.423566 5.43822562,34.9433047 C5.63420733,35.0618415 6.11839745,35.0618415 6.55186288,34.9843367 L7.4856581,34.8088109 L7.83611952,35.6841602 C7.91912354,35.8482882 8.04824091,36.1035984 8.05976924,36.438693 C8.20041494,41.9164646 13.0054254,47.3987954 17.0749281,50.4328836 C18.273875,51.7299506 20.0238764,52.4160968 21.9214405,52.4160968 C23.8558953,52.4160968 25.6035911,51.7322302 26.7241453,50.5400227 C30.4639376,47.6791807 36.1105166,41.4833491 35.9237575,36.4934023 C35.9122292,36.110437 36.0620976,35.8254926 36.1358789,35.6864397 L36.481729,34.8270473 L37.4039959,34.9888958 C37.8236273,35.0572824 38.2870664,35.059562 38.4784368,34.9455842 Z M33.5535316,23.9034179 C34.1898958,23.9398908 34.6740859,24.4778658 34.6371952,25.1070231 C34.6026102,25.7133849 34.0953634,26.1806937 33.4866673,26.1806937 L33.4221086,26.1784142 L30.7959537,26.0302431 C31.1095244,26.420047 31.3239514,26.891915 31.3239514,27.4276105 C31.3239514,28.6859251 30.2910125,29.7071659 29.0182842,29.7071659 C27.7455559,29.7071659 26.712617,28.6859251 26.712617,27.4276105 C26.712617,26.8075715 26.9685461,26.2468008 27.3743435,25.8364809 L26.505107,25.7863306 C25.8664371,25.7521373 25.382247,25.2118827 25.4191377,24.5850049 C25.4560284,23.9581272 25.9655808,23.4885388 26.63653,23.5113344 L33.5535316,23.9034179 Z M19.652664,38.7547213 C19.0162998,38.7547213 18.4998304,38.2441009 18.4998304,37.6149436 C18.4998304,36.9857863 19.0162998,36.4751659 19.652664,36.4751659 L24.2639984,36.4751659 C24.9003626,36.4751659 25.416832,36.9857863 25.416832,37.6149436 C25.416832,38.2441009 24.9003626,38.7547213 24.2639984,38.7547213 L19.652664,38.7547213 Z M26.0163055,43.452885 C26.574277,43.1519836 27.2728941,43.3548641 27.5772422,43.9065165 C27.883896,44.4558893 27.6809972,45.1488742 27.1253314,45.452055 C27.0307991,45.5044848 24.7458829,46.7331652 21.9583312,46.7331652 C19.1707796,46.7331652 16.8858633,45.5044848 16.791331,45.452055 C16.2356652,45.1488742 16.0327665,44.4558893 16.3371145,43.9065165 C16.6437683,43.3548641 17.3423855,43.1519836 17.9003569,43.452885 C17.9188023,43.4642827 19.784087,44.4536098 21.9583312,44.4536098 C24.1325754,44.4536098 25.9978602,43.4642827 26.0163055,43.452885 Z M17.4899482,27.4276105 C17.4899482,28.6859251 16.4570092,29.7071659 15.1842809,29.7071659 C13.9115526,29.7071659 12.8786137,28.6859251 12.8786137,27.4276105 C12.8786137,26.8827968 13.0999578,26.4040902 13.4181398,26.0142862 L10.4945538,26.1784142 L10.4299951,26.1806937 C9.82129899,26.1806937 9.31174654,25.7133849 9.2794672,25.1070231 C9.24257652,24.4778658 9.72676664,23.9398908 10.3654365,23.9034179 L17.2824381,23.5113344 C18.0087233,23.4885388 18.4629397,23.9581272 18.4975247,24.5850049 C18.5344154,25.2118827 18.0502253,25.7521373 17.4115555,25.7863306 L16.8166933,25.820524 C17.2317134,26.2331235 17.4899482,26.8007328 17.4899482,27.4276105 Z" id="Combined-Shape" fill="#7EB9C4"></path>
                </g>
            </g>
            <g id="Group-Copy" transform="translate(138.000000, 20.000000)">
                <path d="M52.6470849,58.780713 C49.2433955,57.7829547 43.5567858,56.1122118 42.6739647,55.2416844 C42.0290914,54.6021816 39.1810319,52.2718468 38.8465255,49.5732119 C35.6256077,51.9504213 34.494075,53.2763014 30.9903785,53.2763014 C27.379778,53.2763014 26.1309956,51.8834576 22.8411074,49.4225437 C22.3514176,52.0542149 19.3550717,54.5686998 18.5653606,55.3354335 C17.6652968,56.209309 12.46148,57.769562 9.35781186,58.7003566 C2.93666741,60.6255614 1.06412098,61.2449751 0.619261889,62.7550053 C0.595122248,62.8454062 -1.33604902,72.0495591 1.74692797,73.2448601 C4.42987662,74.289493 59.2544494,74.3564566 60.889048,72.7694183 C62.440882,71.2627363 62.2029341,63.5183908 61.1787236,62.1355916 C60.4545344,61.1579223 58.8130388,60.5887314 52.6470849,58.780713 Z" id="Fill-311" stroke="#7EB9C4" stroke-width="2" fill="#B6E4ED"></path>
                <g id="Group" transform="translate(9.393939, 0.000000)">
                    <path d="M37.9038533,34.6212183 C37.7196332,34.7362614 37.2579458,34.7385172 36.8440191,34.6663332 L35.9320159,34.5039194 L35.5908676,35.3565921 C35.5180893,35.4941927 35.3702584,35.7761612 35.38163,36.1551268 C35.5658501,41.0929589 29.9960351,47.2240816 26.3070845,50.0550452 C25.201764,51.2348013 23.4778278,51.9115257 21.5696715,51.9115257 C19.6979043,51.9115257 17.9716938,51.2325456 16.7890463,49.9512808 C12.7748676,46.9488804 8.03518022,41.521551 7.89644657,36.1009889 C7.88507496,35.7671382 7.75771292,35.5167502 7.67583732,35.3543363 L7.33014035,34.4903849 L6.40903987,34.6618218 C5.9814673,34.7407729 5.499311,34.7385172 5.31054226,34.623474 C4.482689,34.1069078 2.98618501,30.0149811 2.95889314,27.6870493 C2.94069856,26.1396063 3.3341563,25.7245487 3.39783732,25.71327 C5.05126954,25.71327 5.17635726,25.6794337 5.29917065,25.6478533 L6.16796172,25.4200227 L6.1452185,24.5290023 C6.14294418,24.4726086 6.11110367,24.2019189 6.04059968,23.7755825 C5.79952153,22.2349067 5.06036683,17.5474627 5.36740032,15.2736688 C5.83818501,11.8178631 6.37947368,9.82378197 8.1966571,7.85225833 C11.3488676,4.43254456 16.4297033,2.30763007 21.460504,2.30763007 L21.722051,2.30988582 C22.6567974,2.3234203 30.9921882,2.60538879 35.0063668,8.27859468 C36.9531866,11.0148168 37.4558118,12.9164123 37.9061276,15.1157665 C38.2199841,16.6361405 37.9971005,19.5595898 37.2465742,23.8049073 C37.1737959,24.2222206 37.1374067,24.4861431 37.1351324,24.5447926 L37.1123892,25.4470917 L37.9971005,25.6636435 C38.1540287,25.704247 38.2745678,25.7155257 39.8074609,25.71327 C39.8802392,25.7245487 40.2714226,26.1441178 40.2532281,27.6870493 C40.2282105,30.0149811 38.7317065,34.1069078 37.9038533,34.6212183 L37.9038533,34.6212183 Z" id="Fill-276-Copy" fill="#F2EADD"></path>
                    <path d="M41.4768134,24.1635712 C42.2023222,24.8921777 42.5457448,26.0516321 42.5275502,27.7118626 C42.504807,30.0217484 41.0424179,35.3362904 39.1069697,36.5340925 C38.6953174,36.7912477 38.2017895,36.9356156 37.6423062,36.9694518 C37.2670431,42.5727295 31.6904051,48.7782919 27.8308804,51.7175314 C26.4389952,53.2266267 24.1055407,54.1672736 21.5696715,54.1672736 C19.0247049,54.1672736 16.7230909,53.2311382 15.2561531,51.6024882 C13.8688166,50.5919132 6.36127911,44.6051584 5.66761085,36.9739633 C5.06718979,36.9514058 4.53954705,36.8047822 4.10515152,36.5340925 C2.17425199,35.3385461 0.709588517,30.0240041 0.684570973,27.7118626 C0.666376396,26.0516321 1.01207337,24.8921777 1.73530781,24.1658269 C2.3493748,23.5500077 3.04076874,23.4575221 3.39783732,23.4575221 L3.69122488,23.4552663 C3.36599681,21.3416306 2.79969059,17.2925632 3.11582137,14.9736544 C3.63664115,11.1253485 4.30529187,8.732 6.51820734,6.32962852 C10.0843445,2.45876518 15.8088134,0.051882201 21.460504,0.051882201 L21.7538915,0.0541379489 C22.8114514,0.0699281839 32.2044019,0.394755877 36.864488,6.98153965 C39.0637576,10.065147 39.6459841,12.2870586 40.1372376,14.6646169 C40.5943764,16.8978073 40.0985742,20.6017453 39.6141435,23.4575221 L39.8165582,23.4575221 C40.1736268,23.4575221 40.8650207,23.547752 41.4768134,24.1635712 Z M37.9038533,34.6212183 C38.7317065,34.1069078 40.2282105,30.0149811 40.2532281,27.6870493 C40.2714226,26.1441178 39.8802392,25.7245487 39.8074609,25.71327 C38.2745678,25.7155257 38.1540287,25.704247 37.9971005,25.6636435 L37.1123892,25.4470917 L37.1351324,24.5447926 C37.1374067,24.4861431 37.1737959,24.2222206 37.2465742,23.8049073 C37.9971005,19.5595898 38.2199841,16.6361405 37.9061276,15.1157665 C37.4558118,12.9164123 36.9531866,11.0148168 35.0063668,8.27859468 C30.9921882,2.60538879 22.6567974,2.3234203 21.722051,2.30988582 L21.460504,2.30763007 C16.4297033,2.30763007 11.3488676,4.43254456 8.1966571,7.85225833 C6.37947368,9.82378197 5.83818501,11.8178631 5.36740032,15.2736688 C5.06036683,17.5474627 5.79952153,22.2349067 6.04059968,23.7755825 C6.11110367,24.2019189 6.14294418,24.4726086 6.1452185,24.5290023 L6.16796172,25.4200227 L5.29917065,25.6478533 C5.17635726,25.6794337 5.05126954,25.71327 3.39783732,25.71327 C3.3341563,25.7245487 2.94069856,26.1396063 2.95889314,27.6870493 C2.98618501,30.0149811 4.482689,34.1069078 5.31054226,34.623474 C5.499311,34.7385172 5.9814673,34.7407729 6.40903987,34.6618218 L7.33014035,34.4903849 L7.67583732,35.3543363 C7.75771292,35.5167502 7.88507496,35.7671382 7.89644657,36.1009889 C8.03518022,41.521551 12.7748676,46.9488804 16.7890463,49.9512808 C17.9716938,51.2325456 19.6979043,51.9115257 21.5696715,51.9115257 C23.4778278,51.9115257 25.201764,51.2348013 26.3070845,50.0550452 C29.9960351,47.2240816 35.5658501,41.0929589 35.38163,36.1551268 C35.3702584,35.7761612 35.5180893,35.4941927 35.5908676,35.3565921 L35.9320159,34.5039194 L36.8440191,34.6663332 C37.2579458,34.7385172 37.7196332,34.7362614 37.9038533,34.6212183 Z M17.1984242,24.9282697 C17.1984242,26.1734425 16.1795279,27.1840176 14.9241021,27.1840176 C13.6686762,27.1840176 12.6497799,26.1734425 12.6497799,24.9282697 C12.6497799,24.3914017 12.8681148,23.9176947 13.1819713,23.529706 L10.2981308,23.6921199 L10.2344498,23.6943756 C9.63402871,23.6943756 9.13367783,23.2319473 9.099563,22.6319184 C9.06317384,22.009332 9.5407815,21.4769755 10.1707687,21.4408835 L16.9937352,21.0528949 C17.6919522,21.0258259 18.1581882,21.4950214 18.192303,22.1153521 C18.2286922,22.7379385 17.7510845,23.270295 17.1210973,23.3041312 L16.5365965,23.3379675 C16.9459745,23.7462578 17.1984242,24.307939 17.1984242,24.9282697 Z M25.6088676,40.7861772 C26.1592536,40.4906742 26.8506475,40.6891801 27.1485837,41.235071 C27.4510686,41.7787063 27.2509282,42.4644536 26.7028166,42.7644681 C26.6095694,42.8163503 24.3557161,44.0321984 21.6060606,44.0321984 C18.8564051,44.0321984 16.6025518,42.8163503 16.5093046,42.7644681 C15.961193,42.4644536 15.7610526,41.7787063 16.0612632,41.235071 C16.363748,40.6891801 17.0528676,40.4906742 17.6032536,40.7861772 C17.6214482,40.797456 19.4613748,41.7764505 21.6060606,41.7764505 C23.7507464,41.7764505 25.590673,40.797456 25.6088676,40.7861772 Z M19.3317384,36.1370809 C18.7040255,36.1370809 18.1945774,35.6317933 18.1945774,35.0092069 C18.1945774,34.3866205 18.7040255,33.881333 19.3317384,33.881333 L23.8803828,33.881333 C24.5080957,33.881333 25.0175439,34.3866205 25.0175439,35.0092069 C25.0175439,35.6317933 24.5080957,36.1370809 23.8803828,36.1370809 L19.3317384,36.1370809 Z M33.0436268,21.4408835 C33.6713397,21.4769755 34.1489474,22.009332 34.1125582,22.6319184 C34.0784434,23.2319473 33.5780925,23.6943756 32.9776715,23.6943756 L32.9139904,23.6921199 L30.3212632,23.5454963 C30.6328453,23.9312291 30.8443573,24.3981689 30.8443573,24.9282697 C30.8443573,26.1734425 29.8254609,27.1840176 28.5700351,27.1840176 C27.3146093,27.1840176 26.2957129,26.1734425 26.2957129,24.9282697 C26.2957129,24.3147063 26.5458884,23.7597923 26.9484434,23.3537577 L26.0910239,23.3041312 C25.4610367,23.270295 24.983429,22.7379385 25.0198182,22.1153521 C25.0562073,21.4950214 25.5383636,21.0258259 26.2206603,21.0528949 L33.0436268,21.4408835 Z" id="Combined-Shape" fill="#7EB9C4"></path>
                </g>
            </g>
            <g id="Group" transform="translate(51.000000, 0.000000)">
                <path d="M83.21636,95.6575533 C77.8363349,94.0616915 68.8478228,91.3894263 67.4523958,89.9970637 C66.43308,88.9742127 61.9313085,85.2469651 61.4025725,80.930641 C56.3114444,84.732862 54.5228927,86.8535374 48.9847919,86.8535374 C43.2777136,86.8535374 41.3038318,84.6257572 36.1036859,80.6896552 C35.32966,84.8988745 30.5935004,88.9206603 29.3452474,90.1470105 C27.9225659,91.5447283 19.697178,94.0402705 14.79138,95.5290275 C4.64182913,98.608291 1.68199768,99.5990105 0.978833309,102.014224 C0.940677102,102.158816 -2.11181941,116.880373 2.76127324,118.792194 C7.00206304,120.463029 93.6602588,120.570134 96.243979,118.031749 C98.696878,115.621891 98.3207668,103.235219 96.7018535,101.023505 C95.5571673,99.4597742 92.9625453,98.5493833 83.21636,95.6575533 Z" id="Fill-311" stroke="#7EB9C4" stroke-width="3" fill="#B6E4ED"></path>
                <g transform="translate(10.208333, 0.000000)">
                    <path d="M38.7144917,85.2067241 C36.6087167,85.1844828 34.5948167,84.1576724 32.6286917,81.985431 C29.4461417,79.5648276 18.8915417,70.7498276 16.6902167,58.9693103 C16.4660417,57.6274138 15.4848167,50.0208621 16.1720417,45.9655172 C17.3406917,42.5292241 19.4317667,36.3980172 20.2476167,35.8123276 L20.8686917,35.8197414 C23.3346167,35.9606034 26.4877667,35.6306897 32.7242417,30.2186207 C33.4555667,29.5810345 33.8010167,29.3993966 33.8046917,29.3400862 C34.0141667,29.4661207 34.4588417,29.8887069 34.8189917,30.2297414 C37.3326917,32.5984483 42.0072917,37.0133621 56.9829167,39.2263793 C57.3761417,39.2856897 57.3908417,39.2893966 57.8943167,40.4459483 C58.5043667,41.8434483 59.4782417,43.9193103 62.0985167,46.2768966 C62.6350667,50.0134483 61.7530667,56.0668103 61.1724167,58.8951724 C58.9600667,70.1900862 49.1992667,78.7789655 44.8774667,82.1596552 C43.0215917,84.1725 41.0370917,85.1511207 38.7144917,85.2067241 L38.7144917,85.2067241 Z" id="Fill-953-Copy" fill="#F2EADD"></path>
                    <path d="M77.3130167,78.3934483 C77.4857417,79.2868103 76.9896167,80.1764655 76.1406917,80.4878448 C75.6482417,80.6694828 63.9690917,84.9175862 46.1894417,85.9406897 C44.0505917,87.7978448 41.4450167,88.9136207 38.7769667,88.9136207 L38.6777417,88.9136207 C36.1015667,88.8876724 33.6099167,87.8163793 31.4784167,85.9481034 C13.6399667,84.9398276 1.93509167,80.6731897 1.43896667,80.4878448 C0.582691667,80.1727586 0.0902416667,79.2719828 0.277666667,78.3712069 C0.318091667,78.1636207 4.57006667,57.3419828 4.26871667,38.9298276 C4.78321667,30.5522414 5.98494167,11.2689655 22.1292167,3.44741379 C23.7645917,2.65784483 25.5616667,2.6912069 27.3293417,2.69491379 C28.5237167,2.70974138 29.6592917,2.71715517 30.6000917,2.4725 C31.4857667,2.23896552 32.3052917,1.87939655 33.1284917,1.52353448 C34.7565167,0.826637931 36.5903417,0.0370689655 38.8725167,0.0370689655 C48.9603917,0.0370689655 57.1262417,3.21017241 63.1495667,9.47112069 C74.0238917,20.7734483 73.8438167,37.6806034 73.7850167,39.5748276 C73.1823167,56.9193966 77.2725917,78.1784483 77.3130167,78.3934483 Z M38.7144917,85.2067241 C41.0370917,85.1511207 43.0215917,84.1725 44.8774667,82.1596552 C49.1992667,78.7789655 58.9600667,70.1900862 61.1724167,58.8951724 C61.7530667,56.0668103 62.6350667,50.0134483 62.0985167,46.2768966 C59.4782417,43.9193103 58.5043667,41.8434483 57.8943167,40.4459483 C57.3908417,39.2893966 57.3761417,39.2856897 56.9829167,39.2263793 C42.0072917,37.0133621 37.3326917,32.5984483 34.8189917,30.2297414 C34.4588417,29.8887069 34.0141667,29.4661207 33.8046917,29.3400862 C33.8010167,29.3993966 33.4555667,29.5810345 32.7242417,30.2186207 C26.4877667,35.6306897 23.3346167,35.9606034 20.8686917,35.8197414 L20.2476167,35.8123276 C19.4317667,36.3980172 17.3406917,42.5292241 16.1720417,45.9655172 C15.4848167,50.0208621 16.4660417,57.6274138 16.6902167,58.9693103 C18.8915417,70.7498276 29.4461417,79.5648276 32.6286917,81.985431 C34.5948167,84.1576724 36.6087167,85.1844828 38.7144917,85.2067241 Z M46.9979417,71.4800862 C47.4830417,72.3734483 47.1596417,73.5003448 46.2739667,73.9896552 C46.1379917,74.0675 42.8635667,75.8616379 38.8725167,75.8616379 C34.8888167,75.8616379 31.6107167,74.0675 31.4747417,73.9896552 C30.5890667,73.5003448 30.2656667,72.3734483 30.7544417,71.4800862 C31.2321917,70.5830172 32.3530667,70.2568103 33.2424167,70.7424138 C33.2681417,70.7535345 35.8590167,72.1547414 38.8725167,72.1547414 C41.8896917,72.1547414 44.4805667,70.7535345 44.5062917,70.7424138 C45.3956417,70.2568103 46.5128417,70.5830172 46.9979417,71.4800862 Z M46.4430167,47.4631034 C45.4360667,47.5780172 44.5173167,46.8625862 44.4033917,45.8394828 C44.2784417,44.8237931 45.0024167,43.9007759 46.0056917,43.7784483 C46.2078167,43.7562069 50.9632667,43.1890517 53.4585917,43.1890517 C56.1891167,43.1890517 58.1184917,45.2130172 58.8277667,46.4066379 C59.3496167,47.2851724 59.0629667,48.4231897 58.1919917,48.949569 L57.2475167,49.2090517 C56.6264417,49.2090517 56.0127167,48.8865517 55.6709417,48.3082759 C55.6709417,48.3082759 54.7815917,46.8959483 53.4585917,46.8959483 C53.0543417,46.8959483 52.5618917,46.9181897 52.0437167,46.9478448 C53.4144917,47.659569 54.3773417,49.057069 54.3773417,50.7177586 C54.3773417,53.0864655 52.4773667,53.2643966 50.1290417,53.2643966 C47.7770417,53.2643966 45.8770667,53.0864655 45.8770667,50.7177586 C45.8770667,49.3017241 46.6010417,48.1081034 47.6484167,47.3259483 C46.9501667,47.4037931 46.4577167,47.4593966 46.4430167,47.4631034 Z M37.0386917,66.7018966 C36.0207167,66.7018966 35.1975167,65.8715517 35.1975167,64.8484483 C35.1975167,63.8253448 36.0207167,62.995 37.0386917,62.995 L40.7100167,62.995 C41.7279917,62.995 42.5511917,63.8253448 42.5511917,64.8484483 C42.5511917,65.8715517 41.7279917,66.7018966 40.7100167,66.7018966 L37.0386917,66.7018966 Z M31.8716417,50.7177586 C31.8716417,53.0864655 29.9716667,53.2643966 27.6196667,53.2643966 C25.2750167,53.2643966 23.3713667,53.0864655 23.3713667,50.7177586 C23.3713667,49.057069 24.3342167,47.659569 25.7049917,46.9478448 C25.1868167,46.9181897 24.6943667,46.8959483 24.2901167,46.8959483 C22.9671167,46.8959483 22.0740917,48.3082759 22.0667417,48.3231034 C21.7212917,48.8865517 21.1149167,49.197931 20.4975167,49.197931 L19.5456917,48.9310345 C18.6894167,48.4009483 18.4027667,47.2777586 18.9209417,46.4066379 C19.6302167,45.2130172 21.5559167,43.1890517 24.2901167,43.1890517 C26.7891167,43.1890517 31.5408917,43.7562069 31.7430167,43.7784483 C32.7462917,43.9007759 33.4702667,44.8237931 33.3489917,45.8394828 C33.2277167,46.8625862 32.3163167,47.5965517 31.3056917,47.4631034 C31.2909917,47.4593966 30.7985417,47.4037931 30.1002917,47.3259483 C31.1476667,48.1081034 31.8716417,49.3017241 31.8716417,50.7177586 Z" id="Combined-Shape" fill="#7EB9C4"></path>
                </g>
            </g>
        </g>
    </g>
</svg>