<?xml version="1.0" encoding="UTF-8"?>
<svg width="260px" height="220px" viewBox="0 0 260 220" version="1.1" xmlns="http://www.w3.org/2000/svg" xmlns:xlink="http://www.w3.org/1999/xlink">
    <!-- Generator: Sketch 43.1 (39012) - http://www.bohemiancoding.com/sketch -->
    <title>feature-launch</title>
    <desc>Created with Sketch.</desc>
    <defs>
        <path d="M88.3311643,154.034182 C88.8846161,154.011468 89.4409688,154 90,154 C97.6504037,154 104.799173,156.147754 110.876244,159.873199 C110.306574,158.016055 110,156.04383 110,154 C110,142.954305 118.954305,134 130,134 C141.045695,134 150,142.954305 150,154 C150,165.045695 141.045695,174 130,174 C127.95617,174 125.983945,173.693426 124.126801,173.123756 C127.852246,179.200827 130,186.349596 130,194 C130,194.559031 129.988532,195.115384 129.965818,195.668836 C112.22613,186.334648 97.6653523,171.77387 88.3311643,154.034182 L88.3311643,154.034182 Z" id="path-1"></path>
        <filter x="-24.3%" y="-24.3%" width="148.6%" height="148.6%" filterUnits="objectBoundingBox" id="filter-2">
            <feGaussianBlur stdDeviation="10" in="SourceAlpha" result="shadowBlurInner1"></feGaussianBlur>
            <feOffset dx="10" dy="10" in="shadowBlurInner1" result="shadowOffsetInner1"></feOffset>
            <feComposite in="shadowOffsetInner1" in2="SourceAlpha" operator="arithmetic" k2="-1" k3="1" result="shadowInnerInner1"></feComposite>
            <feColorMatrix values="0 0 0 0 1   0 0 0 0 1   0 0 0 0 1  0 0 0 1 0" type="matrix" in="shadowInnerInner1" result="shadowMatrixInner1"></feColorMatrix>
            <feOffset dx="2" dy="2" in="SourceAlpha" result="shadowOffsetInner2"></feOffset>
            <feComposite in="shadowOffsetInner2" in2="SourceAlpha" operator="arithmetic" k2="-1" k3="1" result="shadowInnerInner2"></feComposite>
            <feColorMatrix values="0 0 0 0 0.730608702   0 0 0 0 0.759654224   0 0 0 0 0.779017866  0 0 0 1 0" type="matrix" in="shadowInnerInner2" result="shadowMatrixInner2"></feColorMatrix>
            <feMerge>
                <feMergeNode in="shadowMatrixInner1"></feMergeNode>
                <feMergeNode in="shadowMatrixInner2"></feMergeNode>
            </feMerge>
        </filter>
        <path d="M112.577692,184.02035 C122.764108,184.405689 131.583939,190.230888 136.313525,198.724503 C127.690114,194.946923 119.708532,189.975901 112.577692,184.02035 L112.577692,184.02035 Z" id="path-3"></path>
        <filter x="-63.2%" y="-102.0%" width="226.4%" height="304.0%" filterUnits="objectBoundingBox" id="filter-4">
            <feGaussianBlur stdDeviation="10" in="SourceAlpha" result="shadowBlurInner1"></feGaussianBlur>
            <feOffset dx="10" dy="10" in="shadowBlurInner1" result="shadowOffsetInner1"></feOffset>
            <feComposite in="shadowOffsetInner1" in2="SourceAlpha" operator="arithmetic" k2="-1" k3="1" result="shadowInnerInner1"></feComposite>
            <feColorMatrix values="0 0 0 0 1   0 0 0 0 1   0 0 0 0 1  0 0 0 1 0" type="matrix" in="shadowInnerInner1" result="shadowMatrixInner1"></feColorMatrix>
            <feOffset dx="2" dy="2" in="SourceAlpha" result="shadowOffsetInner2"></feOffset>
            <feComposite in="shadowOffsetInner2" in2="SourceAlpha" operator="arithmetic" k2="-1" k3="1" result="shadowInnerInner2"></feComposite>
            <feColorMatrix values="0 0 0 0 0.730608702   0 0 0 0 0.759654224   0 0 0 0 0.779017866  0 0 0 1 0" type="matrix" in="shadowInnerInner2" result="shadowMatrixInner2"></feColorMatrix>
            <feMerge>
                <feMergeNode in="shadowMatrixInner1"></feMergeNode>
                <feMergeNode in="shadowMatrixInner2"></feMergeNode>
            </feMerge>
        </filter>
        <path d="M222.034182,195.668836 C222.011468,195.115384 222,194.559031 222,194 C222,186.349596 224.147754,179.200827 227.873199,173.123756 C226.016055,173.693426 224.04383,174 222,174 C210.954305,174 202,165.045695 202,154 C202,142.954305 210.954305,134 222,134 C233.045695,134 242,142.954305 242,154 C242,156.04383 241.693426,158.016055 241.123756,159.873199 C247.200827,156.147754 254.349596,154 262,154 C262.559031,154 263.115384,154.011468 263.668836,154.034182 C254.334648,171.77387 239.77387,186.334648 222.034182,195.668836 L222.034182,195.668836 Z" id="path-5"></path>
        <filter x="-24.3%" y="-24.3%" width="148.6%" height="148.6%" filterUnits="objectBoundingBox" id="filter-6">
            <feGaussianBlur stdDeviation="10" in="SourceAlpha" result="shadowBlurInner1"></feGaussianBlur>
            <feOffset dx="-10" dy="10" in="shadowBlurInner1" result="shadowOffsetInner1"></feOffset>
            <feComposite in="shadowOffsetInner1" in2="SourceAlpha" operator="arithmetic" k2="-1" k3="1" result="shadowInnerInner1"></feComposite>
            <feColorMatrix values="0 0 0 0 1   0 0 0 0 1   0 0 0 0 1  0 0 0 1 0" type="matrix" in="shadowInnerInner1" result="shadowMatrixInner1"></feColorMatrix>
            <feOffset dx="-2" dy="2" in="SourceAlpha" result="shadowOffsetInner2"></feOffset>
            <feComposite in="shadowOffsetInner2" in2="SourceAlpha" operator="arithmetic" k2="-1" k3="1" result="shadowInnerInner2"></feComposite>
            <feColorMatrix values="0 0 0 0 0.730608702   0 0 0 0 0.759654224   0 0 0 0 0.779017866  0 0 0 1 0" type="matrix" in="shadowInnerInner2" result="shadowMatrixInner2"></feColorMatrix>
            <feMerge>
                <feMergeNode in="shadowMatrixInner1"></feMergeNode>
                <feMergeNode in="shadowMatrixInner2"></feMergeNode>
            </feMerge>
        </filter>
        <path d="M215.686475,198.724503 C220.416061,190.230888 229.235892,184.405689 239.422308,184.02035 C232.291468,189.975901 224.309886,194.946923 215.686475,198.724503 L215.686475,198.724503 Z" id="path-7"></path>
        <filter x="-63.2%" y="-102.0%" width="226.4%" height="304.0%" filterUnits="objectBoundingBox" id="filter-8">
            <feGaussianBlur stdDeviation="10" in="SourceAlpha" result="shadowBlurInner1"></feGaussianBlur>
            <feOffset dx="-10" dy="10" in="shadowBlurInner1" result="shadowOffsetInner1"></feOffset>
            <feComposite in="shadowOffsetInner1" in2="SourceAlpha" operator="arithmetic" k2="-1" k3="1" result="shadowInnerInner1"></feComposite>
            <feColorMatrix values="0 0 0 0 1   0 0 0 0 1   0 0 0 0 1  0 0 0 1 0" type="matrix" in="shadowInnerInner1" result="shadowMatrixInner1"></feColorMatrix>
            <feOffset dx="-2" dy="2" in="SourceAlpha" result="shadowOffsetInner2"></feOffset>
            <feComposite in="shadowOffsetInner2" in2="SourceAlpha" operator="arithmetic" k2="-1" k3="1" result="shadowInnerInner2"></feComposite>
            <feColorMatrix values="0 0 0 0 0.730608702   0 0 0 0 0.759654224   0 0 0 0 0.779017866  0 0 0 1 0" type="matrix" in="shadowInnerInner2" result="shadowMatrixInner2"></feColorMatrix>
            <feMerge>
                <feMergeNode in="shadowMatrixInner1"></feMergeNode>
                <feMergeNode in="shadowMatrixInner2"></feMergeNode>
            </feMerge>
        </filter>
    </defs>
    <g id="Page-1" stroke="none" stroke-width="1" fill="none" fill-rule="evenodd">
        <g id="Group-3" transform="translate(-46.000000, 2.000000)">
            <g id="Combined-Shape">
                <use fill-opacity="0" fill="#EFF0F1" fill-rule="evenodd" xlink:href="#path-1"></use>
                <use fill="black" fill-opacity="1" filter="url(#filter-2)" xlink:href="#path-1"></use>
            </g>
            <g id="Combined-Shape">
                <use fill-opacity="0" fill="#EFF0F1" fill-rule="evenodd" xlink:href="#path-3"></use>
                <use fill="black" fill-opacity="1" filter="url(#filter-4)" xlink:href="#path-3"></use>
            </g>
            <g id="Combined-Shape">
                <use fill-opacity="0" fill="#EFF0F1" fill-rule="evenodd" xlink:href="#path-5"></use>
                <use fill="black" fill-opacity="1" filter="url(#filter-6)" xlink:href="#path-5"></use>
            </g>
            <g id="Combined-Shape">
                <use fill-opacity="0" fill="#EFF0F1" fill-rule="evenodd" xlink:href="#path-7"></use>
                <use fill="black" fill-opacity="1" filter="url(#filter-8)" xlink:href="#path-7"></use>
            </g>
            <g id="Group" transform="translate(145.000000, 123.000000)" fill-rule="nonzero" fill="#92A0C4">
                <path d="M0.672613637,79.2683943 L0.995006761,77.7209073 C1.10764759,77.1802313 1.63726548,76.8332403 2.17794144,76.9458811 C2.71861739,77.0585219 3.06560842,77.5881398 2.9529676,78.1288158 L2.59153982,79.8636691 C1.94913321,79.6715672 1.30946688,79.473118 0.672613637,79.2683943 Z M61.3273864,79.2683943 L61.2953207,79.1144793 C61.1826799,78.5738034 60.653062,78.2268123 60.1123861,78.3394532 C59.5717101,78.452094 59.2247191,78.9817119 59.3373599,79.5223878 L59.4084602,79.8636691 C60.0508668,79.6715672 60.6905331,79.473118 61.3273864,79.2683943 Z M49.017963,82.3643127 C49.3411678,82.158785 49.53085,81.775933 49.4707875,81.3726565 L48.8815423,77.4162958 C48.8001845,76.8700364 48.2914002,76.4931592 47.7451408,76.5745169 C47.1988814,76.6558747 46.8220042,77.164659 46.9033619,77.7109184 L47.4926072,81.6672791 C47.5558125,82.091658 47.876989,82.4138071 48.273295,82.4982883 C48.5218384,82.4545557 48.7700623,82.4098959 49.017963,82.3643127 Z M13.7755249,82.5068658 C13.9772304,82.3714498 14.2285125,82.3087404 14.4874593,82.3492983 C14.7544638,82.3911183 14.9801397,82.5349829 15.1309835,82.7349446 C14.6781288,82.6619826 14.2263019,82.585949 13.7755249,82.5068658 Z M31,84 L31,83 C31,82.4477153 31.4477153,82 32,82 C32.5522847,82 33,82.4477153 33,83 L33,83.9802002 C32.334921,83.9933794 31.6682337,84 31,84 Z M3.76878462,74.2128941 C3.65614379,74.7535701 3.1265259,75.1005611 2.58584994,74.9879203 C2.04517399,74.8752794 1.69818295,74.3456616 1.81082378,73.8049856 L2.62664079,69.8890639 C2.73928162,69.348388 3.26889951,69.0013969 3.80957547,69.1140378 C4.35025142,69.2266786 4.69724246,69.7562965 4.58460163,70.2969724 L3.76878462,74.2128941 Z M5.40041865,66.3810507 C5.28777783,66.9217267 4.75815993,67.2687177 4.21748398,67.1560769 C3.67680802,67.0434361 3.32981699,66.5138182 3.44245781,65.9731422 L4.25827483,62.0572206 C4.37091565,61.5165446 4.90053354,61.1695536 5.4412095,61.2821944 C5.98188546,61.3948352 6.32887649,61.9244531 6.21623567,62.4651291 L5.40041865,66.3810507 Z M7.03205268,58.5492074 C6.91941186,59.0898833 6.38979397,59.4368744 5.84911801,59.3242336 C5.30844205,59.2115927 4.96145102,58.6819748 5.07409184,58.1412989 L5.88990886,54.2253772 C6.00254968,53.6847012 6.53216758,53.3377102 7.07284353,53.450351 C7.61351949,53.5629919 7.96051052,54.0926098 7.8478697,54.6332857 L7.03205268,58.5492074 Z M8.66368672,50.717364 C8.55104589,51.25804 8.021428,51.605031 7.48075204,51.4923902 C6.94007609,51.3797494 6.59308505,50.8501315 6.70572588,50.3094555 L7.52154289,46.3935338 C7.63418372,45.8528579 8.16380161,45.5058669 8.70447757,45.6185077 C9.24515352,45.7311485 9.59214456,46.2607664 9.47950373,46.8014424 L8.66368672,50.717364 Z M10.2953207,42.8855207 C10.1826799,43.4261966 9.65306203,43.7731877 9.11238607,43.6605468 C8.57171012,43.547906 8.22471909,43.0182881 8.33735991,42.4776122 L9.15317693,38.5616905 C9.26581775,38.0210145 9.79543564,37.6740235 10.3361116,37.7866643 C10.8767876,37.8993051 11.2237786,38.428923 11.1111378,38.969599 L10.2953207,42.8855207 Z M11.9269548,35.0536773 C11.814314,35.5943533 11.2846961,35.9413443 10.7440201,35.8287035 C10.2033442,35.7160627 9.85635312,35.1864448 9.96899394,34.6457688 L10.784811,30.7298471 C10.8974518,30.1891712 11.4270697,29.8421801 11.9677456,29.954821 C12.5084216,30.0674618 12.8554126,30.5970797 12.7427718,31.1377556 L11.9269548,35.0536773 Z M13.5585888,27.221834 C13.445948,27.7625099 12.9163301,28.1095009 12.3756541,27.9968601 C11.8349782,27.8842193 11.4879872,27.3546014 11.600628,26.8139255 L12.416445,22.8980038 C12.5290858,22.3573278 13.0587037,22.0103368 13.5993797,22.1229776 C14.1400556,22.2356184 14.4870467,22.7652363 14.3744058,23.3059123 L13.5585888,27.221834 Z M15.1902228,19.3899906 C15.077582,19.9306666 14.5479641,20.2776576 14.0072882,20.1650168 C13.4666122,20.0523759 13.1196212,19.522758 13.232262,18.9820821 L14.048079,15.0661604 C14.1607198,14.5254845 14.6903377,14.1784934 15.2310137,14.2911342 C15.7716897,14.4037751 16.1186807,14.933393 16.0060399,15.4740689 L15.1902228,19.3899906 Z M16.8218569,11.5581472 C16.7092161,12.0988232 16.1795982,12.4458142 15.6389222,12.3331734 C15.0982463,12.2205326 14.7512552,11.6909147 14.863896,11.1502387 L15.6797131,7.23431706 C15.7923539,6.6936411 16.3219718,6.34665007 16.8626477,6.45929089 C17.4033237,6.57193171 17.7503147,7.10154961 17.6376739,7.64222556 L16.8218569,11.5581472 Z M18.4534909,3.72630389 C18.3408501,4.26697984 17.8112322,4.61397088 17.2705562,4.50133005 C16.7298803,4.38868923 16.3828892,3.85907133 16.4955301,3.31839538 L17.0210196,0.796045746 C17.1336604,0.25536979 17.6632783,-0.0916212439 18.2039543,0.0210195803 C18.7446302,0.133660404 19.0916212,0.663278298 18.9789804,1.20395425 L18.4534909,3.72630389 Z M43.0210196,1.20395425 C42.9083788,0.663278298 43.2553698,0.133660404 43.7960457,0.0210195803 C44.3367217,-0.0916212439 44.8663396,0.25536979 44.9789804,0.796045746 L45.7947974,4.71196742 C45.9074383,5.25264338 45.5604472,5.78226127 45.0197713,5.8949021 C44.4790953,6.00754292 43.9494774,5.66055189 43.8368366,5.11987593 L43.0210196,1.20395425 Z M44.6526536,9.03579761 C44.5400128,8.49512166 44.8870038,7.96550376 45.4276798,7.85286294 C45.9683557,7.74022211 46.4979736,8.08721315 46.6106145,8.6278891 L47.4264315,12.5438108 C47.5390723,13.0844867 47.1920813,13.6141046 46.6514053,13.7267455 C46.1107293,13.8393863 45.5811115,13.4923952 45.4684706,12.9517193 L44.6526536,9.03579761 Z M46.2842876,16.867641 C46.1716468,16.326965 46.5186379,15.7973471 47.0593138,15.6847063 C47.5999898,15.5720655 48.1296077,15.9190565 48.2422485,16.4597325 L49.0580655,20.3756541 C49.1707063,20.9163301 48.8237153,21.445948 48.2830393,21.5585888 C47.7423634,21.6712296 47.2127455,21.3242386 47.1001047,20.7835626 L46.2842876,16.867641 Z M47.9159217,24.6994843 C47.8032809,24.1588084 48.1502719,23.6291905 48.6909478,23.5165497 C49.2316238,23.4039088 49.7612417,23.7508999 49.8738825,24.2915758 L50.6896995,28.2074975 C50.8023404,28.7481735 50.4553493,29.2777913 49.9146734,29.3904322 C49.3739974,29.503073 48.8443795,29.156082 48.7317387,28.615406 L47.9159217,24.6994843 Z M49.5475557,32.5313277 C49.4349149,31.9906517 49.7819059,31.4610338 50.3225819,31.348393 C50.8632578,31.2357522 51.3928757,31.5827432 51.5055166,32.1234192 L52.3213336,36.0393409 C52.4339744,36.5800168 52.0869834,37.1096347 51.5463074,37.2222755 C51.0056314,37.3349164 50.4760136,36.9879253 50.3633727,36.4472494 L49.5475557,32.5313277 Z M51.1791897,40.363171 C51.0665489,39.8224951 51.41354,39.2928772 51.9542159,39.1802364 C52.4948919,39.0675955 53.0245098,39.4145866 53.1371506,39.9552625 L53.9529676,43.8711842 C54.0656084,44.4118602 53.7186174,44.9414781 53.1779414,45.0541189 C52.6372655,45.1667597 52.1076476,44.8197687 51.9950068,44.2790927 L51.1791897,40.363171 Z M52.8108238,48.1950144 C52.698183,47.6543384 53.045174,47.1247206 53.5858499,47.0120797 C54.1265259,46.8994389 54.6561438,47.2464299 54.7687846,47.7871059 L55.5846016,51.7030276 C55.6972425,52.2437035 55.3502514,52.7733214 54.8095755,52.8859622 C54.2688995,52.9986031 53.7392816,52.651612 53.6266408,52.1109361 L52.8108238,48.1950144 Z M54.4424578,56.0268578 C54.329817,55.4861818 54.676808,54.9565639 55.217484,54.8439231 C55.7581599,54.7312823 56.2877778,55.0782733 56.4004187,55.6189493 L57.2162357,59.5348709 C57.3288765,60.0755469 56.9818855,60.6051648 56.4412095,60.7178056 C55.9005335,60.8304464 55.3709157,60.4834554 55.2582748,59.9427794 L54.4424578,56.0268578 Z M56.0740918,63.8587011 C55.961451,63.3180252 56.3084421,62.7884073 56.849118,62.6757664 C57.389794,62.5631256 57.9194119,62.9101167 58.0320527,63.4507926 L58.8478697,67.3667143 C58.9605105,67.9073902 58.6135195,68.4370081 58.0728435,68.549649 C57.5321676,68.6622898 57.0025497,68.3152988 56.8899089,67.7746228 L56.0740918,63.8587011 Z M57.7057259,71.6905445 C57.5930851,71.1498685 57.9400761,70.6202506 58.480752,70.5076098 C59.021428,70.394969 59.5510459,70.74196 59.6636867,71.282636 L60.4795037,75.1985576 C60.5921446,75.7392336 60.2451535,76.2688515 59.7044776,76.3814923 C59.1638016,76.4941331 58.6341837,76.1471421 58.5215429,75.6064662 L57.7057259,71.6905445 Z M41.0109098,38.1473113 C40.929552,37.6010519 41.3064293,37.0922676 41.8526887,37.0109098 C42.3989481,36.929552 42.9077324,37.3064293 42.9890902,37.8526887 L43.5783354,41.8090494 C43.6596932,42.3553088 43.2828159,42.8640931 42.7365565,42.9454509 C42.1902971,43.0268087 41.6815128,42.6499314 41.600155,42.103672 L41.0109098,38.1473113 Z M42.1894002,46.0600327 C42.1080425,45.5137733 42.4849197,45.004989 43.0311791,44.9236312 C43.5774385,44.8422735 44.0862228,45.2191507 44.1675806,45.7654101 L44.7568258,49.7217708 C44.8381836,50.2680303 44.4613064,50.7768145 43.9150469,50.8581723 C43.3687875,50.9395301 42.8600032,50.5626529 42.7786455,50.0163934 L42.1894002,46.0600327 Z M43.3678907,53.9727541 C43.2865329,53.4264947 43.6634101,52.9177105 44.2096695,52.8363527 C44.755929,52.7549949 45.2647132,53.1318721 45.346071,53.6781315 L45.9353162,57.6344923 C46.016674,58.1807517 45.6397968,58.6895359 45.0935374,58.7708937 C44.5472779,58.8522515 44.0384937,58.4753743 43.9571359,57.9291149 L43.3678907,53.9727541 Z M44.5463811,61.8854756 C44.4650233,61.3392162 44.8419005,60.8304319 45.38816,60.7490741 C45.9344194,60.6677163 46.4432037,61.0445935 46.5245615,61.590853 L47.1138067,65.5472137 C47.1951645,66.0934731 46.8182872,66.6022574 46.2720278,66.6836152 C45.7257684,66.7649729 45.2169841,66.3880957 45.1356263,65.8418363 L44.5463811,61.8854756 Z M45.7248715,69.798197 C45.6435137,69.2519376 46.020391,68.7431533 46.5666504,68.6617955 C47.1129098,68.5804377 47.6216941,68.957315 47.7030519,69.5035744 L48.2922971,73.4599351 C48.3736549,74.0061945 47.9967776,74.5149788 47.4505182,74.5963366 C46.9042588,74.6776944 46.3954745,74.3008171 46.3141167,73.7545577 L45.7248715,69.798197 Z M15.9396345,79.5401726 C15.8541739,80.0858052 15.3425719,80.4588483 14.7969393,80.3733878 C14.2513066,80.2879273 13.8782635,79.7763252 13.963724,79.2306926 L14.5826839,75.2788717 C14.6681444,74.7332391 15.1797465,74.3601959 15.7253791,74.4456564 C16.2710117,74.531117 16.6440549,75.042719 16.5585944,75.5883516 L15.9396345,79.5401726 Z M17.1775543,71.6365307 C17.0920937,72.1821633 16.5804917,72.5552065 16.0348591,72.469746 C15.4892265,72.3842854 15.1161833,71.8726834 15.2016438,71.3270508 L15.8206037,67.3752298 C15.9060642,66.8295972 16.4176663,66.456554 16.9632989,66.5420146 C17.5089315,66.6274751 17.8819747,67.1390772 17.7965142,67.6847098 L17.1775543,71.6365307 Z M18.4154741,63.7328889 C18.3300136,64.2785215 17.8184115,64.6515646 17.2727789,64.5661041 C16.7271463,64.4806436 16.3541031,63.9690415 16.4395636,63.4234089 L17.0585235,59.471588 C17.1439841,58.9259554 17.6555861,58.5529122 18.2012187,58.6383727 C18.7468513,58.7238332 19.1198945,59.2354353 19.034434,59.7810679 L18.4154741,63.7328889 Z M19.6533939,55.829247 C19.5679334,56.3748796 19.0563313,56.7479228 18.5106987,56.6624623 C17.9650661,56.5770017 17.5920229,56.0653997 17.6774834,55.519767 L18.2964433,51.5679461 C18.3819039,51.0223135 18.8935059,50.6492703 19.4391385,50.7347309 C19.9847711,50.8201914 20.3578143,51.3317935 20.2723538,51.8774261 L19.6533939,55.829247 Z M20.8913137,47.9256051 C20.8058532,48.4712378 20.2942511,48.8442809 19.7486185,48.7588204 C19.2029859,48.6733599 18.8299427,48.1617578 18.9154032,47.6161252 L19.5343631,43.6643043 C19.6198237,43.1186717 20.1314257,42.7456285 20.6770583,42.831089 C21.222691,42.9165495 21.5957341,43.4281516 21.5102736,43.9737842 L20.8913137,47.9256051 Z M22.1292335,40.0219633 C22.043773,40.5675959 21.5321709,40.9406391 20.9865383,40.8551786 C20.4409057,40.769718 20.0678625,40.258116 20.153323,39.7124833 L20.7722829,35.7606624 C20.8577435,35.2150298 21.3693455,34.8419866 21.9149782,34.9274472 C22.4606108,35.0129077 22.8336539,35.5245098 22.7481934,36.0701424 L22.1292335,40.0219633 Z M23.3671533,32.1183214 C23.2816928,32.663954 22.7700907,33.0369972 22.2244581,32.9515367 C21.6788255,32.8660762 21.3057823,32.3544741 21.3912429,31.8088415 L22.0102028,27.8570206 C22.0956633,27.311388 22.6072654,26.9383448 23.152898,27.0238053 C23.6985306,27.1092658 24.0715737,27.6208679 23.9861132,28.1665005 L23.3671533,32.1183214 Z M33,79 C33,79.5522847 32.5522847,80 32,80 C31.4477153,80 31,79.5522847 31,79 L31,75 C31,74.4477153 31.4477153,74 32,74 C32.5522847,74 33,74.4477153 33,75 L33,79 Z M33,71 C33,71.5522847 32.5522847,72 32,72 C31.4477153,72 31,71.5522847 31,71 L31,67 C31,66.4477153 31.4477153,66 32,66 C32.5522847,66 33,66.4477153 33,67 L33,71 Z" id="Combined-Shape"></path>
            </g>
            <g id="Group-4" transform="translate(146.000000, 0.000000)" stroke="#2D4587" stroke-width="2" fill="#92A0C4">
                <path d="M30.0002174,95 C35.2721907,95.2894686 39.2934884,99.4862635 38.9831836,104.375 C38.9831836,110.322917 32.9548478,120 30.0002174,120 C27.0455869,120 21.0168019,110.322917 21.0168019,104.375 C20.7066287,99.4861509 24.7281235,95.2893603 30.0002174,95 L30.0002174,95 Z" id="Path"></path>
                <path d="M33.4087326,18.251045 C32.4618616,17.3231559 31.3256181,16.8592124 30,16.8592124 C28.6743819,16.8592124 27.5381384,17.3231559 26.5912674,18.251045 C25.6443964,19.1789341 25.170962,20.2923993 25.170962,21.5914427 C25.170962,22.8904862 25.6443964,24.0039514 26.5912674,24.9318405 C27.5381363,25.8597275 28.6743819,26.3236731 30,26.3236731 C31.3256181,26.3236731 32.4618616,25.8597296 33.4087326,24.9318405 C34.3556036,24.0039514 34.829038,22.8904862 34.829038,21.5914427 C34.829038,20.2923993 34.3556015,19.178932 33.4087326,18.251045 Z M31.1362435,0.435591059 C37.03051,6.21169528 41.2322465,12.0805886 43.7414507,18.042269 C46.250657,24.0039514 47.5170974,31.1254926 47.5407676,39.4068967 C47.5170952,43.1416466 47.2922153,47.444727 46.8661213,52.31614 L59.6133605,66.1996658 C59.9447671,66.6172158 60.0631247,67.1043571 59.9684374,67.6610897 L54.2872157,88.8169414 C54.2162007,89.0721109 54.0741708,89.3040806 53.8611239,89.5128566 C53.577064,89.7912219 53.1983169,89.9536023 52.7248825,89.9999979 L48.1799043,89.9999979 C47.5407676,89.9768001 47.0673332,89.6984349 46.7595989,89.1649 L39.9776433,76.6036113 L20.0223546,76.6036134 L13.240399,89.164898 C13.1930564,89.2576871 13.098367,89.373674 12.9563371,89.5128566 C12.6249326,89.8376175 12.2461854,89.9999979 11.8200936,90 L7.27511753,89.9999979 C6.42293386,89.9536023 5.90215683,89.5592522 5.71278221,88.8169393 L0.0315626493,67.6610897 C-0.0631246615,67.1043571 0.0552328863,66.6172158 0.386637414,66.1996679 L13.1338745,52.31614 C12.7077848,47.444727 12.4829027,43.1416445 12.4592303,39.4068946 C12.4829027,30.7079447 13.6664909,23.5632057 16.0099949,17.9726777 C18.3534968,12.3821517 22.6144131,6.55965394 28.7927395,0.505184454 C29.124144,0.180423591 29.5206459,0.0122421512 29.9822452,0.000644291235 C30.4438445,-0.0109535687 30.8285113,0.134027994 31.1362435,0.435591059 Z" id="Shape" fill-rule="nonzero"></path>
            </g>
        </g>
    </g>
</svg>