<?xml version="1.0" encoding="UTF-8"?>
<svg width="202px" height="142px" viewBox="0 0 202 142" version="1.1" xmlns="http://www.w3.org/2000/svg" xmlns:xlink="http://www.w3.org/1999/xlink">
    <!-- Generator: Sketch 42 (36781) - http://www.bohemiancoding.com/sketch -->
    <title>Group</title>
    <desc>Created with Sketch.</desc>
    <defs>
        <polygon id="path-1" points="200 200 0 200 200 0"></polygon>
        <polygon id="path-3" points="0 0 200 0 0 200"></polygon>
    </defs>
    <g id="Page-1" stroke="none" stroke-width="1" fill="none" fill-rule="evenodd">
        <g id="Group" transform="translate(0.000000, -30.000000)">
            <g id="Group-14" transform="translate(2.000000, 1.000000)">
                <mask id="mask-2" fill="white">
                    <use xlink:href="#path-1"></use>
                </mask>
                <use id="Rectangle-10-Copy" fill-opacity="0" fill="#EFF0F1" xlink:href="#path-1"></use>
                <g id="Group-12-Copy" mask="url(#mask-2)">
                    <g transform="translate(56.000000, 56.000000)">
                        <rect id="Rectangle" stroke="#BBC2C7" stroke-width="2" fill="#FFFFFF" fill-rule="evenodd" x="1" y="0" width="142" height="114" rx="4"></rect>
                        <path d="M7,18.0058587 C7,16.8980535 7.89706013,16 9.00585866,16 L18.9941413,16 C20.1019465,16 21,16.8970601 21,18.0058587 L21,27.9941413 C21,29.1019465 20.1029399,30 18.9941413,30 L9.00585866,30 C7.89805351,30 7,29.1029399 7,27.9941413 L7,18.0058587 Z M25,18.0059191 C25,16.8980806 25.8988921,16 26.9916575,16 L68.0083425,16 C69.1083045,16 70,16.8865548 70,18.0059191 L70,20.9940809 C70,22.1019194 69.1011079,23 68.0083425,23 L26.9916575,23 C25.8916955,23 25,22.1134452 25,20.9940809 L25,18.0059191 Z M25,28 C25,26.8954305 25.8998975,26 26.9912443,26 L51.0087557,26 C52.1084896,26 53,26.8877296 53,28 C53,29.1045695 52.1001025,30 51.0087557,30 L26.9912443,30 C25.8915104,30 25,29.1122704 25,28 Z M7,35.9973917 C7,34.8942627 7.89005841,34 9.00010618,34 L21.9998938,34 C23.104522,34 24,34.8958578 24,35.9973917 L24,41.0026083 C24,42.1057373 23.1099416,43 21.9998938,43 L9.00010618,43 C7.89547804,43 7,42.1041422 7,41.0026083 L7,35.9973917 Z M28,35.9973917 C28,34.8942627 28.8900584,34 30.0001062,34 L42.9998938,34 C44.104522,34 45,34.8958578 45,35.9973917 L45,41.0026083 C45,42.1057373 44.1099416,43 42.9998938,43 L30.0001062,43 C28.895478,43 28,42.1041422 28,41.0026083 L28,35.9973917 Z M49,35.9973917 C49,34.8942627 49.8900584,34 51.0001062,34 L63.9998938,34 C65.104522,34 66,34.8958578 66,35.9973917 L66,41.0026083 C66,42.1057373 65.1099416,43 63.9998938,43 L51.0001062,43 C49.895478,43 49,42.1041422 49,41.0026083 L49,35.9973917 Z M70,35.9973917 C70,34.8942627 70.8900584,34 72.0001062,34 L84.9998938,34 C86.104522,34 87,34.8958578 87,35.9973917 L87,41.0026083 C87,42.1057373 86.1099416,43 84.9998938,43 L72.0001062,43 C70.895478,43 70,42.1041422 70,41.0026083 L70,35.9973917 Z M41,55.0058587 C41,53.8980535 41.900351,53 42.9926302,53 L101.00737,53 C102.107869,53 103,53.8970601 103,55.0058587 L103,64.9941413 C103,66.1019465 102.099649,67 101.00737,67 L42.9926302,67 C41.8921309,67 41,66.1029399 41,64.9941413 L41,55.0058587 Z M7,73.0058587 C7,71.8980535 7.89447312,71 9.00526988,71 L45.9947301,71 C47.1022101,71 48,71.8970601 48,73.0058587 L48,82.9941413 C48,84.1019465 47.1055269,85 45.9947301,85 L9.00526988,85 C7.89778991,85 7,84.1029399 7,82.9941413 L7,73.0058587 Z M52,73.0058587 C52,71.8980535 52.8915398,71 53.9972916,71 L90.0027084,71 C91.1057821,71 92,71.8970601 92,73.0058587 L92,82.9941413 C92,84.1019465 91.1084602,85 90.0027084,85 L53.9972916,85 C52.8942179,85 52,84.1029399 52,82.9941413 L52,73.0058587 Z M96,73.0058587 C96,71.8980535 96.8944731,71 98.0052699,71 L134.99473,71 C136.10221,71 137,71.8970601 137,73.0058587 L137,82.9941413 C137,84.1019465 136.105527,85 134.99473,85 L98.0052699,85 C96.8977899,85 96,84.1029399 96,82.9941413 L96,73.0058587 Z M7,91.9940603 C7,90.8927712 7.89956447,90 9.00291437,90 L134.997086,90 C136.103265,90 137,90.8945138 137,91.9940603 L137,104.00594 C137,105.107229 136.100436,106 134.997086,106 L9.00291437,106 C7.89673531,106 7,105.105486 7,104.00594 L7,91.9940603 Z" id="Combined-Shape" stroke="none" fill="#BBC2C7" fill-rule="evenodd" opacity="0.200000003"></path>
                        <text id="B" stroke="none" fill="none" font-family="QanelasSoftDEMO-ExtraBold, Qanelas Soft DEMO" font-size="64" font-weight="600">
                            <tspan x="49.08" y="80" fill="#BBC2C7">B</tspan>
                        </text>
                    </g>
                </g>
            </g>
            <g id="Group-13">
                <mask id="mask-4" fill="white">
                    <use xlink:href="#path-3"></use>
                </mask>
                <use id="Rectangle-10" fill-opacity="0" fill="#EFF0F1" xlink:href="#path-3"></use>
                <g id="Group-12" mask="url(#mask-4)">
                    <g transform="translate(1.000000, 31.000000)">
                        <rect id="Rectangle" stroke="#E33277" stroke-width="2" fill="#F1BBD0" fill-rule="evenodd" x="0" y="0" width="142" height="114" rx="4"></rect>
                        <path d="M6,18.0058587 C6,16.8980535 6.89706013,16 8.00585866,16 L17.9941413,16 C19.1019465,16 20,16.8970601 20,18.0058587 L20,27.9941413 C20,29.1019465 19.1029399,30 17.9941413,30 L8.00585866,30 C6.89805351,30 6,29.1029399 6,27.9941413 L6,18.0058587 Z M24,18.0059191 C24,16.8980806 24.8988921,16 25.9916575,16 L67.0083425,16 C68.1083045,16 69,16.8865548 69,18.0059191 L69,20.9940809 C69,22.1019194 68.1011079,23 67.0083425,23 L25.9916575,23 C24.8916955,23 24,22.1134452 24,20.9940809 L24,18.0059191 Z M24,28 C24,26.8954305 24.8998975,26 25.9912443,26 L50.0087557,26 C51.1084896,26 52,26.8877296 52,28 C52,29.1045695 51.1001025,30 50.0087557,30 L25.9912443,30 C24.8915104,30 24,29.1122704 24,28 Z M6,35.9973917 C6,34.8942627 6.89005841,34 8.00010618,34 L20.9998938,34 C22.104522,34 23,34.8958578 23,35.9973917 L23,41.0026083 C23,42.1057373 22.1099416,43 20.9998938,43 L8.00010618,43 C6.89547804,43 6,42.1041422 6,41.0026083 L6,35.9973917 Z M27,35.9973917 C27,34.8942627 27.8900584,34 29.0001062,34 L41.9998938,34 C43.104522,34 44,34.8958578 44,35.9973917 L44,41.0026083 C44,42.1057373 43.1099416,43 41.9998938,43 L29.0001062,43 C27.895478,43 27,42.1041422 27,41.0026083 L27,35.9973917 Z M48,35.9973917 C48,34.8942627 48.8900584,34 50.0001062,34 L62.9998938,34 C64.104522,34 65,34.8958578 65,35.9973917 L65,41.0026083 C65,42.1057373 64.1099416,43 62.9998938,43 L50.0001062,43 C48.895478,43 48,42.1041422 48,41.0026083 L48,35.9973917 Z M69,35.9973917 C69,34.8942627 69.8900584,34 71.0001062,34 L83.9998938,34 C85.104522,34 86,34.8958578 86,35.9973917 L86,41.0026083 C86,42.1057373 85.1099416,43 83.9998938,43 L71.0001062,43 C69.895478,43 69,42.1041422 69,41.0026083 L69,35.9973917 Z M40,55.0058587 C40,53.8980535 40.900351,53 41.9926302,53 L100.00737,53 C101.107869,53 102,53.8970601 102,55.0058587 L102,64.9941413 C102,66.1019465 101.099649,67 100.00737,67 L41.9926302,67 C40.8921309,67 40,66.1029399 40,64.9941413 L40,55.0058587 Z M6,73.0058587 C6,71.8980535 6.89447312,71 8.00526988,71 L44.9947301,71 C46.1022101,71 47,71.8970601 47,73.0058587 L47,82.9941413 C47,84.1019465 46.1055269,85 44.9947301,85 L8.00526988,85 C6.89778991,85 6,84.1029399 6,82.9941413 L6,73.0058587 Z M51,73.0058587 C51,71.8980535 51.8915398,71 52.9972916,71 L89.0027084,71 C90.1057821,71 91,71.8970601 91,73.0058587 L91,82.9941413 C91,84.1019465 90.1084602,85 89.0027084,85 L52.9972916,85 C51.8942179,85 51,84.1029399 51,82.9941413 L51,73.0058587 Z M95,73.0058587 C95,71.8980535 95.8944731,71 97.0052699,71 L133.99473,71 C135.10221,71 136,71.8970601 136,73.0058587 L136,82.9941413 C136,84.1019465 135.105527,85 133.99473,85 L97.0052699,85 C95.8977899,85 95,84.1029399 95,82.9941413 L95,73.0058587 Z M6,91.9940603 C6,90.8927712 6.89956447,90 8.00291437,90 L133.997086,90 C135.103265,90 136,90.8945138 136,91.9940603 L136,104.00594 C136,105.107229 135.100436,106 133.997086,106 L8.00291437,106 C6.89673531,106 6,105.105486 6,104.00594 L6,91.9940603 Z" id="Combined-Shape" stroke="none" fill="#E33277" fill-rule="evenodd" opacity="0.200000003"></path>
                        <text id="A" stroke="none" fill="none" font-family="QanelasSoftDEMO-ExtraBold, Qanelas Soft DEMO" font-size="64" font-weight="600">
                            <tspan x="49.88" y="80" fill="#E33277">A</tspan>
                        </text>
                        <circle id="Oval" stroke="none" fill="#E33277" fill-rule="evenodd" cx="8" cy="8" r="2"></circle>
                        <circle id="Oval-Copy-3" stroke="none" fill="#E33277" fill-rule="evenodd" cx="14" cy="8" r="2"></circle>
                        <circle id="Oval-Copy-4" stroke="none" fill="#E33277" fill-rule="evenodd" cx="20" cy="8" r="2"></circle>
                    </g>
                </g>
            </g>
            <path d="M160,40 L40,160" id="Path-11" stroke="#E33277" stroke-width="4" stroke-linecap="round"></path>
        </g>
    </g>
</svg>