<?xml version="1.0" encoding="UTF-8"?>
<svg width="226px" height="182px" viewBox="0 0 226 182" version="1.1" xmlns="http://www.w3.org/2000/svg" xmlns:xlink="http://www.w3.org/1999/xlink">
    <!-- Generator: Sketch 42 (36781) - http://www.bohemiancoding.com/sketch -->
    <title>Group</title>
    <desc>Created with Sketch.</desc>
    <defs></defs>
    <g id="Page-1" stroke="none" stroke-width="1" fill="none" fill-rule="evenodd">
        <g id="Group" transform="translate(-1.000000, 1.000000)">
            <circle id="Oval-Copy-2" stroke="#BBC2C7" fill-opacity="0" fill="#BBC2C7" cx="114" cy="90" r="80"></circle>
            <circle id="Oval-Copy-5" stroke="#BBC2C7" fill-opacity="0" fill="#BBC2C7" cx="114" cy="90" r="60"></circle>
            <path d="M100,110 L139.993444,110 C142.204319,110 144,108.209128 144,105.999974 L144,74.0000255 C144,71.7964248 142.206204,70 139.993444,70 L88.0065556,70 C85.7956808,70 84,71.7908724 84,74.0000255 L84,105.999974 C84,108.203575 85.793796,110 88.0065556,110 L94,110 L94,116 L100,110 Z" id="Combined-Shape" stroke="#535D65" stroke-width="2" fill="#BBC2C7"></path>
            <g id="Group-15">
                <path d="M107.273093,16.9970301 C108.226837,16.4463856 109.774672,16.4472569 110.726907,16.9970301 L121.1295,23.0029699 C122.083244,23.5536144 122.856406,24.8945138 122.856406,25.9940603 L122.856406,38.0059397 C122.856406,39.1072288 122.081735,40.4472569 121.1295,40.9970301 L110.726907,47.0029699 C109.773163,47.5536144 108.225328,47.5527431 107.273093,47.0029699 L96.8705004,40.9970301 C95.9167561,40.4463856 95.1435935,39.1054862 95.1435935,38.0059397 L95.1435935,25.9940603 C95.1435935,24.8927712 95.9182652,23.5527431 96.8705004,23.0029699 L107.273093,16.9970301 Z" id="Polygon-2-Copy" stroke="#BBC2C7" fill="#FFFFFF"></path>
                <text id="" font-family="FontAwesome" font-size="12" font-weight="normal" fill="#BBC2C7">
                    <tspan x="103.428571" y="36"></tspan>
                </text>
                <path d="M117.273093,132.99703 C118.226837,132.446386 119.774672,132.447257 120.726907,132.99703 L131.1295,139.00297 C132.083244,139.553614 132.856406,140.894514 132.856406,141.99406 L132.856406,154.00594 C132.856406,155.107229 132.081735,156.447257 131.1295,156.99703 L120.726907,163.00297 C119.773163,163.553614 118.225328,163.552743 117.273093,163.00297 L106.8705,156.99703 C105.916756,156.446386 105.143594,155.105486 105.143594,154.00594 L105.143594,141.99406 C105.143594,140.892771 105.918265,139.552743 106.8705,139.00297 L117.273093,132.99703 Z" id="Polygon-2-Copy-2" stroke="#BBC2C7" fill="#FFFFFF"></path>
                <text id="" font-family="FontAwesome" font-size="12" font-weight="normal" fill="#BBC2C7">
                    <tspan x="113" y="152"></tspan>
                </text>
                <path d="M170.273093,64.9970301 C171.226837,64.4463856 172.774672,64.4472569 173.726907,64.9970301 L184.1295,71.0029699 C185.083244,71.5536144 185.856406,72.8945138 185.856406,73.9940603 L185.856406,86.0059397 C185.856406,87.1072288 185.081735,88.4472569 184.1295,88.9970301 L173.726907,95.0029699 C172.773163,95.5536144 171.225328,95.5527431 170.273093,95.0029699 L159.8705,88.9970301 C158.916756,88.4463856 158.143594,87.1054862 158.143594,86.0059397 L158.143594,73.9940603 C158.143594,72.8927712 158.918265,71.5527431 159.8705,71.0029699 L170.273093,64.9970301 Z" id="Polygon-2-Copy-4" stroke="#BBC2C7" fill="#FFFFFF"></path>
                <text id="" font-family="FontAwesome" font-size="12" font-weight="normal" fill="#BBC2C7">
                    <tspan x="166.428571" y="84"></tspan>
                </text>
                <path d="M54.2730931,84.9970301 C55.2268375,84.4463856 56.7746716,84.4472569 57.7269069,84.9970301 L68.1294996,91.0029699 C69.0832439,91.5536144 69.8564065,92.8945138 69.8564065,93.9940603 L69.8564065,106.00594 C69.8564065,107.107229 69.0817348,108.447257 68.1294996,108.99703 L57.7269069,115.00297 C56.7731625,115.553614 55.2253284,115.552743 54.2730931,115.00297 L43.8705004,108.99703 C42.9167561,108.446386 42.1435935,107.105486 42.1435935,106.00594 L42.1435935,93.9940603 C42.1435935,92.8927712 42.9182652,91.5527431 43.8705004,91.0029699 L54.2730931,84.9970301 Z" id="Polygon-2-Copy-14" stroke="#BBC2C7" fill="#FFFFFF"></path>
                <text id="" font-family="FontAwesome" font-size="12" font-weight="normal" fill="#BBC2C7">
                    <tspan x="52.5714286" y="104"></tspan>
                </text>
                <path d="M14.2730931,64.9970301 C15.2268375,64.4463856 16.7746716,64.4472569 17.7269069,64.9970301 L28.1294996,71.0029699 C29.0832439,71.5536144 29.8564065,72.8945138 29.8564065,73.9940603 L29.8564065,86.0059397 C29.8564065,87.1072288 29.0817348,88.4472569 28.1294996,88.9970301 L17.7269069,95.0029699 C16.7731625,95.5536144 15.2253284,95.5527431 14.2730931,95.0029699 L3.8705004,88.9970301 C2.91675608,88.4463856 2.14359354,87.1054862 2.14359354,86.0059397 L2.14359354,73.9940603 C2.14359354,72.8927712 2.91826518,71.5527431 3.8705004,71.0029699 L14.2730931,64.9970301 Z" id="Polygon-2-Copy-19" stroke="#BBC2C7" fill="#FFFFFF"></path>
                <text id="" font-family="FontAwesome" font-size="12" font-weight="normal" fill="#BBC2C7">
                    <tspan x="10" y="84"></tspan>
                </text>
                <path d="M210.273093,84.9970301 C211.226837,84.4463856 212.774672,84.4472569 213.726907,84.9970301 L224.1295,91.0029699 C225.083244,91.5536144 225.856406,92.8945138 225.856406,93.9940603 L225.856406,106.00594 C225.856406,107.107229 225.081735,108.447257 224.1295,108.99703 L213.726907,115.00297 C212.773163,115.553614 211.225328,115.552743 210.273093,115.00297 L199.8705,108.99703 C198.916756,108.446386 198.143594,107.105486 198.143594,106.00594 L198.143594,93.9940603 C198.143594,92.8927712 198.918265,91.5527431 199.8705,91.0029699 L210.273093,84.9970301 Z" id="Polygon-2-Copy-20" stroke="#BBC2C7" fill="#FFFFFF"></path>
                <text id="" font-family="FontAwesome" font-size="12" font-weight="normal" fill="#BBC2C7">
                    <tspan x="206.857143" y="104"></tspan>
                </text>
                <path d="M52.7334347,6.30860206 C53.9852242,5.5858811 56.0167565,5.58702465 57.2665653,6.30860206 L70.9199682,14.1913979 C72.1717577,14.9141189 73.1865335,16.6740493 73.1865335,18.1172041 L73.1865335,33.8827959 C73.1865335,35.3282378 72.169777,37.0870247 70.9199682,37.8086021 L57.2665653,45.6913979 C56.0147758,46.4141189 53.9832435,46.4129753 52.7334347,45.6913979 L39.0800318,37.8086021 C37.8282423,37.0858811 36.8134665,35.3259507 36.8134665,33.8827959 L36.8134665,18.1172041 C36.8134665,16.6717622 37.830223,14.9129753 39.0800318,14.1913979 L52.7334347,6.30860206 Z" id="Polygon-2-Copy-15" stroke="#BBC2C7" stroke-width="2" fill="#FFFFFF"></path>
                <text id="" font-family="FontAwesome" font-size="16" font-weight="normal" fill="#BBC2C7">
                    <tspan x="47" y="32"></tspan>
                </text>
                <path d="M175.733435,1.30860206 C176.985224,0.585881098 179.016757,0.587024652 180.266565,1.30860206 L193.919968,9.19139794 C195.171758,9.9141189 196.186533,11.6740493 196.186533,13.1172041 L196.186533,28.8827959 C196.186533,30.3282378 195.169777,32.0870247 193.919968,32.8086021 L180.266565,40.6913979 C179.014776,41.4141189 176.983243,41.4129753 175.733435,40.6913979 L162.080032,32.8086021 C160.828242,32.0858811 159.813467,30.3259507 159.813467,28.8827959 L159.813467,13.1172041 C159.813467,11.6717622 160.830223,9.91297535 162.080032,9.19139794 L175.733435,1.30860206 Z" id="Polygon-2-Copy-17" stroke="#BBC2C7" stroke-width="2" fill="#FFFFFF"></path>
                <text id="" font-family="FontAwesome" font-size="16" font-weight="normal" fill="#BBC2C7">
                    <tspan x="171.714286" y="27"></tspan>
                </text>
                <path d="M47.7334347,139.308602 C48.9852242,138.585881 51.0167565,138.587025 52.2665653,139.308602 L65.9199682,147.191398 C67.1717577,147.914119 68.1865335,149.674049 68.1865335,151.117204 L68.1865335,166.882796 C68.1865335,168.328238 67.169777,170.087025 65.9199682,170.808602 L52.2665653,178.691398 C51.0147758,179.414119 48.9832435,179.412975 47.7334347,178.691398 L34.0800318,170.808602 C32.8282423,170.085881 31.8134665,168.325951 31.8134665,166.882796 L31.8134665,151.117204 C31.8134665,149.671762 32.830223,147.912975 34.0800318,147.191398 L47.7334347,139.308602 Z" id="Polygon-2-Copy-18" stroke="#BBC2C7" stroke-width="2" fill="#FFFFFF"></path>
                <text id="" font-family="FontAwesome" font-size="16" font-weight="normal" fill="#BBC2C7">
                    <tspan x="43.1428571" y="165"></tspan>
                </text>
                <path d="M170.733435,134.308602 C171.985224,133.585881 174.016757,133.587025 175.266565,134.308602 L188.919968,142.191398 C190.171758,142.914119 191.186533,144.674049 191.186533,146.117204 L191.186533,161.882796 C191.186533,163.328238 190.169777,165.087025 188.919968,165.808602 L175.266565,173.691398 C174.014776,174.414119 171.983243,174.412975 170.733435,173.691398 L157.080032,165.808602 C155.828242,165.085881 154.813467,163.325951 154.813467,161.882796 L154.813467,146.117204 C154.813467,144.671762 155.830223,142.912975 157.080032,142.191398 L170.733435,134.308602 Z" id="Polygon-2-Copy-16" stroke="#BBC2C7" stroke-width="2" fill="#FFFFFF"></path>
                <text id="" font-family="FontAwesome" font-size="16" font-weight="normal" fill="#BBC2C7">
                    <tspan x="166.142857" y="160"></tspan>
                </text>
            </g>
        </g>
    </g>
</svg>