<?xml version="1.0" encoding="UTF-8"?>
<svg width="260px" height="220px" viewBox="0 0 260 220" version="1.1" xmlns="http://www.w3.org/2000/svg" xmlns:xlink="http://www.w3.org/1999/xlink">
    <!-- Generator: Sketch 43.1 (39012) - http://www.bohemiancoding.com/sketch -->
    <title>feature-compliance</title>
    <desc>Created with Sketch.</desc>
    <defs></defs>
    <g id="Page-1" stroke="none" stroke-width="1" fill="none" fill-rule="evenodd">
        <g id="Group-3" transform="translate(-46.000000, -298.000000)"></g>
        <g id="Group-32" transform="translate(30.000000, 0.000000)">
            <path d="M150,80 C150,57.90861 132.09139,40 110,40" id="Oval-7" stroke="#DA6262" stroke-width="2" stroke-linecap="round" stroke-dasharray="8"></path>
            <path d="M90,180 C90,157.90861 72.09139,140 50,140" id="Oval-7-Copy" stroke="#DA6262" stroke-width="2" stroke-linecap="round" stroke-dasharray="8" transform="translate(70.000000, 160.000000) scale(-1, -1) translate(-70.000000, -160.000000) "></path>
            <g id="users-8" transform="translate(10.000000, 0.000000)">
                <g id="svg5463">
                    <path d="M0.621036286,129.069212 C0.621036286,129.069212 -2.56181352,101.049054 24.8557143,97.9229939 L36.5878836,97.9229939 L36.5878836,92.4954638 C36.5878836,92.4954638 44.8406717,96.0552076 53.1974769,92.8925996 L53.4611208,97.9229939 L67.1706203,97.9229939 C67.1706203,97.9229939 91.0448882,100.316441 89.600984,129.069212 L0.621036286,129.069212 L0.621036286,129.069212 Z" id="body-bg-flat" stroke="#DA6262" stroke-width="2" fill="#EAA6A6"></path>
                    <path d="M44.4034659,113.853935 C37.3415451,113.853935 31.6167112,108.104951 31.6167112,101.013206 C31.6167112,99.7723265 31.7954784,98.5740358 32.1225208,97.4389853 L32.1440089,97.4389853 L33.5008864,97.4389853 L35.8350253,97.4389853 L35.8350253,98.8951495 L33.1322542,98.8951495 C33.0042791,99.5818116 32.9349316,100.289172 32.9349316,101.013206 C32.9349316,107.373844 38.0695788,112.53015 44.4034659,112.53015 C50.7373626,112.53015 55.8719909,107.373844 55.8719909,101.013206 C55.8719909,100.289172 55.8026527,99.5818116 55.674668,98.8951495 L52.9719067,98.8951495 L52.9719067,97.4389853 L55.3060361,97.4389853 L56.6629232,97.4389853 L56.6844016,97.4389853 C57.011444,98.5740358 57.1902112,99.7723265 57.1902112,101.013206 C57.1902112,108.104951 51.4653962,113.853935 44.4034659,113.853935 L44.4034659,113.853935 Z" id="Ellipse-4" fill="#DA6262"></path>
                    <path d="M36.4927109,93.1081081 L52.3208747,93.1081081 L52.3208747,101.013514 C52.3208747,105.379548 48.7884266,108.918919 44.4067928,108.918919 L44.4067928,108.918919 C40.0359661,108.918919 36.4927109,105.370664 36.4927109,101.013514 L36.4927109,93.1081081 Z" id="Rectangle-20" fill="#FFFFFF"></path>
                    <path d="M36.8896015,92.193297 L36.8896015,100.357885 C36.8896015,104.594671 40.3126934,108.029279 44.5352878,108.029279 C48.7578825,108.029279 52.1809745,104.594671 52.1809745,100.357885 L52.1809745,92.3617407 C52.6246869,92.2261147 53.0642225,92.0788042 53.4991948,91.9196585 L53.4991948,100.413455 C53.4991948,105.423767 49.456414,109.485443 44.4693818,109.485443 C39.4823495,109.485443 35.4395592,105.423767 35.4395592,100.413455 L35.4395592,91.6682043 C35.9171581,91.8578483 36.4008955,92.0322763 36.8896015,92.193297 L36.8896015,92.193297 Z" id="neck" fill="#DA6262"></path>
                    <path d="M44.8652533,9.14239551 C61.2640973,9.14239551 74.2077164,24.5317977 73.7868496,43.0225376 L73.3395354,62.6749249 C72.9430414,80.0950372 60.1990833,93.8647548 44.8652533,93.8647548 C29.5314229,93.8647548 16.7874649,80.0950372 16.3909711,62.6749249 L15.9436569,43.0225376 C15.5227993,24.5317977 28.4664093,9.14239551 44.8652533,9.14239551 L44.8652533,9.14239551 Z" id="2-copy-5" stroke="#DA6262" stroke-width="2" fill="#FFFFFF"></path>
                    <path d="M41.6352036,83.4068492 L47.9626604,83.4068492 C48.2538834,83.4068492 48.4899484,83.6439109 48.4899484,83.9363538 C48.4899484,84.2288063 48.2538834,84.465868 47.9626604,84.465868 L41.6352036,84.465868 C41.3439806,84.465868 41.1079155,84.2288063 41.1079155,83.9363538 C41.1079155,83.6439109 41.3439806,83.4068492 41.6352036,83.4068492 L41.6352036,83.4068492 Z" id="Rounded-Rectangle-3" fill="#DA6262"></path>
                    <path d="M36.0981035,77.0712179 L36.8323413,76.0390989 C39.1928425,77.3949918 41.9972355,78.181054 45.0059099,78.181054 C48.0481031,78.181054 50.8812438,77.3770965 53.2580193,75.9932713 L54.0267751,77.0593538 C51.4412023,78.5624625 48.3603047,79.4354926 45.0524025,79.4354926 C41.7531184,79.4354926 38.6795276,78.567159 36.0981035,77.0712179 L36.0981035,77.0712179 Z" id="2" fill="#DA6262"></path>
                    <path d="M14.4614722,45.3954853 C14.457833,45.3956935 14.1378055,45.1390415 13.5334852,44.9479679 C13.2314477,44.8526394 12.8560648,44.7742215 12.4282019,44.7548872 C12.3213469,44.7500582 12.2113711,44.7489124 12.0988401,44.7521221 C11.9863089,44.7553321 11.8712134,44.7628879 11.7542227,44.7754337 C11.5202697,44.8005345 11.2786415,44.8456424 11.0354952,44.9158793 C10.0619208,45.1968465 9.06875347,45.8799674 8.48546859,47.2899349 C8.19267111,47.9949566 7.99951573,48.8817725 7.9484502,49.9913343 C7.93567416,50.2687317 7.93177079,50.5600477 7.93737127,50.8659265 C7.94298133,51.1718051 7.95810514,51.4922461 7.98336433,51.8278937 C8.03385488,52.4991603 8.12502998,53.2312616 8.26087795,54.0290174 C8.25790794,54.0282315 8.13417576,56.4397538 8.99267345,59.2107556 C9.79974753,61.9199568 11.7377886,65.2479696 15.3160856,66.1989816 C14.9045435,59.3175505 14.8917585,52.3071304 14.4614722,45.3954853 L14.4614722,45.3954853 L14.4614722,45.3954853 Z" id="Shape-11-copy" fill="#FFFFFF"></path>
                    <path d="M14.8694975,45.6729016 C14.8694975,45.6729016 8.63583667,43.7332401 8.85521333,50.1688585 C8.85521333,50.1688585 9.78329458,59.5007084 10.1863129,60.360757 C10.1863129,60.360757 12.6344441,65.7940819 16.6747359,66.0348745 C20.6235319,66.2702129 16.6747359,66.0348745 16.6747359,66.0348745 L16.7237744,67.7861609 C16.7237744,67.7861609 9.62247939,66.87182 8.25091189,58.6537072 L7.16836084,51.1879489 C7.16836084,51.1879489 6.32780589,41.3077519 14.4812347,43.819867 C22.4243294,46.2671803 14.4812347,43.819867 14.4812347,43.819867 L14.8694975,45.6729016" id="Shape-3" fill="#DA6262"></path>
                    <path d="M12.8119764,58.6380085 C12.8119764,58.6380085 12.463116,58.9027658 12.1634263,58.9027658 C11.8637366,58.9027658 11.5191287,58.6380085 11.5191287,58.6380085 L10.8758117,52.1278356 C10.8758117,52.1278356 11.763425,48.9217483 15.5298992,50.6160727 L15.6189338,52.4775626 C15.6189338,52.4775626 12.3144262,51.3006707 12.3827557,52.7661707 C12.4485301,54.1767917 12.8119764,58.6380085 12.8119764,58.6380085 L12.8119764,58.6380085 Z" id="Shape-4" fill="#DA6262"></path>
                    <path d="M75.0191842,45.4106822 C75.0228423,45.4108904 75.3442746,45.1544181 75.951235,44.9634677 C76.2546019,44.8682056 76.6316254,44.7898447 77.0613645,44.7705194 C77.1686815,44.7657001 77.2791383,44.7645543 77.3921691,44.7677643 C77.5051903,44.7709643 77.6207855,44.7785202 77.7382949,44.7910566 C77.9732663,44.8161386 78.21596,44.8612179 78.4601716,44.9314076 C79.4380078,45.2121853 80.4355218,45.8948423 81.0213618,47.3038536 C81.3154415,48.0083922 81.5094456,48.8946022 81.560728,50.0034159 C81.5735605,50.280624 81.5774828,50.5717415 81.5718631,50.8774118 C81.566225,51.1830819 81.5510353,51.5033054 81.5256628,51.8387255 C81.4749556,52.5095376 81.3833749,53.2411466 81.2469331,54.0383532 C81.2499219,54.0375673 81.3741914,56.447461 80.5119315,59.2165789 C79.7013313,61.9239431 77.7547952,65.2496928 74.1608277,66.200061 C74.5741705,59.3232978 74.5870123,52.3176403 75.0191842,45.4106822 L75.0191842,45.4106822 L75.0191842,45.4106822 Z" id="Shape-11-copy_1" fill="#FFFFFF"></path>
                    <path d="M74.6080193,45.6879186 C74.6080193,45.6879186 80.8689852,43.7495733 80.6486471,50.1808169 C80.6486471,50.1808169 79.7165021,59.5063328 79.311711,60.3657944 C79.311711,60.3657944 76.8528595,65.7954359 72.7948795,66.0360674 C68.8287822,66.2712452 72.7948795,66.0360674 72.7948795,66.0360674 L72.7456242,67.7861609 C72.7456242,67.7861609 79.8780149,66.8724449 81.2555885,58.659909 L82.3428821,51.1992161 C82.3428821,51.1992161 83.1871238,41.325723 74.9979789,43.8361337 C67.0201023,46.2817899 74.9979789,43.8361337 74.9979789,43.8361337 L74.6080193,45.6879186" id="Shape-3_1" fill="#DA6262"></path>
                    <path d="M76.6745542,58.64422 C76.6745542,58.64422 77.0249418,58.9087969 77.3259421,58.9087969 C77.6269424,58.9087969 77.973059,58.64422 77.973059,58.64422 L78.6191952,52.1384686 C78.6191952,52.1384686 77.7276971,48.9345594 73.9447229,50.6277284 L73.8553015,52.4879589 C73.8553015,52.4879589 77.1742823,51.3118625 77.1056509,52.7763684 C77.0395938,54.1860328 76.6745542,58.64422 76.6745542,58.64422 L76.6745542,58.64422 Z" id="Shape-4_1" fill="#DA6262"></path>
                    <path d="M47.237644,58.1225172 L47.6990165,58.1225172 C48.6529134,59.4234362 49.0409969,61.4225976 49.5445246,63.152902 C49.7005688,63.6891293 49.5491824,64.6270564 49.4127026,65.0062018 C48.9128803,66.3947895 47.3434146,66.3698686 46.051246,66.9918802 C45.7042149,67.1589416 45.446077,67.4472941 44.9966698,67.5214037 C44.7036836,67.262233 44.3499299,67.2113307 44.2057283,66.7933171 C43.8497115,66.3010139 44.308557,65.9935826 44.6671101,65.8004733 C45.3178473,65.4500076 47.3266694,65.1045886 47.5671943,64.4766876 C47.8647911,64.1367224 47.6669117,63.1145833 47.5671943,62.7557666 C47.3118098,61.8367196 47.1892278,61.0694525 46.8421779,60.240574 C46.6116476,59.6900113 46.2069034,59.1095095 46.4467121,58.4534588 C46.6454303,58.3677692 47.0749149,58.2703387 47.237644,58.1225172 L47.237644,58.1225172 Z" id="new_vector_shape_done" fill="#DA6262"></path>
                    <path d="M28.0575167,48.776578 L32.8031189,48.776578 C33.4583444,48.776578 33.989517,49.4166744 33.989517,50.2062684 C33.989517,50.995862 33.4583444,51.6359584 32.8031189,51.6359584 L28.0575167,51.6359584 C27.4022913,51.6359584 26.8711187,50.995862 26.8711187,50.2062684 C26.8711187,49.4166744 27.4022913,48.776578 28.0575167,48.776578 L28.0575167,48.776578 Z" id="Rounded-Rectangle-9" fill="#DA6262"></path>
                    <path d="M57.0583893,48.4588732 L61.8039914,48.4588732 C62.4592169,48.4588732 62.9903895,49.09896 62.9903895,49.8885636 C62.9903895,50.6781575 62.4592169,51.3182443 61.8039914,51.3182443 L57.0583893,51.3182443 C56.4031638,51.3182443 55.8719909,50.6781575 55.8719909,49.8885636 C55.8719909,49.09896 56.4031638,48.4588732 57.0583893,48.4588732 L57.0583893,48.4588732 Z" id="Rounded-Rectangle-9-copy" fill="#DA6262"></path>
                    <path d="M60.749415,56.6663531 C62.5694943,56.6663531 64.0449656,58.1480534 64.0449656,59.9758168 C64.0449656,61.8035802 62.5694943,63.2852808 60.749415,63.2852808 C58.9293265,63.2852808 57.4538647,61.8035802 57.4538647,59.9758168 C57.4538647,58.1480534 58.9293265,56.6663531 60.749415,56.6663531 L60.749415,56.6663531 Z" id="Ellipse-3" fill="#EDF1F1"></path>
                    <path d="M28.8484583,56.6663531 C30.6685375,56.6663531 32.1440089,58.1480534 32.1440089,59.9758168 C32.1440089,61.8035802 30.6685375,63.2852808 28.8484583,63.2852808 C27.0283697,63.2852808 25.5529079,61.8035802 25.5529079,59.9758168 C25.5529079,58.1480534 27.0283697,56.6663531 28.8484583,56.6663531 L28.8484583,56.6663531 Z" id="Ellipse-3-copy" fill="#EDF1F1"></path>
                    <path d="M71.1633642,44.4875073 L71.1633642,54.2835294 C71.1633642,56.677431 68.8380126,60.4129094 65.0489289,60.6268304 C64.492308,60.6001767 53.2355506,60.6377095 53.2355506,60.6377095 C48.1753333,60.6377095 47.1717284,54.5482867 47.1717284,54.5482867 L47.1717284,47.929359 L42.4261356,47.929359 L42.4261356,54.5482867 C42.4261356,54.5482867 41.4225307,60.6377095 36.3623134,60.6377095 C36.3623134,60.6377095 25.105556,60.6001767 24.5489351,60.6268304 C20.7598513,60.4129094 18.4344998,56.677431 18.4344998,54.2835294 L18.4344998,44.4875073 L14.2161952,44.4875073 L14.2161952,41.8399363 L38.7351098,41.8399363 C38.7351098,41.8399363 42.4261356,42.4387405 42.4261356,45.0170215 L47.1717284,45.0170215 C47.1717284,42.4387405 50.8627542,41.8399363 50.8627542,41.8399363 L75.3816687,41.8399363 L75.3816687,44.4875073 L71.1633642,44.4875073 L71.1633642,44.4875073 Z M39.789686,45.8112926 C39.789686,44.8675807 38.7351098,44.7522642 38.7351098,44.7522642 L21.0709497,44.7522642 L21.0709497,54.0187725 C21.0709497,56.9060281 25.0256103,57.9901384 25.0256103,57.9901384 L35.8350253,57.9901384 C39.5541109,57.9901384 39.789686,54.0187725 39.789686,54.0187725 L39.789686,45.8112926 L39.789686,45.8112926 Z M68.5269143,44.7522642 L50.8627542,44.7522642 C50.8627542,44.7522642 49.808178,44.8675807 49.808178,45.8112926 L49.808178,54.0187725 C49.808178,54.0187725 50.0437531,57.9901384 53.7628387,57.9901384 L64.5722537,57.9901384 C64.5722537,57.9901384 68.5269143,56.9060281 68.5269143,54.0187725 L68.5269143,44.7522642 L68.5269143,44.7522642 Z M64.8358979,60.6377095 C64.9077724,60.6362041 64.9780631,60.6308356 65.0489289,60.6268304 C65.1085179,60.6296898 65.0486554,60.6332594 64.8358979,60.6377095 L64.8358979,60.6377095 Z M24.5489351,60.6268304 C24.6198009,60.6308356 24.6900916,60.6362041 24.7619661,60.6377095 C24.5492086,60.6332594 24.4893461,60.6296898 24.5489351,60.6268304 L24.5489351,60.6268304 Z" id="Shape-1-copy-5" fill="#DA6262"></path>
                    <path d="M16.1206043,44.1722548 C16.1206043,44.1722548 14.9390995,31.56409 22.6528138,24.8954623 C22.6528138,24.8954623 40.9880583,42.9927874 65.890474,24.8954623 C65.890474,24.8954623 74.8382389,33.8833989 74.0634484,43.6932358 C74.0634484,43.6932358 89.1524449,26.3126258 77.490821,23.0421627 C77.490821,23.0421627 74.6155718,23.882905 73.5361604,19.6003203 C72.4567493,15.3177259 70.445702,1.4865199 43.2170678,1.06730372 C15.9884336,0.648087852 17.9072117,17.4822539 17.9072117,17.4822539 C17.9937197,17.5349554 2.78360296,24.9625653 16.1206043,44.1722548 L16.1206043,44.1722548 Z" id="fill-copy" fill="#DA6262"></path>
                    <path d="M74.1952704,45.1493999 C73.8772421,34.2646467 65.890474,26.0868695 65.890474,26.0868695 C40.9880583,43.4108674 22.7846361,26.0868695 22.7846361,26.0868695 C16.954022,30.5689263 16.1935256,45.0170215 16.1935256,45.0170215 C1.15365252,25.7393388 17.0709655,17.2701981 16.9844578,17.2174969 C16.9844578,17.2174969 15.4619374,-0.327873962 42.6897797,0.140654105 C71.0489379,0.628639666 73.1174998,14.3414328 74.3270926,19.2031846 C75.2917004,23.0802447 78.6772191,22.3802698 78.6772191,22.3802698 C90.7909566,27.1048331 74.1952704,45.1493999 74.1952704,45.1493999 L74.1952704,45.1493999 Z M77.0953549,23.8364339 C77.0953549,23.8364339 73.8704627,24.6818254 72.6134062,19.6003203 C71.5528054,15.312982 70.445702,2.41316983 43.2170678,1.99395365 C15.9884336,1.57473747 18.6981439,18.1441562 18.6981439,18.1441562 C18.7846519,18.1968577 5.01356434,24.7684712 15.1389494,41.0456648 C15.1389494,41.0456648 14.8072776,30.3726831 22.5209919,23.7040554 C22.5209919,23.7040554 40.2609772,42.5201599 66.1541179,23.8364339 C66.1541179,23.8364339 74.3585841,31.6815746 74.9862026,41.3104217 C74.9862026,41.3104217 87.0855142,26.0370084 77.0953549,23.8364339 L77.0953549,23.8364339 Z" id="line" fill="#DA6262"></path>
                </g>
            </g>
            <g id="users-3" transform="translate(98.000000, 90.000000)">
                <g id="svg4226">
                    <path d="M94.8308487,96.5327087 C88.8136755,123.070587 58.0141908,112.67729 47.5,108.268147 L47.5,108.23994 C36.9858092,112.652469 6.18632447,123.053747 0.169151335,96.4954962 C0.169151335,96.4954962 10.9613832,96.6125084 7.72194814,62.4793303 C7.72194814,62.4793303 -3.97016123,-5.13847847 47.5,0.513268558 L47.5,0.624071098 C98.9701612,-5.02334547 87.2780519,62.5426162 87.2780519,62.5426162 C84.0386168,96.6496301 94.8308487,96.5327087 94.8308487,96.5327087 L94.8308487,96.5327087 Z" id="Shape-12" fill="#DA6262"></path>
                    <path d="M27.8627335,99.5417265 L39.0660446,99.5417265 L39.0660446,94.3377559 C39.0660446,94.3377559 46.9468168,97.7508741 54.9269171,94.7185337 L55.1786765,99.5417265 L68.2701846,99.5417265 C68.2701846,99.5417265 90.6882409,100.429491 89.669768,129.063921 L4.82670365,128.810069 C4.82670365,128.810069 2.87507616,102.040118 27.8627335,99.5417265 Z" id="body-bg-flat-copy" stroke="#DA6262" stroke-width="2" fill="#EAA6A6"></path>
                    <path d="M51.4022737,118.199851 C51.8889292,118.199851 52.2834412,118.597632 52.2834412,119.088332 C52.2834412,119.579022 51.8889292,119.976813 51.4022737,119.976813 C50.9156273,119.976813 50.5211151,119.579022 50.5211151,119.088332 C50.5211151,118.597632 50.9156273,118.199851 51.4022737,118.199851 L51.4022737,118.199851 Z" id="Ellipse-5" fill="#DA6262"></path>
                    <path d="M51.4022737,124.038441 C51.8889292,124.038441 52.2834412,124.436232 52.2834412,124.926923 C52.2834412,125.417622 51.8889292,125.815404 51.4022737,125.815404 C50.9156273,125.815404 50.5211151,125.417622 50.5211151,124.926923 C50.5211151,124.436232 50.9156273,124.038441 51.4022737,124.038441 L51.4022737,124.038441 Z" id="Ellipse-5-copy" fill="#DA6262"></path>
                    <path d="M38.7037037,94.8648649 L56.2962963,94.8648649 L55.2729279,104.573035 C54.8665066,108.428545 51.3960576,111.554054 47.5103082,111.554054 L47.4896918,111.554054 C43.6089366,111.554054 40.1341235,108.434523 39.7270721,104.573035 L38.7037037,94.8648649 Z" id="Rectangle-21" fill="#FFFFFF"></path>
                    <path d="M61.5985464,106.268808 L55.1786765,115.915185 C53.43226,110.457181 48.3811586,112.488176 48.3811586,112.488176 L48.3811586,128.608227 C48.3811586,129.028578 47.9866464,129.369338 47.5,129.369338 C47.0133536,129.369338 46.6188414,129.028578 46.6188414,128.608227 L46.6188414,112.487795 C46.577974,112.471454 41.5670647,110.47945 39.8296608,115.915185 L33.4167598,106.268808 C33.4167598,106.268808 30.9361148,99.9096038 38.4464864,97.1301345 L38.4464864,94.2108301 L39.8666476,94.2108301 L39.8666476,103.398209 C40.0489712,104.979712 41.128894,109.485967 47.5,110.965066 C53.8780298,109.485967 54.9591321,104.979712 55.1416537,103.398209 L55.1416537,94.2108301 L56.5633543,94.2108301 L56.5633543,97.1301345 C64.0818833,99.9096038 61.5985464,106.268808 61.5985464,106.268808 L61.5985464,106.268808 Z M39.7552188,107.122736 C39.4129096,106.731863 38.9198705,105.761095 38.9198705,105.761095 C38.9198705,105.761095 38.4464864,104.172547 38.4464864,103.476429 L38.4464864,100.256991 C38.3394244,98.8049918 38.0692615,98.7801713 38.0692615,98.7801713 C32.465508,101.56319 34.9256787,105.888021 34.9256787,105.888021 L39.5781801,113.249732 C41.3950144,110.145653 43.3504776,110.711214 43.3504776,110.711214 C41.623968,109.823949 40.4916618,108.44692 39.7552188,107.122736 L39.7552188,107.122736 Z M56.9409938,98.7801713 C56.9409938,98.7801713 56.6705335,98.8049918 56.5633543,100.256991 L56.5633543,103.476429 C56.5633543,104.172547 56.0894572,105.761095 56.0894572,105.761095 C56.0894572,105.761095 55.5958779,106.731863 55.2531996,107.122736 C54.5159553,108.44692 53.3824156,109.823949 51.6540334,110.711214 C51.6540334,110.711214 53.6116211,110.145653 55.4304363,113.249732 L60.0879886,105.888021 C60.0879886,105.888021 62.5508335,101.56319 56.9409938,98.7801713 L56.9409938,98.7801713 Z" id="Shape-2-copy-9" fill="#DA6262"></path>
                    <path d="M47.5633317,14.1205119 C63.2229549,14.1205119 75.5831067,28.8760257 75.1812115,46.6051333 L74.7540611,65.4480401 C74.3754401,82.1506192 62.2059493,95.353163 47.5633317,95.353163 C32.9207138,95.353163 20.7512229,82.1506192 20.3726022,65.4480401 L19.9454518,46.6051333 C19.5435655,28.8760257 31.9037084,14.1205119 47.5633317,14.1205119 L47.5633317,14.1205119 Z" id="2-copy-5" stroke="#DA6262" stroke-width="2" fill="#FFFFFF"></path>
                    <path d="M61.0950272,76.8475301 C58.8069968,78.8507274 53.6390103,80.7566676 47.6258889,80.7566676 C41.6127582,80.7566676 36.4447718,78.8507274 34.1567325,76.8475301 C34.1567325,76.8475301 33.9226381,76.1980391 34.2660996,75.8517232 C34.6159177,75.4989981 35.1637709,75.5757654 35.1637709,75.5757654 C37.4494063,77.5803249 41.6104623,79.2335661 47.6258889,79.2335661 C53.6413063,79.2335661 57.8023623,77.5803249 60.0879977,75.5757654 C60.0879977,75.5757654 60.6470875,75.3663526 60.9186818,75.6402043 C61.441784,76.1676536 61.0950272,76.8475301 61.0950272,76.8475301 L61.0950272,76.8475301 Z" id="usta" fill="#DA6262"></path>
                    <path d="M43.4718466,83.8028981 L51.5281626,83.8028981 L51.5281626,85.0721571 L43.4718466,85.0721571 L43.4718466,83.8028981 L43.4718466,83.8028981 Z" id="-" fill="#DA6262"></path>
                    <path d="M33.6532133,50.294436 C35.0436443,50.294436 36.1708092,51.430968 36.1708092,52.8329537 C36.1708092,54.2349398 35.0436443,55.3714715 33.6532133,55.3714715 C32.2627821,55.3714715 31.1356083,54.2349398 31.1356083,52.8329537 C31.1356083,51.430968 32.2627821,50.294436 33.6532133,50.294436 L33.6532133,50.294436 Z" id="oko" fill="#DA6262"></path>
                    <path d="M61.5985464,50.294436 C62.9889773,50.294436 64.1161423,51.430968 64.1161423,52.8329537 C64.1161423,54.2349398 62.9889773,55.3714715 61.5985464,55.3714715 C60.2081243,55.3714715 59.0809502,54.2349398 59.0809502,52.8329537 C59.0809502,51.430968 60.2081243,50.294436 61.5985464,50.294436 L61.5985464,50.294436 Z" id="oko_1" fill="#DA6262"></path>
                    <path d="M33.5273336,59.686961 C35.9605834,59.686961 37.9331265,59.8277314 37.9331265,62.6062565 C37.9331265,65.4721796 35.9605834,65.5255519 33.5273336,65.5255519 C31.0940747,65.5255519 29.1215407,65.0036132 29.1215407,62.6062565 C29.1215407,59.8058432 31.0940747,59.686961 33.5273336,59.686961 L33.5273336,59.686961 Z" id="Ellipse-3-copy" fill="#F5F3EF"></path>
                    <path d="M62.7314733,59.686961 C65.1647234,59.686961 67.1372665,59.8277314 67.1372665,62.6062565 C67.1372665,65.4721796 65.1647234,65.5255519 62.7314733,65.5255519 C60.2982144,65.5255519 58.3256805,65.0036132 58.3256805,62.6062565 C58.3256805,59.8058432 60.2982144,59.686961 62.7314733,59.686961 L62.7314733,59.686961 Z" id="Ellipse-3-copy-2" fill="#F5F3EF"></path>
                    <path d="M54.2857143,45.6963886 L55.0148647,46.6302352 L55.4672611,47.2090139 C55.4672611,47.2090139 63.4774514,42.7491408 69.0372671,47.8947368 L69.6300302,48.1877348 C69.6300302,48.1877348 68.2603615,40.7279588 56.2705924,45.0913823 C55.6380059,45.2643995 54.9779766,45.4640801 54.2857143,45.6963886 L54.2857143,45.6963886 Z" id="R-copy" fill="#DA6262"></path>
                    <path d="M40.4192547,45.7015818 L39.6901043,46.6334852 L39.2377078,47.2110564 C39.2377078,47.2110564 31.2275176,42.7604615 25.6677019,47.8953541 L25.0749387,48.1877441 C25.0749387,48.1877441 26.4446074,40.7434737 38.4343766,45.0978279 C39.066963,45.2704911 39.7269923,45.4697543 40.4192547,45.7015818 L40.4192547,45.7015818 Z" id="L-copy" fill="#DA6262"></path>
                    <path d="M74.4383036,34.8094592 L79.7252551,34.8094592 L79.7252551,47.5020574 L74.4383036,47.5020574 L74.4383036,34.8094592 L74.4383036,34.8094592 Z" id="Rectangle-19" fill="#DA6262"></path>
                    <path d="M16.4563458,46.330982 C16.4563458,46.330982 22.0169716,35.5353545 32.6579966,37.2525715 C32.6579966,37.2525715 33.0788985,39.7116075 35.3670189,42.3549451 C35.3670189,42.3549451 37.8721899,36.2410772 45.5969382,34.5187307 C51.7336254,33.1504712 57.5592464,28.2178467 57.5592464,28.2178467 C57.5592464,28.2178467 58.4654709,38.0202641 70.4227913,40.7499196 C70.4227913,40.7499196 80.899617,42.0560459 80.1392512,36.218835 C79.3788854,30.3816241 73.564816,4.97498458 45.7238711,8.82110865 C17.8829354,12.6672238 11.3442267,22.8616123 16.2090431,46.0753053" id="Shape-15" fill="#DA6262"></path>
                    <path d="M18.2350494,48.8803394 C18.2315742,48.880539 17.9259728,48.6344586 17.3488938,48.4512552 C17.0604714,48.3598533 16.7020099,48.2846654 16.2934341,48.2661275 C16.1913958,48.2614975 16.0863774,48.2603989 15.9789192,48.2634763 C15.8714606,48.2665541 15.7615533,48.2737987 15.6498362,48.2858277 C15.4264293,48.3098947 15.1956931,48.3531445 14.9635072,48.4204884 C14.0338192,48.6898826 13.0854216,49.3448657 12.5284298,50.6967568 C12.2488309,51.3727387 12.0643825,52.2230268 12.0156189,53.2868858 C12.0034188,53.5528571 11.9996913,53.8321739 12.0050394,54.1254536 C12.0103965,54.418733 12.0248386,54.7259751 12.0489592,55.0477973 C12.0971737,55.6914146 12.1842389,56.3933607 12.3139631,57.1582569 C12.311127,57.1575034 12.1929724,59.4696953 13.012771,62.1265597 C13.7834641,64.7241692 15.6341429,67.9151013 19.0511389,68.8269412 C18.6581481,62.2289557 18.6459394,55.5072944 18.2350494,48.8803394 L18.2350494,48.8803394 L18.2350494,48.8803394 Z" id="Shape-11-copy" fill="#F7FBFB"></path>
                    <path d="M18.9197129,49.1463289 C18.9197129,49.1463289 12.9670507,47.286562 13.1765384,53.4570977 C13.1765384,53.4570977 14.0627839,62.4045693 14.4476351,63.2291927 C14.4476351,63.2291927 16.7854105,68.4387192 20.6435755,68.6695936 C24.4143692,68.8952385 20.6435755,68.6695936 20.6435755,68.6695936 L20.6904034,70.3487447 C20.6904034,70.3487447 13.9092179,69.4720654 12.5994774,61.5924561 L11.5657251,54.4342119 C11.5657251,54.4342119 10.7630604,44.9609795 18.5489521,47.3696207 C26.1339911,49.7161294 18.5489521,47.3696207 18.5489521,47.3696207 L18.9197129,49.1463289" id="Shape-3" fill="#DA6262"></path>
                    <path d="M16.95494,61.577404 C16.95494,61.577404 16.6218054,61.8312559 16.335625,61.8312559 C16.0494446,61.8312559 15.7203708,61.577404 15.7203708,61.577404 L15.106053,55.3353847 C15.106053,55.3353847 15.9536548,52.2613559 19.5503453,53.8858913 L19.6353665,55.6707065 C19.6353665,55.6707065 16.4798182,54.5422907 16.5450675,55.9474268 C16.607877,57.2999444 16.95494,61.577404 16.95494,61.577404 L16.95494,61.577404 Z" id="Shape-4" fill="#DA6262"></path>
                    <path d="M76.6530265,48.8949104 C76.6565196,48.89511 76.9634626,48.6492018 77.5430626,48.4661166 C77.8327545,48.3747784 78.1927826,48.2996452 78.6031502,48.2811159 C78.7056295,48.2764951 78.8111072,48.2753965 78.9190429,48.2784742 C79.0269694,48.2815425 79.1373538,48.2887871 79.2495662,48.3008072 C79.4739455,48.324856 79.7056992,48.3680784 79.9389024,48.4353771 C80.87266,48.7045895 81.8252085,49.3591279 82.3846402,50.7101022 C82.6654635,51.3856209 82.8507223,52.235328 82.899693,53.2984697 C82.9119472,53.5642597 82.9156926,53.843386 82.9103263,54.1364658 C82.9049422,54.4295453 82.8904373,54.7365788 82.8662085,55.0581831 C82.8177871,55.7013645 82.7303346,56.4028385 82.6000433,57.1672082 C82.6028974,57.1664546 82.7215651,59.4770851 81.8981738,62.1321432 C81.1241135,64.7279912 79.2653226,67.9167535 75.8333626,68.8279761 C76.2280729,62.2344663 76.2403358,55.5173713 76.6530265,48.8949104 L76.6530265,48.8949104 L76.6530265,48.8949104 Z" id="Shape-11-copy_1" fill="#F7FBFB"></path>
                    <path d="M75.9653648,49.1607274 C75.9653648,49.1607274 81.9441013,47.3022224 81.7336955,53.4685636 C81.7336955,53.4685636 80.8435694,62.4099621 80.4570253,63.2340226 C80.4570253,63.2340226 78.109013,68.4400175 74.2339571,68.6707374 C70.4466419,68.8962282 74.2339571,68.6707374 74.2339571,68.6707374 L74.186922,70.3487447 C74.186922,70.3487447 80.9978016,69.4726646 82.3132775,61.5984024 L83.3515585,54.445015 C83.3515585,54.445015 84.1577438,44.9782103 76.3377459,47.3852175 C68.719493,49.7301372 76.3377459,47.3852175 76.3377459,47.3852175 L75.9653648,49.1607274" id="Shape-3_1" fill="#DA6262"></path>
                    <path d="M77.9387452,61.5833596 C77.9387452,61.5833596 78.2733382,61.8370387 78.5607701,61.8370387 C78.8482021,61.8370387 79.1787165,61.5833596 79.1787165,61.5833596 L79.7957265,55.3455797 C79.7957265,55.3455797 78.944415,52.2736393 75.3319683,53.8970668 L75.2465777,55.6806745 C75.2465777,55.6806745 78.4159468,54.5530215 78.3504092,55.9572045 C78.2873298,57.3088049 77.9387452,61.5833596 77.9387452,61.5833596 L77.9387452,61.5833596 Z" id="Shape-4_1" fill="#DA6262"></path>
                    <path d="M49.8287807,61.0831458 L50.2693556,61.0831458 C51.1802531,62.33048 51.5508428,64.2472961 52.0316726,65.9063294 C52.1806827,66.4204695 52.0361205,67.3197634 51.9057929,67.6832919 C51.4285014,69.0146838 49.9297834,68.9907894 48.6958627,69.5871803 C48.3644749,69.7473605 48.1179732,70.0238357 47.6888243,70.0948928 C47.4090452,69.8463973 47.0712379,69.7975917 46.9335365,69.396796 C46.5935681,68.9247708 47.03173,68.6300025 47.3741203,68.4448474 C47.9955238,68.1088173 49.913793,67.7776261 50.1434756,67.1755884 C50.4276575,66.8496263 50.2386981,65.869589 50.1434756,65.5255519 C49.8996032,64.6443605 49.782547,63.908697 49.4511413,63.11396 C49.2310027,62.5860749 48.8445034,62.0294839 49.0735021,61.4004559 C49.2632625,61.3182959 49.673387,61.2248785 49.8287807,61.0831458 L49.8287807,61.0831458 Z" id="new_vector_shape_done" fill="#DA6262"></path>
                </g>
            </g>
        </g>
    </g>
</svg>