<?xml version="1.0" encoding="UTF-8"?>
<svg width="260px" height="220px" viewBox="0 0 260 220" version="1.1" xmlns="http://www.w3.org/2000/svg" xmlns:xlink="http://www.w3.org/1999/xlink">
    <!-- Generator: Sketch 43.1 (39012) - http://www.bohemiancoding.com/sketch -->
    <title>feature-review</title>
    <desc>Created with Sketch.</desc>
    <defs></defs>
    <g id="Page-1" stroke="none" stroke-width="1" fill="none" fill-rule="evenodd">
        <g id="Group-34" transform="translate(30.000000, 10.000000)">
            <g id="users-9" transform="translate(55.000000, 18.000000)">
                <g id="svg9797">
                    <path d="M25.0631564,98.5336512 L36.7482085,98.5336512 L36.7482085,93.1574453 C36.7482085,93.1574453 44.9678529,96.6835272 53.2910966,93.5508256 L53.5536817,98.5336512 L67.208123,98.5336512 C67.208123,98.5336512 90.9865102,100.904465 89.5484049,129.385343 L0.925806378,129.385343 C0.925806378,129.385343 -2.2442609,101.63015 25.0631564,98.5336512 Z" id="body-bg-flat" stroke="#9E7CDB" stroke-width="2" fill="#C8B5EB"></path>
                    <path d="M41.541843,113.096927 L45.2344513,109.101655 L49.2347769,113.096927 L47.0807555,115.248227 L50.4656464,129.078014 L40.0032563,129.078014 L43.6958645,115.248227 L41.541843,113.096927 L41.541843,113.096927 Z" id="Shape-34" fill="#9E7CDB"></path>
                    <path d="M36.8674699,94.25 L53.1325301,94.25 L53.1325301,101.291667 C53.1325301,105.180672 49.9771772,108.333333 46.0930366,108.333333 L43.9069634,108.333333 C40.0191585,108.333333 36.8674699,105.172758 36.8674699,101.291667 L36.8674699,94.25 Z" id="Rectangle-26" fill="#FFFFFF"></path>
                    <path d="M37.6646025,92.5508072 L37.6646025,100.638188 C37.6646025,104.83491 41.0739471,108.23704 45.2795833,108.23704 C49.4852198,108.23704 52.8945644,104.83491 52.8945644,100.638188 L52.8945644,92.717658 C53.3364948,92.5833146 53.7742652,92.4373971 54.2074906,92.2797563 L54.2074906,100.693233 C54.2074906,105.656166 50.180946,109.679434 45.213942,109.679434 C40.246938,109.679434 36.2203837,105.656166 36.2203837,100.693233 L36.2203837,92.03068 C36.6960646,92.2185306 37.1778592,92.3913092 37.6646025,92.5508072 L37.6646025,92.5508072 Z" id="neck-copy-7" fill="#9E7CDB"></path>
                    <path d="M68.8425084,115.091289 L65.1236343,122.838094 C64.9355461,123.229908 64.4650395,123.395249 64.0727392,123.207398 C63.6804297,123.019548 63.5148793,122.549635 63.7029676,122.157822 L67.2946529,114.675981 L64.4882158,109.821234 C64.2706876,109.444933 64.3997735,108.963757 64.7765507,108.746503 C65.1533373,108.52924 65.6351129,108.658172 65.8526506,109.034474 L68.8723807,114.258197 C69.0279952,114.527382 69.0054294,114.849773 68.8425084,115.091289 L68.8425084,115.091289 Z" id="Rounded-Rectangle-2" fill="#9E7CDB"></path>
                    <path d="M21.6517305,115.098849 L25.3905603,122.869504 C25.5796533,123.262527 26.0526859,123.428375 26.4470897,123.239943 C26.8415027,123.051511 27.0079452,122.580154 26.8188427,122.18714 L23.2078968,114.682265 L26.0293874,109.812568 C26.24808,109.435113 26.1182993,108.952455 25.7395032,108.734526 C25.3606976,108.516597 24.8763394,108.645923 24.6576373,109.023388 L21.6217083,114.263196 C21.4652577,114.533206 21.4879365,114.856591 21.6517305,115.098849 L21.6517305,115.098849 Z" id="Rounded-Rectangle-2-copy-3" fill="#9E7CDB"></path>
                    <path d="M36.2203837,97.4846373 L37.6646025,97.4846373 L37.6646025,129.348465 L36.2203837,129.348465 L36.2203837,97.4846373 L36.2203837,97.4846373 Z" id="Rectangle-24" fill="#9E7CDB"></path>
                    <path d="M52.8945644,97.7468909 L54.3387832,97.7468909 L54.3387832,129.610718 L52.8945644,129.610718 L52.8945644,97.7468909 L52.8945644,97.7468909 Z" id="Rectangle-24-copy" fill="#9E7CDB"></path>
                    <path d="M50.0653923,129.289969 L46.3438696,115.418614 L47.11768,115.186758 L47.6307645,114.642302 L51.5668477,129.313397 L50.0653923,129.289969 L50.0653923,129.289969 Z M39.5678334,129.126156 L43.4531128,114.70967 L43.704072,114.924504 L44.4918278,115.449011 L44.7515582,115.474953 L41.0662373,129.149538 L39.5678334,129.126156 L39.5678334,129.126156 Z" id="Rectangle-24-copy-4" fill="#9E7CDB"></path>
                    <path d="M54.2030487,117.026968 L53.1818287,118.046898 L49.2081917,114.078281 C48.4413868,115.294634 47.0876576,116.104645 45.5421687,116.104645 C43.934231,116.104645 42.5339706,115.227931 41.7865011,113.928781 L37.6385619,118.07149 L36.6145995,117.048821 L44.781064,108.892674 L45.4197596,108.301239 L46.0584553,108.892674 L54.2030487,117.026968 L54.2030487,117.026968 Z M42.5897893,113.126508 C43.1133633,114.191222 44.2085734,114.924504 45.4765178,114.924504 C46.7159516,114.924504 47.788774,114.22281 48.3256454,113.19685 L45.422502,110.297374 L42.5897893,113.126508 L42.5897893,113.126508 Z" id="Ellipse-6" fill="#9E7CDB"></path>
                    <path d="M45.5443098,13.0389189 C62.170081,13.0389189 74.8175948,27.6012844 74.1408569,44.2645292 L73.2224754,66.8776515 C70.6206824,82.2302572 60.0229053,93.3142609 45.6603331,94.8621024 C31.6501594,93.3916278 20.8444891,82.2263086 17.8661346,66.8776515 L16.9477531,44.2645292 C16.2710152,27.6012844 28.9185386,13.0389189 45.5443098,13.0389189 L45.5443098,13.0389189 Z" id="1-copy-4" stroke="#9E7CDB" stroke-width="2" fill="#FFFFFF"></path>
                    <path d="M59.7217804,75.0883467 C57.3353649,77.1578437 51.9451557,79.1268646 45.6734707,79.1268646 C39.4017762,79.1268646 34.011567,77.1578437 31.6251423,75.0883467 C31.6251423,75.0883467 31.3809818,74.4173595 31.7392122,74.0595817 C32.1040724,73.6951825 32.6754832,73.7744904 32.6754832,73.7744904 C35.0594006,75.8453948 39.3993816,77.5533532 45.6734707,77.5533532 C51.9475504,77.5533532 56.2875313,75.8453948 58.6714488,73.7744904 C58.6714488,73.7744904 59.2545793,73.5581468 59.5378522,73.8410621 C60.0834477,74.3859683 59.7217804,75.0883467 59.7217804,75.0883467 L59.7217804,75.0883467 Z" id="-" fill="#9E7CDB"></path>
                    <path d="M41.3408051,82.273916 L49.7435417,82.273916 L49.7435417,83.5851835 L41.3408051,83.5851835 L41.3408051,82.273916 L41.3408051,82.273916 Z" id="-_1" fill="#9E7CDB"></path>
                    <path d="M15.326546,46.195528 C15.3229214,46.1957342 15.0041792,45.9415092 14.4022859,45.7522424 C14.1014614,45.6578154 13.727586,45.580139 13.3014415,45.5609875 C13.1950156,45.5562043 13.0854815,45.5550693 12.9734025,45.5582486 C12.8613232,45.5614282 12.7466899,45.5689126 12.630169,45.5813397 C12.3971556,45.6062032 12.1564978,45.6508845 11.914328,45.7204573 C10.9446635,45.9987676 9.95548484,46.6754287 9.37454247,48.0720632 C9.08292089,48.770418 8.89054123,49.648848 8.83968078,50.7479174 C8.82695605,51.0226917 8.82306835,51.3112529 8.82864634,51.6142393 C8.83423388,51.9172253 8.84929695,52.2346362 8.87445469,52.5671098 C8.92474247,53.2320287 9.01555141,53.9572072 9.1508538,54.7474191 C9.14789572,54.7466406 9.02466045,57.135359 9.87971036,59.8801574 C10.6835432,62.5637398 12.6138009,65.8602819 16.1777273,66.8023009 C15.767838,59.9859424 15.7551043,53.0418148 15.326546,46.195528 L15.326546,46.195528 L15.326546,46.195528 Z" id="Shape-11-copy" fill="#FFFFFF"></path>
                    <path d="M15.7329327,46.4703209 C15.7329327,46.4703209 9.52430666,44.5490014 9.7428023,50.9237629 C9.7428023,50.9237629 10.6671563,60.1673683 11.0685561,61.0192841 C11.0685561,61.0192841 13.5068555,66.40123 17.5309212,66.6397456 C21.4638585,66.8728587 17.5309212,66.6397456 17.5309212,66.6397456 L17.5797627,68.3744715 C17.5797627,68.3744715 10.506987,67.4687768 9.14092776,59.3283766 L8.06272431,51.9332166 C8.06272431,51.9332166 7.22554508,42.1464493 15.3462292,44.6348091 C23.2574239,47.05898 15.3462292,44.6348091 15.3462292,44.6348091 L15.7329327,46.4703209" id="Shape-3" fill="#9E7CDB"></path>
                    <path d="M13.6836748,59.3128264 C13.6836748,59.3128264 13.3362154,59.57508 13.0377293,59.57508 C12.7392431,59.57508 12.3960192,59.3128264 12.3960192,59.3128264 L11.7552858,52.8642154 C11.7552858,52.8642154 12.6393344,49.6884457 16.3906822,51.3667482 L16.4793593,53.2106353 C16.4793593,53.2106353 13.1881227,52.0448724 13.2561778,53.4965142 C13.3216881,54.893796 13.6836748,59.3128264 13.6836748,59.3128264 L13.6836748,59.3128264 Z" id="Shape-4" fill="#9E7CDB"></path>
                    <path d="M75.6410544,46.2105812 C75.6446978,46.2107874 75.9648392,45.9567404 76.569362,45.7675956 C76.8715106,45.6732344 77.2470199,45.5956145 77.6750332,45.576472 C77.7819191,45.5716982 77.8919324,45.5705633 78.0045093,45.5737429 C78.1170766,45.5769127 78.2322075,45.584397 78.349245,45.596815 C78.5832727,45.6216597 78.8249917,45.6663127 79.0682226,45.7358387 C80.0421317,46.0139613 81.0356397,46.6901629 81.6191269,48.0858503 C81.9120255,48.7837265 82.1052505,49.6615563 82.1563269,50.7598848 C82.169108,51.0344716 82.1730144,51.3228361 82.1674174,51.625616 C82.1618018,51.9283955 82.1466732,52.2455909 82.1214025,52.5778392 C82.070899,53.242308 81.9796861,53.9669987 81.8437922,54.7566666 C81.8467691,54.7558881 81.9705395,57.1429933 81.1117425,59.8859257 C80.3043977,62.5676883 78.365679,65.8619888 74.7861451,66.8033701 C75.1978279,59.9916354 75.2106182,53.0522252 75.6410544,46.2105812 L75.6410544,46.2105812 L75.6410544,46.2105812 Z" id="Shape-11-copy_1" fill="#FFFFFF"></path>
                    <path d="M75.2315408,46.4851959 C75.2315408,46.4851959 81.4673622,44.5651801 81.247909,50.9356083 C81.247909,50.9356083 80.3195076,60.1729396 79.9163421,61.0242739 C79.9163421,61.0242739 77.4673655,66.4025712 73.4256827,66.6409273 C69.4755135,66.8738812 73.4256827,66.6409273 73.4256827,66.6409273 L73.3766252,68.3744715 C73.3766252,68.3744715 80.4803717,67.4693958 81.8524129,59.3345198 L82.9353399,51.9443772 C82.9353399,51.9443772 83.7761911,42.1642504 75.6199342,44.6509221 C67.6740973,47.0734515 75.6199342,44.6509221 75.6199342,44.6509221 L75.2315408,46.4851959" id="Shape-3_1" fill="#9E7CDB"></path>
                    <path d="M77.2897763,59.3189791 C77.2897763,59.3189791 77.6387567,59.5810542 77.9385482,59.5810542 C78.2383397,59.5810542 78.5830662,59.3189791 78.5830662,59.3189791 L79.2266075,52.8747479 C79.2266075,52.8747479 78.3386897,49.7011356 74.5709082,51.3782936 L74.4818459,53.2209333 C74.4818459,53.2209333 77.7874974,52.0559584 77.7191417,53.5066155 C77.6533499,54.9029498 77.2897763,59.3189791 77.2897763,59.3189791 L77.2897763,59.3189791 Z" id="Shape-4_1" fill="#9E7CDB"></path>
                    <path d="M47.9710867,58.8022097 L48.4306063,58.8022097 C49.3806722,60.0908269 49.7671972,62.0710837 50.2687026,63.7850258 C50.4241202,64.3161825 50.2733418,65.2452402 50.1374101,65.6208004 C49.6395951,66.9962573 48.0764325,66.971572 46.7894533,67.5877016 C46.4438159,67.7531833 46.1867147,68.038809 45.7391124,68.1122178 C45.4473028,67.8554979 45.0949698,67.805077 44.9513474,67.3910162 C44.5967603,66.9033684 45.0537631,66.5988442 45.4108761,66.407561 C46.059,66.0604094 48.0597545,65.7182568 48.2993134,65.0962934 C48.5957151,64.759543 48.3986304,63.7470695 48.2993134,63.3916458 C48.0449546,62.4812896 47.9228649,61.721278 47.5772088,60.9002376 C47.3476043,60.3548812 46.9444856,59.7798687 47.1833312,59.1300218 C47.3812513,59.0451426 47.809011,58.9486334 47.9710867,58.8022097 L47.9710867,58.8022097 Z" id="new_vector_shape_done" fill="#9E7CDB"></path>
                    <path d="M29.7870364,48.7054407 L31.6251423,48.7054407 C32.640296,48.7054407 33.463239,49.5273441 33.463239,50.5412153 C33.463239,51.5550862 32.640296,52.3769896 31.6251423,52.3769896 L29.7870364,52.3769896 C28.7718826,52.3769896 27.9489397,51.5550862 27.9489397,50.5412153 C27.9489397,49.5273441 28.7718826,48.7054407 29.7870364,48.7054407 L29.7870364,48.7054407 Z" id="Rounded-Rectangle-8" fill="#9E7CDB"></path>
                    <path d="M59.7217804,48.7054407 L61.5598864,48.7054407 C62.5750398,48.7054407 63.3979828,49.5273441 63.3979828,50.5412153 C63.3979828,51.5550862 62.5750398,52.3769896 61.5598864,52.3769896 L59.7217804,52.3769896 C58.7066267,52.3769896 57.8836837,51.5550862 57.8836837,50.5412153 C57.8836837,49.5273441 58.7066267,48.7054407 59.7217804,48.7054407 L59.7217804,48.7054407 Z" id="Rounded-Rectangle-8-copy" fill="#9E7CDB"></path>
                    <path d="M30.9686793,57.3598155 C33.5065585,57.3598155 35.5639208,57.5052449 35.5639208,60.3757307 C35.5639208,63.3365071 33.5065585,63.3916458 30.9686793,63.3916458 C28.4307906,63.3916458 26.3734379,62.8524326 26.3734379,60.3757307 C26.3734379,57.4826323 28.4307906,57.3598155 30.9686793,57.3598155 L30.9686793,57.3598155 Z" id="Ellipse-3-copy" fill="#F5F3EF"></path>
                    <path d="M61.4285935,57.3598155 C63.966473,57.3598155 66.0238353,57.5052449 66.0238353,60.3757307 C66.0238353,63.3365071 63.966473,63.3916458 61.4285935,63.3916458 C58.8907048,63.3916458 56.8333521,62.8524326 56.8333521,60.3757307 C56.8333521,57.4826323 58.8907048,57.3598155 61.4285935,57.3598155 L61.4285935,57.3598155 Z" id="Ellipse-3-copy-2" fill="#F5F3EF"></path>
                    <path d="M53.8505373,43.6406619 C53.8505373,43.6406619 61.8472633,39.053383 67.1192423,44.8475512 L69.8354246,44.7701563 C69.8354246,44.7701563 66.4478762,37.3844313 52.5417151,42.0445096 L53.8505373,43.9479905" id="R-copy" fill="#9E7CDB"></path>
                    <path d="M37.1612375,43.6705807 C37.1612375,43.6705807 29.1911906,39.1238937 23.93681,44.8667875 L21.2296896,44.7900774 C21.2296896,44.7900774 24.6059318,37.4697141 38.465693,42.0885532 L37.1612375,43.9751894" id="R-copy-3" fill="#9E7CDB"></path>
                    <path d="M17.7359785,41.3554307 C17.7359785,41.3554307 26.3807437,36.9780519 25.4252499,21.9254217 C25.4252499,21.9254217 39.2542282,37.0587109 72.5884752,32.4457055 L74.1639865,46.6074033 C74.1639865,46.6074033 93.7600078,10.3426654 58.6714392,2.0242721 C24.3328382,-6.11633435 23.9369977,15.3612343 23.9369977,15.3612343 C23.9369977,15.3612343 13.4064211,13.7896172 12.5271145,24.0259632 C11.6478174,34.2623092 14.8196691,45.0338824 14.8196691,45.0338824 L17.4455213,47.1319103 L17.7359785,41.3554307 L17.7359785,41.3554307 Z" id="Shape-1" fill="#9E7CDB"></path>
                </g>
            </g>
            <path d="M35.7689266,182.92998 C34.7919754,182.416366 33.214348,182.413042 32.2310734,182.92998 L26.3643625,186.014292 C25.3874114,186.527906 24.7454821,186.069436 24.9332709,184.974543 L26.053713,178.441865 C26.240294,177.354014 25.755942,175.852573 24.9604562,175.077166 L20.2141874,170.450698 C19.4238173,169.680277 19.6614814,168.928091 20.7608158,168.768349 L27.319998,167.815244 C28.4122626,167.656528 29.690544,166.731912 30.1821813,165.735746 L33.1155367,159.792118 C33.6040123,158.802359 34.392826,158.795952 34.8844633,159.792118 L37.8178187,165.735746 C38.3062943,166.725505 39.5806677,167.655501 40.680002,167.815244 L47.2391842,168.768349 C48.3314488,168.927064 48.5812984,169.675291 47.7858126,170.450698 L43.0395438,175.077166 C42.2491737,175.847587 41.7584983,177.346972 41.946287,178.441865 L43.0667291,184.974543 C43.2533102,186.062394 42.618912,186.53123 41.6356375,186.014292 L35.7689266,182.92998 Z" id="Star" stroke="#9E7CDB" stroke-width="2" fill="#9E7CDB"></path>
            <path d="M79.7689266,182.92998 C78.7919754,182.416366 77.214348,182.413042 76.2310734,182.92998 L70.3643625,186.014292 C69.3874114,186.527906 68.7454821,186.069436 68.9332709,184.974543 L70.053713,178.441865 C70.240294,177.354014 69.755942,175.852573 68.9604562,175.077166 L64.2141874,170.450698 C63.4238173,169.680277 63.6614814,168.928091 64.7608158,168.768349 L71.319998,167.815244 C72.4122626,167.656528 73.690544,166.731912 74.1821813,165.735746 L77.1155367,159.792118 C77.6040123,158.802359 78.392826,158.795952 78.8844633,159.792118 L81.8178187,165.735746 C82.3062943,166.725505 83.5806677,167.655501 84.680002,167.815244 L91.2391842,168.768349 C92.3314488,168.927064 92.5812984,169.675291 91.7858126,170.450698 L87.0395438,175.077166 C86.2491737,175.847587 85.7584983,177.346972 85.946287,178.441865 L87.0667291,184.974543 C87.2533102,186.062394 86.618912,186.53123 85.6356375,186.014292 L79.7689266,182.92998 Z" id="Star-Copy" stroke="#9E7CDB" stroke-width="2" fill="#9E7CDB"></path>
            <path d="M123.768927,182.92998 C122.791975,182.416366 121.214348,182.413042 120.231073,182.92998 L114.364363,186.014292 C113.387411,186.527906 112.745482,186.069436 112.933271,184.974543 L114.053713,178.441865 C114.240294,177.354014 113.755942,175.852573 112.960456,175.077166 L108.214187,170.450698 C107.423817,169.680277 107.661481,168.928091 108.760816,168.768349 L115.319998,167.815244 C116.412263,167.656528 117.690544,166.731912 118.182181,165.735746 L121.115537,159.792118 C121.604012,158.802359 122.392826,158.795952 122.884463,159.792118 L125.817819,165.735746 C126.306294,166.725505 127.580668,167.655501 128.680002,167.815244 L135.239184,168.768349 C136.331449,168.927064 136.581298,169.675291 135.785813,170.450698 L131.039544,175.077166 C130.249174,175.847587 129.758498,177.346972 129.946287,178.441865 L131.066729,184.974543 C131.25331,186.062394 130.618912,186.53123 129.635637,186.014292 L123.768927,182.92998 Z" id="Star-Copy-2" stroke="#9E7CDB" stroke-width="2" fill="#C8B5EB"></path>
            <path d="M167.768927,182.92998 C166.791975,182.416366 165.214348,182.413042 164.231073,182.92998 L158.364363,186.014292 C157.387411,186.527906 156.745482,186.069436 156.933271,184.974543 L158.053713,178.441865 C158.240294,177.354014 157.755942,175.852573 156.960456,175.077166 L152.214187,170.450698 C151.423817,169.680277 151.661481,168.928091 152.760816,168.768349 L159.319998,167.815244 C160.412263,167.656528 161.690544,166.731912 162.182181,165.735746 L165.115537,159.792118 C165.604012,158.802359 166.392826,158.795952 166.884463,159.792118 L169.817819,165.735746 C170.306294,166.725505 171.580668,167.655501 172.680002,167.815244 L179.239184,168.768349 C180.331449,168.927064 180.581298,169.675291 179.785813,170.450698 L175.039544,175.077166 C174.249174,175.847587 173.758498,177.346972 173.946287,178.441865 L175.066729,184.974543 C175.25331,186.062394 174.618912,186.53123 173.635637,186.014292 L167.768927,182.92998 Z" id="Star-Copy-3" stroke="#BBC2C7" stroke-width="2" fill="#FFFFFF"></path>
        </g>
    </g>
</svg>