<?xml version="1.0" encoding="UTF-8"?>
<svg width="260px" height="220px" viewBox="0 0 260 220" version="1.1" xmlns="http://www.w3.org/2000/svg" xmlns:xlink="http://www.w3.org/1999/xlink">
    <!-- Generator: Sketch 43.1 (39012) - http://www.bohemiancoding.com/sketch -->
    <title>feature-delivery</title>
    <desc>Created with Sketch.</desc>
    <defs></defs>
    <g id="Page-1" stroke="none" stroke-width="1" fill="none" fill-rule="evenodd">
        <g id="Group-21" transform="translate(20.000000, 8.000000)">
            <g id="Group-11">
                <path d="M110,37 L110,167" id="Path-4" stroke="#DA6262" stroke-width="2" stroke-linecap="round" stroke-linejoin="round" stroke-dasharray="4"></path>
                <path d="M110,37 L110,102 C110,102 98.75,119.75 86.5,128.5 C74.25,137.25 61,137 61,137" id="Path-4-Copy" stroke="#DA6262" stroke-width="2" stroke-linecap="round" stroke-linejoin="round" stroke-dasharray="4"></path>
                <path d="M159,37 L159,102 C159,102 147.75,119.75 135.5,128.5 C123.25,137.25 110,137 110,137" id="Path-4-Copy-2" stroke="#DA6262" stroke-width="2" stroke-linecap="round" stroke-linejoin="round" stroke-dasharray="4" transform="translate(134.500000, 87.000365) scale(-1, 1) translate(-134.500000, -87.000365) "></path>
                <rect id="Rectangle-5" stroke="#BBC2C7" stroke-width="2" fill="#FFFFFF" x="80" y="0" width="60" height="36" rx="4"></rect>
                <rect id="Rectangle-15" fill="#BBC2C7" x="83" y="3" width="6" height="6" rx="1"></rect>
                <rect id="Rectangle-15-Copy" fill="#BBC2C7" x="90" y="3" width="8" height="6" rx="1"></rect>
                <rect id="Rectangle-15-Copy-2" fill="#BBC2C7" x="99" y="3" width="8" height="6" rx="1"></rect>
                <rect id="Rectangle-15-Copy-3" fill="#BBC2C7" x="108" y="3" width="8" height="6" rx="1"></rect>
                <rect id="Rectangle-15-Copy-4" fill="#BBC2C7" x="117" y="3" width="8" height="6" rx="1"></rect>
                <rect id="Rectangle-15-Copy-5" fill="#BBC2C7" x="131" y="3" width="6" height="6" rx="1"></rect>
                <rect id="Rectangle-15-Copy-6" fill="#BBC2C7" x="83" y="12" width="6" height="6" rx="1"></rect>
                <rect id="Rectangle-15-Copy-7" fill="#BBC2C7" x="90" y="12" width="12" height="3" rx="1"></rect>
                <rect id="Rectangle-15-Copy-8" fill="#BBC2C7" x="90" y="16" width="8" height="2" rx="1"></rect>
                <rect id="Rectangle-15-Copy-9" fill="#BBC2C7" x="83" y="21" width="8" height="3" rx="1"></rect>
                <rect id="Rectangle-15-Copy-10" fill="#BBC2C7" x="92" y="21" width="8" height="3" rx="1"></rect>
                <rect id="Rectangle-15-Copy-11" fill="#BBC2C7" x="101" y="21" width="8" height="3" rx="1"></rect>
                <rect id="Rectangle-15-Copy-12" fill="#BBC2C7" x="110" y="21" width="8" height="3" rx="1"></rect>
                <rect id="Rectangle-5-Copy" stroke="#BBC2C7" stroke-width="2" fill="#FFFFFF" x="80" y="168" width="60" height="36" rx="4"></rect>
                <path d="M106.171875,191.470982 L105.613839,192.029018 C105.539434,192.103423 105.45387,192.140625 105.357143,192.140625 C105.260416,192.140625 105.174852,192.103423 105.100446,192.029018 L99.8995536,186.828125 C99.8251484,186.75372 99.7879464,186.668155 99.7879464,186.571429 C99.7879464,186.474702 99.8251484,186.389137 99.8995536,186.314732 L105.100446,181.113839 C105.174852,181.039434 105.260416,181.002232 105.357143,181.002232 C105.45387,181.002232 105.539434,181.039434 105.613839,181.113839 L106.171875,181.671875 C106.24628,181.74628 106.283482,181.831845 106.283482,181.928571 C106.283482,182.025298 106.24628,182.110863 106.171875,182.185268 L101.785714,186.571429 L106.171875,190.957589 C106.24628,191.031994 106.283482,191.117559 106.283482,191.214286 C106.283482,191.311012 106.24628,191.396577 106.171875,191.470982 Z M112.767857,179.5625 L108.604911,193.970982 C108.575149,194.067709 108.517486,194.140253 108.43192,194.188616 C108.346354,194.236979 108.258929,194.24628 108.169643,194.216518 L107.477679,194.026786 C107.380952,193.997024 107.308408,193.939361 107.260045,193.853795 C107.211681,193.768229 107.202381,193.677084 107.232143,193.580357 L111.395089,179.171875 C111.424851,179.075148 111.482514,179.002604 111.56808,178.954241 C111.653646,178.905878 111.741071,178.896577 111.830357,178.926339 L112.522321,179.116071 C112.619048,179.145833 112.691592,179.203497 112.739955,179.289062 C112.788319,179.374628 112.797619,179.465773 112.767857,179.5625 Z M120.100446,186.828125 L114.899554,192.029018 C114.825148,192.103423 114.739584,192.140625 114.642857,192.140625 C114.54613,192.140625 114.460566,192.103423 114.386161,192.029018 L113.828125,191.470982 C113.75372,191.396577 113.716518,191.311012 113.716518,191.214286 C113.716518,191.117559 113.75372,191.031994 113.828125,190.957589 L118.214286,186.571429 L113.828125,182.185268 C113.75372,182.110863 113.716518,182.025298 113.716518,181.928571 C113.716518,181.831845 113.75372,181.74628 113.828125,181.671875 L114.386161,181.113839 C114.460566,181.039434 114.54613,181.002232 114.642857,181.002232 C114.739584,181.002232 114.825148,181.039434 114.899554,181.113839 L120.100446,186.314732 C120.174852,186.389137 120.212054,186.474702 120.212054,186.571429 C120.212054,186.668155 120.174852,186.75372 120.100446,186.828125 Z" id="" fill="#BBC2C7"></path>
                <rect id="Rectangle-5-Copy-2" stroke="#BBC2C7" stroke-width="2" fill="#FFFFFF" x="160" y="120" width="60" height="36" rx="4"></rect>
                <path d="M183.928571,142.142857 C183.437498,142.142857 183.017115,141.968008 182.667411,141.618304 C182.317707,141.268599 182.142857,140.848217 182.142857,140.357143 L182.142857,132.5 C182.142857,132.008926 182.317707,131.588543 182.667411,131.238839 C183.017115,130.889135 183.437498,130.714286 183.928571,130.714286 L196.071429,130.714286 C196.562502,130.714286 196.982885,130.889135 197.332589,131.238839 C197.682293,131.588543 197.857143,132.008926 197.857143,132.5 L197.857143,140.357143 C197.857143,140.848217 197.682293,141.268599 197.332589,141.618304 C196.982885,141.968008 196.562502,142.142857 196.071429,142.142857 L183.928571,142.142857 Z M183.571429,132.5 L183.571429,140.357143 C183.571429,140.45387 183.60677,140.537574 183.677455,140.608259 C183.74814,140.678944 183.831845,140.714286 183.928571,140.714286 L196.071429,140.714286 C196.168155,140.714286 196.25186,140.678944 196.322545,140.608259 C196.39323,140.537574 196.428571,140.45387 196.428571,140.357143 L196.428571,132.5 C196.428571,132.403273 196.39323,132.319569 196.322545,132.248884 C196.25186,132.178199 196.168155,132.142857 196.071429,132.142857 L183.928571,132.142857 C183.831845,132.142857 183.74814,132.178199 183.677455,132.248884 C183.60677,132.319569 183.571429,132.403273 183.571429,132.5 Z M179.285714,142.857143 L200.714286,142.857143 L200.714286,143.928571 C200.714286,144.226192 200.539436,144.479166 200.189732,144.6875 C199.840028,144.895834 199.419645,145 198.928571,145 L181.071429,145 C180.580355,145 180.159972,144.895834 179.810268,144.6875 C179.460564,144.479166 179.285714,144.226192 179.285714,143.928571 L179.285714,142.857143 Z M190.892857,143.928571 C191.011905,143.928571 191.071429,143.869048 191.071429,143.75 C191.071429,143.630952 191.011905,143.571429 190.892857,143.571429 L189.107143,143.571429 C188.988095,143.571429 188.928571,143.630952 188.928571,143.75 C188.928571,143.869048 188.988095,143.928571 189.107143,143.928571 L190.892857,143.928571 Z" id="" fill="#BBC2C7"></path>
                <rect id="Rectangle-5-Copy-3" stroke="#BBC2C7" stroke-width="2" fill="#FFFFFF" x="0" y="120" width="60" height="36" rx="4"></rect>
                <path d="M27.2433036,138.828125 L22.0424107,144.029018 C21.9680056,144.103423 21.882441,144.140625 21.7857143,144.140625 C21.6889876,144.140625 21.603423,144.103423 21.5290179,144.029018 L20.9709821,143.470982 C20.896577,143.396577 20.859375,143.311012 20.859375,143.214286 C20.859375,143.117559 20.896577,143.031994 20.9709821,142.957589 L25.3571429,138.571429 L20.9709821,134.185268 C20.896577,134.110863 20.859375,134.025298 20.859375,133.928571 C20.859375,133.831845 20.896577,133.74628 20.9709821,133.671875 L21.5290179,133.113839 C21.603423,133.039434 21.6889876,133.002232 21.7857143,133.002232 C21.882441,133.002232 21.9680056,133.039434 22.0424107,133.113839 L27.2433036,138.314732 C27.3177087,138.389137 27.3549107,138.474702 27.3549107,138.571429 C27.3549107,138.668155 27.3177087,138.75372 27.2433036,138.828125 Z M39.2857143,143.928571 L39.2857143,144.642857 C39.2857143,144.747024 39.2522325,144.832589 39.1852679,144.899554 C39.1183032,144.966518 39.0327386,145 38.9285714,145 L28.2142857,145 C28.1101185,145 28.0245539,144.966518 27.9575893,144.899554 C27.8906247,144.832589 27.8571429,144.747024 27.8571429,144.642857 L27.8571429,143.928571 C27.8571429,143.824404 27.8906247,143.73884 27.9575893,143.671875 C28.0245539,143.60491 28.1101185,143.571429 28.2142857,143.571429 L38.9285714,143.571429 C39.0327386,143.571429 39.1183032,143.60491 39.1852679,143.671875 C39.2522325,143.73884 39.2857143,143.824404 39.2857143,143.928571 Z" id="" fill="#BBC2C7"></path>
                <path d="M106.207106,55.1898284 C108.301863,53.9804196 111.694594,53.9783744 113.792894,55.1898284 L136.517995,68.3101716 C138.612753,69.5195804 140.310889,72.4567488 140.310889,74.8796569 L140.310889,101.120343 C140.310889,103.539161 138.616295,106.478374 136.517995,107.689828 L113.792894,120.810172 C111.698137,122.01958 108.305406,122.021626 106.207106,120.810172 L83.482005,107.689828 C81.3872474,106.48042 79.6891109,103.543251 79.6891109,101.120343 L79.6891109,74.8796569 C79.6891109,72.4608392 81.3837051,69.5216256 83.482005,68.3101716 L106.207106,55.1898284 Z" id="Polygon-2-Copy" stroke="#DA6262" stroke-width="2" fill="#EAA6A6"></path>
                <path d="M103,97 C103,96.7291653 102.901043,96.4947927 102.703125,96.296875 C102.505207,96.0989573 102.270835,96 102,96 C101.729165,96 101.494793,96.0989573 101.296875,96.296875 C101.098957,96.4947927 101,96.7291653 101,97 C101,97.2708347 101.098957,97.5052073 101.296875,97.703125 C101.494793,97.9010427 101.729165,98 102,98 C102.270835,98 102.505207,97.9010427 102.703125,97.703125 C102.901043,97.5052073 103,97.2708347 103,97 Z M113.0625,90.4375 L102.40625,101.09375 C102.020831,101.479169 101.552086,101.671875 101,101.671875 C100.458331,101.671875 99.984377,101.479169 99.578125,101.09375 L97.921875,99.40625 C97.5260397,99.0312481 97.328125,98.5625028 97.328125,98 C97.328125,97.4479139 97.5260397,96.9739603 97.921875,96.578125 L108.5625,85.9375 C108.968752,86.9583384 109.5651,87.8619752 110.351562,88.6484375 C111.138025,89.4348998 112.041662,90.031248 113.0625,90.4375 Z M122.96875,83.640625 C122.96875,84.046877 122.84896,84.5989548 122.609375,85.296875 C122.119789,86.6927153 121.263027,87.8255165 120.039062,88.6953125 C118.815098,89.5651085 117.468757,90 116,90 C114.072907,90 112.424486,89.315111 111.054688,87.9453125 C109.684889,86.575514 109,84.927093 109,83 C109,81.072907 109.684889,79.424486 111.054688,78.0546875 C112.424486,76.684889 114.072907,76 116,76 C116.60417,76 117.236976,76.0859366 117.898438,76.2578125 C118.559899,76.4296884 119.119789,76.6718734 119.578125,76.984375 C119.744793,77.0989589 119.828125,77.2447908 119.828125,77.421875 C119.828125,77.5989592 119.744793,77.7447911 119.578125,77.859375 L115,80.5 L115,84 L118.015625,85.671875 C118.067709,85.6406248 118.479163,85.3880232 119.25,84.9140625 C120.020837,84.4401018 120.726559,84.018231 121.367188,83.6484375 C122.007816,83.278644 122.375,83.09375 122.46875,83.09375 C122.625001,83.09375 122.747395,83.1458328 122.835938,83.25 C122.92448,83.3541672 122.96875,83.4843742 122.96875,83.640625 Z" id="" fill="#FFFFFF"></path>
            </g>
        </g>
    </g>
</svg>