<?xml version="1.0" encoding="UTF-8"?>
<svg width="260px" height="220px" viewBox="0 0 260 220" version="1.1" xmlns="http://www.w3.org/2000/svg" xmlns:xlink="http://www.w3.org/1999/xlink">
    <!-- Generator: Sketch 43.1 (39012) - http://www.bohemiancoding.com/sketch -->
    <title>feature-marketing</title>
    <desc>Created with Sketch.</desc>
    <defs>
        <polygon id="path-1" points="200 200 0 200 200 0"></polygon>
        <polygon id="path-3" points="0 0 200 0 0 200"></polygon>
    </defs>
    <g id="Page-1" stroke="none" stroke-width="1" fill="none" fill-rule="evenodd">
        <g id="Group-16" transform="translate(29.000000, 9.000000)">
            <g id="Group-14" transform="translate(2.000000, 1.000000)">
                <mask id="mask-2" fill="white">
                    <use xlink:href="#path-1"></use>
                </mask>
                <use id="Rectangle-10-Copy" fill-opacity="0" fill="#EFF0F1" xlink:href="#path-1"></use>
                <g id="Group-12-Copy" mask="url(#mask-2)">
                    <g transform="translate(81.000000, 76.000000)">
                        <rect id="Rectangle" stroke="#BBC2C7" stroke-width="2" fill="#FFFFFF" x="0" y="0" width="112" height="90" rx="4.07272727"></rect>
                        <path d="M5.48251748,14.1917091 C5.48251748,13.330073 6.18511003,12.6315789 7.05353965,12.6315789 L14.8765303,12.6315789 C15.7441819,12.6315789 16.4475524,13.3229706 16.4475524,14.1917091 L16.4475524,22.1240804 C16.4475524,22.9857165 15.7449599,23.6842105 14.8765303,23.6842105 L7.05353965,23.6842105 C6.18588807,23.6842105 5.48251748,22.9928189 5.48251748,22.1240804 L5.48251748,14.1917091 Z M19.5804196,14.2004171 C19.5804196,13.3339717 20.2844469,12.6315789 21.1403192,12.6315789 L53.2652752,12.6315789 C54.126784,12.6315789 54.8251748,13.3314907 54.8251748,14.2004171 L54.8251748,16.5890566 C54.8251748,17.455502 54.1211475,18.1578947 53.2652752,18.1578947 L21.1403192,18.1578947 C20.2788104,18.1578947 19.5804196,17.457983 19.5804196,16.5890566 L19.5804196,14.2004171 Z M19.5804196,22.0867602 C19.5804196,21.2249506 20.2852344,20.5263158 21.1399955,20.5263158 L39.9509135,20.5263158 C40.8122436,20.5263158 41.5104895,21.227155 41.5104895,22.0867602 L41.5104895,22.1237661 C41.5104895,22.9855757 40.8056747,23.6842105 39.9509135,23.6842105 L21.1399955,23.6842105 C20.2786655,23.6842105 19.5804196,22.9833713 19.5804196,22.1237661 L19.5804196,22.0867602 Z M5.48251748,28.4013854 C5.48251748,27.5402188 6.17962617,26.8421053 7.04903421,26.8421053 L17.2306861,26.8421053 C18.0958494,26.8421053 18.7972028,27.5493614 18.7972028,28.4013854 L18.7972028,32.3880883 C18.7972028,33.2492549 18.1000941,33.9473684 17.2306861,33.9473684 L7.04903421,33.9473684 C6.18387091,33.9473684 5.48251748,33.2401123 5.48251748,32.3880883 L5.48251748,28.4013854 Z M21.9300699,28.4013854 C21.9300699,27.5402188 22.6271786,26.8421053 23.4965867,26.8421053 L33.6782385,26.8421053 C34.5434018,26.8421053 35.2447552,27.5493614 35.2447552,28.4013854 L35.2447552,32.3880883 C35.2447552,33.2492549 34.5476466,33.9473684 33.6782385,33.9473684 L23.4965867,33.9473684 C22.6314234,33.9473684 21.9300699,33.2401123 21.9300699,32.3880883 L21.9300699,28.4013854 Z M38.3776224,28.4013854 C38.3776224,27.5402188 39.0747311,26.8421053 39.9441391,26.8421053 L50.125791,26.8421053 C50.9909543,26.8421053 51.6923077,27.5493614 51.6923077,28.4013854 L51.6923077,32.3880883 C51.6923077,33.2492549 50.995199,33.9473684 50.125791,33.9473684 L39.9441391,33.9473684 C39.0789758,33.9473684 38.3776224,33.2401123 38.3776224,32.3880883 L38.3776224,28.4013854 Z M54.8251748,28.4013854 C54.8251748,27.5402188 55.5222835,26.8421053 56.3916916,26.8421053 L66.5733434,26.8421053 C67.4385067,26.8421053 68.1398601,27.5493614 68.1398601,28.4013854 L68.1398601,32.3880883 C68.1398601,33.2492549 67.4427515,33.9473684 66.5733434,33.9473684 L56.3916916,33.9473684 C55.5265283,33.9473684 54.8251748,33.2401123 54.8251748,32.3880883 L54.8251748,28.4013854 Z M32.1118881,43.4022354 C32.1118881,42.5405993 32.8170581,41.8421053 33.6725495,41.8421053 L79.1106672,41.8421053 C79.9725968,41.8421053 80.6713287,42.5334969 80.6713287,43.4022354 L80.6713287,51.3346067 C80.6713287,52.1962428 79.9661586,52.8947368 79.1106672,52.8947368 L33.6725495,52.8947368 C32.81062,52.8947368 32.1118881,52.2033452 32.1118881,51.3346067 L32.1118881,43.4022354 Z M5.48251748,57.6127617 C5.48251748,56.7511256 6.18308384,56.0526316 7.05307851,56.0526316 L36.0238446,56.0526316 C36.8912415,56.0526316 37.5944056,56.7440232 37.5944056,57.6127617 L37.5944056,65.545133 C37.5944056,66.4067691 36.8938392,67.1052632 36.0238446,67.1052632 L7.05307851,67.1052632 C6.18568161,67.1052632 5.48251748,66.4138716 5.48251748,65.545133 L5.48251748,57.6127617 Z M40.7272727,57.6127617 C40.7272727,56.7511256 41.4255417,56.0526316 42.3023364,56.0526316 L70.4808804,56.0526316 C71.350764,56.0526316 72.0559441,56.7440232 72.0559441,57.6127617 L72.0559441,65.545133 C72.0559441,66.4067691 71.3576751,67.1052632 70.4808804,67.1052632 L42.3023364,67.1052632 C41.4324527,67.1052632 40.7272727,66.4138716 40.7272727,65.545133 L40.7272727,57.6127617 Z M75.1888112,57.6127617 C75.1888112,56.7511256 75.8893775,56.0526316 76.7593722,56.0526316 L105.730138,56.0526316 C106.597535,56.0526316 107.300699,56.7440232 107.300699,57.6127617 L107.300699,65.545133 C107.300699,66.4067691 106.600133,67.1052632 105.730138,67.1052632 L76.7593722,67.1052632 C75.8919753,67.1052632 75.1888112,66.4138716 75.1888112,65.545133 L75.1888112,57.6127617 Z M5.48251748,72.6268897 C5.48251748,71.7574509 6.18707148,71.0526316 7.04109428,71.0526316 L105.742123,71.0526316 C106.602901,71.0526316 107.300699,71.7497528 107.300699,72.6268897 L107.300699,82.1099524 C107.300699,82.9793912 106.596145,83.6842105 105.742123,83.6842105 L7.04109428,83.6842105 C6.18031608,83.6842105 5.48251748,82.9870893 5.48251748,82.1099524 L5.48251748,72.6268897 Z" id="Combined-Shape" stroke="none" fill="#BBC2C7" opacity="0.200000003"></path>
                        <path d="M66.1121296,41.4703219 C69.645868,43.4187452 71.914965,47.0307533 71.914965,51.4723077 C71.914965,57.7881678 67.2031329,62.5 60.8371469,62.5 L43.0925874,62.5 C42.2905734,62.5 41.8394406,62.0488671 41.8394406,61.2468531 L41.8394406,28.665035 C41.8394406,27.863021 42.2905734,27.4118881 43.0925874,27.4118881 L56.6265734,27.4118881 C62.7920559,27.4118881 67.4036364,31.5222098 67.4036364,37.1864336 C67.4036364,38.7196347 66.9245264,40.2022188 66.1121296,41.4703219 L66.1121296,41.4703219 Z M66.1118924,41.4701911 L66.1118924,41.4706921 L66.1118924,41.4701911 Z M56.6265734,34.9302682 L49.8595804,34.9302682 L49.8595804,39.9428557 L58.380979,39.9428557 C59.0326154,39.3413452 59.3834965,38.4892053 59.3834965,37.6871913 C59.3834965,36.0330375 58.2807273,34.9302682 56.6265734,34.9302682 Z M59.8346294,54.9806179 C62.7419301,54.9806179 63.8948252,53.2262123 63.8948252,50.970548 C63.8948252,48.7148836 62.7419301,46.960478 59.8847552,46.960478 L49.8595804,46.960478 L49.8595804,54.9806179 L59.8346294,54.9806179 Z" id="B" stroke="none" fill="#BBC2C7"></path>
                    </g>
                </g>
            </g>
            <g id="Group-13">
                <mask id="mask-4" fill="white">
                    <use xlink:href="#path-3"></use>
                </mask>
                <use id="Rectangle-10" fill-opacity="0" fill="#EFF0F1" xlink:href="#path-3"></use>
                <g id="Group-12" mask="url(#mask-4)">
                    <g transform="translate(7.000000, 35.000000)">
                        <rect id="Rectangle" stroke="#E33277" stroke-width="2" fill="#F1BBD0" x="0" y="0" width="142" height="114" rx="4"></rect>
                        <path d="M6,18.0058587 C6,16.8980535 6.89706013,16 8.00585866,16 L17.9941413,16 C19.1019465,16 20,16.8970601 20,18.0058587 L20,27.9941413 C20,29.1019465 19.1029399,30 17.9941413,30 L8.00585866,30 C6.89805351,30 6,29.1029399 6,27.9941413 L6,18.0058587 Z M24,18.0059191 C24,16.8980806 24.8988921,16 25.9916575,16 L67.0083425,16 C68.1083045,16 69,16.8865548 69,18.0059191 L69,20.9940809 C69,22.1019194 68.1011079,23 67.0083425,23 L25.9916575,23 C24.8916955,23 24,22.1134452 24,20.9940809 L24,18.0059191 Z M24,28 C24,26.8954305 24.8998975,26 25.9912443,26 L50.0087557,26 C51.1084896,26 52,26.8877296 52,28 C52,29.1045695 51.1001025,30 50.0087557,30 L25.9912443,30 C24.8915104,30 24,29.1122704 24,28 Z M6,35.9973917 C6,34.8942627 6.89005841,34 8.00010618,34 L20.9998938,34 C22.104522,34 23,34.8958578 23,35.9973917 L23,41.0026083 C23,42.1057373 22.1099416,43 20.9998938,43 L8.00010618,43 C6.89547804,43 6,42.1041422 6,41.0026083 L6,35.9973917 Z M27,35.9973917 C27,34.8942627 27.8900584,34 29.0001062,34 L41.9998938,34 C43.104522,34 44,34.8958578 44,35.9973917 L44,41.0026083 C44,42.1057373 43.1099416,43 41.9998938,43 L29.0001062,43 C27.895478,43 27,42.1041422 27,41.0026083 L27,35.9973917 Z M48,35.9973917 C48,34.8942627 48.8900584,34 50.0001062,34 L62.9998938,34 C64.104522,34 65,34.8958578 65,35.9973917 L65,41.0026083 C65,42.1057373 64.1099416,43 62.9998938,43 L50.0001062,43 C48.895478,43 48,42.1041422 48,41.0026083 L48,35.9973917 Z M69,35.9973917 C69,34.8942627 69.8900584,34 71.0001062,34 L83.9998938,34 C85.104522,34 86,34.8958578 86,35.9973917 L86,41.0026083 C86,42.1057373 85.1099416,43 83.9998938,43 L71.0001062,43 C69.895478,43 69,42.1041422 69,41.0026083 L69,35.9973917 Z M40,55.0058587 C40,53.8980535 40.900351,53 41.9926302,53 L100.00737,53 C101.107869,53 102,53.8970601 102,55.0058587 L102,64.9941413 C102,66.1019465 101.099649,67 100.00737,67 L41.9926302,67 C40.8921309,67 40,66.1029399 40,64.9941413 L40,55.0058587 Z M6,73.0058587 C6,71.8980535 6.89447312,71 8.00526988,71 L44.9947301,71 C46.1022101,71 47,71.8970601 47,73.0058587 L47,82.9941413 C47,84.1019465 46.1055269,85 44.9947301,85 L8.00526988,85 C6.89778991,85 6,84.1029399 6,82.9941413 L6,73.0058587 Z M51,73.0058587 C51,71.8980535 51.8915398,71 52.9972916,71 L89.0027084,71 C90.1057821,71 91,71.8970601 91,73.0058587 L91,82.9941413 C91,84.1019465 90.1084602,85 89.0027084,85 L52.9972916,85 C51.8942179,85 51,84.1029399 51,82.9941413 L51,73.0058587 Z M95,73.0058587 C95,71.8980535 95.8944731,71 97.0052699,71 L133.99473,71 C135.10221,71 136,71.8970601 136,73.0058587 L136,82.9941413 C136,84.1019465 135.105527,85 133.99473,85 L97.0052699,85 C95.8977899,85 95,84.1029399 95,82.9941413 L95,73.0058587 Z M6,91.9940603 C6,90.8927712 6.89956447,90 8.00291437,90 L133.997086,90 C135.103265,90 136,90.8945138 136,91.9940603 L136,104.00594 C136,105.107229 135.100436,106 133.997086,106 L8.00291437,106 C6.89673531,106 6,105.105486 6,104.00594 L6,91.9940603 Z" id="Combined-Shape" stroke="none" fill="#E33277" opacity="0.200000003"></path>
                        <path d="M91.544,78.208 C91.928,79.36 91.352,80 90.2,80 L82.328,80 C81.432,80 80.792,79.616 80.536,78.656 L78.8521602,72.96 L63.1478398,72.96 L61.464,78.656 C61.208,79.616 60.568,80 59.672,80 L51.8,80 C50.648,80 50.072,79.36 50.456,78.208 L64.024,36.544 C64.28,35.648 64.984,35.2 65.88,35.2 L76.12,35.2 C77.016,35.2 77.72,35.648 77.976,36.544 L91.544,78.208 Z M65.9862402,63.36 L76.0137598,63.36 L71,46.4 L65.9862402,63.36 Z" id="A" stroke="none" fill="#E33277"></path>
                        <ellipse id="Oval" stroke="none" fill="#E33277" cx="8" cy="8" rx="2" ry="2"></ellipse>
                        <ellipse id="Oval-Copy-3" stroke="none" fill="#E33277" cx="14" cy="8" rx="2" ry="2"></ellipse>
                        <circle id="Oval-Copy-4" stroke="none" fill="#E33277" cx="20" cy="8" r="2"></circle>
                    </g>
                </g>
            </g>
            <path d="M160,40 L40,160" id="Path-11" stroke="#E33277" stroke-width="4" stroke-linecap="round"></path>
        </g>
        <g id="Group-3" transform="translate(254.000000, 2.000000)"></g>
    </g>
</svg>