<?xml version="1.0" encoding="UTF-8"?>
<svg width="260px" height="220px" viewBox="0 0 260 220" version="1.1" xmlns="http://www.w3.org/2000/svg" xmlns:xlink="http://www.w3.org/1999/xlink">
    <!-- Generator: Sketch 43.1 (39012) - http://www.bohemiancoding.com/sketch -->
    <title>feature-prospect</title>
    <desc>Created with Sketch.</desc>
    <defs></defs>
    <g id="Page-1" stroke="none" stroke-width="1" fill="none" fill-rule="evenodd">
        <g id="Group-21" transform="translate(30.000000, -10.000000)">
            <path d="M31,92 L31,122.005137 C31,133.047995 39.9498074,142 51.0039875,142 L79.9960125,142 C91.0439097,142 100,150.958883 100,158 L100,158" id="Path-2" stroke="#7EB9C4" stroke-width="2" stroke-linecap="round" stroke-linejoin="round" stroke-dasharray="4"></path>
            <path d="M100,126 L100,151" id="Path-2-Copy-2" stroke="#7EB9C4" stroke-width="2" stroke-linecap="round" stroke-linejoin="round" stroke-dasharray="4"></path>
            <path d="M169,92 L169,122.005137 C169,133.047995 160.050193,142 148.996012,142 L120.003988,142 C108.95609,142 100,150.958883 100,158 L100,158" id="Path-2-Copy" stroke="#7EB9C4" stroke-width="2" stroke-linecap="round" stroke-linejoin="round" stroke-dasharray="4"></path>
            <g id="Group-9" transform="translate(29.000000, 155.000000)">
                <rect id="Rectangle" stroke="#BBC2C7" stroke-width="2" fill="#FFFFFF" x="0" y="0" width="142" height="65" rx="4"></rect>
                <ellipse id="Oval" fill="#BBC2C7" cx="8" cy="8" rx="2" ry="2"></ellipse>
                <ellipse id="Oval-Copy-3" fill="#BBC2C7" cx="14" cy="8" rx="2" ry="2"></ellipse>
                <circle id="Oval-Copy-4" fill="#BBC2C7" cx="20" cy="8" r="2"></circle>
                <rect id="Rectangle-2" fill="#BBC2C7" x="6" y="16" width="14" height="14" rx="2"></rect>
                <rect id="Rectangle-2-Copy" fill="#BBC2C7" x="24" y="16" width="45" height="7" rx="2"></rect>
                <rect id="Rectangle-2-Copy-2" fill="#BBC2C7" x="24" y="26" width="28" height="4" rx="2"></rect>
                <rect id="Rectangle-2-Copy-3" fill="#BBC2C7" x="6" y="34" width="17" height="9" rx="2"></rect>
                <rect id="Rectangle-2-Copy-4" fill="#BBC2C7" x="27" y="34" width="17" height="9" rx="2"></rect>
                <rect id="Rectangle-2-Copy-5" fill="#BBC2C7" x="48" y="34" width="17" height="9" rx="2"></rect>
                <rect id="Rectangle-2-Copy-6" fill="#BBC2C7" x="69" y="34" width="17" height="9" rx="2"></rect>
                <path d="M40,55.0085302 C40,53.8992496 40.900351,53 41.9926302,53 L100.00737,53 C101.107869,53 102,53.9019504 102,55.0085302 L102,65 L40,65 L40,55.0085302 Z" id="Rectangle-2-Copy-7" fill="#BBC2C7"></path>
            </g>
            <g id="users-2" transform="translate(4.000000, 30.000000)">
                <g id="svg5401">
                    <path d="M0.547297297,75.6301703 C0.547297297,75.6301703 -1.33209973,58.9303025 14.8572977,57.0671873 L21.7848643,57.0671873 L21.7848643,53.8324078 C21.7848643,53.8324078 26.6579392,55.9539965 31.5924336,54.0690986 L31.7481091,57.0671873 L39.8432421,57.0671873 C39.8432421,57.0671873 53.9404289,58.4936692 53.0878378,75.6301703 L0.547297297,75.6301703 L0.547297297,75.6301703 Z" id="body-bg-flat" stroke="#7EB9C4" stroke-width="2" fill="#B6E4ED"></path>
                    <path d="M22.563242,53.4674031 L22.563242,58.3334546 C22.563242,60.8585568 24.5844961,62.9055654 27.0778377,62.9055654 C29.5711794,62.9055654 31.5924336,60.8585568 31.5924336,58.3334546 L31.5924336,53.5677947 C31.8544353,53.4869623 32.1139706,53.399166 32.3708112,53.304316 L32.3708112,58.3665741 C32.3708112,61.3526938 29.9836454,63.7734316 27.0389216,63.7734316 C24.0941978,63.7734316 21.7070265,61.3526938 21.7070265,58.3665741 L21.7070265,53.1544507 C21.9890373,53.2674775 22.2746727,53.3714357 22.563242,53.4674031 L22.563242,53.4674031 Z" id="neck-copy-5" fill="#7EB9C4"></path>
                    <path d="M22,54 L32,54 L32,58.5 C32,60.9852814 29.9763508,63 27.4973148,63 L26.5026852,63 C24.0159208,63 22,60.9802243 22,58.5 L22,54 Z" id="Rectangle-18" fill="#FFFFFF"></path>
                    <path d="M21.6681104,62.8266685 C21.9475325,62.8266685 22.174053,63.0562658 22.174053,63.3394956 L22.174053,71.0713998 C22.174053,71.3546296 21.9475325,71.5842327 21.6681104,71.5842327 C21.3886829,71.5842327 21.1621622,71.3546296 21.1621622,71.0713998 L21.1621622,63.3394956 C21.1621622,63.0562658 21.3886829,62.8266685 21.6681104,62.8266685 L21.6681104,62.8266685 Z" id="Rounded-Rectangle-14" fill="#7EB9C4"></path>
                    <path d="M32.2929735,62.7477716 C32.5938912,62.7477716 32.8378378,62.995032 32.8378378,63.30005 L32.8378378,68.1127623 C32.8378378,68.4177805 32.5938912,68.6650466 32.2929735,68.6650466 C31.9920502,68.6650466 31.7481091,68.4177805 31.7481091,68.1127623 L31.7481091,63.30005 C31.7481091,62.995032 31.9920502,62.7477716 32.2929735,62.7477716 L32.2929735,62.7477716 Z" id="Rounded-Rectangle-15" fill="#7EB9C4"></path>
                    <path d="M21.6681104,71.0319542 C21.8185692,71.0319542 21.9405399,71.1555843 21.9405399,71.3080962 L21.9405399,73.2805194 C21.9405399,73.4330257 21.8185692,73.5566558 21.6681104,73.5566558 C21.517646,73.5566558 21.3956755,73.4330257 21.3956755,73.2805194 L21.3956755,71.3080962 C21.3956755,71.1555843 21.517646,71.0319542 21.6681104,71.0319542 L21.6681104,71.0319542 Z" id="Rounded-Rectangle-16" fill="#7EB9C4"></path>
                    <path d="M32.3318896,68.1127623 C32.482354,68.1127623 32.6043245,68.2363983 32.6043245,68.3889044 L32.6043245,70.3613276 C32.6043245,70.5138394 32.482354,70.6374696 32.3318896,70.6374696 C32.1814308,70.6374696 32.0594601,70.5138394 32.0594601,70.3613276 L32.0594601,68.3889044 C32.0594601,68.2363983 32.1814308,68.1127623 32.3318896,68.1127623 L32.3318896,68.1127623 Z" id="Rounded-Rectangle-16-copy" fill="#7EB9C4"></path>
                    <path d="M18.7477607,51.5258086 L13.8177703,52.6732477 C13.8177703,52.6732477 7.78053053,54.0593755 11.7971116,58.1836288 C15.8136984,62.3078822 26.1437846,63.0362382 26.1437846,63.0362382 C26.1437846,63.0362382 23.4125204,61.7249614 22.2518909,59.8803556 L21.862702,53.2530084 L18.7477607,51.5258086 L18.7477607,51.5258086 Z" id="Shape-1-copy" fill="#F5F3EF"></path>
                    <path d="M26.2994602,63.4307228 C25.9935651,63.8231591 17.3918993,63.553326 11.4324305,58.3024172 C7.11742585,54.5004443 13.6118935,52.3062454 13.6118935,52.3062454 L18.3600027,51.2016884 L22.4854041,53.3319053 L22.7967551,59.7225619 C24.5334154,62.4826676 26.7919074,62.7989492 26.2994602,63.4307228 L26.2994602,63.4307228 Z M22.0183776,60.0381496 L21.5513509,53.3319053 L19.0605425,51.9117606 L14.3124335,53.0952145 C14.3124335,53.0952145 8.56126326,54.2906037 12.2108082,57.7501387 C16.1494013,61.4836544 23.4355581,62.4856075 24.1978406,62.4050629 C24.9879096,62.3215723 23.7550377,62.7982608 22.0183776,60.0381496 L22.0183776,60.0381496 Z" id="Shape-1-copy-2" fill="#7EB9C4"></path>
                    <path d="M35.4027038,51.711694 L40.3356171,52.86257 C40.3356171,52.86257 46.3764311,54.2528454 42.3574727,58.3894516 C38.338503,62.5260576 28.0022927,63.256592 28.0022927,63.256592 C28.0022927,63.256592 30.7351827,61.9413931 31.8964914,60.0912628 L32.2859141,53.4440685 L35.4027038,51.711694 L35.4027038,51.711694 Z" id="Shape-1-copy-4" fill="#F5F3EF"></path>
                    <path d="M27.8465281,63.5733593 C28.1526014,63.9669747 36.7593669,63.6963349 42.7223653,58.4296985 C47.0399311,54.6163378 40.5416163,52.4155702 40.5416163,52.4155702 L35.7906901,51.3077063 L31.6628445,53.4443001 L31.3513041,59.8540981 C29.6136197,62.6224709 27.3537914,62.9396951 27.8465281,63.5733593 L27.8465281,63.5733593 Z M32.1301439,60.1706281 L32.5974488,53.4443001 L35.0897382,52.019906 L39.8406589,53.2069038 C39.8406589,53.2069038 45.5952419,54.4058707 41.9435256,57.8757665 C38.0025998,61.6204672 30.7121225,62.6254166 29.9493948,62.5446294 C29.1588525,62.4608905 30.3924593,62.9390011 32.1301439,60.1706281 L32.1301439,60.1706281 Z" id="Shape-1-copy-6" fill="#7EB9C4"></path>
                    <path d="M27.0391611,3.96950108 C36.7222881,3.96950108 44.365187,13.1415041 44.1166752,24.1618882 L43.8525468,35.874608 C43.6184265,46.2569037 36.0934227,54.4635832 27.0391611,54.4635832 C17.9848994,54.4635832 10.4598956,46.2569037 10.2257755,35.874608 L9.96164708,24.1618882 C9.71314072,13.1415041 17.3560342,3.96950108 27.0391611,3.96950108 L27.0391611,3.96950108 Z" id="2-copy-5" stroke="#7EB9C4" stroke-width="2" fill="#FFFFFF"></path>
                    <path d="M44.4089188,25.8239716 L43.6305413,38.763084 C43.6305413,38.763084 40.1734054,53.6988289 26.8175676,55.4673084 L26.8175676,55.4892433 C26.7913174,55.4859927 26.7659022,55.4816306 26.7397299,55.4782786 C26.7135575,55.4816306 26.6881423,55.4859927 26.661892,55.4892433 L26.661892,55.4673084 C13.3060597,53.6988289 9.84891843,38.763084 9.84891843,38.763084 L9.07054072,25.8239716 C12.5363505,41.4172283 15.4532429,42.3923483 15.4532429,42.3923483 C14.8629709,37.6638655 19.6564878,38.1319086 19.6564878,38.1319086 C22.5779843,38.6321179 24.9036972,38.8738365 26.7397299,38.9642061 C28.575768,38.8738365 30.9014752,38.6321179 33.8229719,38.1319086 C33.8229719,38.1319086 38.6164831,37.6638655 38.0262166,42.3923483 C38.0262166,42.3923483 40.943109,41.4172283 44.4089188,25.8239716 L44.4089188,25.8239716 Z M35.7536724,43.9961211 C35.5270849,41.2147013 33.8723881,41.4505511 33.8723881,41.4505511 C30.9307319,42.3279034 28.6215932,42.8153025 26.8175676,43.0630144 L26.8175676,43.0448321 C25.0261743,42.7991406 22.733209,42.3157425 19.8121633,41.4455795 C19.8121633,41.4455795 18.1690522,41.2116596 17.9440513,43.9702867 C17.9440513,43.9702867 17.2842538,46.734145 19.5008122,47.9151329 L22.3029716,50.9132218 C22.3029716,50.9132218 24.2179054,51.5283706 24.1710836,49.1774836 C24.1710836,49.1774836 23.9761802,47.4241842 25.1051367,47.1261638 L26.8175676,47.1261638 L26.8175676,47.1780806 L28.5420796,47.1780806 C29.6789975,47.4785673 29.4827246,49.2463583 29.4827246,49.2463583 C29.4355687,51.6166746 31.3640034,50.9964357 31.3640034,50.9964357 L34.1859327,47.9735734 C36.4181245,46.7828229 35.7536724,43.9961211 35.7536724,43.9961211 L35.7536724,43.9961211 Z" id="1-copy-4" fill="#3B434F" opacity="0.058824"></path>
                    <path d="M35.4064841,42.9605122 C33.9916806,44.2056964 30.7960566,45.3904257 27.0778434,45.3904257 C23.3596245,45.3904257 20.1640004,44.2056964 18.7491915,42.9605122 C18.7491915,42.9605122 18.6044392,42.5567897 18.8168187,42.3415203 C19.0331286,42.122267 19.3718936,42.1699854 19.3718936,42.1699854 C20.7852161,43.4160163 23.3582048,44.4436683 27.0778434,44.4436683 C30.7974763,44.4436683 33.370465,43.4160163 34.7837875,42.1699854 C34.7837875,42.1699854 35.1295006,42.0398148 35.297441,42.2100405 C35.6209011,42.5379021 35.4064841,42.9605122 35.4064841,42.9605122 L35.4064841,42.9605122 Z" id="usta" fill="#7EB9C4"></path>
                    <path d="M24.5091916,47.2839575 L29.490814,47.2839575 L29.490814,48.0729268 L24.5091916,48.0729268 L24.5091916,47.2839575 L24.5091916,47.2839575 Z" id="-" fill="#7EB9C4"></path>
                    <path d="M9.0864523,25.5761526 C9.08430343,25.5762767 8.8953348,25.4233135 8.53849806,25.3094346 C8.36015211,25.2526193 8.13849744,25.2058826 7.88585461,25.1943595 C7.82275926,25.1914815 7.75782116,25.1907986 7.69137434,25.1927115 C7.62492734,25.1946246 7.55696615,25.1991279 7.48788592,25.2066051 C7.34974224,25.2215651 7.20706658,25.2484491 7.06349445,25.2903099 C6.48862194,25.4577649 5.9021803,25.8649014 5.55776447,26.7052347 C5.38487453,27.1254239 5.27082087,27.6539615 5.24066789,28.3152545 C5.23312395,28.4805819 5.23081909,28.6542047 5.23412605,28.8365069 C5.23743866,29.0188089 5.24636891,29.2097901 5.26128385,29.4098343 C5.29109732,29.8099057 5.34493405,30.2462342 5.42514904,30.7216925 C5.42339532,30.7212241 5.35033441,32.1584788 5.85725686,33.8099813 C6.33381489,35.4246511 7.47818197,37.4081292 9.5910812,37.9749274 C9.34807536,33.8736305 9.34052613,29.6954569 9.0864523,25.5761526 L9.0864523,25.5761526 L9.0864523,25.5761526 Z" id="Shape-11-copy" fill="#FFFFFF"></path>
                    <path d="M9.32738151,25.7414912 C9.32738151,25.7414912 5.64655324,24.5854632 5.77608993,28.421058 C5.77608993,28.421058 6.32409981,33.9827916 6.56207252,34.4953761 C6.56207252,34.4953761 8.00763574,37.7336093 10.3933318,37.8771204 C12.7250019,38.0173809 10.3933318,37.8771204 10.3933318,37.8771204 L10.4222879,38.9208779 C10.4222879,38.9208779 6.22914227,38.3759356 5.41926432,33.4779834 L4.7800437,29.0284306 C4.7800437,29.0284306 4.28371601,23.1398849 9.09812159,24.6370923 C13.7883299,26.0956782 9.09812159,24.6370923 9.09812159,24.6370923 L9.32738151,25.7414912" id="Shape-3" fill="#7EB9C4"></path>
                    <path d="M8.11246433,33.468627 C8.11246433,33.468627 7.90647057,33.626421 7.72951093,33.626421 C7.55255128,33.626421 7.34906852,33.468627 7.34906852,33.468627 L6.96920516,29.5885981 C6.96920516,29.5885981 7.49331967,27.6777869 9.71733302,28.6875954 L9.76990585,29.7970336 C9.76990585,29.7970336 7.81867277,29.0956122 7.85901971,29.9690425 C7.89785793,30.8097652 8.11246433,33.468627 8.11246433,33.468627 L8.11246433,33.468627 Z" id="Shape-4" fill="#7EB9C4"></path>
                    <path d="M44.8443394,25.5852099 C44.8464994,25.585334 45.0362975,25.4324778 45.3946932,25.3186724 C45.5738241,25.2618967 45.7964475,25.215194 46.0501983,25.2036762 C46.1135664,25.2008039 46.1787885,25.2001211 46.2455305,25.2020342 C46.3122668,25.2039414 46.380523,25.2084446 46.4499095,25.2159163 C46.5886545,25.230865 46.7319594,25.257732 46.8761606,25.2995647 C47.4535495,25.4669068 48.0425578,25.8737667 48.3884824,26.7135301 C48.5621294,27.1334314 48.6766842,27.6616079 48.7069652,28.3224551 C48.7145426,28.4876697 48.7168586,28.6611742 48.7135403,28.8433521 C48.7102111,29.0255298 48.701242,29.2163814 48.6862601,29.41629 C48.6563187,29.8160905 48.6022425,30.2521256 48.5216768,30.7272566 C48.5234417,30.7267882 48.5968198,32.1630722 48.0876759,33.813452 C47.6090358,35.4270268 46.4596525,37.4091562 44.3375003,37.9755707 C44.5815694,33.8770558 44.5891522,29.7017207 44.8443394,25.5852099 L44.8443394,25.5852099 L44.8443394,25.5852099 Z" id="Shape-11-copy_1" fill="#FFFFFF"></path>
                    <path d="M44.6015563,25.7504413 C44.6015563,25.7504413 48.2985076,24.5951977 48.1684032,28.4281852 C48.1684032,28.4281852 47.6179938,33.9861438 47.3789743,34.4983784 C47.3789743,34.4983784 45.927081,37.7344162 43.5309405,37.8778314 C41.1890544,38.0179961 43.5309405,37.8778314 43.5309405,37.8778314 L43.5018564,38.9208779 C43.5018564,38.9208779 47.7133632,38.376308 48.5267877,33.4816796 L49.1688086,29.0351458 C49.1688086,29.0351458 49.6673133,23.1505956 44.8318182,24.6467872 C40.121072,26.1043855 44.8318182,24.6467872 44.8318182,24.6467872 L44.6015563,25.7504413" id="Shape-3_1" fill="#7EB9C4"></path>
                    <path d="M45.821796,33.472329 C45.821796,33.472329 46.0286915,33.6300155 46.206425,33.6300155 C46.3841585,33.6300155 46.5885321,33.472329 46.5885321,33.472329 L46.9700602,29.5949353 C46.9700602,29.5949353 46.4436517,27.6854222 44.2098956,28.6945421 L44.1570944,29.8032297 C44.1570944,29.8032297 46.1168735,29.1022824 46.0763483,29.9751202 C46.0373432,30.8152729 45.821796,33.472329 45.821796,33.472329 L45.821796,33.472329 Z" id="Shape-4_1" fill="#7EB9C4"></path>
                    <path d="M28.4400014,33.1613969 L28.7124309,33.1613969 C29.2756842,33.9367378 29.5048383,35.1282276 29.8021594,36.1594799 C29.8942998,36.4790686 29.8049098,37.0380682 29.7243217,37.2640369 C29.4291885,38.0916279 28.5024564,38.0767752 27.7394616,38.4474908 C27.534548,38.5470585 27.3821237,38.7189151 27.1167595,38.763084 C26.9437581,38.6086196 26.734875,38.5782822 26.6497274,38.3291482 C26.4395079,38.0357381 26.7104452,37.8525106 26.9221623,37.7374185 C27.3064071,37.5285428 28.4925688,37.3226749 28.634593,36.9484492 C28.8103168,36.7458317 28.6934737,36.1366422 28.634593,35.9227893 C28.4837945,35.3750421 28.4114128,34.9177549 28.2064881,34.4237477 C28.0703654,34.0956152 27.8313736,33.7496392 27.9729749,33.3586364 C28.0903133,33.3075658 28.3439137,33.2494978 28.4400014,33.1613969 L28.4400014,33.1613969 Z" id="new_vector_shape_done" fill="#7EB9C4"></path>
                    <path d="M17.1145929,27.5912662 L19.916758,27.5912662 C20.303653,27.5912662 20.6172978,27.9727603 20.6172978,28.4433541 C20.6172978,28.9139478 20.303653,29.2954419 19.916758,29.2954419 L17.1145929,29.2954419 C16.7276979,29.2954419 16.4140531,28.9139478 16.4140531,28.4433541 C16.4140531,27.9727603 16.7276979,27.5912662 17.1145929,27.5912662 L17.1145929,27.5912662 Z" id="Rounded-Rectangle-9" fill="#7EB9C4"></path>
                    <path d="M34.2389176,27.4019158 L37.0410827,27.4019158 C37.4279778,27.4019158 37.7416225,27.7834041 37.7416225,28.2540037 C37.7416225,28.7245976 37.4279778,29.1060859 37.0410827,29.1060859 L34.2389176,29.1060859 C33.8520226,29.1060859 33.5383776,28.7245976 33.5383776,28.2540037 C33.5383776,27.7834041 33.8520226,27.4019158 34.2389176,27.4019158 L34.2389176,27.4019158 Z" id="Rounded-Rectangle-9-copy" fill="#7EB9C4"></path>
                    <path d="M36.4183804,32.2935308 C37.4930939,32.2935308 38.3643246,33.1766164 38.3643246,34.2659538 C38.3643246,35.3552912 37.4930939,36.238377 36.4183804,36.238377 C35.3436615,36.238377 34.4724364,35.3552912 34.4724364,34.2659538 C34.4724364,33.1766164 35.3436615,32.2935308 36.4183804,32.2935308 L36.4183804,32.2935308 Z" id="Ellipse-3" fill="#EDF1F1"></path>
                    <path d="M17.581625,32.2935308 C18.6563385,32.2935308 19.5275692,33.1766164 19.5275692,34.2659538 C19.5275692,35.3552912 18.6563385,36.238377 17.581625,36.238377 C16.5069061,36.238377 15.635681,35.3552912 15.635681,34.2659538 C15.635681,33.1766164 16.5069061,32.2935308 17.581625,32.2935308 L17.581625,32.2935308 Z" id="Ellipse-3-copy" fill="#EDF1F1"></path>
                    <path d="M43.955254,24.7563265 C43.8499579,25.6679384 43.75745,26.7834827 43.5629809,27.7808421 C42.9814607,30.763243 40.4531838,33.5264187 36.1361414,33.8412558 C31.8191047,34.1560929 28.1449071,31.953209 27.9295938,28.9209736 C27.8930883,28.4068541 27.7954306,27.829915 27.7204879,27.2690027 C27.1095496,26.9256901 26.479866,26.9249057 25.8314426,27.2666663 C25.7557149,27.8402758 25.6543771,28.4323894 25.6170031,28.9588053 C25.401016,32.0010913 21.7152329,34.2112772 17.3845781,33.8953961 C13.0539235,33.5795149 10.517674,30.8071862 9.9343167,27.8148986 C9.73923513,26.8142322 9.64643777,25.6949918 9.54080757,24.7803551 L8.90442632,24.7339345 L8.99381639,23.4748399 L9.1490912,23.4861657 L13.0875394,23.7734417 L16.412021,24.0159336 L19.7426822,24.2588714 L24.9304542,24.637273 C25.2882372,24.6831406 25.5261433,24.8386715 25.6793525,25.0708534 C26.424387,25.4014236 27.1479536,25.4027441 27.8500467,25.0747584 C28.0018697,24.8276391 28.2429767,24.6612677 28.6139825,24.6137128 L33.7854475,24.236564 L37.1056421,23.9944275 L40.4196735,23.7527369 L44.3457401,23.4664091 L44.5005247,23.4551226 L44.5896365,24.7100584 L43.955254,24.7563265 L43.955254,24.7563265 Z M23.5374082,26.1168682 L13.3701628,25.375262 C12.040368,25.2590582 11.5690155,26.7737312 11.4870579,27.9281568 C11.3142681,30.361981 13.989697,32.5403566 17.4627946,32.793689 C20.9358921,33.0470158 23.8914723,31.2793771 24.0642619,28.8455472 C24.1462197,27.6911274 24.5182275,26.9781714 23.5374082,26.1168682 L23.5374082,26.1168682 Z M42.0151223,27.8937278 C41.9334207,26.7431171 41.4635492,25.2334438 40.1379355,25.3492639 L30.0026525,26.0884211 C29.0249175,26.9468858 29.3957563,27.6574773 29.4774523,28.8080879 C29.6497019,31.2338763 32.5959901,32.99568 36.05817,32.7431828 C39.5203499,32.4906912 42.1873719,30.3195106 42.0151223,27.8937278 L42.0151223,27.8937278 Z" id="glasses" fill="#7EB9C4"></path>
                    <path d="M10.0368793,30.7155866 C10.0368793,30.7155866 12.2022846,21.1007709 14.086592,18.4707737 C15.9708993,15.8407767 17.601495,15.2117288 18.4478228,15.1312799 C19.2941506,15.0508368 25.958897,17.0477906 35.1139451,14.76022 C35.1139451,14.76022 38.7237612,14.6141922 40.2539656,18.2852496 C40.2539656,18.2852496 43.4801659,24.1355232 43.9921603,29.973478 L44.615191,29.973478 C44.615191,29.973478 45.9354877,19.7397553 45.3939915,13.6470572 C44.8524788,7.55436487 36.9830426,4.55621405 36.9830426,4.55621405 L38.6963808,3.2575157 C38.6963808,3.2575157 34.696257,2.00412074 33.0890889,2.70094292 L34.33515,0.103551942 C34.33515,0.103551942 26.2624981,0.119860506 21.7187403,3.81409994 L21.8744993,1.95882308 C21.8744993,1.95882308 5.85878801,4.44823248 9.25808966,30.3445324 L10.0368793,30.7155866 L10.0368793,30.7155866 Z" id="Shape-7" fill="#7EB9C4"></path>
                </g>
            </g>
            <g id="users-16" transform="translate(142.000000, 30.000000)">
                <g id="svg7296">
                    <path d="M2.93465244,63.5796696 C2.93465244,63.5796696 6.24091172,40.2592297 5.0340617,29.325751 C3.81966227,18.3239276 7.2400812,0.012264891 28.7772797,0.012264891 C47.7716595,0.012264891 49.8930712,20.9744625 49.440954,24.8457038 C48.9376615,29.1550804 45.1315001,56.3392363 49.5133803,65.8436392 C53.8470248,75.2434303 35.4958519,71.4534951 35.4958519,71.4534951 L10.8688208,70.947352 L2.93465244,63.5796696 L2.93465244,63.5796696 Z" id="back" fill="#7EB9C4"></path>
                    <path d="M0.612970236,75.2639225 C0.612970236,75.2639225 -0.59381848,58.7043469 14.8572977,57.1588717 L21.7848643,57.1588717 L21.7848643,53.9397569 C21.7848643,53.9397569 26.6579392,56.0510715 31.5924336,54.1753016 L31.7481091,57.1588717 L39.8432421,57.1588717 C39.8432421,57.1588717 53.7054457,57.708032 53.0756731,75.4209523 L0.612970236,75.2639225 L0.612970236,75.2639225 Z" id="body-bg-flat-copy" fill="#FFFFFF"></path>
                    <path d="M0.547297297,75.6319613 C0.547297297,75.6319613 -1.33209973,59.0129645 14.8572977,57.1588717 L21.7848643,57.1588717 L21.7848643,53.9397569 C21.7848643,53.9397569 26.6579392,56.0510715 31.5924336,54.1753016 L31.7481091,57.1588717 L39.8432421,57.1588717 C39.8432421,57.1588717 53.9404289,58.5784457 53.0878378,75.6319613 L0.547297297,75.6319613 L0.547297297,75.6319613 Z" id="body-bg-flat" stroke="#7EB9C4" stroke-width="2" fill="#B6E4ED"></path>
                    <path d="M22,54 L32,54 L32,58.5 C32,60.9852814 29.9763508,63 27.4973148,63 L26.5026852,63 C24.0159208,63 22,60.9802243 22,58.5 L22,54 Z" id="Rectangle-17" fill="#FFFFFF"></path>
                    <path d="M22.563242,53.5765198 L22.563242,58.4190069 C22.563242,60.931881 24.5844961,62.9689767 27.0778377,62.9689767 C29.5711794,62.9689767 31.5924336,60.931881 31.5924336,58.4190069 L31.5924336,53.6764252 C31.8544353,53.5959843 32.1139706,53.5086132 32.3708112,53.4142225 L32.3708112,58.451966 C32.3708112,61.4236251 29.9836454,63.8326401 27.0389216,63.8326401 C24.0941978,63.8326401 21.7070265,61.4236251 21.7070265,58.451966 L21.7070265,53.2650829 C21.9890373,53.3775623 22.2746727,53.4810171 22.563242,53.5765198 L22.563242,53.5765198 Z" id="neck-copy-5" fill="#7EB9C4"></path>
                    <path d="M21.6681104,62.8904619 C21.9475325,62.8904619 22.174053,63.1189473 22.174053,63.4008056 L22.174053,71.0952671 C22.174053,71.3771254 21.9475325,71.6056165 21.6681104,71.6056165 C21.3886829,71.6056165 21.1621622,71.3771254 21.1621622,71.0952671 L21.1621622,63.4008056 C21.1621622,63.1189473 21.3886829,62.8904619 21.6681104,62.8904619 L21.6681104,62.8904619 Z" id="Rounded-Rectangle-14" fill="#7EB9C4"></path>
                    <path d="M32.2929735,62.8119471 C32.5938912,62.8119471 32.8378378,63.0580101 32.8378378,63.3615509 L32.8378378,68.1509572 C32.8378378,68.4544983 32.5938912,68.7005669 32.2929735,68.7005669 C31.9920502,68.7005669 31.7481091,68.4544983 31.7481091,68.1509572 L31.7481091,63.3615509 C31.7481091,63.0580101 31.9920502,62.8119471 32.2929735,62.8119471 L32.2929735,62.8119471 Z" id="Rounded-Rectangle-15" fill="#7EB9C4"></path>
                    <path d="M21.6681104,71.0560125 C21.8185692,71.0560125 21.9405399,71.179044 21.9405399,71.3308173 L21.9405399,73.2936888 C21.9405399,73.4454565 21.8185692,73.568488 21.6681104,73.568488 C21.517646,73.568488 21.3956755,73.4454565 21.3956755,73.2936888 L21.3956755,71.3308173 C21.3956755,71.179044 21.517646,71.0560125 21.6681104,71.0560125 L21.6681104,71.0560125 Z" id="Rounded-Rectangle-16" fill="#7EB9C4"></path>
                    <path d="M32.3318896,68.1509572 C32.482354,68.1509572 32.6043245,68.2739944 32.6043245,68.425762 L32.6043245,70.3886335 C32.6043245,70.5404068 32.482354,70.6634383 32.3318896,70.6634383 C32.1814308,70.6634383 32.0594601,70.5404068 32.0594601,70.3886335 L32.0594601,68.425762 C32.0594601,68.2739944 32.1814308,68.1509572 32.3318896,68.1509572 L32.3318896,68.1509572 Z" id="Rounded-Rectangle-16-copy" fill="#7EB9C4"></path>
                    <path d="M18.7477607,51.6443277 L13.8177703,52.7862102 C13.8177703,52.7862102 7.78053053,54.1656255 11.7971116,58.2699066 C15.8136984,62.3741878 26.1437846,63.0990167 26.1437846,63.0990167 C26.1437846,63.0990167 23.4125204,61.7940899 22.2518909,59.9584169 L21.862702,53.3631634 L18.7477607,51.6443277 L18.7477607,51.6443277 Z" id="Shape-1-copy" fill="#F5F3EF"></path>
                    <path d="M26.2994602,63.491591 C25.9935651,63.8821268 17.3918993,63.6136004 11.4324305,58.3881198 C7.11742585,54.6045584 13.6118935,52.4209851 13.6118935,52.4209851 L18.3600027,51.321777 L22.4854041,53.4416782 L22.7967551,59.8013872 C24.5334154,62.5481268 26.7919074,62.8628768 26.2994602,63.491591 L26.2994602,63.491591 Z M22.0183776,60.1154467 L21.5513509,53.4416782 L19.0605425,52.0284107 L14.3124335,53.2061335 C14.3124335,53.2061335 8.56126326,54.3957339 12.2108082,57.8385157 C16.1494013,61.5539515 23.4355581,62.5510525 24.1978406,62.4708979 C24.9879096,62.3878117 23.7550377,62.8621917 22.0183776,60.1154467 L22.0183776,60.1154467 Z" id="Shape-1-copy-2" fill="#7EB9C4"></path>
                    <path d="M35.4027038,51.8293129 L40.3356171,52.9746157 C40.3356171,52.9746157 46.3764311,54.3581585 42.3574727,58.4747327 C38.338503,62.5913068 28.0022927,63.3183034 28.0022927,63.3183034 C28.0022927,63.3183034 30.7351827,62.0094736 31.8964914,60.1683027 L32.2859141,53.5532982 L35.4027038,51.8293129 L35.4027038,51.8293129 Z" id="Shape-1-copy-4" fill="#F5F3EF"></path>
                    <path d="M27.8465281,63.6335367 C28.1526014,64.025246 36.7593669,63.7559168 42.7223653,58.5147847 C47.0399311,54.7198907 40.5416163,52.5297805 40.5416163,52.5297805 L35.7906901,51.4272816 L31.6628445,53.5535286 L31.3513041,59.9322865 C29.6136197,62.6872532 27.3537914,63.0029412 27.8465281,63.6335367 L27.8465281,63.6335367 Z M32.1301439,60.2472837 L32.5974488,53.5535286 L35.0897382,52.1360324 L39.8406589,53.317282 C39.8406589,53.317282 45.5952419,54.5104428 41.9435256,57.9635352 C38.0025998,61.6901017 30.7121225,62.6901846 29.9493948,62.6097886 C29.1588525,62.5264552 30.3924593,63.0022505 32.1301439,60.2472837 L32.1301439,60.2472837 Z" id="Shape-1-copy-6" fill="#7EB9C4"></path>
                    <path d="M27.0391611,4.31831706 C36.7222881,4.31831706 44.365187,13.4459036 44.1166752,24.4129202 L43.8525468,36.0689199 C43.6184265,46.4009381 36.0934227,54.5678758 27.0391611,54.5678758 C17.9848994,54.5678758 10.4598956,46.4009381 10.2257755,36.0689199 L9.96164708,24.4129202 C9.71314072,13.4459036 17.3560342,4.31831706 27.0391611,4.31831706 L27.0391611,4.31831706 Z" id="2-copy-5" stroke="#7EB9C4" stroke-width="2" fill="#FFFFFF"></path>
                    <path d="M35.4064841,43.1205098 C33.9916806,44.359664 30.7960566,45.538656 27.0778434,45.538656 C23.3596245,45.538656 20.1640004,44.359664 18.7491915,43.1205098 C18.7491915,43.1205098 18.6044392,42.7187423 18.8168187,42.5045154 C19.0331286,42.2863238 19.3718936,42.3338111 19.3718936,42.3338111 C20.7852161,43.573808 23.3582048,44.5964835 27.0778434,44.5964835 C30.7974763,44.5964835 33.370465,43.573808 34.7837875,42.3338111 C34.7837875,42.3338111 35.1295006,42.2042709 35.297441,42.3736723 C35.6209011,42.6999462 35.4064841,43.1205098 35.4064841,43.1205098 L35.4064841,43.1205098 Z" id="usta" fill="#7EB9C4"></path>
                    <path d="M24.5091916,47.4230183 L29.490814,47.4230183 L29.490814,48.2081669 L24.5091916,48.2081669 L24.5091916,47.4230183 L24.5091916,47.4230183 Z" id="-" fill="#7EB9C4"></path>
                    <path d="M8.90401986,25.8203359 C8.90187099,25.8204594 8.71290237,25.6682369 8.35606563,25.5549095 C8.17771968,25.4983693 7.95606501,25.451859 7.70342218,25.4403916 C7.64032682,25.4375276 7.57538872,25.436848 7.50894191,25.4387517 C7.44249491,25.4406555 7.37453372,25.4451369 7.30545349,25.4525779 C7.16730981,25.4674655 7.02463415,25.4942193 6.88106201,25.5358774 C6.30618951,25.7025215 5.71974786,26.1076864 5.37533203,26.9439502 C5.20244209,27.3621046 5.08838844,27.8880828 5.05823546,28.5461734 C5.05069151,28.7107002 5.04838666,28.8834822 5.05169361,29.0649016 C5.05500622,29.2463207 5.06393647,29.436377 5.07885142,29.6354525 C5.10866489,30.0335865 5.16250161,30.4678021 5.24271661,30.9409579 C5.24096289,30.9404918 5.16790198,32.3707864 5.67482443,34.0142913 C6.15138245,35.6211418 7.29574954,37.5950148 9.40864877,38.1590682 C9.16564293,34.0776323 9.1580937,29.919692 8.90401986,25.8203359 L8.90401986,25.8203359 L8.90401986,25.8203359 Z" id="Shape-11-copy" fill="#FFFFFF"></path>
                    <path d="M9.32738151,25.9848738 C9.32738151,25.9848738 5.64655324,24.834444 5.77608993,28.6514645 C5.77608993,28.6514645 6.32409981,34.1862648 6.56207252,34.696367 C6.56207252,34.696367 8.00763574,37.9189187 10.3933318,38.0617348 C12.7250019,38.2013161 10.3933318,38.0617348 10.3933318,38.0617348 L10.4222879,39.1004379 C10.4222879,39.1004379 6.22914227,38.5581344 5.41926432,33.6839011 L4.7800437,29.2558958 C4.7800437,29.2558958 4.28371601,23.3958661 9.09812159,24.8858231 C13.7883299,26.3373457 9.09812159,24.8858231 9.09812159,24.8858231 L9.32738151,25.9848738" id="Shape-3" fill="#7EB9C4"></path>
                    <path d="M8.11246433,33.6745901 C8.11246433,33.6745901 7.90647057,33.8316199 7.72951093,33.8316199 C7.55255128,33.8316199 7.34906852,33.6745901 7.34906852,33.6745901 L6.96920516,29.8133507 C6.96920516,29.8133507 7.49331967,27.9117928 9.71733302,28.9167111 L9.76990585,30.0207767 C9.76990585,30.0207767 7.81867277,29.3227521 7.85901971,30.1919527 C7.89785793,31.0286041 8.11246433,33.6745901 8.11246433,33.6745901 L8.11246433,33.6745901 Z" id="Shape-4" fill="#7EB9C4"></path>
                    <path d="M44.8443394,25.8293493 C44.8464994,25.8294728 45.0362975,25.6773569 45.3946932,25.5641025 C45.5738241,25.5076018 45.7964475,25.4611253 46.0501983,25.4496633 C46.1135664,25.4468049 46.1787885,25.4461253 46.2455305,25.4480292 C46.3122668,25.4499271 46.380523,25.4544086 46.4499095,25.4618441 C46.5886545,25.4767204 46.7319594,25.5034573 46.8761606,25.5450874 C47.4535495,25.7116191 48.0425578,26.1165088 48.3884824,26.9522055 C48.5621294,27.3700734 48.6766842,27.8956922 48.7069652,28.5533391 C48.7145426,28.7177536 48.7168586,28.8904179 48.7135403,29.0717136 C48.7102111,29.2530091 48.701242,29.4429364 48.6862601,29.641877 C48.6563187,30.0397414 48.6022425,30.473665 48.5216768,30.946495 C48.5234417,30.9460289 48.5968198,32.3753576 48.0876759,34.0177452 C47.6090358,35.6235061 46.4596525,37.5960368 44.3375003,38.1597084 C44.5815694,34.081041 44.5891522,29.9259254 44.8443394,25.8293493 L44.8443394,25.8293493 L44.8443394,25.8293493 Z" id="Shape-11-copy_1" fill="#FFFFFF"></path>
                    <path d="M44.6015563,25.9937806 C44.6015563,25.9937806 48.2985076,24.8441313 48.1684032,28.6585572 C48.1684032,28.6585572 47.6179938,34.1896007 47.3789743,34.6993548 C47.3789743,34.6993548 45.927081,37.9197217 43.5309405,38.0624424 C41.1890544,38.2019283 43.5309405,38.0624424 43.5309405,38.0624424 L43.5018564,39.1004379 C43.5018564,39.1004379 47.7133632,38.558505 48.5267877,33.6875795 L49.1688086,29.2625785 C49.1688086,29.2625785 49.6673133,23.4065249 44.8318182,24.8954711 C40.121072,26.3460108 44.8318182,24.8954711 44.8318182,24.8954711 L44.6015563,25.9937806" id="Shape-3_1" fill="#7EB9C4"></path>
                    <path d="M45.821796,33.6782742 C45.821796,33.6782742 46.0286915,33.8351971 46.206425,33.8351971 C46.3841585,33.8351971 46.5885321,33.6782742 46.5885321,33.6782742 L46.9700602,29.8196572 C46.9700602,29.8196572 46.4436518,27.9193911 44.2098956,28.9236242 L44.1570944,30.0269429 C44.1570944,30.0269429 46.1168735,29.32939 46.0763483,30.198001 C46.0373432,31.0340851 45.821796,33.6782742 45.821796,33.6782742 L45.821796,33.6782742 Z" id="Shape-4_1" fill="#7EB9C4"></path>
                    <path d="M28.4400014,33.3688478 L28.7124309,33.3688478 C29.2756842,34.140434 29.5048383,35.3261538 29.8021594,36.3524122 C29.8942998,36.6704532 29.8049098,37.2267458 29.7243217,37.4516203 C29.4291885,38.2752035 28.5024564,38.2604227 27.7394616,38.6293431 C27.534548,38.7284287 27.3821237,38.899453 27.1167595,38.9434081 C26.9437581,38.7896917 26.734875,38.7595011 26.6497274,38.5115737 C26.4395079,38.2195844 26.7104453,38.0372442 26.9221623,37.9227095 C27.3064071,37.7148452 28.4925688,37.5099743 28.634593,37.1375608 C28.8103168,36.9359246 28.6934738,36.3296851 28.634593,36.1168678 C28.4837945,35.5717731 28.4114128,35.1167004 28.2064881,34.6250855 C28.0703654,34.298542 27.8313736,33.9542414 27.9729749,33.5651321 C28.0903133,33.5143089 28.3439137,33.456522 28.4400014,33.3688478 L28.4400014,33.3688478 Z" id="new_vector_shape_done" fill="#7EB9C4"></path>
                    <path d="M18.4378405,26.6950793 C19.2976133,26.6950793 19.9945957,27.3981246 19.9945957,28.2653764 C19.9945957,29.1326284 19.2976133,29.8356735 18.4378405,29.8356735 C17.5780674,29.8356735 16.8810796,29.1326284 16.8810796,28.2653764 C16.8810796,27.3981246 17.5780674,26.6950793 18.4378405,26.6950793 L18.4378405,26.6950793 Z" id="oko" fill="#7EB9C4"></path>
                    <path d="M35.7178352,26.6950793 C36.577608,26.6950793 37.2745904,27.3981246 37.2745904,28.2653764 C37.2745904,29.1326284 36.577608,29.8356735 35.7178352,29.8356735 C34.8580678,29.8356735 34.1610797,29.1326284 34.1610797,28.2653764 C34.1610797,27.3981246 34.8580678,26.6950793 35.7178352,26.6950793 L35.7178352,26.6950793 Z" id="oko_1" fill="#7EB9C4"></path>
                    <path d="M18.3600027,32.5051844 C19.8646025,32.5051844 21.0843244,32.5922632 21.0843244,34.3110261 C21.0843244,36.0838523 19.8646025,36.1168678 18.3600027,36.1168678 C16.8553973,36.1168678 15.635681,35.7940027 15.635681,34.3110261 C15.635681,32.5787235 16.8553973,32.5051844 18.3600027,32.5051844 L18.3600027,32.5051844 Z" id="Ellipse-3-copy" fill="#F5F3EF"></path>
                    <path d="M36.4183804,32.5051844 C37.9229804,32.5051844 39.1427023,32.5922632 39.1427023,34.3110261 C39.1427023,36.0838523 37.9229804,36.1168678 36.4183804,36.1168678 C34.913775,36.1168678 33.6940587,35.7940027 33.6940587,34.3110261 C33.6940587,32.5787235 34.913775,32.5051844 36.4183804,32.5051844 L36.4183804,32.5051844 Z" id="Ellipse-3-copy-2" fill="#F5F3EF"></path>
                    <path d="M31.1959459,23.8507815 L31.646816,24.428448 L31.9265554,24.7864736 C31.9265554,24.7864736 36.8796559,22.0276488 40.3175676,25.2106538 L40.6841026,25.3918988 C40.6841026,25.3918988 39.8371681,20.7773695 32.4232952,23.4765318 C32.0321354,23.5835582 31.6240063,23.7070782 31.1959459,23.8507815 L31.1959459,23.8507815 Z" id="R" fill="#7EB9C4"></path>
                    <path d="M22.6216216,23.8539939 L22.1707515,24.4304584 L21.8910122,24.7877371 C21.8910122,24.7877371 16.9379116,22.0346517 13.5,25.2110356 L13.133465,25.3919046 C13.133465,25.3919046 13.9803995,20.7869668 21.3942724,23.4805189 C21.7854322,23.5873263 22.1935613,23.7105882 22.6216216,23.8539939 L22.6216216,23.8539939 Z" id="L" fill="#7EB9C4"></path>
                    <path d="M9.71999982,24.1040834 C9.71999982,24.1040834 9.74052675,28.6820931 9.79783753,28.5794358 C10.3193188,27.6453725 9.65615284,16.9497745 24.5870293,17.2732853 C32.9111883,17.4536431 34.1610797,12.3661039 34.1610797,12.3661039 C34.1610797,12.3661039 36.3047166,13.2101288 39.6097288,16.6451665 C43.1528697,20.327699 43.8129737,24.9677469 43.8129737,24.9677469 L46.6929708,14.4467449 L36.0291917,3.29762399 L28.0897288,2.82653477 L21.1621622,3.92574853 L16.0248641,6.35970908 L10.3427019,13.6615962" id="Shape-26" fill="#7EB9C4"></path>
                </g>
            </g>
            <g id="users-12" transform="translate(58.000000, 10.000000)">
                <g id="svg9188">
                    <path d="M49.1131128,20.9465779 C46.7606986,18.7354832 48.0450341,12.9725192 48.0450341,12.9725192 C48.0450341,12.9725192 48.1507734,12.5523979 48.3993542,11.8645478 C49.8289424,7.90873689 55.9827207,-4.9018619 73.9162934,2.41860135 L69.4066202,3.59125687 C69.4066202,3.59125687 83.885034,4.37364249 83.885034,27.5134581 L83.885034,82.1592632 C83.885034,82.1592632 72.80742,91.8904852 58.9631781,75.8269225 C45.1189361,59.7633513 48.9536424,35.7293869 48.9536424,35.7293869 C48.9536424,35.7293869 51.4655269,23.1576808 49.1131128,20.9465779 L49.1131128,20.9465779 Z" id="Shape-16" fill="#7EB9C4"></path>
                    <path d="M39.737749,16.9595485 C56.1889532,16.9595485 69.5252955,30.1374608 69.5252955,46.3932314 L69.5252955,52.4910493 C69.5252955,68.7468199 56.1889532,81.9247322 39.737749,81.9247322 C23.2865448,81.9247322 9.9502022,68.7468199 9.9502022,52.4910493 L9.9502022,46.3932314 C9.9502022,30.1374608 23.2865448,16.9595485 39.737749,16.9595485 L39.737749,16.9595485 Z" id="Rounded-Rectangle-7" fill="#7EB9C4"></path>
                    <path d="M22.652186,101.859904 L33.2143037,101.859904 L33.2143037,97.0520071 C33.2143037,97.0520071 40.6440397,100.205353 48.1674191,97.4038038 L48.4047697,101.859904 L60.7470182,101.859904 C60.7470182,101.859904 81.8820335,102.6801 80.9218503,129.135166 L0.934565364,128.900634 C0.934565364,128.900634 -0.905365629,104.168142 22.652186,101.859904 Z" id="body-bg-flat-copy" stroke="#7EB9C4" stroke-width="2" fill="#B6E4ED"></path>
                    <path d="M40.2532453,115.697249 C33.8956113,115.697249 28.7417162,110.604597 28.7417162,104.322481 C28.7417162,103.223266 28.9026549,102.161778 29.1970813,101.15631 L29.2164263,101.15631 L30.4379822,101.15631 L32.539337,101.15631 L32.539337,102.446232 L30.1061137,102.446232 C29.9909016,103.054501 29.9284701,103.681106 29.9284701,104.322481 C29.9284701,109.956957 34.551038,114.524594 40.2532453,114.524594 C45.9554613,114.524594 50.5780121,109.956957 50.5780121,104.322481 C50.5780121,103.681106 50.515589,103.054501 50.4003683,102.446232 L47.9671539,102.446232 L47.9671539,101.15631 L50.0685001,101.15631 L51.2900646,101.15631 L51.309401,101.15631 C51.6038274,102.161778 51.7647661,103.223266 51.7647661,104.322481 C51.7647661,110.604597 46.6108879,115.697249 40.2532453,115.697249 L40.2532453,115.697249 Z" id="Ellipse-4" fill="#7EB9C4"></path>
                    <path d="M32.3076923,98.0327869 L47.3846154,98.0327869 L47.3846154,104.42623 C47.3846154,107.95723 44.5132734,110.819672 40.9906427,110.819672 L38.701665,110.819672 C35.1703714,110.819672 32.3076923,107.950045 32.3076923,104.42623 L32.3076923,98.0327869 Z" id="Rectangle-13" fill="#FFFFFF"></path>
                    <path d="M33.2105944,96.5094956 L33.2105944,103.741974 C33.2105944,107.495068 36.2923007,110.537564 40.0937749,110.537564 C43.8952494,110.537564 46.9769558,107.495068 46.9769558,103.741974 L46.9769558,96.658709 C47.3764167,96.5385667 47.7721173,96.4080739 48.1637097,96.267097 L48.1637097,103.7912 C48.1637097,108.22951 44.5241163,111.827486 40.0344417,111.827486 C35.5447672,111.827486 31.9051651,108.22951 31.9051651,103.7912 L31.9051651,96.0443501 C32.335133,96.2123434 32.7706271,96.3668579 33.2105944,96.5094956 L33.2105944,96.5094956 Z" id="neck" fill="#7EB9C4"></path>
                    <path d="M40.3330612,25.4026695 C55.3610945,25.4026695 66.7931813,38.4256729 66.181478,53.3274753 L65.351353,73.5502042 C62.9995925,87.2799129 53.4202626,97.192246 40.4379346,98.5764679 C27.7741397,97.2614346 18.006895,87.2763817 15.3147607,73.5502042 L14.4846357,53.3274753 C13.8729324,38.4256729 25.3050278,25.4026695 40.3330612,25.4026695 L40.3330612,25.4026695 Z" id="1-copy-4" stroke="#7EB9C4" stroke-width="2" fill="#FFFFFF"></path>
                    <path d="M53.1480759,80.8929612 C50.9909951,82.7436953 46.1187854,84.5045745 40.4498098,84.5045745 C34.7808255,84.5045745 29.9086158,82.7436953 27.7515267,80.8929612 C27.7515267,80.8929612 27.5308301,80.2929029 27.8546345,79.9729451 C28.1844315,79.6470659 28.7009297,79.7179904 28.7009297,79.7179904 C30.8557525,81.569983 34.778661,83.0973962 40.4498098,83.0973962 C46.1209499,83.0973962 50.0438584,81.569983 52.1986812,79.7179904 C52.1986812,79.7179904 52.7257728,79.524516 52.9818232,79.7775249 C53.4749869,80.26483 53.1480759,80.8929612 53.1480759,80.8929612 L53.1480759,80.8929612 Z" id="usta" fill="#7EB9C4"></path>
                    <path d="M36.5335136,87.3189566 L44.1287466,87.3189566 L44.1287466,88.4916123 L36.5335136,88.4916123 L36.5335136,87.3189566 L36.5335136,87.3189566 Z" id="-" fill="#7EB9C4"></path>
                    <path d="M13.0192268,55.0543516 C13.0159505,55.0545361 12.7278394,54.8271848 12.1837881,54.657925 C11.9118728,54.5734797 11.5739269,54.5040144 11.1887349,54.4868874 C11.0925366,54.4826097 10.9935286,54.4815947 10.8922205,54.484438 C10.790912,54.4872815 10.687295,54.4939747 10.5819718,54.5050882 C10.3713509,54.5273234 10.1538204,54.5672815 9.9349231,54.6294998 C9.05844346,54.8783905 8.16432493,55.4835229 7.63921117,56.7325216 C7.37561444,57.3570546 7.20172248,58.1426273 7.15574972,59.125516 C7.14424784,59.3712443 7.14073375,59.6293023 7.1457757,59.9002605 C7.15082626,60.1712184 7.16444177,60.4550763 7.18718185,60.7524047 C7.23263698,61.3470363 7.31471917,61.9955574 7.43701899,62.7022374 C7.43434518,62.7015412 7.32295283,64.8377523 8.09583238,67.292403 C8.82241681,69.6923085 10.5671766,72.640379 13.7886095,73.4828188 C13.4181105,67.3870056 13.4066005,61.1769295 13.0192268,55.0543516 L13.0192268,55.0543516 L13.0192268,55.0543516 Z" id="Shape-11-copy" fill="#FFFFFF"></path>
                    <path d="M13.3865596,55.3000967 C13.3865596,55.3000967 7.77458301,53.5818766 7.97208119,59.2827732 C7.97208119,59.2827732 8.80760472,67.5492533 9.17042992,68.3111146 C9.17042992,68.3111146 11.3744086,73.1241444 15.0117613,73.3374469 C18.5667431,73.545918 15.0117613,73.3374469 15.0117613,73.3374469 L15.0559091,74.8887979 C15.0559091,74.8887979 8.66282766,74.0788427 7.42804685,66.7989499 L6.45345882,60.1855193 C6.45345882,60.1855193 5.69673258,51.433294 13.0370183,53.6586137 C20.1879467,55.8265297 13.0370183,53.6586137 13.0370183,53.6586137 L13.3865596,55.3000967" id="Shape-3" fill="#7EB9C4"></path>
                    <path d="M11.5342355,66.7850435 C11.5342355,66.7850435 11.220167,67.0195747 10.9503654,67.0195747 C10.6805638,67.0195747 10.3703237,66.7850435 10.3703237,66.7850435 L9.79116489,61.0181038 C9.79116489,61.0181038 10.5902563,58.1780392 13.9810994,59.6789312 L14.0612545,61.3279043 C14.0612545,61.3279043 11.0863061,60.2853722 11.1478211,61.5835634 C11.2070358,62.833141 11.5342355,66.7850435 11.5342355,66.7850435 L11.5342355,66.7850435 Z" id="Shape-4" fill="#7EB9C4"></path>
                    <path d="M67.8156521,55.0678137 C67.8189454,55.0679981 68.1083212,54.8408059 68.6547493,54.6716553 C68.9278614,54.5872688 69.2672842,54.517854 69.6541654,54.500735 C69.7507796,54.4964659 69.8502206,54.4954509 69.9519788,54.4982944 C70.0537284,54.5011291 70.1577952,54.5078223 70.2635854,54.5189275 C70.475123,54.541146 70.6936128,54.5810788 70.9134692,54.6432554 C71.7937856,54.8919781 72.6918174,55.4966996 73.2192314,56.7448513 C73.4839824,57.3689563 73.6586385,58.1539922 73.7048065,59.1362184 C73.7163592,59.381779 73.7198903,59.6396611 73.7148311,59.9104346 C73.7097552,60.1812078 73.6960805,60.464873 73.6732383,60.762 C73.6275882,61.3562289 73.5451408,62.0043138 73.4223064,62.7105073 C73.4249972,62.7098112 73.5368732,64.8445796 72.7606067,67.2975615 C72.0308478,69.6958397 70.2784401,72.6419054 67.0428997,73.483775 C67.4150197,67.3920967 67.4265808,61.1862395 67.8156521,55.0678137 L67.8156521,55.0678137 L67.8156521,55.0678137 Z" id="Shape-11-copy_1" fill="#FFFFFF"></path>
                    <path d="M67.1673471,55.3133993 C67.1673471,55.3133993 72.8039056,53.596345 72.6055419,59.2933664 C72.6055419,59.2933664 71.7663599,67.5542356 71.4019387,68.3155769 C71.4019387,68.3155769 69.1883089,73.1253438 65.5350321,73.3385037 C61.9644744,73.5468324 65.5350321,73.3385037 65.5350321,73.3385037 L65.490689,74.8887979 C65.490689,74.8887979 71.911765,74.0793962 73.151953,66.8044437 L74.1308105,60.1955001 C74.1308105,60.1955001 74.8908559,51.4492134 67.5184159,53.6730233 C60.3361745,55.8394714 67.5184159,53.6730233 67.5184159,53.6730233 L67.1673471,55.3133993" id="Shape-3_1" fill="#7EB9C4"></path>
                    <path d="M69.027786,66.7905458 C69.027786,66.7905458 69.3432294,67.0249174 69.6142109,67.0249174 C69.8851924,67.0249174 70.1967907,66.7905458 70.1967907,66.7905458 L70.7784876,61.0275229 C70.7784876,61.0275229 69.9758988,58.1893877 66.5702014,59.6892562 L66.4896979,61.3371137 C66.4896979,61.3371137 69.4776761,60.2952863 69.4158894,61.5925969 C69.3564202,62.8413272 69.027786,66.7905458 69.027786,66.7905458 L69.027786,66.7905458 Z" id="Shape-4_1" fill="#7EB9C4"></path>
                    <path d="M42.5266246,66.3284032 L42.9419843,66.3284032 C43.8007489,67.4808029 44.1501288,69.2517303 44.6034395,70.7844946 C44.7439215,71.2595036 44.6076329,72.0903523 44.4847642,72.4262126 C44.0347893,73.6562723 42.6218467,73.6341965 41.4585463,74.1851962 C41.1461247,74.3331851 40.9137309,74.5886178 40.5091432,74.6542667 C40.2453766,74.4246842 39.9269028,74.3795932 39.7970825,74.0093021 C39.4765713,73.5732026 39.889656,73.3008691 40.2124505,73.1298062 C40.7982896,72.8193513 42.6067715,72.513367 42.8233088,71.9571504 C43.0912262,71.6559973 42.9130814,70.7505505 42.8233088,70.4326981 C42.5933938,69.618574 42.483037,68.9389019 42.1705984,68.2046523 C41.9630589,67.7169445 41.59868,67.2027156 41.8145725,66.6215628 C41.9934725,66.545656 42.3801245,66.4593487 42.5266246,66.3284032 L42.5266246,66.3284032 Z" id="new_vector_shape_done" fill="#7EB9C4"></path>
                    <path d="M26.0900629,57.2989459 L27.7515267,57.2989459 C28.6691241,57.2989459 29.4129822,58.0339673 29.4129822,58.940664 C29.4129822,59.8473604 28.6691241,60.5823818 27.7515267,60.5823818 L26.0900629,60.5823818 C25.1724655,60.5823818 24.4286074,59.8473604 24.4286074,58.940664 C24.4286074,58.0339673 25.1724655,57.2989459 26.0900629,57.2989459 L26.0900629,57.2989459 Z" id="Rounded-Rectangle-8" fill="#7EB9C4"></path>
                    <path d="M53.1480759,57.2989459 L54.8095397,57.2989459 C55.7271368,57.2989459 56.4709949,58.0339673 56.4709949,58.940664 C56.4709949,59.8473604 55.7271368,60.5823818 54.8095397,60.5823818 L53.1480759,60.5823818 C52.2304785,60.5823818 51.4866204,59.8473604 51.4866204,58.940664 C51.4866204,58.0339673 52.2304785,57.2989459 53.1480759,57.2989459 L53.1480759,57.2989459 Z" id="Rounded-Rectangle-8-copy" fill="#7EB9C4"></path>
                    <path d="M54.6908641,65.0384819 C56.3294265,65.0384819 57.6577488,66.351024 57.6577488,67.970121 C57.6577488,69.5892179 56.3294265,70.9017603 54.6908641,70.9017603 C53.0522933,70.9017603 51.7239796,69.5892179 51.7239796,67.970121 C51.7239796,66.351024 53.0522933,65.0384819 54.6908641,65.0384819 L54.6908641,65.0384819 Z" id="Ellipse-3" fill="#EDF1F1"></path>
                    <path d="M25.9713959,65.0384819 C27.6099583,65.0384819 28.9382806,66.351024 28.9382806,67.970121 C28.9382806,69.5892179 27.6099583,70.9017603 25.9713959,70.9017603 C24.3328252,70.9017603 23.0045115,69.5892179 23.0045115,67.970121 C23.0045115,66.351024 24.3328252,65.0384819 25.9713959,65.0384819 L25.9713959,65.0384819 Z" id="Ellipse-3-copy" fill="#EDF1F1"></path>
                    <path d="M66.181962,53.8358331 C66.0214221,55.1907741 65.88038,56.8488227 65.5838826,58.3312116 C64.6972676,62.7639945 60.842529,66.8709399 54.2605482,67.3388866 C47.6785761,67.8068333 42.076709,64.5326571 41.7484314,60.0258045 C41.6927733,59.2616618 41.5438794,58.4041493 41.429618,57.5704577 C40.4981506,57.0601876 39.5381032,57.0590217 38.5494842,57.5669851 C38.4340259,58.4195487 38.2795212,59.2996152 38.2225389,60.0820343 C37.8932342,64.6038251 32.2737031,67.8888545 25.6709683,67.4193561 C19.0682336,66.9498576 15.2013395,62.8293078 14.3119236,58.3818303 C14.0144924,56.8945261 13.8730089,55.230984 13.7119597,53.8715471 L12.7417008,53.8025514 L12.8779894,51.9311421 L13.1147292,51.9479758 L19.1194862,52.3749579 L24.1881585,52.735377 L29.2662528,53.0964588 L37.1757918,53.6588822 C37.7212859,53.7270558 38.0840096,53.9582235 38.3175999,54.3033186 C39.4535172,54.7946496 40.5567034,54.7966122 41.6271499,54.3091227 C41.8586269,53.9418259 42.2262309,53.6945459 42.791885,53.6238644 L50.6765617,53.063303 L55.7386979,52.7034121 L60.7914375,52.3441842 L66.7773167,51.9186112 L67.0133092,51.901836 L67.1491736,53.7670642 L66.181962,53.8358331 L66.181962,53.8358331 Z M35.0518835,55.8580246 L19.5503881,54.7557653 C17.5229157,54.58305 16.8042679,56.834329 16.6793112,58.5501674 C16.4158672,62.1675933 20.4949611,65.4053425 25.790221,65.7818739 C31.0854809,66.158397 35.5917076,63.5311316 35.8551513,59.9136972 C35.9801083,58.1978674 36.5472902,57.1381912 35.0518835,55.8580246 L35.0518835,55.8580246 Z M63.2239393,58.4989952 C63.0993728,56.7888268 62.382983,54.5449789 60.3618854,54.717124 L44.9091214,55.8157432 C43.4184173,57.091691 43.9838169,58.1478528 44.1083747,59.858021 C44.3709951,63.4635031 48.8630548,66.0820958 54.141669,65.7068059 C59.4202833,65.3315242 63.4865597,62.104469 63.2239393,58.4989952 L63.2239393,58.4989952 Z" id="glasses" fill="#7EB9C4"></path>
                    <path d="M14.9345683,36.8947118 L23.5978797,25.9890058 L31.4304636,22.3537732 L41.9925813,20.7120466 L54.0974872,21.4156401 L70.3560232,38.0673676 L65.9650342,53.7809706 C65.9650342,53.7809706 64.9586063,46.8508446 59.5565549,41.350812 C54.5175665,36.2204244 51.2492695,34.9598342 51.2492695,34.9598342 C51.2492695,34.9598342 49.3436218,42.5583092 36.652189,42.2889365 C13.887821,41.8057581 14.8989173,57.7801282 14.1038406,59.175195 C14.0164617,59.3285183 13.9851653,52.4910493 13.9851653,52.4910493 L14.9345683,36.8947118 L14.9345683,36.8947118 Z" id="Shape-26" fill="#7EB9C4"></path>
                </g>
            </g>
        </g>
    </g>
</svg>