<?xml version="1.0" encoding="UTF-8"?>
<svg width="260px" height="220px" viewBox="0 0 260 220" version="1.1" xmlns="http://www.w3.org/2000/svg" xmlns:xlink="http://www.w3.org/1999/xlink">
    <!-- Generator: Sketch 43.1 (39012) - http://www.bohemiancoding.com/sketch -->
    <title>feature-contracts</title>
    <desc>Created with Sketch.</desc>
    <defs>
        <polygon id="path-1" points="4.44444444 61.4193548 8.88888889 61.4193548 6.66666667 68"></polygon>
    </defs>
    <g id="Page-1" stroke="none" stroke-width="1" fill="none" fill-rule="evenodd">
        <g id="Group-30" transform="translate(30.000000, 10.000000)">
            <g id="Group-29" transform="translate(37.000000, 35.000000)" stroke="#BBC2C7" stroke-width="2" fill="#FFFFFF">
                <rect id="Rectangle-3-Copy-5" transform="translate(51.000000, 65.000000) rotate(-4.000000) translate(-51.000000, -65.000000) " x="5" y="4" width="92" height="122" rx="10"></rect>
                <rect id="Rectangle-3-Copy-4" transform="translate(54.000000, 65.000000) rotate(-3.000000) translate(-54.000000, -65.000000) " x="8" y="4" width="92" height="122" rx="10"></rect>
                <rect id="Rectangle-3-Copy-3" transform="translate(57.000000, 65.000000) rotate(-2.000000) translate(-57.000000, -65.000000) " x="11" y="4" width="92" height="122" rx="10"></rect>
                <rect id="Rectangle-3" transform="translate(60.000000, 65.000000) rotate(-1.000000) translate(-60.000000, -65.000000) " x="14" y="4" width="92" height="122" rx="10"></rect>
            </g>
            <g id="Group-10" transform="translate(54.000000, 39.000000)">
                <path d="M92,112 L102,112 L102,117 C102,119.761424 99.7558048,122 97,122 L97,122 C94.2385763,122 92,119.755805 92,117 L92,112 Z" id="Rectangle-7" stroke="#7696C2" stroke-width="2" fill="#FFFFFF" stroke-linecap="round"></path>
                <path d="M-1.42108547e-14,10.0096782 C-1.43366237e-14,4.48148559 4.46844234,0 9.99878636,0 L82.0012136,0 C87.5233909,0 92,4.47138644 92,10.0029829 C92,10.0029829 92,113 92,117 C92,121 95,122 97,122 C101.999122,122 9.98766714,122 9.98766714,122 C4.47163089,122 -1.17650973e-14,117.513267 -1.1890747e-14,111.990322 L-1.42108547e-14,10.0096782 Z" id="Rectangle" stroke="#7696C2" stroke-width="2" fill="#B5D8EB"></path>
                <path d="M53.9642857,21.1428571 L55.6584821,22.8002232 C55.9040191,23.029391 55.9858635,23.3158465 55.9040179,23.6595982 C55.8058031,23.9951654 55.5930076,24.2038686 55.265625,24.2857143 L52.9575893,24.875 L53.6082589,27.1584821 C53.7064737,27.4940493 53.6287215,27.7805048 53.375,28.0178571 C53.1376476,28.2715786 52.8511922,28.3493308 52.515625,28.2511161 L50.2321429,27.6004464 L49.6428571,29.9084821 C49.5610115,30.2358647 49.3523082,30.4486602 49.0167411,30.546875 C48.9185263,30.5632441 48.8407741,30.5714286 48.7834821,30.5714286 C48.5297606,30.5714286 48.3210574,30.4813997 48.1573661,30.3013393 L46.5,28.6071429 L44.8426339,30.3013393 C44.6134661,30.5468762 44.3270106,30.6287206 43.9832589,30.546875 C43.6476918,30.4568448 43.4389885,30.2440493 43.3571429,29.9084821 L42.7678571,27.6004464 L40.484375,28.2511161 C40.1488078,28.3493308 39.8623524,28.2715786 39.625,28.0178571 C39.3712785,27.7805048 39.2935263,27.4940493 39.3917411,27.1584821 L40.0424107,24.875 L37.734375,24.2857143 C37.4069924,24.2038686 37.1941969,23.9951654 37.0959821,23.6595982 C37.0141365,23.3158465 37.0959809,23.029391 37.3415179,22.8002232 L39.0357143,21.1428571 L37.3415179,19.4854911 C37.0959809,19.2563233 37.0141365,18.9698678 37.0959821,18.6261161 C37.1941969,18.2905489 37.4069924,18.0818456 37.734375,18 L40.0424107,17.4107143 L39.3917411,15.1272321 C39.2935263,14.791665 39.3712785,14.5052095 39.625,14.2678571 C39.8623524,14.0141356 40.1488078,13.9363834 40.484375,14.0345982 L42.7678571,14.6852679 L43.3571429,12.3772321 C43.4389885,12.041665 43.6476918,11.8329617 43.9832589,11.7511161 C44.3188261,11.6529013 44.6052816,11.7306535 44.8426339,11.984375 L46.5,13.6908482 L48.1573661,11.984375 C48.3947184,11.7388381 48.6811739,11.6610859 49.0167411,11.7511161 C49.3523082,11.8329617 49.5610115,12.041665 49.6428571,12.3772321 L50.2321429,14.6852679 L52.515625,14.0345982 C52.8511922,13.9363834 53.1376476,14.0141356 53.375,14.2678571 C53.6287215,14.5052095 53.7064737,14.791665 53.6082589,15.1272321 L52.9575893,17.4107143 L55.265625,18 C55.5930076,18.0818456 55.8058031,18.2905489 55.9040179,18.6261161 C55.9858635,18.9698678 55.9040191,19.2563233 55.6584821,19.4854911 L53.9642857,21.1428571 Z" id="" fill="#7696C2"></path>
                <rect id="Rectangle-2-Copy-7" fill="#7696C2" x="11" y="42" width="70" height="14" rx="2"></rect>
                <rect id="Rectangle-2-Copy-2" fill="#7696C2" x="11" y="64" width="70" height="4" rx="2"></rect>
                <rect id="Rectangle-2-Copy-21" fill="#7696C2" x="11" y="74" width="70" height="4" rx="2"></rect>
                <rect id="Rectangle-2-Copy-22" fill="#7696C2" x="11" y="84" width="70" height="4" rx="2"></rect>
                <rect id="Rectangle-2-Copy-23" fill="#7696C2" x="11" y="94" width="35" height="4" rx="2"></rect>
                <rect id="Rectangle-2-Copy-24" fill="#7696C2" x="51" y="110" width="30" height="2" rx="1"></rect>
                <g id="Group-28" transform="translate(49.000000, 104.000000)" stroke="#7696C2" stroke-linecap="round">
                    <path d="M1.52929656,0.161644513 C1.52929656,0.161644513 4.45612529,2.48971447 5.01698297,3.67191448" id="Path-10"></path>
                    <path d="M6.27459242,0.272598501 C6.27459242,0.272598501 3.26020296,0.905756048 0.884020219,3.84260009" id="Path-13"></path>
                </g>
            </g>
            <g id="Group-26" transform="translate(156.000000, 66.000000)">
                <path d="M3.33333333,2.22573392 C3.33333333,0.996495018 4.33140069,2.13426946e-16 5.5532368,2.13426946e-16 L7.78009653,2.13426946e-16 C9.00611536,2.13426946e-16 10,0.991187616 10,2.22573392 L10,59.2903951 C10,60.519634 9.00193264,61.516129 7.78009653,61.516129 L5.5532368,61.516129 C4.32721797,61.516129 3.33333333,60.5249414 3.33333333,59.2903951 L3.33333333,2.22573392 Z" id="Rectangle-2" stroke="#BBC2C7" stroke-width="2" fill="#FFFFFF" transform="translate(6.666667, 30.758065) scale(-1, 1) translate(-6.666667, -30.758065) "></path>
                <g id="Rectangle-3" transform="translate(6.666667, 64.709677) scale(-1, 1) translate(-6.666667, -64.709677) ">
                    <use fill="#FFFFFF" fill-rule="evenodd" xlink:href="#path-1"></use>
                    <path stroke="#BBC2C7" stroke-width="1" d="M5.14102903,61.9193548 L8.1923043,61.9193548 L6.66666667,66.4372108 L5.14102903,61.9193548 Z"></path>
                </g>
                <path d="M4.44444444,4.93548387 L8.88888889,4.93548387" id="Line" stroke="#BBC2C7" stroke-width="1.11111111" stroke-linecap="square" transform="translate(6.666667, 4.935484) scale(-1, 1) translate(-6.666667, -4.935484) "></path>
                <path d="M1.11111111,2.74193548 L3.33333333,2.74193548" id="Line" stroke="#BBC2C7" stroke-width="1.11111111" stroke-linecap="square" transform="translate(2.222222, 2.741935) scale(-1, 1) translate(-2.222222, -2.741935) "></path>
                <path d="M-6.11111111,9.87096774 L8.33333333,9.87096774" id="Line" stroke="#BBC2C7" stroke-width="1.11111111" stroke-linecap="square" transform="translate(1.111111, 9.870968) scale(-1, 1) rotate(-90.000000) translate(-1.111111, -9.870968) "></path>
                <path d="M4.44444444,42.3225806 L8.88888889,42.3225806" id="Line" stroke="#BBC2C7" stroke-width="1.11111111" stroke-linecap="square" transform="translate(6.666667, 42.322581) scale(-1, 1) translate(-6.666667, -42.322581) "></path>
                <path d="M4.44444444,44.516129 L8.88888889,44.516129" id="Line" stroke="#BBC2C7" stroke-width="1.11111111" stroke-linecap="square" transform="translate(6.666667, 44.516129) scale(-1, 1) translate(-6.666667, -44.516129) "></path>
                <path d="M4.44444444,57.6774194 L8.88888889,57.6774194" id="Line" stroke="#BBC2C7" stroke-width="1.11111111" stroke-linecap="square" transform="translate(6.666667, 57.677419) scale(-1, 1) translate(-6.666667, -57.677419) "></path>
            </g>
        </g>
    </g>
</svg>