<?xml version="1.0" encoding="UTF-8"?>
<svg width="260px" height="220px" viewBox="0 0 260 220" version="1.1" xmlns="http://www.w3.org/2000/svg" xmlns:xlink="http://www.w3.org/1999/xlink">
    <!-- Generator: Sketch 43.1 (39012) - http://www.bohemiancoding.com/sketch -->
    <title>feature-army</title>
    <desc>Created with Sketch.</desc>
    <defs></defs>
    <g id="Page-1" stroke="none" stroke-width="1" fill="none" fill-rule="evenodd">
        <g id="Group-20-Copy" transform="translate(30.000000, 6.000000)">
            <path d="M128,72 L128,132" id="Path-7" stroke="#40C681" stroke-width="2" stroke-linecap="round" stroke-linejoin="round" stroke-dasharray="4"></path>
            <path d="M86,106 L128,106" id="Path-8" stroke="#40C681" stroke-width="2" stroke-linecap="round" stroke-linejoin="round" stroke-dasharray="4"></path>
            <path d="M72,116 L72,176" id="Path-7-Copy" stroke="#40C681" stroke-width="2" stroke-linecap="round" stroke-linejoin="round" stroke-dasharray="4"></path>
            <path d="M76,146 L118,146" id="Path-8" stroke="#40C681" stroke-width="2" stroke-linecap="round" stroke-linejoin="round" stroke-dasharray="4"></path>
            <g id="users-7" transform="translate(119.000000, 0.000000)">
                <g id="svg5448">
                    <path d="M0.578916334,75.3059361 C0.578916334,75.3059361 -0.560828564,59.6915417 14.0318922,58.2342785 L20.574594,58.2342785 L20.574594,55.1989032 C20.574594,55.1989032 25.1769426,57.189709 29.8372984,55.4210035 L29.9843252,58.2342785 L37.6297287,58.2342785 C37.6297287,58.2342785 50.7218098,58.7520941 50.1270246,75.454003 L0.578916334,75.3059361 L0.578916334,75.3059361 Z" id="body-bg-flat-copy" stroke="#40C681" stroke-width="2" fill="#93DFB8"></path>
                    <path d="M24.7625677,66.9702267 C20.8243326,66.9702267 17.6317533,63.7550766 17.6317533,59.7889803 C17.6317533,59.0950117 17.7314467,58.4248612 17.9138291,57.7900781 L17.9258124,57.7900781 L18.6825049,57.7900781 L19.9841887,57.7900781 L19.9841887,58.6044457 L18.476929,58.6044457 C18.4055609,58.9884652 18.3668878,59.3840603 18.3668878,59.7889803 C18.3668878,63.3462009 21.2303365,66.2298927 24.7625677,66.2298927 C28.2948043,66.2298927 31.1582426,63.3462009 31.1582426,59.7889803 C31.1582426,59.3840603 31.1195746,58.9884652 31.0482011,58.6044457 L29.5409469,58.6044457 L29.5409469,57.7900781 L30.8426254,57.7900781 L31.5993233,57.7900781 L31.6113012,57.7900781 C31.7936836,58.4248612 31.8933771,59.0950117 31.8933771,59.7889803 C31.8933771,63.7550766 28.7008082,66.9702267 24.7625677,66.9702267 L24.7625677,66.9702267 Z" id="Ellipse-4" fill="#40C681"></path>
                    <path d="M19.4285714,55.1612903 L29.1428571,55.1612903 L29.1428571,59.4516129 C29.1428571,61.8210926 27.2236269,63.7419355 24.8537527,63.7419355 L23.7176759,63.7419355 C21.3488689,63.7419355 19.4285714,61.8162712 19.4285714,59.4516129 L19.4285714,55.1612903 Z" id="Rectangle-24" fill="#FFFFFF"></path>
                    <path d="M20.5722963,54.8563988 L20.5722963,59.4224882 C20.5722963,61.7919334 22.4812587,63.7127566 24.8360811,63.7127566 C27.1909038,63.7127566 29.0998662,61.7919334 29.0998662,59.4224882 L29.0998662,54.9506019 C29.3473122,54.8747523 29.5924288,54.7923681 29.8350007,54.703365 L29.8350007,59.4535661 C29.8350007,62.25561 27.5804552,64.5271242 24.7993272,64.5271242 C22.0181992,64.5271242 19.7636484,62.25561 19.7636484,59.4535661 L19.7636484,54.562738 C20.0299919,54.6687973 20.2997586,54.7663472 20.5722963,54.8563988 L20.5722963,54.8563988 Z" id="neck" fill="#40C681"></path>
                    <path d="M25.0200936,8.40973732 C34.1652691,8.40973732 41.3835625,17.0163429 41.1488569,27.3573882 L40.8994023,38.3480911 C40.6782887,48.0903822 33.5713406,55.7911705 25.0200936,55.7911705 C16.4688464,55.7911705 9.36189839,48.0903822 9.14078496,38.3480911 L8.89133035,27.3573882 C8.6566299,17.0163429 15.8749182,8.40973732 25.0200936,8.40973732 L25.0200936,8.40973732 Z" id="2-copy-5" stroke="#40C681" stroke-width="2" fill="#FFFFFF"></path>
                    <path d="M41.4248648,28.9170144 L40.6897304,41.0585103 C40.6897304,41.0585103 37.4246577,55.0735586 24.8108108,56.7330222 L24.8108108,56.7536051 C24.786019,56.7505548 24.7620157,56.7464616 24.7372974,56.7433162 C24.7125791,56.7464616 24.6885759,56.7505548 24.6637838,56.7536051 L24.6637838,56.7330222 C12.0499423,55.0735586 8.78486441,41.0585103 8.78486441,41.0585103 L8.0497299,28.9170144 C11.3229947,43.549043 14.0778376,44.4640528 14.0778376,44.4640528 C13.5203584,40.0270519 18.0475688,40.466243 18.0475688,40.466243 C20.80676,40.9356175 23.0032666,41.1624357 24.7372974,41.2472345 C26.4713334,41.1624357 28.6678347,40.9356175 31.427026,40.466243 C31.427026,40.466243 35.954231,40.0270519 35.3967571,44.4640528 C35.3967571,44.4640528 38.1516,43.549043 41.4248648,28.9170144 L41.4248648,28.9170144 Z M33.2504653,45.968963 C33.0364661,43.3590005 31.4736969,43.5803116 31.4736969,43.5803116 C28.695466,44.4035806 26.5146128,44.8609345 24.8108108,45.0933765 L24.8108108,45.0763151 C23.1189394,44.8457689 20.953361,44.3921693 18.1945956,43.5756465 C18.1945956,43.5756465 16.6427685,43.3561463 16.4302677,45.9447211 C16.4302677,45.9447211 15.8071256,48.5382046 17.9005419,49.6463918 L20.5470258,52.459667 C20.5470258,52.459667 22.3555743,53.0368957 22.3113537,50.8309264 C22.3113537,50.8309264 22.1272783,49.1857071 23.193515,48.9060578 L24.8108108,48.9060578 L24.8108108,48.9547743 L26.4395167,48.9547743 C27.5132724,49.2367378 27.3279036,50.8955554 27.3279036,50.8955554 C27.2833675,53.1197563 29.1046669,52.5377513 29.1046669,52.5377513 L31.7698223,49.7012298 C33.8780035,48.5838818 33.2504653,45.968963 33.2504653,45.968963 L33.2504653,45.968963 Z" id="1-copy-4" fill="#3B434F" opacity="0.058824"></path>
                    <path d="M32.9225653,44.997193 C31.5863621,46.1656192 28.5682727,47.2773172 25.0566268,47.2773172 C21.5449757,47.2773172 18.5268863,46.1656192 17.1906779,44.997193 C17.1906779,44.997193 17.0539674,44.6183575 17.2545479,44.4163581 C17.4588407,44.2106204 17.7787854,44.2553972 17.7787854,44.2553972 C19.11359,45.424618 21.5436349,46.3889216 25.0566268,46.3889216 C28.5696135,46.3889216 30.9996584,45.424618 32.334463,44.2553972 C32.334463,44.2553972 32.6609698,44.1332508 32.8195801,44.2929832 C33.1250703,44.6006342 32.9225653,44.997193 32.9225653,44.997193 L32.9225653,44.997193 Z" id="usta" fill="#40C681"></path>
                    <path d="M22.630678,49.0541245 L27.3355436,49.0541245 L27.3355436,49.7944587 L22.630678,49.7944587 L22.630678,49.0541245 L22.630678,49.0541245 Z" id="-" fill="#40C681"></path>
                    <path d="M8.0647575,28.684472 C8.06272801,28.6845884 7.88425765,28.5410544 7.54724517,28.4341955 C7.37880733,28.3808825 7.1694668,28.3370268 6.93085968,28.326214 C6.87126963,28.3235134 6.8099392,28.3228726 6.74718387,28.3246677 C6.68442837,28.3264628 6.6202428,28.3306885 6.55500036,28.3377048 C6.42453134,28.3517426 6.2897821,28.3769694 6.1541862,28.4162497 C5.61125105,28.5733822 5.0573895,28.9554212 4.73210788,29.7439531 C4.56882294,30.1382402 4.4611056,30.6341968 4.43262778,31.2547252 C4.42550295,31.4098611 4.42332614,31.5727812 4.42644937,31.7438455 C4.42957795,31.9149097 4.43801207,32.0941181 4.45209841,32.2818308 C4.48025558,32.6572403 4.53110137,33.0666719 4.60685998,33.512821 C4.60520369,33.5123815 4.53620172,34.8610383 5.01496181,36.4107359 C5.46504439,37.9258712 6.54583553,39.7870801 8.54135147,40.3189387 C8.31184595,36.4704615 8.30471612,32.5498465 8.0647575,28.684472 L8.0647575,28.684472 L8.0647575,28.684472 Z" id="Shape-11-copy" fill="#FFFFFF"></path>
                    <path d="M8.29230175,28.8396185 C8.29230175,28.8396185 4.81596394,27.7548524 4.93830416,31.3540065 C4.93830416,31.3540065 5.45586904,36.5728935 5.68062104,37.0538803 C5.68062104,37.0538803 7.04587519,40.0924964 9.29903262,40.2271609 C11.5011654,40.3587752 9.29903262,40.2271609 9.29903262,40.2271609 L9.32637999,41.2065773 C9.32637999,41.2065773 5.36618692,40.6952272 4.60130219,36.0992036 L3.99759382,31.9239383 C3.99759382,31.9239383 3.5288399,26.3983852 8.0757785,27.803299 C12.5054197,29.171972 8.0757785,27.803299 8.0757785,27.803299 L8.29230175,28.8396185" id="Shape-3" fill="#40C681"></path>
                    <path d="M7.14487998,36.090424 C7.14487998,36.090424 6.95033031,36.2384909 6.78320176,36.2384909 C6.61607321,36.2384909 6.42389504,36.090424 6.42389504,36.090424 L6.0651352,32.4495749 C6.0651352,32.4495749 6.56013224,30.6565534 8.66058929,31.6041135 L8.71024141,32.6451616 C8.71024141,32.6451616 6.86741017,31.9869786 6.90551561,32.8065672 C6.94219616,33.5954646 7.14487998,36.090424 7.14487998,36.090424 L7.14487998,36.090424 Z" id="Shape-4" fill="#40C681"></path>
                    <path d="M41.8360953,28.6929709 C41.8381353,28.6930874 42.0173891,28.5496539 42.3558739,28.4428638 C42.5250531,28.389588 42.7353085,28.3457642 42.974962,28.3349565 C43.0348097,28.3322612 43.0964084,28.3316204 43.1594425,28.3334156 C43.2224712,28.3352053 43.2869354,28.3394309 43.3524671,28.346442 C43.483504,28.3604692 43.6188475,28.38568 43.7550375,28.424934 C44.3003493,28.5819604 44.8566349,28.96374 45.1833415,29.7517372 C45.3473414,30.1457541 45.4555321,30.6413718 45.4841308,31.2614819 C45.4912872,31.416512 45.4934745,31.579321 45.4903406,31.7502687 C45.4871964,31.9212163 45.4787255,32.1003031 45.464576,32.2878886 C45.436298,32.6630438 45.385226,33.0722001 45.3091362,33.5180421 C45.310803,33.5176026 45.3801046,34.8653486 44.8992465,36.4139926 C44.4471975,37.9281005 43.3616688,39.7880438 41.357414,40.3195424 C41.5879236,36.4736757 41.5950852,32.5557242 41.8360953,28.6929709 L41.8360953,28.6929709 L41.8360953,28.6929709 Z" id="Shape-11-copy_1" fill="#FFFFFF"></path>
                    <path d="M41.6068002,28.8480168 C41.6068002,28.8480168 45.0983653,27.7639868 44.9754889,31.3606943 C44.9754889,31.3606943 44.4556578,36.576039 44.2299171,37.0566975 C44.2299171,37.0566975 42.8586846,40.0932536 40.595663,40.2278281 C38.3838817,40.3593525 40.595663,40.2278281 40.595663,40.2278281 L40.5681947,41.2065773 C40.5681947,41.2065773 44.5457289,40.6955767 45.3139631,36.102672 L45.9203163,31.9302395 C45.9203163,31.9302395 46.3911262,26.4084356 41.8242697,27.8123962 C37.3752316,29.1801426 41.8242697,27.8123962 41.8242697,27.8123962 L41.6068002,28.8480168" id="Shape-3_1" fill="#40C681"></path>
                    <path d="M42.7592487,36.0938978 C42.7592487,36.0938978 42.9546501,36.2418639 43.1225095,36.2418639 C43.2903689,36.2418639 43.4833884,36.0938978 43.4833884,36.0938978 L43.8437205,32.4555215 C43.8437205,32.4555215 43.346557,30.6637181 41.2368984,31.6106319 L41.1870306,32.6509758 C41.1870306,32.6509758 43.0379331,31.9932376 42.9996593,32.8122704 C42.9628211,33.6006328 42.7592487,36.0938978 42.7592487,36.0938978 L42.7592487,36.0938978 Z" id="Shape-4_1" fill="#40C681"></path>
                    <path d="M26.3431094,35.8021327 L26.6004039,35.8021327 C27.1323654,36.5296787 27.3487888,37.6477204 27.629592,38.6154024 C27.7166135,38.9152904 27.6321896,39.4398311 27.5560786,39.6518702 C27.2773417,40.4284454 26.4020947,40.4145082 25.6814885,40.7623715 C25.487959,40.8558015 25.3440027,41.0170641 25.093381,41.0585103 C24.9299907,40.9135678 24.7327122,40.8851004 24.6522951,40.651324 C24.4537545,40.3760008 24.7096397,40.2040682 24.9095947,40.0960708 C25.2724926,39.900071 26.3927564,39.7068935 26.5268903,39.3557366 C26.6928518,39.1656092 26.5825,38.5939724 26.5268903,38.3933023 C26.3844696,37.8793203 26.3161091,37.4502221 26.1225691,36.9866674 C25.9940087,36.6787622 25.7682943,36.3541135 25.9020289,35.9872136 C26.0128484,35.9392912 26.2523599,35.8848027 26.3431094,35.8021327 L26.3431094,35.8021327 Z" id="new_vector_shape_done" fill="#40C681"></path>
                    <path d="M16.1614844,30.1015544 L17.1906779,30.1015544 C17.7590834,30.1015544 18.2198661,30.5655964 18.2198661,31.1380223 C18.2198661,31.710448 17.7590834,32.17449 17.1906779,32.17449 L16.1614844,32.17449 C15.5930789,32.17449 15.1322961,31.710448 15.1322961,31.1380223 C15.1322961,30.5655964 15.5930789,30.1015544 16.1614844,30.1015544 L16.1614844,30.1015544 Z" id="Rounded-Rectangle-8" fill="#40C681"></path>
                    <path d="M32.9225653,30.1015544 L33.9517588,30.1015544 C34.5201641,30.1015544 34.9809469,30.5655964 34.9809469,31.1380223 C34.9809469,31.710448 34.5201641,32.17449 33.9517588,32.17449 L32.9225653,32.17449 C32.3541598,32.17449 31.8933771,31.710448 31.8933771,31.1380223 C31.8933771,30.5655964 32.3541598,30.1015544 32.9225653,30.1015544 L32.9225653,30.1015544 Z" id="Rounded-Rectangle-8-copy" fill="#40C681"></path>
                    <path d="M33.8782452,34.9877652 C34.8932524,34.9877652 35.7160814,35.816414 35.7160814,36.8386004 C35.7160814,37.8607869 34.8932524,38.6894359 33.8782452,38.6894359 C32.8632329,38.6894359 32.0404092,37.8607869 32.0404092,36.8386004 C32.0404092,35.816414 32.8632329,34.9877652 33.8782452,34.9877652 L33.8782452,34.9877652 Z" id="Ellipse-3" fill="#EDF1F1"></path>
                    <path d="M16.0879762,34.9877652 C17.1029834,34.9877652 17.9258124,35.816414 17.9258124,36.8386004 C17.9258124,37.8607869 17.1029834,38.6894359 16.0879762,38.6894359 C15.0729639,38.6894359 14.2501402,37.8607869 14.2501402,36.8386004 C14.2501402,35.816414 15.0729639,34.9877652 16.0879762,34.9877652 L16.0879762,34.9877652 Z" id="Ellipse-3-copy" fill="#EDF1F1"></path>
                    <path d="M29.6351351,27.2420091 C29.6351351,27.2420091 34.112667,24.6520575 37.0645569,27.9234119 L38.5854034,27.8797152 C38.5854034,27.8797152 36.6886452,23.7097769 28.9022986,26.3408306 L29.6351351,27.4155251" id="R-copy" fill="#40C681"></path>
                    <path d="M20.2904518,27.2589011 C20.2904518,27.2589011 15.8278581,24.6918675 12.885822,27.9342727 L11.3700494,27.8909625 C11.3700494,27.8909625 13.2604771,23.7579271 21.0208433,26.3656974 L20.2904518,27.4308815" id="R-copy-3" fill="#40C681"></path>
                    <path d="M9.13175676,36.4383562 C9.13175676,36.4383562 1.71324024,33.5009491 0.719907041,29.0622589 C-0.273420993,24.6235742 0.576555517,21.8296693 1.80840125,20.915475 C1.80840125,20.915475 1.27873213,14.0821235 3.82988687,11.8799457 C3.82988687,11.8799457 4.98074219,6.91819255 10.8273455,5.36251124 C10.8273455,5.36251124 19.9058116,-4.28093806 36.3291806,2.40004668 C36.3291806,2.40004668 40.37415,6.33922177 42.8117508,7.7652214 C42.8810524,7.8057674 42.9490607,7.84428014 43.0156387,7.88061109 C45.4238468,9.194822 47.6947817,11.9312466 48.1471043,17.2123851 C48.1471043,17.2123851 48.1017479,21.9384503 50.4795905,25.0629295 C50.4795905,25.0629295 53.1117356,33.2914939 40.6831525,36.1721832 L40.2166542,24.7666792 C40.2166542,24.7666792 34.4668365,22.7770438 33.8411968,17.5086352 C33.8411968,17.5086352 25.4410094,20.1748548 20.1572851,17.3605101 C20.1572851,17.3605101 16.8764172,16.3641489 16.7363047,17.80488 C16.7363047,17.80488 15.6372837,23.7653034 9.73885128,25.3591744 L9.13175676,36.4383562 L9.13175676,36.4383562 Z" id="Shape-1" fill="#40C681"></path>
                </g>
            </g>
            <rect id="Rectangle-12-Copy" stroke="#BBC2C7" stroke-width="2" fill="#FFFFFF" x="95" y="48" width="44" height="28" rx="4"></rect>
            <circle id="Oval-3-Copy" fill="#EFF0F1" cx="117" cy="62" r="5"></circle>
            <g id="users-5" transform="translate(5.000000, 44.000000)">
                <g id="svg4837">
                    <path d="M33.9904701,43.918254 C33.9904701,43.918254 26.5424675,34.9385746 34.5388411,44.3295854 C42.5352147,53.7205913 48.9335962,48.0315692 48.9335962,48.0315692 L48.9335962,16.0847909 C48.9335962,2.55689869 40.5709276,2.09950402 40.5709276,2.09950402 L43.1756952,1.41395156 C32.8173419,-2.86570388 29.2629465,4.62356926 28.4372226,6.9361972 C28.2936435,7.33832493 28.2325689,7.58393427 28.2325689,7.58393427 C28.2325689,7.58393427 27.4907423,10.9530517 28.8494864,12.2456917" id="Shape-16" fill="#40C681"></path>
                    <path d="M23.4343173,9.91481298 C32.9364609,9.91481298 40.639474,17.6188232 40.639474,27.1221968 L40.639474,30.687075 C40.639474,40.1904485 32.9364609,47.8944588 23.4343173,47.8944588 C13.9321737,47.8944588 6.2291605,40.1904485 6.2291605,30.687075 L6.2291605,27.1221968 C6.2291605,17.6188232 13.9321737,9.91481298 23.4343173,9.91481298 L23.4343173,9.91481298 Z" id="Rounded-Rectangle-7" fill="#40C681"></path>
                    <path d="M0.539800869,75.3572939 C0.539800869,75.3572939 -0.52293523,60.8982987 13.0838036,59.5488668 L19.1844366,59.5488668 L19.1844366,56.7380964 C19.1844366,56.7380964 23.4758197,58.581591 27.8212907,56.9437622 L27.9583834,59.5488668 L35.0872122,59.5488668 C35.0872122,59.5488668 47.2947046,60.0283662 46.740107,75.4944045 L0.539800869,75.3572939 L0.539800869,75.3572939 Z" id="body-bg-flat-copy" stroke="#40C681" stroke-width="2" fill="#93DFB8"></path>
                    <path d="M25.901987,69.6264992 C26.1669896,69.6264992 26.3818166,69.8413492 26.3818166,70.1063859 C26.3818166,70.3714178 26.1669896,70.5862727 25.901987,70.5862727 C25.6369894,70.5862727 25.4221623,70.3714178 25.4221623,70.1063859 C25.4221623,69.8413492 25.6369894,69.6264992 25.901987,69.6264992 L25.901987,69.6264992 Z" id="Ellipse-5" fill="#40C681"></path>
                    <path d="M25.901987,72.7800408 C26.1669896,72.7800408 26.3818166,72.9948957 26.3818166,73.2599277 C26.3818166,73.5249646 26.1669896,73.7398145 25.901987,73.7398145 C25.6369894,73.7398145 25.4221623,73.5249646 25.4221623,73.2599277 C25.4221623,72.9948957 25.6369894,72.7800408 25.901987,72.7800408 L25.901987,72.7800408 Z" id="Ellipse-5-copy" fill="#40C681"></path>
                    <path d="M19.6,56.3870968 L28.175,56.3870968 L28.175,61.9065618 C28.175,64.2741991 26.2506026,66.1935484 23.8875,66.1935484 L23.8875,66.1935484 C21.5195791,66.1935484 19.6,64.2794862 19.6,61.9065618 L19.6,56.3870968 Z" id="Rectangle-25" fill="#FFFFFF"></path>
                    <path d="M31.454249,63.1823003 L27.9583834,68.3925046 C27.0073925,65.4445257 24.2568739,66.5415077 24.2568739,66.5415077 L24.2568739,75.2482753 C24.2568739,75.4753153 24.0420468,75.6593666 23.7770492,75.6593666 C23.5120516,75.6593666 23.2972245,75.4753153 23.2972245,75.2482753 L23.2972245,66.5413019 C23.2749706,66.5324756 20.5463381,65.4565537 19.600255,68.3925046 L16.1081842,63.1823003 C16.1081842,63.1823003 14.7573777,59.7475649 18.8470634,58.2463169 L18.8470634,56.6695412 L19.6203957,56.6695412 L19.6203957,61.6318316 C19.7196779,62.4860336 20.3077374,64.9199536 23.7770492,65.7188447 C27.2501313,64.9199536 27.838833,62.4860336 27.938223,61.6318316 L27.938223,56.6695412 L28.7123936,56.6695412 L28.7123936,58.2463169 C32.8065213,59.7475649 31.454249,63.1823003 31.454249,63.1823003 L31.454249,63.1823003 Z M19.5597185,63.6435244 C19.373318,63.4324061 19.1048393,62.9080743 19.1048393,62.9080743 C19.1048393,62.9080743 18.8470634,62.0500671 18.8470634,61.6740797 L18.8470634,59.9351957 C18.788764,59.1509414 18.64165,59.1375353 18.64165,59.1375353 C15.590191,60.6407003 16.9298485,62.9766296 16.9298485,62.9766296 L19.4633141,66.9528393 C20.4526501,65.2762634 21.5174749,65.5817343 21.5174749,65.5817343 C20.5773241,65.1025044 19.9607399,64.3587429 19.5597185,63.6435244 L19.5597185,63.6435244 Z M28.9180328,59.1375353 C28.9180328,59.1375353 28.7707568,59.1509414 28.7123936,59.9351957 L28.7123936,61.6740797 C28.7123936,62.0500671 28.4543384,62.9080743 28.4543384,62.9080743 C28.4543384,62.9080743 28.1855655,63.4324061 27.998964,63.6435244 C27.5975062,64.3587429 26.9802504,65.1025044 26.0390799,65.5817343 C26.0390799,65.5817343 27.1050615,65.2762634 28.0954762,66.9528393 L30.6316923,62.9766296 C30.6316923,62.9766296 31.9728059,60.6407003 28.9180328,59.1375353 L28.9180328,59.1375353 Z" id="Shape-2-copy-9" fill="#40C681"></path>
                    <path d="M23.8115357,13.411131 C32.3388018,13.411131 39.069379,21.3808841 38.8505317,30.9567358 L38.6179319,41.1341732 C38.4117582,50.1555759 31.7850032,57.2865385 23.8115357,57.2865385 C15.8380681,57.2865385 9.21131304,50.1555759 9.00513951,41.1341732 L8.77253972,30.9567358 C8.55369721,21.3808841 15.2842696,13.411131 23.8115357,13.411131 L23.8115357,13.411131 Z" id="2-copy-5" stroke="#40C681" stroke-width="2" fill="#FFFFFF"></path>
                    <path d="M31.1800635,47.2912696 C29.9341431,48.3732373 27.119976,49.4026743 23.8456005,49.4026743 C20.57122,49.4026743 17.757053,48.3732373 16.5111277,47.2912696 C16.5111277,47.2912696 16.3836543,46.9404663 16.5706823,46.7534141 C16.7611717,46.5629001 17.0594988,46.6043636 17.0594988,46.6043636 C18.304115,47.687067 20.5699698,48.5800162 23.8456005,48.5800162 C27.1212262,48.5800162 29.387081,47.687067 30.6316973,46.6043636 C30.6316973,46.6043636 30.9361431,46.4912555 31.0840367,46.6391684 C31.3688859,46.9240545 31.1800635,47.2912696 31.1800635,47.2912696 L31.1800635,47.2912696 Z" id="usta" fill="#40C681"></path>
                    <path d="M21.583565,51.0480054 L25.9705384,51.0480054 L25.9705384,51.733558 L21.583565,51.733558 L21.583565,51.0480054 L21.583565,51.0480054 Z" id="-" fill="#40C681"></path>
                    <path d="M8.00181567,32.185621 C7.99992331,32.1857288 7.8335116,32.0528157 7.51926994,31.9538639 C7.36221289,31.9044958 7.16701681,31.8638853 6.94453159,31.8538726 C6.88896784,31.8513718 6.8317813,31.8507785 6.77326614,31.8524407 C6.71475083,31.854103 6.65490207,31.858016 6.59406784,31.8645131 C6.47241418,31.8775121 6.3467695,31.9008723 6.22033536,31.9372461 C5.71408455,32.0827513 5.1976456,32.4365211 4.89434219,33.166705 C4.74208987,33.5318165 4.64165063,33.9910744 4.61509697,34.5656863 C4.60845353,34.7093428 4.60642381,34.8602075 4.60933602,35.0186138 C4.6122532,35.17702 4.62011746,35.3429677 4.63325203,35.5167905 C4.65950671,35.8644212 4.70691703,36.2435566 4.77755687,36.6566926 C4.77601249,36.6562856 4.71167276,37.9051475 5.15808461,39.340174 C5.57775659,40.7431957 6.58552224,42.4666831 8.44620776,42.9591864 C8.23220917,39.3954802 8.22556108,35.7649742 8.00181567,32.185621 L8.00181567,32.185621 L8.00181567,32.185621 Z" id="Shape-11-copy" fill="#FFFFFF"></path>
                    <path d="M8.21398551,32.3292873 C8.21398551,32.3292873 4.97253237,31.3247894 5.08660646,34.6576212 C5.08660646,34.6576212 5.56920119,39.4903327 5.77876745,39.9357285 C5.77876745,39.9357285 7.05177588,42.7494998 9.1526949,42.8741997 C11.2060368,42.9960751 9.1526949,42.8741997 9.1526949,42.8741997 L9.1781945,43.7811434 C9.1781945,43.7811434 5.4855786,43.3076311 4.7723746,39.0516938 L4.20945682,35.1853805 C4.20945682,35.1853805 3.77237505,30.068695 8.01209202,31.3696511 C12.142437,32.6370481 8.01209202,31.3696511 8.01209202,31.3696511 L8.21398551,32.3292873" id="Shape-3" fill="#40C681"></path>
                    <path d="M7.14409124,39.0435639 C7.14409124,39.0435639 6.96268665,39.1806745 6.80685042,39.1806745 C6.6510142,39.1806745 6.47182088,39.0435639 6.47182088,39.0435639 L6.13730125,35.6721222 C6.13730125,35.6721222 6.59885297,34.0117768 8.55738908,34.8892213 L8.60368637,35.8532364 C8.60368637,35.8532364 6.88536915,35.243756 6.92089993,36.0026986 C6.95510209,36.7332209 7.14409124,39.0435639 7.14409124,39.0435639 L7.14409124,39.0435639 Z" id="Shape-4" fill="#40C681"></path>
                    <path d="M39.6519914,32.1934911 C39.6538936,32.1935989 39.8210358,32.0607788 40.1366503,31.9618908 C40.2943986,31.9125571 40.4904478,31.8719762 40.7139087,31.8619681 C40.7697126,31.8594723 40.8271493,31.858879 40.8859244,31.8605413 C40.9446945,31.8621985 41.004803,31.8661115 41.065907,31.8726038 C41.1880902,31.885593 41.314289,31.9089384 41.441277,31.9452878 C41.9497439,32.0906949 42.4684431,32.4442244 42.7730752,33.1739131 C42.9259942,33.5387745 43.0268748,33.9977185 43.0535412,34.571943 C43.0602141,34.7155016 43.0622536,34.8662634 43.0593314,35.0245618 C43.0563996,35.18286 43.0485011,35.348695 43.0353076,35.5224 C43.0089403,35.8697954 42.961319,36.2486758 42.8903704,36.6615274 C42.8919246,36.6611204 42.9565437,37.9091389 42.5081756,39.3431898 C42.08667,40.7452601 41.074487,42.4675755 39.205653,42.9597454 C39.4205879,39.3984566 39.4272655,35.7704169 39.6519914,32.1934911 L39.6519914,32.1934911 L39.6519914,32.1934911 Z" id="Shape-11-copy_1" fill="#FFFFFF"></path>
                    <path d="M39.2775333,32.3370642 C39.2775333,32.3370642 42.5331848,31.3332479 42.4186108,34.6638142 C42.4186108,34.6638142 41.9339029,39.4932454 41.7234149,39.9383373 C41.7234149,39.9383373 40.444832,42.750201 38.3347153,42.8748175 C36.2723768,42.9966097 38.3347153,42.8748175 38.3347153,42.8748175 L38.3091029,43.7811434 C38.3091029,43.7811434 42.0178883,43.3079547 42.7342154,39.0549055 L43.2995993,35.1912155 C43.2995993,35.1912155 43.7385982,30.0780017 39.4803091,31.3780752 C35.3318778,32.644614 39.4803091,31.3780752 39.4803091,31.3780752 L39.2775333,32.3370642" id="Shape-3_1" fill="#40C681"></path>
                    <path d="M40.3521147,39.0467806 C40.3521147,39.0467806 40.5343134,39.1837979 40.6908311,39.1837979 C40.8473488,39.1837979 41.0273266,39.0467806 41.0273266,39.0467806 L41.3633122,35.6776288 C41.3633122,35.6776288 40.8997404,34.0184113 38.9326245,34.8952575 L38.8861261,35.8586203 C38.8861261,35.8586203 40.6119692,35.249552 40.5762815,36.0079797 C40.5419323,36.7380067 40.3521147,39.0467806 40.3521147,39.0467806 L40.3521147,39.0467806 Z" id="Shape-4_1" fill="#40C681"></path>
                    <path d="M25.0451597,38.776605 L25.2850696,38.776605 C25.7810883,39.4503156 25.9828886,40.4856269 26.2447189,41.3817045 C26.3258607,41.6594021 26.2471409,42.145129 26.1761726,42.3414781 C25.916269,43.06059 25.1001596,43.0476841 24.4282423,43.369807 C24.247789,43.4563236 24.1135593,43.6056535 23.8798713,43.6440328 C23.7275208,43.5098154 23.5435717,43.4834545 23.4685881,43.2669766 C23.2834622,43.0120261 23.5220582,42.8528158 23.7085028,42.7528098 C24.0468809,42.5713131 25.0914522,42.39243 25.2165231,42.0672571 C25.3712711,41.8911984 25.2683754,41.3618603 25.2165231,41.1760389 C25.0837253,40.7000894 25.0199837,40.3027426 24.8395205,39.873489 C24.7196466,39.5883675 24.5091829,39.2877414 24.6338815,38.9479906 C24.7372133,38.9036143 24.9605418,38.8531577 25.0451597,38.776605 L25.0451597,38.776605 Z" id="new_vector_shape_done" fill="#40C681"></path>
                    <path d="M15.5514735,33.4978453 L16.5111277,33.4978453 C17.0411279,33.4978453 17.4707771,33.9275501 17.4707771,34.457619 C17.4707771,34.9876876 17.0411279,35.4173924 16.5111277,35.4173924 L15.5514735,35.4173924 C15.0214733,35.4173924 14.5918241,34.9876876 14.5918241,34.457619 C14.5918241,33.9275501 15.0214733,33.4978453 15.5514735,33.4978453 L15.5514735,33.4978453 Z" id="Rounded-Rectangle-8" fill="#40C681"></path>
                    <path d="M31.1800635,33.4978453 L32.1397177,33.4978453 C32.6697178,33.4978453 33.099367,33.9275501 33.099367,34.457619 C33.099367,34.9876876 32.6697178,35.4173924 32.1397177,35.4173924 L31.1800635,35.4173924 C30.6500633,35.4173924 30.2204141,34.9876876 30.2204141,34.457619 C30.2204141,33.9275501 30.6500633,33.4978453 31.1800635,33.4978453 L31.1800635,33.4978453 Z" id="Rounded-Rectangle-8-copy" fill="#40C681"></path>
                    <path d="M32.0711712,38.0224971 C33.0175977,38.0224971 33.7848309,38.7898294 33.7848309,39.7363784 C33.7848309,40.6829274 33.0175977,41.4502599 32.0711712,41.4502599 C31.1247399,41.4502599 30.3575117,40.6829274 30.3575117,39.7363784 C30.3575117,38.7898294 31.1247399,38.0224971 32.0711712,38.0224971 L32.0711712,38.0224971 Z" id="Ellipse-3" fill="#EDF1F1"></path>
                    <path d="M15.482932,38.0224971 C16.4293584,38.0224971 17.1965916,38.7898294 17.1965916,39.7363784 C17.1965916,40.6829274 16.4293584,41.4502599 15.482932,41.4502599 C14.5365007,41.4502599 13.7692725,40.6829274 13.7692725,39.7363784 C13.7692725,38.7898294 14.5365007,38.0224971 15.482932,38.0224971 L15.482932,38.0224971 Z" id="Ellipse-3-copy" fill="#EDF1F1"></path>
                    <path d="M27.4721311,30.4659044 L27.8691815,30.9702939 L28.1155288,31.2829041 C28.1155288,31.2829041 32.4773849,28.8740358 35.504918,31.653277 L35.8277003,31.8115311 C35.8277003,31.8115311 35.0818631,27.7823543 28.5529735,30.1391282 C28.2085059,30.2325783 27.8490946,30.3404298 27.4721311,30.4659044 L27.4721311,30.4659044 Z" id="R" fill="#40C681"></path>
                    <path d="M19.9213115,30.4687093 L19.5242611,30.9720493 L19.2779138,31.2840073 C19.2779138,31.2840073 14.9160577,28.8801504 11.8885246,31.6536104 L11.5657423,31.8115361 C11.5657423,31.8115361 12.3115795,27.7907343 18.8404692,30.1426095 C19.1849367,30.2358684 19.544348,30.3434946 19.9213115,30.4687093 L19.9213115,30.4687093 Z" id="L" fill="#40C681"></path>
                    <path d="M23.7770492,21.5321608 L23.7770492,6.3516706 C23.8228023,6.35131759 23.8683055,6.34993481 23.914142,6.34993481 C33.5298594,6.34993481 41.3249379,14.146027 41.3249379,23.7629893 L41.3249379,29.3593508 C41.3214421,29.554376 41.3212656,29.7457923 41.3249379,29.9329671 C41.3249379,29.9329671 25.1551398,25.5593616 23.7770492,21.5321608 L23.7770492,21.5321608 Z M6.2291605,29.9329671 C6.23283277,29.7457923 6.23265621,29.554376 6.2291605,29.3593508 L6.2291605,23.7629893 C6.2291605,14.146027 14.0242389,6.34993481 23.6399563,6.34993481 C23.6857929,6.34993481 23.731296,6.35131759 23.7770492,6.3516706 L23.7770492,21.5321608 C22.3989586,25.5593616 6.2291605,29.9329671 6.2291605,29.9329671 L6.2291605,29.9329671 Z" id="Rounded-Rectangle-6" fill="#40C681"></path>
                </g>
            </g>
            <rect id="Rectangle-12-Copy-3" stroke="#BBC2C7" stroke-width="2" fill="#FFFFFF" x="41" y="92" width="44" height="28" rx="4"></rect>
            <circle id="Oval-3-Copy-3" fill="#EFF0F1" cx="63" cy="106" r="5"></circle>
            <g id="users-10" transform="translate(141.000000, 88.000000)">
                <g id="svg4155">
                    <path d="M0.547297297,75.6301703 C0.547297297,75.6301703 -1.33209973,58.9303025 14.8572977,57.0671873 L21.7848643,57.0671873 L21.7848643,53.8324078 C21.7848643,53.8324078 26.6579392,55.9539965 31.5924336,54.0690986 L31.7481091,57.0671873 L39.8432421,57.0671873 C39.8432421,57.0671873 53.9404289,58.4936692 53.0878378,75.6301703 L0.547297297,75.6301703 L0.547297297,75.6301703 Z" id="body-bg-flat" stroke="#40C681" stroke-width="2" fill="#93DFB8"></path>
                    <path d="M22.2,53.9354839 L31.8,53.9354839 L31.8,59.4426372 C31.8,61.478577 30.1497012,63.1290323 28.1158447,63.1290323 L25.8841553,63.1290323 C23.8494525,63.1290323 22.2,61.48541 22.2,59.4426372 L22.2,53.9354839 Z" id="Rectangle-22" fill="#FFFFFF"></path>
                    <path d="M22.563242,53.4674031 L22.563242,58.3334546 C22.563242,60.8585568 24.5844961,62.9055654 27.0778377,62.9055654 C29.5711794,62.9055654 31.5924336,60.8585568 31.5924336,58.3334546 L31.5924336,53.5677947 C31.8544353,53.4869623 32.1139706,53.399166 32.3708112,53.304316 L32.3708112,58.3665741 C32.3708112,61.3526938 29.9836454,63.7734316 27.0389216,63.7734316 C24.0941978,63.7734316 21.7070265,61.3526938 21.7070265,58.3665741 L21.7070265,53.1544507 C21.9890373,53.2674775 22.2746727,53.3714357 22.563242,53.4674031 L22.563242,53.4674031 Z" id="neck-copy-5" fill="#40C681"></path>
                    <path d="M21.6681104,62.8266685 C21.9475325,62.8266685 22.174053,63.0562658 22.174053,63.3394956 L22.174053,71.0713998 C22.174053,71.3546296 21.9475325,71.5842327 21.6681104,71.5842327 C21.3886829,71.5842327 21.1621622,71.3546296 21.1621622,71.0713998 L21.1621622,63.3394956 C21.1621622,63.0562658 21.3886829,62.8266685 21.6681104,62.8266685 L21.6681104,62.8266685 Z" id="Rounded-Rectangle-14" fill="#40C681"></path>
                    <path d="M32.2929735,62.7477716 C32.5938912,62.7477716 32.8378378,62.995032 32.8378378,63.30005 L32.8378378,68.1127623 C32.8378378,68.4177805 32.5938912,68.6650466 32.2929735,68.6650466 C31.9920503,68.6650466 31.7481091,68.4177805 31.7481091,68.1127623 L31.7481091,63.30005 C31.7481091,62.995032 31.9920503,62.7477716 32.2929735,62.7477716 L32.2929735,62.7477716 Z" id="Rounded-Rectangle-15" fill="#40C681"></path>
                    <path d="M21.6679616,71.0319542 C21.8183382,71.0319542 21.9402423,71.1555843 21.9402423,71.3080962 L21.9402423,73.2805194 C21.9402423,73.4330257 21.8183382,73.5566558 21.6679616,73.5566558 C21.5175794,73.5566558 21.3956755,73.4330257 21.3956755,73.2805194 L21.3956755,71.3080962 C21.3956755,71.1555843 21.5175794,71.0319542 21.6679616,71.0319542 L21.6679616,71.0319542 Z" id="Rounded-Rectangle-16" fill="#40C681"></path>
                    <path d="M32.3317408,68.1127623 C32.482123,68.1127623 32.6040269,68.2363983 32.6040269,68.3889044 L32.6040269,70.3613276 C32.6040269,70.5138394 32.482123,70.6374696 32.3317408,70.6374696 C32.1813642,70.6374696 32.0594601,70.5138394 32.0594601,70.3613276 L32.0594601,68.3889044 C32.0594601,68.2363983 32.1813642,68.1127623 32.3317408,68.1127623 L32.3317408,68.1127623 Z" id="Rounded-Rectangle-16-copy" fill="#40C681"></path>
                    <path d="M18.7477607,51.5258086 L13.8177703,52.6732477 C13.8177703,52.6732477 7.78053053,54.0593755 11.7971116,58.1836288 C15.8136984,62.3078822 26.1437846,63.0362382 26.1437846,63.0362382 C26.1437846,63.0362382 23.4125204,61.7249614 22.2518909,59.8803556 L21.862702,53.2530084 L18.7477607,51.5258086 L18.7477607,51.5258086 Z" id="Shape-1-copy" fill="#F5F3EF"></path>
                    <path d="M26.2994602,63.4307228 C25.9935651,63.8231591 17.3918993,63.553326 11.4324305,58.3024172 C7.11742585,54.5004443 13.6118935,52.3062454 13.6118935,52.3062454 L18.3600027,51.2016884 L22.4854041,53.3319053 L22.7967551,59.7225619 C24.5334154,62.4826676 26.7919074,62.7989492 26.2994602,63.4307228 L26.2994602,63.4307228 Z M22.0183776,60.0381496 L21.5513509,53.3319053 L19.0605425,51.9117606 L14.3124335,53.0952145 C14.3124335,53.0952145 8.56126326,54.2906037 12.2108082,57.7501387 C16.1494013,61.4836544 23.4355581,62.4856075 24.1978406,62.4050629 C24.9879096,62.3215723 23.7550377,62.7982608 22.0183776,60.0381496 L22.0183776,60.0381496 Z" id="Shape-1-copy-2" fill="#40C681"></path>
                    <path d="M35.4027038,51.711694 L40.3356171,52.86257 C40.3356171,52.86257 46.3764311,54.2528454 42.3574727,58.3894516 C38.338503,62.5260576 28.0022927,63.256592 28.0022927,63.256592 C28.0022927,63.256592 30.7351827,61.9413931 31.8964914,60.0912628 L32.2859141,53.4440685 L35.4027038,51.711694 L35.4027038,51.711694 Z" id="Shape-1-copy-4" fill="#F5F3EF"></path>
                    <path d="M27.8465281,63.5733593 C28.1526014,63.9669747 36.7593669,63.6963349 42.7223653,58.4296985 C47.0399311,54.6163378 40.5416163,52.4155702 40.5416163,52.4155702 L35.7906901,51.3077063 L31.6628445,53.4443001 L31.3513041,59.8540981 C29.6136197,62.6224709 27.3537914,62.9396951 27.8465281,63.5733593 L27.8465281,63.5733593 Z M32.1301439,60.1706281 L32.5974488,53.4443001 L35.0897382,52.019906 L39.8406589,53.2069038 C39.8406589,53.2069038 45.5952419,54.4058707 41.9435256,57.8757665 C38.0025998,61.6204672 30.7121225,62.6254166 29.9493948,62.5446294 C29.1588525,62.4608905 30.3924593,62.9390011 32.1301439,60.1706281 L32.1301439,60.1706281 Z" id="Shape-1-copy-6" fill="#40C681"></path>
                    <path d="M27.404026,3.96950108 C37.0871529,3.96950108 44.7300519,13.1415041 44.48154,24.1618882 L44.2174116,35.874608 C43.9832913,46.2569037 36.4582875,54.4635832 27.404026,54.4635832 C18.3497643,54.4635832 10.8247605,46.2569037 10.5906404,35.874608 L10.3265119,24.1618882 C10.0780056,13.1415041 17.7208991,3.96950108 27.404026,3.96950108 L27.404026,3.96950108 Z" id="2-copy-5" fill="#FFFFFF"></path>
                    <path d="M45.2595501,23.7987511 L44.9827894,35.9872961 C44.7374732,46.7913723 36.8524983,55.3314494 27.365121,55.3314494 C17.877738,55.3314494 9.99276878,46.7913723 9.74744696,35.9872961 L9.47068072,23.7987511 C9.21028798,12.330662 17.2187923,2.7860472 27.365121,2.7860472 C37.5114497,2.7860472 45.5199484,12.330662 45.2595501,23.7987511 L45.2595501,23.7987511 Z M27.3262439,4.04839814 C17.7754929,4.04839814 10.2370828,13.1487443 10.4821874,24.0830307 L10.7427082,35.7042467 C10.973627,46.0054278 18.395762,54.1479955 27.3262439,54.1479955 C36.2567256,54.1479955 43.678855,46.0054278 43.909774,35.7042467 L44.1702891,24.0830307 C44.4154048,13.1487443 36.8769948,4.04839814 27.3262439,4.04839814 L27.3262439,4.04839814 Z" id="2-line" fill="#40C681"></path>
                    <path d="M43.6970326,42.8863555 C43.4667651,43.9902015 40.4411694,53.9993606 40.9885891,49.6666605 C41.5360033,45.3339602 35.7310132,53.6036118 35.7310132,53.6036118 C34.6583373,54.7207925 30.314115,57.3218459 30.314115,57.3218459 L30.314115,56.2282481 L27.1277049,57.540569 L25.6938221,56.2282481 L25.5344998,57.540569 C25.1078258,56.8997889 16.4532363,50.9789814 16.4532363,50.9789814 C16.4532363,50.9789814 17.9389016,53.6589768 16.7718806,52.2912967 C16.7302143,52.2424664 16.6874567,52.1901543 16.6437527,52.1346708 C15.4632364,50.6360638 13.585465,46.8233069 13.585465,46.8233069 L13.2668264,49.4479431 C10.4510879,43.8999787 10.5583828,36.9809256 10.5583828,36.9809256 L10.0848647,22.53144 L11.3594309,22.53144 L11.8329436,32.8252512 L13.9041094,36.3247623 C15.2433966,38.3093011 18.8430411,37.4183602 18.8430411,37.4183602 C29.2456759,44.7345333 35.8903352,36.9809256 35.8903352,36.9809256 C35.8903352,36.9809256 40.3968584,37.9945544 41.7851889,37.4183602 C43.1735137,36.8421716 43.3739455,22.5110964 43.3739455,22.5110964 L44.4891896,22.5110964 C44.4891896,22.5110964 43.9273001,41.7825039 43.6970326,42.8863555 L43.6970326,42.8863555 Z M36.2261941,43.9961211 C35.9975355,41.2147013 34.3277287,41.4505511 34.3277287,41.4505511 C31.3592042,42.3279034 29.0289818,42.8153025 27.2084767,43.0630144 L27.2084767,43.0448321 C25.4007265,42.7991406 23.0868221,42.3157425 20.1390975,41.4455795 C20.1390975,41.4455795 18.4809823,41.2116596 18.253927,43.9702867 C18.253927,43.9702867 17.5880999,46.1029697 19.8249014,47.2839575 L22.6526543,48.8619017 C22.6526543,48.8619017 24.5850751,49.4770505 24.5378248,47.1261638 C24.5378248,47.1261638 24.3411398,46.7930088 25.4804072,46.4949882 L27.2084767,46.4949882 L27.2084767,46.5469053 L28.9487389,46.5469053 C30.09604,46.8473919 29.8979744,47.1950384 29.8979744,47.1950384 C29.8503898,49.5653545 31.7964342,48.9451156 31.7964342,48.9451156 L34.6441349,47.342398 C36.896709,46.1516476 36.2261941,43.9961211 36.2261941,43.9961211 L36.2261941,43.9961211 Z" id="Shape-1" fill="#40C681"></path>
                    <path d="M35.771349,42.9605122 C34.3565455,44.2056964 31.1609215,45.3904257 27.4427082,45.3904257 C23.7244893,45.3904257 20.5288653,44.2056964 19.1140564,42.9605122 C19.1140564,42.9605122 18.9693041,42.5567897 19.1816835,42.3415203 C19.3979935,42.122267 19.7367585,42.1699854 19.7367585,42.1699854 C21.1500809,43.4160163 23.7230697,44.4436683 27.4427082,44.4436683 C31.1623412,44.4436683 33.7353299,43.4160163 35.1486524,42.1699854 C35.1486524,42.1699854 35.4943655,42.0398148 35.6623058,42.2100405 C35.985766,42.5379021 35.771349,42.9605122 35.771349,42.9605122 L35.771349,42.9605122 Z" id="usta" fill="#40C681"></path>
                    <path d="M9.45131716,25.5761526 C9.44916829,25.5762767 9.26019967,25.4233135 8.90336293,25.3094346 C8.72501698,25.2526193 8.5033623,25.2058826 8.25071947,25.1943595 C8.18762412,25.1914815 8.12268602,25.1907986 8.0562392,25.1927115 C7.9897922,25.1946246 7.92183101,25.1991279 7.85275078,25.2066051 C7.71460711,25.2215651 7.57193145,25.2484491 7.42835931,25.2903099 C6.8534868,25.4577649 6.26704516,25.8649014 5.92262933,26.7052347 C5.74973939,27.1254239 5.63568574,27.6539615 5.60553276,28.3152545 C5.59798881,28.4805819 5.59568396,28.6542047 5.59899091,28.8365069 C5.60230352,29.0188089 5.61123377,29.2097901 5.62614872,29.4098343 C5.65596219,29.8099057 5.70979891,30.2462342 5.79001391,30.7216925 C5.78826018,30.7212241 5.71519928,32.1584788 6.22212172,33.8099813 C6.69867975,35.4246511 7.84304684,37.4081292 9.95594607,37.9749274 C9.71294023,33.8736305 9.70539099,29.6954569 9.45131716,25.5761526 L9.45131716,25.5761526 L9.45131716,25.5761526 Z" id="Shape-11-copy" fill="#FFFFFF"></path>
                    <path d="M9.69224637,25.7414912 C9.69224637,25.7414912 6.0114181,24.5854632 6.1409548,28.421058 C6.1409548,28.421058 6.68896468,33.9827916 6.92693739,34.4953761 C6.92693739,34.4953761 8.3725006,37.7336093 10.7581967,37.8771204 C13.0898667,38.0173809 10.7581967,37.8771204 10.7581967,37.8771204 L10.7871527,38.9208779 C10.7871527,38.9208779 6.59400714,38.3759356 5.78412918,33.4779834 L5.14490856,29.0284306 C5.14490856,29.0284306 4.64858088,23.1398849 9.46298645,24.6370923 C14.1531948,26.0956782 9.46298645,24.6370923 9.46298645,24.6370923 L9.69224637,25.7414912" id="Shape-3" fill="#40C681"></path>
                    <path d="M8.4773292,33.468627 C8.4773292,33.468627 8.27133543,33.626421 8.09437579,33.626421 C7.91741615,33.626421 7.71393339,33.468627 7.71393339,33.468627 L7.33407002,29.5885981 C7.33407002,29.5885981 7.85818453,27.6777869 10.0821979,28.6875954 L10.1347707,29.7970336 C10.1347707,29.7970336 8.18353764,29.0956122 8.22388457,29.9690425 C8.2627228,30.8097652 8.4773292,33.468627 8.4773292,33.468627 L8.4773292,33.468627 Z" id="Shape-4" fill="#40C681"></path>
                    <path d="M45.2092043,25.5852099 C45.2113643,25.585334 45.4011624,25.4324778 45.759558,25.3186724 C45.938689,25.2618967 46.1613124,25.215194 46.4150631,25.2036762 C46.4784312,25.2008039 46.5436534,25.2001211 46.6103954,25.2020342 C46.6771317,25.2039414 46.7453879,25.2084446 46.8147744,25.2159163 C46.9535194,25.230865 47.0968243,25.257732 47.2410254,25.2995647 C47.8184144,25.4669068 48.4074227,25.8737667 48.7533472,26.7135301 C48.9269943,27.1334314 49.0415491,27.6616079 49.0718301,28.3224551 C49.0794074,28.4876697 49.0817234,28.6611742 49.0784052,28.8433521 C49.0750759,29.0255298 49.0661068,29.2163814 49.0511249,29.41629 C49.0211836,29.8160905 48.9671073,30.2521256 48.8865417,30.7272566 C48.8883065,30.7267882 48.9616847,32.1630722 48.4525408,33.813452 C47.9739006,35.4270268 46.8245174,37.4091562 44.7023652,37.9755707 C44.9464342,33.8770558 44.9540171,29.7017207 45.2092043,25.5852099 L45.2092043,25.5852099 L45.2092043,25.5852099 Z" id="Shape-11-copy_1" fill="#FFFFFF"></path>
                    <path d="M44.9664212,25.7504413 C44.9664212,25.7504413 48.6633725,24.5951977 48.533268,28.4281852 C48.533268,28.4281852 47.9828586,33.9861438 47.7438391,34.4983784 C47.7438391,34.4983784 46.2919459,37.7344162 43.8958053,37.8778314 C41.5539193,38.0179961 43.8958053,37.8778314 43.8958053,37.8778314 L43.8667212,38.9208779 C43.8667212,38.9208779 48.0782281,38.376308 48.8916525,33.4816796 L49.5336735,29.0351458 C49.5336735,29.0351458 50.0321781,23.1505956 45.196683,24.6467872 C40.4859368,26.1043855 45.196683,24.6467872 45.196683,24.6467872 L44.9664212,25.7504413" id="Shape-3_1" fill="#40C681"></path>
                    <path d="M46.1866608,33.472329 C46.1866608,33.472329 46.3935564,33.6300155 46.5712899,33.6300155 C46.7490234,33.6300155 46.953397,33.472329 46.953397,33.472329 L47.334925,29.5949353 C47.334925,29.5949353 46.8085166,27.6854222 44.5747605,28.6945421 L44.5219592,29.8032297 C44.5219592,29.8032297 46.4817384,29.1022824 46.4412132,29.9751202 C46.402208,30.8152729 46.1866608,33.472329 46.1866608,33.472329 L46.1866608,33.472329 Z" id="Shape-4_1" fill="#40C681"></path>
                    <path d="M28.8048663,33.1613969 L29.0772957,33.1613969 C29.6405491,33.9367378 29.8697032,35.1282276 30.1670243,36.1594799 C30.2591647,36.4790686 30.1697746,37.0380682 30.0891866,37.2640369 C29.7940534,38.0916279 28.8673213,38.0767752 28.1043265,38.4474908 C27.8994129,38.5470585 27.7469886,38.7189151 27.4816244,38.763084 C27.308623,38.6086196 27.0997398,38.5782822 27.0145922,38.3291482 C26.8043728,38.0357381 27.0753101,37.8525106 27.2870271,37.7374185 C27.671272,37.5285428 28.8574336,37.3226749 28.9994578,36.9484492 C29.1751817,36.7458317 29.0583386,36.1366422 28.9994578,35.9227893 C28.8486594,35.3750421 28.7762776,34.9177549 28.5713529,34.4237477 C28.4352302,34.0956152 28.1962385,33.7496392 28.3378398,33.3586364 C28.4551781,33.3075658 28.7087786,33.2494978 28.8048663,33.1613969 L28.8048663,33.1613969 Z" id="new_vector_shape_done" fill="#40C681"></path>
                    <path d="M18.0243221,27.0863281 L19.1140564,27.0863281 C19.7158975,27.0863281 20.2037851,27.5808545 20.2037851,28.1908851 C20.2037851,28.8009154 19.7158975,29.2954419 19.1140564,29.2954419 L18.0243221,29.2954419 C17.422481,29.2954419 16.9345934,28.8009154 16.9345934,28.1908851 C16.9345934,27.5808545 17.422481,27.0863281 18.0243221,27.0863281 L18.0243221,27.0863281 Z" id="Rounded-Rectangle-8" fill="#40C681"></path>
                    <path d="M35.771349,27.0863281 L36.8610832,27.0863281 C37.4629242,27.0863281 37.9508118,27.5808545 37.9508118,28.1908851 C37.9508118,28.8009154 37.4629242,29.2954419 36.8610832,29.2954419 L35.771349,29.2954419 C35.1695079,29.2954419 34.6816202,28.8009154 34.6816202,28.1908851 C34.6816202,27.5808545 35.1695079,27.0863281 35.771349,27.0863281 L35.771349,27.0863281 Z" id="Rounded-Rectangle-8-copy" fill="#40C681"></path>
                    <path d="M36.7832453,32.2935308 C37.8579588,32.2935308 38.7291895,33.1766164 38.7291895,34.2659538 C38.7291895,35.3552912 37.8579588,36.238377 36.7832453,36.238377 C35.7085264,36.238377 34.8373013,35.3552912 34.8373013,34.2659538 C34.8373013,33.1766164 35.7085264,32.2935308 36.7832453,32.2935308 L36.7832453,32.2935308 Z" id="Ellipse-3" fill="#EDF1F1"></path>
                    <path d="M17.9464899,32.2935308 C19.0212034,32.2935308 19.8924341,33.1766164 19.8924341,34.2659538 C19.8924341,35.3552912 19.0212034,36.238377 17.9464899,36.238377 C16.8717709,36.238377 16.0005459,35.3552912 16.0005459,34.2659538 C16.0005459,33.1766164 16.8717709,32.2935308 17.9464899,32.2935308 L17.9464899,32.2935308 Z" id="Ellipse-3-copy" fill="#EDF1F1"></path>
                    <path d="M44.3201189,24.7563265 C44.2148227,25.6679384 44.1223149,26.7834827 43.9278458,27.7808421 C43.3463256,30.763243 40.8180487,33.5264187 36.5010063,33.8412558 C32.1839695,34.1560929 28.509772,31.953209 28.2944586,28.9209736 C28.2579532,28.4068541 28.1602954,27.829915 28.0853528,27.2690027 C27.4744144,26.9256901 26.8447308,26.9249057 26.1963074,27.2666663 C26.1205797,27.8402758 26.019242,28.4323894 25.9818679,28.9588053 C25.7658809,32.0010913 22.0800978,34.2112772 17.749443,33.8953961 C13.4187884,33.5795149 10.8825388,30.8071862 10.2991816,27.8148986 C10.1041,26.8142322 10.0113026,25.6949918 9.90567243,24.7803551 L9.26929119,24.7339345 L9.35868126,23.4748399 L9.51395607,23.4861657 L13.4524043,23.7734417 L16.7768858,24.0159336 L20.1075471,24.2588714 L25.2953191,24.637273 C25.6531021,24.6831406 25.8910082,24.8386715 26.0442173,25.0708534 C26.7892519,25.4014236 27.5128185,25.4027441 28.2149115,25.0747584 C28.3667345,24.8276391 28.6078416,24.6612677 28.9788473,24.6137128 L34.1503124,24.236564 L37.470507,23.9944275 L40.7845384,23.7527369 L44.7106049,23.4664091 L44.8653896,23.4551226 L44.9545014,24.7100584 L44.3201189,24.7563265 L44.3201189,24.7563265 Z M23.902273,26.1168682 L13.7350277,25.375262 C12.4052328,25.2590582 11.9338803,26.7737312 11.8519227,27.9281568 C11.679133,30.361981 14.3545619,32.5403566 17.8276594,32.793689 C21.300757,33.0470158 24.2563372,31.2793771 24.4291268,28.8455472 C24.5110845,27.6911274 24.8830924,26.9781714 23.902273,26.1168682 L23.902273,26.1168682 Z M42.3799872,27.8937278 C42.2982856,26.7431171 41.828414,25.2334438 40.5028003,25.3492639 L30.3675174,26.0884211 C29.3897824,26.9468858 29.7606212,27.6574773 29.8423172,28.8080879 C30.0145668,31.2338763 32.9608549,32.99568 36.4230348,32.7431828 C39.8852147,32.4906912 42.5522368,30.3195106 42.3799872,27.8937278 L42.3799872,27.8937278 Z" id="glasses" fill="#40C681"></path>
                    <path d="M10.4017442,30.7155866 C10.4017442,30.7155866 12.5671495,21.1007709 14.4514568,18.4707737 C16.3357642,15.8407767 17.9663599,15.2117288 18.8126877,15.1312799 C19.6590154,15.0508368 26.3237618,17.0477906 35.47881,14.76022 C35.47881,14.76022 39.0886261,14.6141922 40.6188305,18.2852496 C40.6188305,18.2852496 43.8450307,24.1355232 44.3570252,29.973478 L44.9800558,29.973478 C44.9800558,29.973478 46.3003525,19.7397553 45.7588564,13.6470572 C45.2173437,7.55436487 37.3479074,4.55621405 37.3479074,4.55621405 L39.0612457,3.2575157 C39.0612457,3.2575157 35.0611218,2.00412074 33.4539538,2.70094292 L34.7000149,0.103551942 C34.7000149,0.103551942 26.627363,0.119860506 22.0836052,3.81409994 L22.2393642,1.95882308 C22.2393642,1.95882308 6.22365288,4.44823248 9.62295452,30.3445324 L10.4017442,30.7155866 L10.4017442,30.7155866 Z" id="Shape-7" fill="#40C681"></path>
                </g>
            </g>
            <rect id="Rectangle-12-Copy-2" stroke="#BBC2C7" stroke-width="2" fill="#FFFFFF" x="115" y="136" width="44" height="28" rx="4"></rect>
            <circle id="Oval-3-Copy-2" fill="#EFF0F1" cx="137" cy="150" r="5"></circle>
            <g id="users-16" transform="translate(15.000000, 132.000000)">
                <g id="svg7296">
                    <path d="M2.88030702,63.5796696 C2.88030702,63.5796696 6.12533928,40.2592297 4.94083834,29.325751 C3.74892778,18.3239276 7.10600562,0.012264891 28.2443672,0.012264891 C46.8869992,0.012264891 48.9691255,20.9744625 48.5253808,24.8457038 C48.0314085,29.1550804 44.2957316,56.3392363 48.5964658,65.8436392 C52.8498576,75.2434303 34.8385213,71.4534951 34.8385213,71.4534951 L10.6675464,70.947352 L2.88030702,63.5796696 L2.88030702,63.5796696 Z" id="back" fill="#40C681"></path>
                    <path d="M0.601618936,75.2639225 C0.601618936,75.2639225 -0.582821841,58.7043469 14.5821625,57.1588717 L21.3814408,57.1588717 L21.3814408,53.9397569 C21.3814408,53.9397569 26.1642736,56.0510715 31.0073886,54.1753016 L31.1601811,57.1588717 L39.1054043,57.1588717 C39.1054043,57.1588717 52.7109004,57.708032 52.0927902,75.4209523 L0.601618936,75.2639225 L0.601618936,75.2639225 Z" id="body-bg-flat-copy" fill="#FFFFFF"></path>
                    <path d="M0.537162162,75.6319613 C0.537162162,75.6319613 -1.30743122,59.0129645 14.5821625,57.1588717 L21.3814408,57.1588717 L21.3814408,53.9397569 C21.3814408,53.9397569 26.1642736,56.0510715 31.0073886,54.1753016 L31.1601811,57.1588717 L39.1054043,57.1588717 C39.1054043,57.1588717 52.941532,58.5784457 52.1047297,75.6319613 L0.537162162,75.6319613 L0.537162162,75.6319613 Z" id="body-bg-flat" stroke="#40C681" stroke-width="2" fill="#93DFB8"></path>
                    <path d="M21.6818182,53.9354839 L31.3181818,53.9354839 L31.3181818,58.9248952 C31.3181818,61.5852731 29.1555937,63.7419355 26.5,63.7419355 L26.5,63.7419355 C23.8389917,63.7419355 21.6818182,61.5898681 21.6818182,58.9248952 L21.6818182,53.9354839 Z" id="Rectangle-23" fill="#FFFFFF"></path>
                    <path d="M22.1454042,53.5765198 L22.1454042,58.4190069 C22.1454042,60.931881 24.1292276,62.9689767 26.5763963,62.9689767 C29.0235649,62.9689767 31.0073886,60.931881 31.0073886,58.4190069 L31.0073886,53.6764252 C31.2645383,53.5959843 31.5192674,53.5086132 31.7713517,53.4142225 L31.7713517,58.451966 C31.7713517,61.4236251 29.4283927,63.8326401 26.5382008,63.8326401 C23.6480089,63.8326401 21.3050446,61.4236251 21.3050446,58.451966 L21.3050446,53.2650829 C21.5818329,53.3775623 21.8621788,53.4810171 22.1454042,53.5765198 L22.1454042,53.5765198 Z" id="neck-copy-5" fill="#40C681"></path>
                    <path d="M21.2668491,62.8904619 C21.5410967,62.8904619 21.7634224,63.1189473 21.7634224,63.4008056 L21.7634224,71.0952671 C21.7634224,71.3771254 21.5410967,71.6056165 21.2668491,71.6056165 C20.9925961,71.6056165 20.7702703,71.3771254 20.7702703,71.0952671 L20.7702703,63.4008056 C20.7702703,63.1189473 20.9925961,62.8904619 21.2668491,62.8904619 L21.2668491,62.8904619 Z" id="Rounded-Rectangle-14" fill="#40C681"></path>
                    <path d="M31.6949554,62.8119471 C31.9903006,62.8119471 32.2297297,63.0580101 32.2297297,63.3615509 L32.2297297,68.1509572 C32.2297297,68.4544983 31.9903006,68.7005669 31.6949554,68.7005669 C31.3996049,68.7005669 31.1601811,68.4544983 31.1601811,68.1509572 L31.1601811,63.3615509 C31.1601811,63.0580101 31.3996049,62.8119471 31.6949554,62.8119471 L31.6949554,62.8119471 Z" id="Rounded-Rectangle-15" fill="#40C681"></path>
                    <path d="M21.2709495,71.0560125 C21.4208866,71.0560125 21.5424343,71.179044 21.5424343,71.3308173 L21.5424343,73.2936888 C21.5424343,73.4454565 21.4208866,73.568488 21.2709495,73.568488 C21.1210068,73.568488 20.9994593,73.4454565 20.9994593,73.2936888 L20.9994593,71.3308173 C20.9994593,71.179044 21.1210068,71.0560125 21.2709495,71.0560125 L21.2709495,71.0560125 Z" id="Rounded-Rectangle-16" fill="#40C681"></path>
                    <path d="M31.7372512,68.1509572 C31.8871939,68.1509572 32.0087415,68.2739944 32.0087415,68.425762 L32.0087415,70.3886335 C32.0087415,70.5404068 31.8871939,70.6634383 31.7372512,70.6634383 C31.5873142,70.6634383 31.4657664,70.5404068 31.4657664,70.3886335 L31.4657664,68.425762 C31.4657664,68.2739944 31.5873142,68.1509572 31.7372512,68.1509572 L31.7372512,68.1509572 Z" id="Rounded-Rectangle-16-copy" fill="#40C681"></path>
                    <path d="M18.4005799,51.6443277 L13.5618857,52.7862102 C13.5618857,52.7862102 7.63644663,54.1656255 11.5786466,58.2699066 C15.5208521,62.3741878 25.6596404,63.0990167 25.6596404,63.0990167 C25.6596404,63.0990167 22.9789552,61.7940899 21.8398189,59.9584169 L21.4578371,53.3631634 L18.4005799,51.6443277 L18.4005799,51.6443277 Z" id="Shape-1-copy" fill="#F5F3EF"></path>
                    <path d="M25.8124331,63.491591 C25.5122028,63.8821268 17.0698271,63.6136004 11.2207188,58.3881198 C6.98562167,54.6045584 13.3598214,52.4209851 13.3598214,52.4209851 L18.0200027,51.321777 L22.0690077,53.4416782 L22.374593,59.8013872 C24.0790929,62.5481268 26.2957609,62.8628768 25.8124331,63.491591 L25.8124331,63.491591 Z M21.6106299,60.1154467 L21.1522518,53.4416782 L18.7075695,52.0284107 L14.0473884,53.2061335 C14.0473884,53.2061335 8.40272134,54.3957339 11.9846821,57.8385157 C15.8503383,61.5539515 23.0015663,62.5510525 23.7497324,62.4708979 C24.5251706,62.3878117 23.3151296,62.8621917 21.6106299,60.1154467 L21.6106299,60.1154467 Z" id="Shape-1-copy-2" fill="#40C681"></path>
                    <path d="M34.7470981,51.8293129 L39.5886612,52.9746157 C39.5886612,52.9746157 45.5176083,54.3581585 41.573075,58.4747327 C37.6285307,62.5913068 27.4837317,63.3183034 27.4837317,63.3183034 C27.4837317,63.3183034 30.1660127,62.0094736 31.3058156,60.1683027 L31.6880268,53.5532982 L34.7470981,51.8293129 L34.7470981,51.8293129 Z" id="Shape-1-copy-4" fill="#F5F3EF"></path>
                    <path d="M27.3308516,63.6335367 C27.6312569,64.025246 36.0786379,63.7559168 41.9312103,58.5147847 C46.1688212,54.7198907 39.7908456,52.5297805 39.7908456,52.5297805 L35.1278995,51.4272816 L31.0764956,53.5535286 L30.7707244,59.9322865 C29.0652193,62.6872532 26.8472397,63.0029412 27.3308516,63.6335367 L27.3308516,63.6335367 Z M31.5351413,60.2472837 L31.9937924,53.5535286 L34.4399282,52.1360324 L39.1028689,53.317282 C39.1028689,53.317282 44.7508855,54.5104428 41.1667937,57.9635352 C37.2988479,61.6901017 30.1433795,62.6901846 29.3947764,62.6097886 C28.6188738,62.5264552 29.829636,63.0022505 31.5351413,60.2472837 L31.5351413,60.2472837 Z" id="Shape-1-copy-6" fill="#40C681"></path>
                    <path d="M26.5384359,4.31831706 C36.0422457,4.31831706 43.5436095,13.4459036 43.2996997,24.4129202 L43.0404626,36.0689199 C42.8106778,46.4009381 35.425026,54.5678758 26.5384359,54.5678758 C17.6518457,54.5678758 10.2661938,46.4009381 10.0364093,36.0689199 L9.77717214,24.4129202 C9.53326775,13.4459036 17.0346261,4.31831706 26.5384359,4.31831706 L26.5384359,4.31831706 Z" id="2-copy-5" stroke="#40C681" stroke-width="2" fill="#FFFFFF"></path>
                    <path d="M34.7508085,43.1205098 C33.3622051,44.359664 30.2257593,45.538656 26.5764018,45.538656 C22.9270388,45.538656 19.790593,44.359664 18.4019843,43.1205098 C18.4019843,43.1205098 18.2599126,42.7187423 18.4683591,42.5045154 C18.6806633,42.2863238 19.0131548,42.3338111 19.0131548,42.3338111 C20.4003047,43.573808 22.9256454,44.5964835 26.5764018,44.5964835 C30.2271527,44.5964835 32.7524934,43.573808 34.1396433,42.3338111 C34.1396433,42.3338111 34.4789543,42.2042709 34.6437847,42.3736723 C34.9612548,42.6999462 34.7508085,43.1205098 34.7508085,43.1205098 L34.7508085,43.1205098 Z" id="usta" fill="#40C681"></path>
                    <path d="M24.0553177,47.4230183 L28.9446878,47.4230183 L28.9446878,48.2081669 L24.0553177,48.2081669 L24.0553177,47.4230183 L24.0553177,47.4230183 Z" id="-" fill="#40C681"></path>
                    <path d="M8.73913061,25.8203359 C8.73702153,25.8204594 8.55155233,25.6682369 8.20132367,25.5549095 C8.02628043,25.4983693 7.80873047,25.451859 7.56076621,25.4403916 C7.49883929,25.4375276 7.43510375,25.436848 7.36988743,25.4387517 C7.30467093,25.4406555 7.23796828,25.4451369 7.17016731,25.4525779 C7.03458185,25.4674655 6.89454833,25.4942193 6.75363494,25.5358774 C6.18940822,25.7025215 5.61382661,26.1076864 5.27578885,26.9439502 C5.10610057,27.3621046 4.99415902,27.8880828 4.96456443,28.5461734 C4.95716019,28.7107002 4.95489802,28.8834822 4.95814373,29.0649016 C4.961395,29.2463207 4.97015987,29.436377 4.98479861,29.6354525 C5.01405999,30.0335865 5.06689973,30.4678021 5.14562926,30.9409579 C5.14390802,30.9404918 5.07220009,32.3707864 5.56973508,34.0142913 C6.03746796,35.6211418 7.16064307,37.5950148 9.23441453,38.1590682 C8.9959088,34.0776323 8.98849937,29.919692 8.73913061,25.8203359 L8.73913061,25.8203359 L8.73913061,25.8203359 Z" id="Shape-11-copy" fill="#FFFFFF"></path>
                    <path d="M9.15465222,25.9848738 C9.15465222,25.9848738 5.54198744,24.834444 5.6691253,28.6514645 C5.6691253,28.6514645 6.20698685,34.1862648 6.44055266,34.696367 C6.44055266,34.696367 7.85934619,37.9189187 10.2008627,38.0617348 C12.4893537,38.2013161 10.2008627,38.0617348 10.2008627,38.0617348 L10.2292825,39.1004379 C10.2292825,39.1004379 6.11378778,38.5581344 5.31890757,33.6839011 L4.69152437,29.2558958 C4.69152437,29.2558958 4.20438794,23.3958661 8.92963785,24.8858231 C13.5329905,26.3373457 8.92963785,24.8858231 8.92963785,24.8858231 L9.15465222,25.9848738" id="Shape-3" fill="#40C681"></path>
                    <path d="M7.96223351,33.6745901 C7.96223351,33.6745901 7.76005445,33.8316199 7.58637183,33.8316199 C7.41268922,33.8316199 7.21297466,33.6745901 7.21297466,33.6745901 L6.8401458,29.8133507 C6.8401458,29.8133507 7.35455449,27.9117928 9.53738241,28.9167111 L9.58898167,30.0207767 C9.58898167,30.0207767 7.67388253,29.3227521 7.71348231,30.1919527 C7.7516013,31.0286041 7.96223351,33.6745901 7.96223351,33.6745901 L7.96223351,33.6745901 Z" id="Shape-4" fill="#40C681"></path>
                    <path d="M44.0138887,25.8293493 C44.0160087,25.8294728 44.202292,25.6773569 44.5540507,25.5641025 C44.7298644,25.5076018 44.9483652,25.4611253 45.1974168,25.4496633 C45.2596114,25.4468049 45.3236257,25.4461253 45.3891318,25.4480292 C45.4546323,25.4499271 45.5216244,25.4544086 45.589726,25.4618441 C45.7259017,25.4767204 45.8665527,25.5034573 46.0080835,25.5450874 C46.5747801,25.7116191 47.1528808,26.1165088 47.4923994,26.9522055 C47.6628307,27.3700734 47.7752641,27.8956922 47.8049844,28.5533391 C47.8124214,28.7177536 47.8146945,28.8904179 47.8114377,29.0717136 C47.8081701,29.2530091 47.7993671,29.4429364 47.7846627,29.641877 C47.7552758,30.0397414 47.7022009,30.473665 47.6231273,30.946495 C47.6248594,30.9460289 47.6968787,32.3753576 47.1971634,34.0177452 C46.727387,35.6235061 45.5992886,37.5960368 43.5164355,38.1597084 C43.7559848,34.081041 43.7634271,29.9259254 44.0138887,25.8293493 L44.0138887,25.8293493 L44.0138887,25.8293493 Z" id="Shape-11-copy_1" fill="#FFFFFF"></path>
                    <path d="M43.7756016,25.9937806 C43.7756016,25.9937806 47.4040908,24.8441313 47.2763957,28.6585572 C47.2763957,28.6585572 46.7361791,34.1896007 46.5015858,34.6993548 C46.5015858,34.6993548 45.0765795,37.9197217 42.7248119,38.0624424 C40.4262941,38.2019283 42.7248119,38.0624424 42.7248119,38.0624424 L42.6962664,39.1004379 C42.6962664,39.1004379 46.8297824,38.558505 47.6281435,33.6875795 L48.2582751,29.2625785 C48.2582751,29.2625785 48.7475482,23.4065249 44.0015993,24.8954711 C39.3780892,26.3460108 44.0015993,24.8954711 44.0015993,24.8954711 L43.7756016,25.9937806" id="Shape-3_1" fill="#40C681"></path>
                    <path d="M44.9732442,33.6782742 C44.9732442,33.6782742 45.1763083,33.8351971 45.3507505,33.8351971 C45.5251926,33.8351971 45.7257815,33.6782742 45.7257815,33.6782742 L46.1002442,29.8196572 C46.1002442,29.8196572 45.5835841,27.9193911 43.3911938,28.9236242 L43.3393704,30.0269429 C43.3393704,30.0269429 45.2628573,29.32939 45.2230826,30.198001 C45.1847998,31.0340851 44.9732442,33.6782742 44.9732442,33.6782742 L44.9732442,33.6782742 Z" id="Shape-4_1" fill="#40C681"></path>
                    <path d="M27.9133347,33.3688478 L28.1807192,33.3688478 C28.7335419,34.140434 28.9584524,35.3261538 29.2502676,36.3524122 C29.3407017,36.6704532 29.252967,37.2267458 29.1738713,37.4516203 C28.8842036,38.2752035 27.9746331,38.2604227 27.2257679,38.6293431 C27.024649,38.7284287 26.8750473,38.899453 26.6145973,38.9434081 C26.4447996,38.7896917 26.2397847,38.7595011 26.1562139,38.5115737 C25.9498874,38.2195844 26.2158074,38.0372442 26.4236037,37.9227095 C26.8007329,37.7148452 27.9649286,37.5099743 28.1043227,37.1375608 C28.2767924,36.9359246 28.1621131,36.3296851 28.1043227,36.1168678 C27.9563168,35.5717731 27.8852755,35.1167004 27.6841457,34.6250855 C27.5505438,34.298542 27.3159778,33.9542414 27.4549569,33.5651321 C27.5701223,33.5143089 27.8190264,33.456522 27.9133347,33.3688478 L27.9133347,33.3688478 Z" id="new_vector_shape_done" fill="#40C681"></path>
                    <path d="M18.096399,26.6950793 C18.9402501,26.6950793 19.6243254,27.3981246 19.6243254,28.2653764 C19.6243254,29.1326284 18.9402501,29.8356735 18.096399,29.8356735 C17.2525476,29.8356735 16.568467,29.1326284 16.568467,28.2653764 C16.568467,27.3981246 17.2525476,26.6950793 18.096399,26.6950793 L18.096399,26.6950793 Z" id="oko" fill="#40C681"></path>
                    <path d="M35.0563938,26.6950793 C35.9002449,26.6950793 36.5843202,27.3981246 36.5843202,28.2653764 C36.5843202,29.1326284 35.9002449,29.8356735 35.0563938,29.8356735 C34.212548,29.8356735 33.5284672,29.1326284 33.5284672,28.2653764 C33.5284672,27.3981246 34.212548,26.6950793 35.0563938,26.6950793 L35.0563938,26.6950793 Z" id="oko_1" fill="#40C681"></path>
                    <path d="M18.0200027,32.5051844 C19.4967395,32.5051844 20.693874,32.5922632 20.693874,34.3110261 C20.693874,36.0838523 19.4967395,36.1168678 18.0200027,36.1168678 C16.5432603,36.1168678 15.3461314,35.7940027 15.3461314,34.3110261 C15.3461314,32.5787235 16.5432603,32.5051844 18.0200027,32.5051844 L18.0200027,32.5051844 Z" id="Ellipse-3-copy" fill="#F5F3EF"></path>
                    <path d="M35.743966,32.5051844 C37.220703,32.5051844 38.4178375,32.5922632 38.4178375,34.3110261 C38.4178375,36.0838523 37.220703,36.1168678 35.743966,36.1168678 C34.2672236,36.1168678 33.0700947,35.7940027 33.0700947,34.3110261 C33.0700947,32.5787235 34.2672236,32.5051844 35.743966,32.5051844 L35.743966,32.5051844 Z" id="Ellipse-3-copy-2" fill="#F5F3EF"></path>
                    <path d="M30.6182432,23.8507815 L31.0607639,24.428448 L31.3353229,24.7864736 C31.3353229,24.7864736 36.1966993,22.0276488 39.5709459,25.2106538 L39.9306933,25.3918988 C39.9306933,25.3918988 39.0994427,20.7773695 31.8228638,23.4765318 C31.4389477,23.5835582 31.0383766,23.7070782 30.6182432,23.8507815 L30.6182432,23.8507815 Z" id="R" fill="#40C681"></path>
                    <path d="M22.2027027,23.8539939 L21.7601821,24.4304584 L21.4856231,24.7877371 C21.4856231,24.7877371 16.6242466,22.0346517 13.25,25.2110356 L12.8902527,25.3919046 C12.8902527,25.3919046 13.7215032,20.7869668 20.9980822,23.4805189 C21.3819982,23.5873263 21.7825694,23.7105882 22.2027027,23.8539939 L22.2027027,23.8539939 Z" id="L" fill="#40C681"></path>
                    <path d="M9.53999982,24.1040834 C9.53999982,24.1040834 9.56014662,28.6820931 9.6163961,28.5794358 C10.1282203,27.6453725 9.4773352,16.9497745 24.131714,17.2732853 C32.3017218,17.4536431 33.5284672,12.3661039 33.5284672,12.3661039 C33.5284672,12.3661039 35.6324071,13.2101288 38.8762153,16.6451665 C42.3537425,20.327699 43.0016223,24.9677469 43.0016223,24.9677469 L45.8282862,14.4467449 L35.3619844,3.29762399 L27.5695486,2.82653477 L20.7702703,3.92574853 L15.7281074,6.35970908 L10.1511704,13.6615962" id="Shape-26" fill="#40C681"></path>
                </g>
            </g>
            <rect id="Rectangle-12-Copy-4" stroke="#BBC2C7" stroke-width="2" fill="#FFFFFF" x="51" y="180" width="44" height="28" rx="4"></rect>
            <circle id="Oval-3-Copy-4" fill="#EFF0F1" cx="73" cy="194" r="5"></circle>
        </g>
    </g>
</svg>