<?xml version="1.0" encoding="UTF-8"?>
<svg width="260px" height="220px" viewBox="0 0 260 220" version="1.1" xmlns="http://www.w3.org/2000/svg" xmlns:xlink="http://www.w3.org/1999/xlink">
    <!-- Generator: Sketch 43.1 (39012) - http://www.bohemiancoding.com/sketch -->
    <title>feature-stack</title>
    <desc>Created with Sketch.</desc>
    <defs>
        <path d="M117.161875,70.2462877 C118.352169,69.5590711 119.320508,67.884036 119.320508,66.5074247 L119.320508,51.4925753 C119.320508,50.1181422 118.354055,48.442018 117.161875,47.7537123 L41.1586336,1.24628767 C39.9683395,0.559071098 38.0335468,0.557981998 36.8413664,1.24628767 L2.8381255,21.7537123 C1.64783147,22.4409289 0.679491924,24.115964 0.679491924,25.4925753 L0.679491924,40.5074247 C0.679491924,41.8818578 1.64594509,43.557982 2.8381255,44.2462877 L78.8413664,90.7537123 C80.0316605,91.4409289 81.9664532,91.442018 83.1586336,90.7537123 L117.161875,70.2462877 Z" id="path-1"></path>
        <path d="M117.161875,70.2462877 C118.352169,69.5590711 119.320508,67.884036 119.320508,66.5074247 L119.320508,51.4925753 C119.320508,50.1181422 118.354055,48.442018 117.161875,47.7537123 L41.1586336,1.24628767 C39.9683395,0.559071098 38.0335468,0.557981998 36.8413664,1.24628767 L2.8381255,21.7537123 C1.64783147,22.4409289 0.679491924,24.115964 0.679491924,25.4925753 L0.679491924,40.5074247 C0.679491924,41.8818578 1.64594509,43.557982 2.8381255,44.2462877 L78.8413664,90.7537123 C80.0316605,91.4409289 81.9664532,91.442018 83.1586336,90.7537123 L117.161875,70.2462877 Z" id="path-3"></path>
        <path d="M17.8413664,1.24628767 C19.0335468,0.557981998 20.9683395,0.559071098 22.1586336,1.24628767 L35.1618745,8.75371233 C36.3540549,9.442018 37.3205081,11.1181422 37.3205081,12.4925753 L37.3205081,27.5074247 C37.3205081,28.884036 36.3521685,30.5590711 35.1618745,31.2462877 L22.1586336,38.7537123 C20.9664532,39.442018 19.0316605,39.4409289 17.8413664,38.7537123 L4.8381255,31.2462877 C3.64594509,30.557982 2.67949192,28.8818578 2.67949192,27.5074247 L2.67949192,12.4925753 C2.67949192,11.115964 3.64783147,9.4409289 4.8381255,8.75371233 L17.8413664,1.24628767 Z" id="path-5"></path>
        <path d="M17.8413664,1.24628767 C19.0335468,0.557981998 20.9683395,0.559071098 22.1586336,1.24628767 L35.1618745,8.75371233 C36.3540549,9.442018 37.3205081,11.1181422 37.3205081,12.4925753 L37.3205081,27.5074247 C37.3205081,28.884036 36.3521685,30.5590711 35.1618745,31.2462877 L22.1586336,38.7537123 C20.9664532,39.442018 19.0316605,39.4409289 17.8413664,38.7537123 L4.8381255,31.2462877 C3.64594509,30.557982 2.67949192,28.8818578 2.67949192,27.5074247 L2.67949192,12.4925753 C2.67949192,11.115964 3.64783147,9.4409289 4.8381255,8.75371233 L17.8413664,1.24628767 Z" id="path-7"></path>
        <path d="M17.8413664,1.24628767 C19.0335468,0.557981998 20.9683395,0.559071098 22.1586336,1.24628767 L35.1618745,8.75371233 C36.3540549,9.442018 37.3205081,11.1181422 37.3205081,12.4925753 L37.3205081,27.5074247 C37.3205081,28.884036 36.3521685,30.5590711 35.1618745,31.2462877 L22.1586336,38.7537123 C20.9664532,39.442018 19.0316605,39.4409289 17.8413664,38.7537123 L4.8381255,31.2462877 C3.64594509,30.557982 2.67949192,28.8818578 2.67949192,27.5074247 L2.67949192,12.4925753 C2.67949192,11.115964 3.64783147,9.4409289 4.8381255,8.75371233 L17.8413664,1.24628767 Z" id="path-9"></path>
        <path d="M17.8413664,1.24628767 C19.0335468,0.557981998 20.9683395,0.559071098 22.1586336,1.24628767 L35.1618745,8.75371233 C36.3540549,9.442018 37.3205081,11.1181422 37.3205081,12.4925753 L37.3205081,27.5074247 C37.3205081,28.884036 36.3521685,30.5590711 35.1618745,31.2462877 L22.1586336,38.7537123 C20.9664532,39.442018 19.0316605,39.4409289 17.8413664,38.7537123 L4.8381255,31.2462877 C3.64594509,30.557982 2.67949192,28.8818578 2.67949192,27.5074247 L2.67949192,12.4925753 C2.67949192,11.115964 3.64783147,9.4409289 4.8381255,8.75371233 L17.8413664,1.24628767 Z" id="path-11"></path>
        <path d="M17.8413664,1.24628767 C19.0335468,0.557981998 20.9683395,0.559071098 22.1586336,1.24628767 L35.1618745,8.75371233 C36.3540549,9.442018 37.3205081,11.1181422 37.3205081,12.4925753 L37.3205081,27.5074247 C37.3205081,28.884036 36.3521685,30.5590711 35.1618745,31.2462877 L22.1586336,38.7537123 C20.9664532,39.442018 19.0316605,39.4409289 17.8413664,38.7537123 L4.8381255,31.2462877 C3.64594509,30.557982 2.67949192,28.8818578 2.67949192,27.5074247 L2.67949192,12.4925753 C2.67949192,11.115964 3.64783147,9.4409289 4.8381255,8.75371233 L17.8413664,1.24628767 Z" id="path-13"></path>
        <path d="M17.8413664,1.24628767 C19.0335468,0.557981998 20.9683395,0.559071098 22.1586336,1.24628767 L35.1618745,8.75371233 C36.3540549,9.442018 37.3205081,11.1181422 37.3205081,12.4925753 L37.3205081,27.5074247 C37.3205081,28.884036 36.3521685,30.5590711 35.1618745,31.2462877 L22.1586336,38.7537123 C20.9664532,39.442018 19.0316605,39.4409289 17.8413664,38.7537123 L4.8381255,31.2462877 C3.64594509,30.557982 2.67949192,28.8818578 2.67949192,27.5074247 L2.67949192,12.4925753 C2.67949192,11.115964 3.64783147,9.4409289 4.8381255,8.75371233 L17.8413664,1.24628767 Z" id="path-15"></path>
        <path d="M17.8413664,1.24628767 C19.0335468,0.557981998 20.9683395,0.559071098 22.1586336,1.24628767 L35.1618745,8.75371233 C36.3540549,9.442018 37.3205081,11.1181422 37.3205081,12.4925753 L37.3205081,27.5074247 C37.3205081,28.884036 36.3521685,30.5590711 35.1618745,31.2462877 L22.1586336,38.7537123 C20.9664532,39.442018 19.0316605,39.4409289 17.8413664,38.7537123 L4.8381255,31.2462877 C3.64594509,30.557982 2.67949192,28.8818578 2.67949192,27.5074247 L2.67949192,12.4925753 C2.67949192,11.115964 3.64783147,9.4409289 4.8381255,8.75371233 L17.8413664,1.24628767 Z" id="path-17"></path>
        <path d="M17.8413664,1.24628767 C19.0335468,0.557981998 20.9683395,0.559071098 22.1586336,1.24628767 L35.1618745,8.75371233 C36.3540549,9.442018 37.3205081,11.1181422 37.3205081,12.4925753 L37.3205081,27.5074247 C37.3205081,28.884036 36.3521685,30.5590711 35.1618745,31.2462877 L22.1586336,38.7537123 C20.9664532,39.442018 19.0316605,39.4409289 17.8413664,38.7537123 L4.8381255,31.2462877 C3.64594509,30.557982 2.67949192,28.8818578 2.67949192,27.5074247 L2.67949192,12.4925753 C2.67949192,11.115964 3.64783147,9.4409289 4.8381255,8.75371233 L17.8413664,1.24628767 Z" id="path-19"></path>
        <path d="M31.2071059,2.18982843 C33.3018635,0.980419584 36.6945942,0.978374421 38.7928941,2.18982843 L61.517995,15.3101716 C63.6127526,16.5195804 65.3108891,19.4567488 65.3108891,21.8796569 L65.3108891,48.1203431 C65.3108891,50.5391608 63.6162949,53.4783744 61.517995,54.6898284 L38.7928941,67.8101716 C36.6981365,69.0195804 33.3054058,69.0216256 31.2071059,67.8101716 L8.48200497,54.6898284 C6.3872474,53.4804196 4.68911087,50.5432512 4.68911087,48.1203431 L4.68911087,21.8796569 C4.68911087,19.4608392 6.38370507,16.5216256 8.48200497,15.3101716 L31.2071059,2.18982843 Z" id="path-21"></path>
    </defs>
    <g id="Page-1" stroke="none" stroke-width="1" fill="none" fill-rule="evenodd">
        <g id="Group-19" transform="translate(1.000000, 10.000000)">
            <g id="Group-13" transform="translate(67.000000, 21.000000)">
                <g id="Group-17-Copy" transform="translate(2.000000, 66.000000)">
                    <mask id="mask-2" fill="white">
                        <use xlink:href="#path-1"></use>
                    </mask>
                    <use id="Combined-Shape" stroke="#BBC2C7" stroke-width="2" fill="#FFFFFF" xlink:href="#path-1"></use>
                    <path d="M117.161875,50.2462877 C118.352169,49.5590711 119.320508,47.884036 119.320508,46.5074247 L119.320508,31.4925753 C119.320508,30.1181422 118.354055,28.442018 117.161875,27.7537123 L41.1586336,-18.7537123 C39.9683395,-19.4409289 38.0335468,-19.442018 36.8413664,-18.7537123 L2.8381255,1.75371233 C1.64783147,2.4409289 0.679491924,4.115964 0.679491924,5.49257535 L0.679491924,20.5074247 C0.679491924,21.8818578 1.64594509,23.557982 2.8381255,24.2462877 L78.8413664,70.7537123 C80.0316605,71.4409289 81.9664532,71.442018 83.1586336,70.7537123 L117.161875,50.2462877 Z" id="Combined-Shape-Copy-2" stroke="#BBC2C7" stroke-width="2" mask="url(#mask-2)"></path>
                    <rect id="Rectangle-16" fill="#BBC2C7" mask="url(#mask-2)" x="80" y="72" width="2" height="20"></rect>
                </g>
                <g id="Group-17" transform="translate(2.000000, 40.000000)">
                    <mask id="mask-4" fill="white">
                        <use xlink:href="#path-3"></use>
                    </mask>
                    <use id="Combined-Shape" stroke="#BBC2C7" stroke-width="2" fill="#FFFFFF" xlink:href="#path-3"></use>
                    <path d="M117.161875,50.2462877 C118.352169,49.5590711 119.320508,47.884036 119.320508,46.5074247 L119.320508,31.4925753 C119.320508,30.1181422 118.354055,28.442018 117.161875,27.7537123 L41.1586336,-18.7537123 C39.9683395,-19.4409289 38.0335468,-19.442018 36.8413664,-18.7537123 L2.8381255,1.75371233 C1.64783147,2.4409289 0.679491924,4.115964 0.679491924,5.49257535 L0.679491924,20.5074247 C0.679491924,21.8818578 1.64594509,23.557982 2.8381255,24.2462877 L78.8413664,70.7537123 C80.0316605,71.4409289 81.9664532,71.442018 83.1586336,70.7537123 L117.161875,50.2462877 Z" id="Combined-Shape-Copy-2" stroke="#BBC2C7" stroke-width="2" mask="url(#mask-4)"></path>
                    <rect id="Rectangle-16" fill="#BBC2C7" mask="url(#mask-4)" x="80" y="72" width="2" height="20"></rect>
                </g>
                <g id="Group-16">
                    <g id="Group-12">
                        <g id="Group-9-Copy-11" transform="translate(21.000000, 0.000000)">
                            <mask id="mask-6" fill="white">
                                <use xlink:href="#path-5"></use>
                            </mask>
                            <use id="Polygon-2-Copy" stroke="#BBC2C7" stroke-width="2" fill="#FFFFFF" xlink:href="#path-5"></use>
                            <path d="M18.5232632,-19.1474056 C19.3388424,-19.6182805 20.6578343,-19.6201992 21.4767368,-19.1474056 L35.8437713,-10.8525944 C36.6593505,-10.3817195 37.3205081,-9.24039841 37.3205081,-8.29481125 L37.3205081,8.29481125 C37.3205081,9.23656099 36.6626738,10.3798008 35.8437713,10.8525944 L21.4767368,19.1474056 C20.6611576,19.6182805 19.3421657,19.6201992 18.5232632,19.1474056 L4.1562287,10.8525944 C3.3406495,10.3817195 2.67949192,9.24039841 2.67949192,8.29481125 L2.67949192,-8.29481125 C2.67949192,-9.23656099 3.3373262,-10.3798008 4.1562287,-10.8525944 L18.5232632,-19.1474056 Z" id="Polygon-2-Copy-20" stroke="#BBC2C7" stroke-width="2" fill-opacity="0" fill="#EFF0F1" mask="url(#mask-6)"></path>
                            <rect id="Rectangle-16" fill="#BBC2C7" mask="url(#mask-6)" x="19" y="20" width="2" height="20"></rect>
                        </g>
                        <g id="Group-9-Copy-10" transform="translate(42.000000, 13.000000)">
                            <mask id="mask-8" fill="white">
                                <use xlink:href="#path-7"></use>
                            </mask>
                            <use id="Polygon-2-Copy" stroke="#BBC2C7" stroke-width="2" fill="#FFFFFF" xlink:href="#path-7"></use>
                            <path d="M18.5232632,-19.1474056 C19.3388424,-19.6182805 20.6578343,-19.6201992 21.4767368,-19.1474056 L35.8437713,-10.8525944 C36.6593505,-10.3817195 37.3205081,-9.24039841 37.3205081,-8.29481125 L37.3205081,8.29481125 C37.3205081,9.23656099 36.6626738,10.3798008 35.8437713,10.8525944 L21.4767368,19.1474056 C20.6611576,19.6182805 19.3421657,19.6201992 18.5232632,19.1474056 L4.1562287,10.8525944 C3.3406495,10.3817195 2.67949192,9.24039841 2.67949192,8.29481125 L2.67949192,-8.29481125 C2.67949192,-9.23656099 3.3373262,-10.3798008 4.1562287,-10.8525944 L18.5232632,-19.1474056 Z" id="Polygon-2-Copy-20" stroke="#BBC2C7" stroke-width="2" fill-opacity="0" fill="#EFF0F1" mask="url(#mask-8)"></path>
                            <rect id="Rectangle-16" fill="#BBC2C7" mask="url(#mask-8)" x="19" y="20" width="2" height="20"></rect>
                        </g>
                        <g id="Group-9-Copy-9" transform="translate(63.000000, 26.000000)">
                            <mask id="mask-10" fill="white">
                                <use xlink:href="#path-9"></use>
                            </mask>
                            <use id="Polygon-2-Copy" stroke="#BBC2C7" stroke-width="2" fill="#FFFFFF" xlink:href="#path-9"></use>
                            <path d="M18.5232632,-19.1474056 C19.3388424,-19.6182805 20.6578343,-19.6201992 21.4767368,-19.1474056 L35.8437713,-10.8525944 C36.6593505,-10.3817195 37.3205081,-9.24039841 37.3205081,-8.29481125 L37.3205081,8.29481125 C37.3205081,9.23656099 36.6626738,10.3798008 35.8437713,10.8525944 L21.4767368,19.1474056 C20.6611576,19.6182805 19.3421657,19.6201992 18.5232632,19.1474056 L4.1562287,10.8525944 C3.3406495,10.3817195 2.67949192,9.24039841 2.67949192,8.29481125 L2.67949192,-8.29481125 C2.67949192,-9.23656099 3.3373262,-10.3798008 4.1562287,-10.8525944 L18.5232632,-19.1474056 Z" id="Polygon-2-Copy-20" stroke="#BBC2C7" stroke-width="2" fill-opacity="0" fill="#EFF0F1" mask="url(#mask-10)"></path>
                            <rect id="Rectangle-16" fill="#BBC2C7" mask="url(#mask-10)" x="19" y="20" width="2" height="20"></rect>
                        </g>
                        <g id="Group-9-Copy-8" transform="translate(84.000000, 39.000000)">
                            <mask id="mask-12" fill="white">
                                <use xlink:href="#path-11"></use>
                            </mask>
                            <use id="Polygon-2-Copy" stroke="#BBC2C7" stroke-width="2" fill="#FFFFFF" xlink:href="#path-11"></use>
                            <path d="M18.5232632,-19.1474056 C19.3388424,-19.6182805 20.6578343,-19.6201992 21.4767368,-19.1474056 L35.8437713,-10.8525944 C36.6593505,-10.3817195 37.3205081,-9.24039841 37.3205081,-8.29481125 L37.3205081,8.29481125 C37.3205081,9.23656099 36.6626738,10.3798008 35.8437713,10.8525944 L21.4767368,19.1474056 C20.6611576,19.6182805 19.3421657,19.6201992 18.5232632,19.1474056 L4.1562287,10.8525944 C3.3406495,10.3817195 2.67949192,9.24039841 2.67949192,8.29481125 L2.67949192,-8.29481125 C2.67949192,-9.23656099 3.3373262,-10.3798008 4.1562287,-10.8525944 L18.5232632,-19.1474056 Z" id="Polygon-2-Copy-20" stroke="#BBC2C7" stroke-width="2" fill-opacity="0" fill="#EFF0F1" mask="url(#mask-12)"></path>
                            <rect id="Rectangle-16" fill="#BBC2C7" mask="url(#mask-12)" x="19" y="20" width="2" height="20"></rect>
                        </g>
                        <g id="Group-9-Copy-4" transform="translate(0.000000, 13.000000)">
                            <mask id="mask-14" fill="white">
                                <use xlink:href="#path-13"></use>
                            </mask>
                            <use id="Polygon-2-Copy" stroke="#BBC2C7" stroke-width="2" fill="#FFFFFF" xlink:href="#path-13"></use>
                            <path d="M18.5232632,-19.1474056 C19.3388424,-19.6182805 20.6578343,-19.6201992 21.4767368,-19.1474056 L35.8437713,-10.8525944 C36.6593505,-10.3817195 37.3205081,-9.24039841 37.3205081,-8.29481125 L37.3205081,8.29481125 C37.3205081,9.23656099 36.6626738,10.3798008 35.8437713,10.8525944 L21.4767368,19.1474056 C20.6611576,19.6182805 19.3421657,19.6201992 18.5232632,19.1474056 L4.1562287,10.8525944 C3.3406495,10.3817195 2.67949192,9.24039841 2.67949192,8.29481125 L2.67949192,-8.29481125 C2.67949192,-9.23656099 3.3373262,-10.3798008 4.1562287,-10.8525944 L18.5232632,-19.1474056 Z" id="Polygon-2-Copy-20" stroke="#BBC2C7" stroke-width="2" fill-opacity="0" fill="#EFF0F1" mask="url(#mask-14)"></path>
                            <rect id="Rectangle-16" fill="#BBC2C7" mask="url(#mask-14)" x="19" y="20" width="2" height="20"></rect>
                        </g>
                        <g id="Group-9-Copy-5" transform="translate(21.000000, 26.000000)">
                            <mask id="mask-16" fill="white">
                                <use xlink:href="#path-15"></use>
                            </mask>
                            <use id="Polygon-2-Copy" stroke="#BBC2C7" stroke-width="2" fill="#FFFFFF" xlink:href="#path-15"></use>
                            <path d="M18.5232632,-19.1474056 C19.3388424,-19.6182805 20.6578343,-19.6201992 21.4767368,-19.1474056 L35.8437713,-10.8525944 C36.6593505,-10.3817195 37.3205081,-9.24039841 37.3205081,-8.29481125 L37.3205081,8.29481125 C37.3205081,9.23656099 36.6626738,10.3798008 35.8437713,10.8525944 L21.4767368,19.1474056 C20.6611576,19.6182805 19.3421657,19.6201992 18.5232632,19.1474056 L4.1562287,10.8525944 C3.3406495,10.3817195 2.67949192,9.24039841 2.67949192,8.29481125 L2.67949192,-8.29481125 C2.67949192,-9.23656099 3.3373262,-10.3798008 4.1562287,-10.8525944 L18.5232632,-19.1474056 Z" id="Polygon-2-Copy-20" stroke="#BBC2C7" stroke-width="2" fill-opacity="0" fill="#EFF0F1" mask="url(#mask-16)"></path>
                            <rect id="Rectangle-16" fill="#BBC2C7" mask="url(#mask-16)" x="19" y="20" width="2" height="20"></rect>
                        </g>
                        <g id="Group-9-Copy-6" transform="translate(42.000000, 39.000000)">
                            <mask id="mask-18" fill="white">
                                <use xlink:href="#path-17"></use>
                            </mask>
                            <use id="Polygon-2-Copy" stroke="#BBC2C7" stroke-width="2" fill="#FFFFFF" xlink:href="#path-17"></use>
                            <path d="M18.5232632,-19.1474056 C19.3388424,-19.6182805 20.6578343,-19.6201992 21.4767368,-19.1474056 L35.8437713,-10.8525944 C36.6593505,-10.3817195 37.3205081,-9.24039841 37.3205081,-8.29481125 L37.3205081,8.29481125 C37.3205081,9.23656099 36.6626738,10.3798008 35.8437713,10.8525944 L21.4767368,19.1474056 C20.6611576,19.6182805 19.3421657,19.6201992 18.5232632,19.1474056 L4.1562287,10.8525944 C3.3406495,10.3817195 2.67949192,9.24039841 2.67949192,8.29481125 L2.67949192,-8.29481125 C2.67949192,-9.23656099 3.3373262,-10.3798008 4.1562287,-10.8525944 L18.5232632,-19.1474056 Z" id="Polygon-2-Copy-20" stroke="#BBC2C7" stroke-width="2" fill-opacity="0" fill="#EFF0F1" mask="url(#mask-18)"></path>
                            <rect id="Rectangle-16" fill="#BBC2C7" mask="url(#mask-18)" x="19" y="20" width="2" height="20"></rect>
                        </g>
                        <g id="Group-9-Copy-7" transform="translate(63.000000, 52.000000)">
                            <mask id="mask-20" fill="white">
                                <use xlink:href="#path-19"></use>
                            </mask>
                            <use id="Polygon-2-Copy" stroke="#BBC2C7" stroke-width="2" fill="#FFFFFF" xlink:href="#path-19"></use>
                            <path d="M18.5232632,-19.1474056 C19.3388424,-19.6182805 20.6578343,-19.6201992 21.4767368,-19.1474056 L35.8437713,-10.8525944 C36.6593505,-10.3817195 37.3205081,-9.24039841 37.3205081,-8.29481125 L37.3205081,8.29481125 C37.3205081,9.23656099 36.6626738,10.3798008 35.8437713,10.8525944 L21.4767368,19.1474056 C20.6611576,19.6182805 19.3421657,19.6201992 18.5232632,19.1474056 L4.1562287,10.8525944 C3.3406495,10.3817195 2.67949192,9.24039841 2.67949192,8.29481125 L2.67949192,-8.29481125 C2.67949192,-9.23656099 3.3373262,-10.3798008 4.1562287,-10.8525944 L18.5232632,-19.1474056 Z" id="Polygon-2-Copy-20" stroke="#BBC2C7" stroke-width="2" fill-opacity="0" fill="#EFF0F1" mask="url(#mask-20)"></path>
                            <rect id="Rectangle-16" fill="#BBC2C7" mask="url(#mask-20)" x="19" y="20" width="2" height="20"></rect>
                        </g>
                    </g>
                </g>
            </g>
            <path d="M34,85 L80,58" id="Path-5" stroke="#9E7CDB" stroke-width="2" stroke-linecap="round" stroke-dasharray="4"></path>
            <path d="M89,78 L101,71" id="Path-5-Copy" stroke="#9E7CDB" stroke-width="2" stroke-linecap="round" stroke-dasharray="4"></path>
            <path d="M110,91 L122,84" id="Path-5-Copy-2" stroke="#9E7CDB" stroke-width="2" stroke-linecap="round" stroke-dasharray="4"></path>
            <path d="M131,104 L143,97" id="Path-5-Copy-3" stroke="#9E7CDB" stroke-width="2" stroke-linecap="round" stroke-dasharray="4"></path>
            <path d="M128,106 L66,68" id="Path-6" stroke="#9E7CDB" stroke-width="2" stroke-linecap="round" stroke-dasharray="4"></path>
            <g id="Group-9" transform="translate(0.000000, 65.000000)">
                <mask id="mask-22" fill="white">
                    <use xlink:href="#path-21"></use>
                </mask>
                <use id="Polygon-2-Copy" stroke="#9E7CDB" stroke-width="2" fill="#C8B5EB" xlink:href="#path-21"></use>
                <path d="M64.0184203,17.838771 C63.3508496,16.7775406 62.4758904,15.8632127 61.517995,15.3101716 L38.7928941,2.18982843 C36.6945942,0.978374421 33.3018635,0.980419584 31.2071059,2.18982843 L8.48200497,15.3101716 C7.52311512,15.8637869 6.64853297,16.7782181 5.98145326,17.8389145 C6.36492754,18.3189967 6.81077996,18.7249462 7.28650343,18.9996053 L32.4026074,33.5003947 C33.8303498,34.3247022 36.1628923,34.3286038 37.5973926,33.5003947 L62.7134966,18.9996053 C63.1881635,18.7255562 63.6343037,18.3195589 64.0184203,17.838771 Z" id="Combined-Shape" stroke="#9E7CDB" stroke-width="2" fill-opacity="0.5" fill="#FFFFFF" mask="url(#mask-22)"></path>
                <rect id="Rectangle-16" fill="#9E7CDB" mask="url(#mask-22)" x="34" y="34" width="2" height="34"></rect>
            </g>
        </g>
    </g>
</svg>