<?xml version="1.0" encoding="UTF-8"?>
<svg width="260px" height="220px" viewBox="0 0 260 220" version="1.1" xmlns="http://www.w3.org/2000/svg" xmlns:xlink="http://www.w3.org/1999/xlink">
    <!-- Generator: Sketch 43.1 (39012) - http://www.bohemiancoding.com/sketch -->
    <title>feature-onboarding</title>
    <desc>Created with Sketch.</desc>
    <defs></defs>
    <g id="Page-1" stroke="none" stroke-width="1" fill="none" fill-rule="evenodd">
        <g id="Group-36" transform="translate(30.000000, 10.000000)">
            <path d="M18,49 L18,94.9928103 C18,97.2059201 19.7924553,99 21.9984707,99 L45,99" id="Path-3" stroke="#7EB9C4" stroke-width="2" stroke-linecap="round" stroke-dasharray="4"></path>
            <path d="M155,101 L155,146.99281 C155,149.20592 156.792455,151 158.998471,151 L182,151" id="Path-3-Copy" stroke="#7EB9C4" stroke-width="2" stroke-linecap="round" stroke-dasharray="4" transform="translate(168.500000, 126.000000) scale(-1, -1) translate(-168.500000, -126.000000) "></path>
            <rect id="Rectangle-12-Copy-5" stroke="#BBC2C7" stroke-width="2" fill="#FFFFFF" x="0" y="10" width="88" height="58" rx="4"></rect>
            <path d="M36.8571429,33.5714286 L51.1428571,33.5714286 L51.1428571,25 L36.8571429,25 L36.8571429,33.5714286 Z M54,21.0714286 L54,34.6428571 C54,35.133931 53.8251506,35.5543137 53.4754464,35.9040179 C53.1257423,36.253722 52.7053596,36.4285714 52.2142857,36.4285714 L35.7857143,36.4285714 C35.2946404,36.4285714 34.8742577,36.253722 34.5245536,35.9040179 C34.1748494,35.5543137 34,35.133931 34,34.6428571 L34,21.0714286 C34,20.5803547 34.1748494,20.159972 34.5245536,19.8102679 C34.8742577,19.4605637 35.2946404,19.2857143 35.7857143,19.2857143 L52.2142857,19.2857143 C52.7053596,19.2857143 53.1257423,19.4605637 53.4754464,19.8102679 C53.8251506,20.159972 54,20.5803547 54,21.0714286 Z" id="" fill="#BBC2C7"></path>
            <rect id="Rectangle-35" fill="#BBC2C7" x="24" y="44" width="30" height="6" rx="2"></rect>
            <path d="M57.8571429,47.1428571 C57.8571429,46.7559504 57.933035,46.3861625 58.0848214,46.0334821 C58.2366079,45.6808018 58.4397309,45.3772334 58.6941964,45.1227679 C58.948662,44.8683023 59.2522304,44.6651793 59.6049107,44.5133929 C59.957591,44.3616064 60.327379,44.2857143 60.7142857,44.2857143 L64.1428571,44.2857143 C64.5297638,44.2857143 64.8995518,44.3616064 65.2522321,44.5133929 C65.6049125,44.6651793 65.9084809,44.8683023 66.1629464,45.1227679 C66.417412,45.3772334 66.620535,45.6808018 66.7723214,46.0334821 C66.9241079,46.3861625 67,46.7559504 67,47.1428571 C67,47.5297638 66.9241079,47.8995518 66.7723214,48.2522321 C66.620535,48.6049125 66.417412,48.9084809 66.1629464,49.1629464 C65.9084809,49.417412 65.6049125,49.620535 65.2522321,49.7723214 C64.8995518,49.9241079 64.5297638,50 64.1428571,50 L60.7142857,50 C60.327379,50 59.957591,49.9241079 59.6049107,49.7723214 C59.2522304,49.620535 58.948662,49.417412 58.6941964,49.1629464 C58.4397309,48.9084809 58.2366079,48.6049125 58.0848214,48.2522321 C57.933035,47.8995518 57.8571429,47.5297638 57.8571429,47.1428571 Z M64.1428571,49.4285714 C64.4523825,49.4285714 64.7477665,49.3683042 65.0290179,49.2477679 C65.3102693,49.1272315 65.5535704,48.9642867 65.7589286,48.7589286 C65.9642867,48.5535704 66.1272315,48.3102693 66.2477679,48.0290179 C66.3683042,47.7477665 66.4285714,47.4523825 66.4285714,47.1428571 C66.4285714,46.8333318 66.3683042,46.5379478 66.2477679,46.2566964 C66.1272315,45.975445 65.9642867,45.7321439 65.7589286,45.5267857 C65.5535704,45.3214275 65.3102693,45.1584827 65.0290179,45.0379464 C64.7477665,44.9174101 64.4523825,44.8571429 64.1428571,44.8571429 C63.8333318,44.8571429 63.5379478,44.9174101 63.2566964,45.0379464 C62.975445,45.1584827 62.7321439,45.3214275 62.5267857,45.5267857 C62.3214275,45.7321439 62.1584827,45.975445 62.0379464,46.2566964 C61.9174101,46.5379478 61.8571429,46.8333318 61.8571429,47.1428571 C61.8571429,47.4523825 61.9174101,47.7477665 62.0379464,48.0290179 C62.1584827,48.3102693 62.3214275,48.5535704 62.5267857,48.7589286 C62.7321439,48.9642867 62.975445,49.1272315 63.2566964,49.2477679 C63.5379478,49.3683042 63.8333318,49.4285714 64.1428571,49.4285714 Z" id="" fill="#BBC2C7"></path>
            <rect id="Rectangle-35-Copy-6" fill="#BBC2C7" x="24" y="54" width="30" height="6" rx="2"></rect>
            <path d="M57.8571429,57.1428571 C57.8571429,56.7559504 57.933035,56.3861625 58.0848214,56.0334821 C58.2366079,55.6808018 58.4397309,55.3772334 58.6941964,55.1227679 C58.948662,54.8683023 59.2522304,54.6651793 59.6049107,54.5133929 C59.957591,54.3616064 60.327379,54.2857143 60.7142857,54.2857143 L64.1428571,54.2857143 C64.5297638,54.2857143 64.8995518,54.3616064 65.2522321,54.5133929 C65.6049125,54.6651793 65.9084809,54.8683023 66.1629464,55.1227679 C66.417412,55.3772334 66.620535,55.6808018 66.7723214,56.0334821 C66.9241079,56.3861625 67,56.7559504 67,57.1428571 C67,57.5297638 66.9241079,57.8995518 66.7723214,58.2522321 C66.620535,58.6049125 66.417412,58.9084809 66.1629464,59.1629464 C65.9084809,59.417412 65.6049125,59.620535 65.2522321,59.7723214 C64.8995518,59.9241079 64.5297638,60 64.1428571,60 L60.7142857,60 C60.327379,60 59.957591,59.9241079 59.6049107,59.7723214 C59.2522304,59.620535 58.948662,59.417412 58.6941964,59.1629464 C58.4397309,58.9084809 58.2366079,58.6049125 58.0848214,58.2522321 C57.933035,57.8995518 57.8571429,57.5297638 57.8571429,57.1428571 Z M64.1428571,59.4285714 C64.4523825,59.4285714 64.7477665,59.3683042 65.0290179,59.2477679 C65.3102693,59.1272315 65.5535704,58.9642867 65.7589286,58.7589286 C65.9642867,58.5535704 66.1272315,58.3102693 66.2477679,58.0290179 C66.3683042,57.7477665 66.4285714,57.4523825 66.4285714,57.1428571 C66.4285714,56.8333318 66.3683042,56.5379478 66.2477679,56.2566964 C66.1272315,55.975445 65.9642867,55.7321439 65.7589286,55.5267857 C65.5535704,55.3214275 65.3102693,55.1584827 65.0290179,55.0379464 C64.7477665,54.9174101 64.4523825,54.8571429 64.1428571,54.8571429 C63.8333318,54.8571429 63.5379478,54.9174101 63.2566964,55.0379464 C62.975445,55.1584827 62.7321439,55.3214275 62.5267857,55.5267857 C62.3214275,55.7321439 62.1584827,55.975445 62.0379464,56.2566964 C61.9174101,56.5379478 61.8571429,56.8333318 61.8571429,57.1428571 C61.8571429,57.4523825 61.9174101,57.7477665 62.0379464,58.0290179 C62.1584827,58.3102693 62.3214275,58.5535704 62.5267857,58.7589286 C62.7321439,58.9642867 62.975445,59.1272315 63.2566964,59.2477679 C63.5379478,59.3683042 63.8333318,59.4285714 64.1428571,59.4285714 Z" id="" fill="#BBC2C7"></path>
            <rect id="Rectangle-12-Copy-4" stroke="#BBC2C7" stroke-width="2" fill="#FFFFFF" x="112" y="132" width="88" height="58" rx="4"></rect>
            <path d="M159.995536,146.341518 L163.265625,143.071429 L162.071429,141.877232 L158.801339,145.147321 L159.995536,146.341518 Z M164.984375,143.071429 C164.984375,143.272322 164.917411,143.439731 164.783482,143.573661 L150.430804,157.926339 C150.296874,158.060269 150.129465,158.127232 149.928571,158.127232 C149.727678,158.127232 149.560269,158.060269 149.426339,157.926339 L147.216518,155.716518 C147.082589,155.582589 147.015625,155.41518 147.015625,155.214286 C147.015625,155.013392 147.082589,154.845983 147.216518,154.712054 L161.569196,140.359375 C161.703126,140.225446 161.870535,140.158482 162.071429,140.158482 C162.272322,140.158482 162.439731,140.225446 162.573661,140.359375 L164.783482,142.569196 C164.917411,142.703126 164.984375,142.870535 164.984375,143.071429 Z M149.90625,140.950893 L151,141.285714 L149.90625,141.620536 L149.571429,142.714286 L149.236607,141.620536 L148.142857,141.285714 L149.236607,140.950893 L149.571429,139.857143 L149.90625,140.950893 Z M153.8125,142.758929 L156,143.428571 L153.8125,144.098214 L153.142857,146.285714 L152.473214,144.098214 L150.285714,143.428571 L152.473214,142.758929 L153.142857,140.571429 L153.8125,142.758929 Z M164.191964,148.09375 L165.285714,148.428571 L164.191964,148.763393 L163.857143,149.857143 L163.522321,148.763393 L162.428571,148.428571 L163.522321,148.09375 L163.857143,147 L164.191964,148.09375 Z M157.049107,140.950893 L158.142857,141.285714 L157.049107,141.620536 L156.714286,142.714286 L156.379464,141.620536 L155.285714,141.285714 L156.379464,140.950893 L156.714286,139.857143 L157.049107,140.950893 Z" id="" fill="#BBC2C7"></path>
            <rect id="Rectangle-35" fill="#BBC2C7" x="136" y="166" width="30" height="6" rx="2"></rect>
            <path d="M169.857143,169.142857 C169.857143,168.75595 169.933035,168.386162 170.084821,168.033482 C170.236608,167.680802 170.439731,167.377233 170.694196,167.122768 C170.948662,166.868302 171.25223,166.665179 171.604911,166.513393 C171.957591,166.361606 172.327379,166.285714 172.714286,166.285714 L176.142857,166.285714 C176.529764,166.285714 176.899552,166.361606 177.252232,166.513393 C177.604912,166.665179 177.908481,166.868302 178.162946,167.122768 C178.417412,167.377233 178.620535,167.680802 178.772321,168.033482 C178.924108,168.386162 179,168.75595 179,169.142857 C179,169.529764 178.924108,169.899552 178.772321,170.252232 C178.620535,170.604912 178.417412,170.908481 178.162946,171.162946 C177.908481,171.417412 177.604912,171.620535 177.252232,171.772321 C176.899552,171.924108 176.529764,172 176.142857,172 L172.714286,172 C172.327379,172 171.957591,171.924108 171.604911,171.772321 C171.25223,171.620535 170.948662,171.417412 170.694196,171.162946 C170.439731,170.908481 170.236608,170.604912 170.084821,170.252232 C169.933035,169.899552 169.857143,169.529764 169.857143,169.142857 Z M176.142857,171.428571 C176.452383,171.428571 176.747766,171.368304 177.029018,171.247768 C177.310269,171.127232 177.55357,170.964287 177.758929,170.758929 C177.964287,170.55357 178.127232,170.310269 178.247768,170.029018 C178.368304,169.747766 178.428571,169.452382 178.428571,169.142857 C178.428571,168.833332 178.368304,168.537948 178.247768,168.256696 C178.127232,167.975445 177.964287,167.732144 177.758929,167.526786 C177.55357,167.321428 177.310269,167.158483 177.029018,167.037946 C176.747766,166.91741 176.452383,166.857143 176.142857,166.857143 C175.833332,166.857143 175.537948,166.91741 175.256696,167.037946 C174.975445,167.158483 174.732144,167.321428 174.526786,167.526786 C174.321428,167.732144 174.158483,167.975445 174.037946,168.256696 C173.91741,168.537948 173.857143,168.833332 173.857143,169.142857 C173.857143,169.452382 173.91741,169.747766 174.037946,170.029018 C174.158483,170.310269 174.321428,170.55357 174.526786,170.758929 C174.732144,170.964287 174.975445,171.127232 175.256696,171.247768 C175.537948,171.368304 175.833332,171.428571 176.142857,171.428571 Z" id="" fill="#BBC2C7"></path>
            <rect id="Rectangle-35-Copy-6" fill="#BBC2C7" x="136" y="176" width="30" height="6" rx="2"></rect>
            <path d="M169.857143,179.142857 C169.857143,178.75595 169.933035,178.386162 170.084821,178.033482 C170.236608,177.680802 170.439731,177.377233 170.694196,177.122768 C170.948662,176.868302 171.25223,176.665179 171.604911,176.513393 C171.957591,176.361606 172.327379,176.285714 172.714286,176.285714 L176.142857,176.285714 C176.529764,176.285714 176.899552,176.361606 177.252232,176.513393 C177.604912,176.665179 177.908481,176.868302 178.162946,177.122768 C178.417412,177.377233 178.620535,177.680802 178.772321,178.033482 C178.924108,178.386162 179,178.75595 179,179.142857 C179,179.529764 178.924108,179.899552 178.772321,180.252232 C178.620535,180.604912 178.417412,180.908481 178.162946,181.162946 C177.908481,181.417412 177.604912,181.620535 177.252232,181.772321 C176.899552,181.924108 176.529764,182 176.142857,182 L172.714286,182 C172.327379,182 171.957591,181.924108 171.604911,181.772321 C171.25223,181.620535 170.948662,181.417412 170.694196,181.162946 C170.439731,180.908481 170.236608,180.604912 170.084821,180.252232 C169.933035,179.899552 169.857143,179.529764 169.857143,179.142857 Z M176.142857,181.428571 C176.452383,181.428571 176.747766,181.368304 177.029018,181.247768 C177.310269,181.127232 177.55357,180.964287 177.758929,180.758929 C177.964287,180.55357 178.127232,180.310269 178.247768,180.029018 C178.368304,179.747766 178.428571,179.452382 178.428571,179.142857 C178.428571,178.833332 178.368304,178.537948 178.247768,178.256696 C178.127232,177.975445 177.964287,177.732144 177.758929,177.526786 C177.55357,177.321428 177.310269,177.158483 177.029018,177.037946 C176.747766,176.91741 176.452383,176.857143 176.142857,176.857143 C175.833332,176.857143 175.537948,176.91741 175.256696,177.037946 C174.975445,177.158483 174.732144,177.321428 174.526786,177.526786 C174.321428,177.732144 174.158483,177.975445 174.037946,178.256696 C173.91741,178.537948 173.857143,178.833332 173.857143,179.142857 C173.857143,179.452382 173.91741,179.747766 174.037946,180.029018 C174.158483,180.310269 174.321428,180.55357 174.526786,180.758929 C174.732144,180.964287 174.975445,181.127232 175.256696,181.247768 C175.537948,181.368304 175.833332,181.428571 176.142857,181.428571 Z" id="" fill="#BBC2C7"></path>
            <rect id="Rectangle-9" stroke="#7EB9C4" stroke-width="2" fill="#B6E4EC" x="36" y="58" width="128" height="84" rx="4"></rect>
            <path d="M110.714286,87.7064732 C110.714286,88.9229972 110.365517,89.9665135 109.667969,90.8370536 C108.970421,91.7075936 108.130585,92.1428571 107.148438,92.1428571 L92.8515625,92.1428571 C91.8694147,92.1428571 91.0295794,91.7075936 90.3320313,90.8370536 C89.6344831,89.9665135 89.2857143,88.9229972 89.2857143,87.7064732 C89.2857143,86.7578078 89.3331468,85.8621694 89.4280134,85.0195313 C89.5228799,84.1768931 89.6986594,83.3286873 89.9553571,82.4748884 C90.2120549,81.6210895 90.5385025,80.89007 90.9347098,80.281808 C91.3309172,79.6735461 91.8554655,79.1768992 92.5083705,78.7918527 C93.1612756,78.4068061 93.9118261,78.2142857 94.7600446,78.2142857 C96.2221055,79.6428643 97.9687398,80.3571429 100,80.3571429 C102.03126,80.3571429 103.777894,79.6428643 105.239955,78.2142857 C106.088174,78.2142857 106.838724,78.4068061 107.491629,78.7918527 C108.144535,79.1768992 108.669083,79.6735461 109.06529,80.281808 C109.461498,80.89007 109.787945,81.6210895 110.044643,82.4748884 C110.301341,83.3286873 110.47712,84.1768931 110.571987,85.0195313 C110.666853,85.8621694 110.714286,86.7578078 110.714286,87.7064732 Z M106.428571,72.8571429 C106.428571,74.6317053 105.800788,76.1467571 104.545201,77.4023438 C103.289614,78.6579304 101.774562,79.2857143 100,79.2857143 C98.2254376,79.2857143 96.7103857,78.6579304 95.4547991,77.4023438 C94.1992125,76.1467571 93.5714286,74.6317053 93.5714286,72.8571429 C93.5714286,71.0825804 94.1992125,69.5675286 95.4547991,68.311942 C96.7103857,67.0563553 98.2254376,66.4285714 100,66.4285714 C101.774562,66.4285714 103.289614,67.0563553 104.545201,68.311942 C105.800788,69.5675286 106.428571,71.0825804 106.428571,72.8571429 Z" id="" fill="#7EB9C4"></path>
            <rect id="Rectangle-35" fill="#7EB9C4" x="66" y="100" width="32" height="8" rx="2"></rect>
            <rect id="Rectangle-35-Copy" fill="#7EB9C4" x="102" y="100" width="32" height="8" rx="2"></rect>
            <rect id="Rectangle-35-Copy-2" fill="#7EB9C4" x="66" y="112" width="68" height="8" rx="2"></rect>
            <rect id="Rectangle-35-Copy-3" fill="#7EB9C4" x="66" y="124" width="68" height="8" rx="2"></rect>
        </g>
    </g>
</svg>