<?xml version="1.0" encoding="UTF-8"?>
<svg width="260px" height="220px" viewBox="0 0 260 220" version="1.1" xmlns="http://www.w3.org/2000/svg" xmlns:xlink="http://www.w3.org/1999/xlink">
    <!-- Generator: Sketch 43.1 (39012) - http://www.bohemiancoding.com/sketch -->
    <title>feature-forecasting</title>
    <desc>Created with Sketch.</desc>
    <defs>
        <rect id="path-1" x="0" y="0" width="98" height="140" rx="4"></rect>
    </defs>
    <g id="Page-1" stroke="none" stroke-width="1" fill="none" fill-rule="evenodd">
        <g id="Group-3" transform="translate(-346.000000, 2.000000)"></g>
        <g id="Group-3-Copy" transform="translate(29.000000, 11.000000)">
            <g id="Group-6" transform="translate(0.000000, 29.000000)">
                <g id="Group-5-Copy" transform="translate(56.000000, 61.000000) rotate(-15.000000) translate(-56.000000, -61.000000) translate(12.000000, 11.000000)">
                    <rect id="Rectangle-3" stroke="#BBC2C7" stroke-width="2" fill="#FFFFFF" x="-1.0658141e-14" y="-1.77635684e-14" width="88" height="100" rx="4"></rect>
                    <path d="M42.9285714,34.0357143 C42.9285714,32.8526727 42.5100488,31.8426381 41.6729911,31.0055804 C40.8359333,30.1685226 39.8258988,29.75 38.6428571,29.75 C37.4598155,29.75 36.449781,30.1685226 35.6127232,31.0055804 C34.7756655,31.8426381 34.3571429,32.8526727 34.3571429,34.0357143 C34.3571429,35.2187559 34.7756655,36.2287905 35.6127232,37.0658482 C36.449781,37.902906 37.4598155,38.3214286 38.6428571,38.3214286 C39.8258988,38.3214286 40.8359333,37.902906 41.6729911,37.0658482 C42.5100488,36.2287905 42.9285714,35.2187559 42.9285714,34.0357143 Z M55.7857143,42.6071429 C55.7857143,42.0267828 55.5736628,41.5245557 55.1495536,41.1004464 C54.7254443,40.6763372 54.2232172,40.4642857 53.6428571,40.4642857 C53.0624971,40.4642857 52.56027,40.6763372 52.1361607,41.1004464 C51.7120515,41.5245557 51.5,42.0267828 51.5,42.6071429 C51.5,43.1986637 51.7092613,43.7036809 52.1277902,44.1222098 C52.5463191,44.5407387 53.0513363,44.75 53.6428571,44.75 C54.234378,44.75 54.7393952,44.5407387 55.1579241,44.1222098 C55.576453,43.7036809 55.7857143,43.1986637 55.7857143,42.6071429 Z M55.7857143,25.4642857 C55.7857143,24.8839257 55.5736628,24.3816985 55.1495536,23.9575893 C54.7254443,23.53348 54.2232172,23.3214286 53.6428571,23.3214286 C53.0624971,23.3214286 52.56027,23.53348 52.1361607,23.9575893 C51.7120515,24.3816985 51.5,24.8839257 51.5,25.4642857 C51.5,26.0558065 51.7092613,26.5608238 52.1277902,26.9793527 C52.5463191,27.3978816 53.0513363,27.6071429 53.6428571,27.6071429 C54.234378,27.6071429 54.7393952,27.3978816 55.1579241,26.9793527 C55.576453,26.5608238 55.7857143,26.0558065 55.7857143,25.4642857 Z M49.3571429,32.5122768 L49.3571429,35.609375 C49.3571429,35.7209827 49.3180807,35.8297986 49.2399554,35.9358259 C49.16183,36.0418532 49.0725451,36.1004464 48.9720982,36.1116071 L46.3772321,36.5133929 C46.2544637,36.9040198 46.075894,37.3281227 45.8415179,37.7857143 C46.220984,38.3214312 46.7232112,38.9631659 47.3482143,39.7109375 C47.4263397,39.833706 47.4654018,39.945312 47.4654018,40.0457589 C47.4654018,40.1796882 47.4263397,40.2857139 47.3482143,40.3638393 C47.0915166,40.6986624 46.6311417,41.1980994 45.9670759,41.8621652 C45.3030101,42.526231 44.8649564,42.8582589 44.6529018,42.8582589 C44.5301333,42.8582589 44.412947,42.8191968 44.3013393,42.7410714 L42.3761161,41.234375 C41.9631676,41.4464296 41.5334844,41.619419 41.0870536,41.7533482 C40.9642851,42.9587114 40.8359382,43.8236581 40.7020089,44.3482143 C40.6238835,44.6160728 40.4564745,44.75 40.1997768,44.75 L37.0859375,44.75 C36.963169,44.75 36.851563,44.7081477 36.7511161,44.624442 C36.6506691,44.5407362 36.5948661,44.4430809 36.5837054,44.3314732 L36.1986607,41.7700893 C35.8191945,41.6584816 35.4006719,41.4854922 34.9430804,41.2511161 L32.9676339,42.7410714 C32.8895085,42.8191968 32.7779025,42.8582589 32.6328125,42.8582589 C32.510044,42.8582589 32.3928577,42.8136165 32.28125,42.7243304 C30.6740991,41.2399479 29.8705357,40.3470997 29.8705357,40.0457589 C29.8705357,39.945312 29.9095978,39.8392863 29.9877232,39.7276786 C30.0993309,39.5714278 30.3281233,39.2756718 30.6741071,38.8404018 C31.020091,38.4051318 31.2823652,38.0647334 31.4609375,37.8191964 C31.2042398,37.3281225 31.0089292,36.8705378 30.875,36.4464286 L28.3303571,36.0446429 C28.2187494,36.0334821 28.1238843,35.9804692 28.0457589,35.8856027 C27.9676335,35.7907361 27.9285714,35.6819203 27.9285714,35.5591518 L27.9285714,32.4620536 C27.9285714,32.3504459 27.9676335,32.24163 28.0457589,32.1356027 C28.1238843,32.0295754 28.2131691,31.9709822 28.3136161,31.9598214 L30.9084821,31.5580357 C31.0312506,31.1674088 31.2098203,30.7433059 31.4441964,30.2857143 C31.0647302,29.7499973 30.5625031,29.1082627 29.9375,28.3604911 C29.8593746,28.2377226 29.8203125,28.1261166 29.8203125,28.0256696 C29.8203125,27.8917404 29.8593746,27.7801344 29.9375,27.6908482 C30.1830369,27.3560251 30.6406217,26.8593783 31.3102679,26.2008929 C31.9799141,25.5424074 32.4207579,25.2131696 32.6328125,25.2131696 C32.755581,25.2131696 32.8727673,25.2522318 32.984375,25.3303571 L34.9095982,26.8370536 C35.2890644,26.6361597 35.7187476,26.4575901 36.1986607,26.3013393 C36.3214292,25.0959761 36.4497761,24.2366097 36.5837054,23.7232143 C36.6618307,23.4553558 36.8292398,23.3214286 37.0859375,23.3214286 L40.1997768,23.3214286 C40.3225453,23.3214286 40.4341513,23.3632808 40.5345982,23.4469866 C40.6350451,23.5306924 40.6908482,23.6283477 40.7020089,23.7399554 L41.0870536,26.3013393 C41.4665198,26.412947 41.8850424,26.5859363 42.3426339,26.8203125 L44.3180804,25.3303571 C44.4073665,25.2522318 44.5189725,25.2131696 44.6529018,25.2131696 C44.7756703,25.2131696 44.8928566,25.2578121 45.0044643,25.3470982 C46.6116152,26.8314806 47.4151786,27.7243289 47.4151786,28.0256696 C47.4151786,28.1149558 47.3761165,28.2209815 47.2979911,28.34375 C47.1640618,28.5223223 46.9296892,28.8236586 46.5948661,29.2477679 C46.260043,29.6718771 46.0089294,30.0066952 45.8415179,30.2522321 C46.0982156,30.7879491 46.2879458,31.2455338 46.4107143,31.625 L48.9553571,32.0100446 C49.0669648,32.0323662 49.16183,32.0909593 49.2399554,32.1858259 C49.3180807,32.2806924 49.3571429,32.3895083 49.3571429,32.5122768 Z M60.0714286,41.4352679 L60.0714286,43.7790179 C60.0714286,43.9575902 59.2399637,44.1305795 57.5770089,44.2979911 C57.4430797,44.5993319 57.2756706,44.8895075 57.0747768,45.1685268 C57.6439761,46.4296938 57.9285714,47.1997754 57.9285714,47.4787946 C57.9285714,47.5234377 57.9062502,47.5624998 57.8616071,47.5959821 C56.4999932,48.3883968 55.8080358,48.7845982 55.7857143,48.7845982 C55.6964281,48.7845982 55.4397343,48.5223241 55.015625,47.9977679 C54.5915157,47.4732117 54.3013401,47.0937512 54.1450893,46.859375 C53.9218739,46.8816965 53.7544648,46.8928571 53.6428571,46.8928571 C53.5312494,46.8928571 53.3638404,46.8816965 53.140625,46.859375 C52.9843742,47.0937512 52.6941985,47.4732117 52.2700893,47.9977679 C51.84598,48.5223241 51.5892862,48.7845982 51.5,48.7845982 C51.4776785,48.7845982 50.7857211,48.3883968 49.4241071,47.5959821 C49.3794641,47.5624998 49.3571429,47.5234377 49.3571429,47.4787946 C49.3571429,47.1997754 49.6417382,46.4296938 50.2109375,45.1685268 C50.0100436,44.8895075 49.8426346,44.5993319 49.7087054,44.2979911 C48.0457506,44.1305795 47.2142857,43.9575902 47.2142857,43.7790179 L47.2142857,41.4352679 C47.2142857,41.2566955 48.0457506,41.0837062 49.7087054,40.9162946 C49.8537954,40.5926323 50.0212044,40.3024566 50.2109375,40.0457589 C49.6417382,38.7845919 49.3571429,38.0145103 49.3571429,37.7354911 C49.3571429,37.690848 49.3794641,37.6517859 49.4241071,37.6183036 C49.4687502,37.595982 49.6640608,37.484376 50.0100446,37.2834821 C50.3560285,37.0825883 50.6852663,36.892858 50.9977679,36.7142857 C51.3102694,36.5357134 51.4776785,36.4464286 51.5,36.4464286 C51.5892862,36.4464286 51.84598,36.7059126 52.2700893,37.2248884 C52.6941985,37.7438642 52.9843742,38.1205345 53.140625,38.3549107 C53.3638404,38.3325892 53.5312494,38.3214286 53.6428571,38.3214286 C53.7544648,38.3214286 53.9218739,38.3325892 54.1450893,38.3549107 C54.7142886,37.562496 55.2276763,36.9375023 55.6852679,36.4799107 L55.7857143,36.4464286 C55.8303574,36.4464286 56.5223147,36.8370497 57.8616071,37.6183036 C57.9062502,37.6517859 57.9285714,37.690848 57.9285714,37.7354911 C57.9285714,38.0145103 57.6439761,38.7845919 57.0747768,40.0457589 C57.2645099,40.3024566 57.4319189,40.5926323 57.5770089,40.9162946 C59.2399637,41.0837062 60.0714286,41.2566955 60.0714286,41.4352679 Z M60.0714286,24.2924107 L60.0714286,26.6361607 C60.0714286,26.814733 59.2399637,26.9877224 57.5770089,27.1551339 C57.4430797,27.4564747 57.2756706,27.7466504 57.0747768,28.0256696 C57.6439761,29.2868367 57.9285714,30.0569182 57.9285714,30.3359375 C57.9285714,30.3805806 57.9062502,30.4196427 57.8616071,30.453125 C56.4999932,31.2455397 55.8080358,31.6417411 55.7857143,31.6417411 C55.6964281,31.6417411 55.4397343,31.3794669 55.015625,30.8549107 C54.5915157,30.3303545 54.3013401,29.950894 54.1450893,29.7165179 C53.9218739,29.7388394 53.7544648,29.75 53.6428571,29.75 C53.5312494,29.75 53.3638404,29.7388394 53.140625,29.7165179 C52.9843742,29.950894 52.6941985,30.3303545 52.2700893,30.8549107 C51.84598,31.3794669 51.5892862,31.6417411 51.5,31.6417411 C51.4776785,31.6417411 50.7857211,31.2455397 49.4241071,30.453125 C49.3794641,30.4196427 49.3571429,30.3805806 49.3571429,30.3359375 C49.3571429,30.0569182 49.6417382,29.2868367 50.2109375,28.0256696 C50.0100436,27.7466504 49.8426346,27.4564747 49.7087054,27.1551339 C48.0457506,26.9877224 47.2142857,26.814733 47.2142857,26.6361607 L47.2142857,24.2924107 C47.2142857,24.1138384 48.0457506,23.9408491 49.7087054,23.7734375 C49.8537954,23.4497752 50.0212044,23.1595995 50.2109375,22.9029018 C49.6417382,21.6417348 49.3571429,20.8716532 49.3571429,20.5926339 C49.3571429,20.5479908 49.3794641,20.5089287 49.4241071,20.4754464 C49.4687502,20.4531249 49.6640608,20.3415189 50.0100446,20.140625 C50.3560285,19.9397311 50.6852663,19.7500009 50.9977679,19.5714286 C51.3102694,19.3928562 51.4776785,19.3035714 51.5,19.3035714 C51.5892862,19.3035714 51.84598,19.5630554 52.2700893,20.0820312 C52.6941985,20.6010071 52.9843742,20.9776774 53.140625,21.2120536 C53.3638404,21.189732 53.5312494,21.1785714 53.6428571,21.1785714 C53.7544648,21.1785714 53.9218739,21.189732 54.1450893,21.2120536 C54.7142886,20.4196389 55.2276763,19.7946451 55.6852679,19.3370536 L55.7857143,19.3035714 C55.8303574,19.3035714 56.5223147,19.6941925 57.8616071,20.4754464 C57.9062502,20.5089287 57.9285714,20.5479908 57.9285714,20.5926339 C57.9285714,20.8716532 57.6439761,21.6417348 57.0747768,22.9029018 C57.2645099,23.1595995 57.4319189,23.4497752 57.5770089,23.7734375 C59.2399637,23.9408491 60.0714286,24.1138384 60.0714286,24.2924107 Z" id="" fill="#BBC2C7"></path>
                    <rect id="Rectangle-4" fill="#BBC2C7" x="7.54285714" y="67.5" width="72.9142857" height="3.75" rx="1.25"></rect>
                    <rect id="Rectangle-4-Copy-12" fill="#BBC2C7" x="7.54285714" y="73.75" width="72.9142857" height="3.75" rx="1.25"></rect>
                    <rect id="Rectangle-4-Copy-13" fill="#BBC2C7" x="7.54285714" y="80" width="72.9142857" height="3.75" rx="1.25"></rect>
                    <rect id="Rectangle-4-Copy-14" fill="#BBC2C7" x="7.54285714" y="91.25" width="72.9142857" height="3.75" rx="1.25"></rect>
                    <rect id="Rectangle-4-Copy-15" fill="#BBC2C7" x="7.54285714" y="97.5" width="72.9142857" height="2.5" rx="1.25"></rect>
                </g>
                <g id="Group-5-Copy-2" transform="translate(146.000000, 61.000000) rotate(15.000000) translate(-146.000000, -61.000000) translate(102.000000, 11.000000)">
                    <rect id="Rectangle-3" stroke="#BBC2C7" stroke-width="2" fill="#FFFFFF" x="-1.42108547e-14" y="1.77635684e-14" width="88" height="100" rx="4"></rect>
                    <path d="M54.7142857,42.4564732 C54.7142857,43.6729972 54.3655169,44.7165135 53.6679688,45.5870536 C52.9704206,46.4575936 52.1305853,46.8928571 51.1484375,46.8928571 L36.8515625,46.8928571 C35.8694147,46.8928571 35.0295794,46.4575936 34.3320313,45.5870536 C33.6344831,44.7165135 33.2857143,43.6729972 33.2857143,42.4564732 C33.2857143,41.5078078 33.3331468,40.6121694 33.4280134,39.7695312 C33.5228799,38.9268931 33.6986594,38.0786873 33.9553571,37.2248884 C34.2120549,36.3710895 34.5385025,35.64007 34.9347098,35.031808 C35.3309172,34.4235461 35.8554655,33.9268992 36.5083705,33.5418527 C37.1612756,33.1568061 37.9118261,32.9642857 38.7600446,32.9642857 C40.2221055,34.3928643 41.9687398,35.1071429 44,35.1071429 C46.0312602,35.1071429 47.7778945,34.3928643 49.2399554,32.9642857 C50.0881739,32.9642857 50.8387244,33.1568061 51.4916295,33.5418527 C52.1445345,33.9268992 52.6690828,34.4235461 53.0652902,35.031808 C53.4614975,35.64007 53.7879451,36.3710895 54.0446429,37.2248884 C54.3013406,38.0786873 54.4771201,38.9268931 54.5719866,39.7695312 C54.6668532,40.6121694 54.7142857,41.5078078 54.7142857,42.4564732 Z M50.4285714,27.6071429 C50.4285714,29.3817053 49.8007875,30.8967571 48.5452009,32.1523438 C47.2896143,33.4079304 45.7745624,34.0357143 44,34.0357143 C42.2254376,34.0357143 40.7103857,33.4079304 39.4547991,32.1523438 C38.1992125,30.8967571 37.5714286,29.3817053 37.5714286,27.6071429 C37.5714286,25.8325804 38.1992125,24.3175286 39.4547991,23.061942 C40.7103857,21.8063553 42.2254376,21.1785714 44,21.1785714 C45.7745624,21.1785714 47.2896143,21.8063553 48.5452009,23.061942 C49.8007875,24.3175286 50.4285714,25.8325804 50.4285714,27.6071429 Z" id="" fill="#BBC2C7"></path>
                    <rect id="Rectangle-4" fill="#BBC2C7" x="7.54285714" y="67.5" width="72.9142857" height="3.75" rx="1.25"></rect>
                    <rect id="Rectangle-4-Copy-12" fill="#BBC2C7" x="7.54285714" y="73.75" width="72.9142857" height="3.75" rx="1.25"></rect>
                    <rect id="Rectangle-4-Copy-13" fill="#BBC2C7" x="7.54285714" y="80" width="72.9142857" height="3.75" rx="1.25"></rect>
                    <rect id="Rectangle-4-Copy-14" fill="#BBC2C7" x="7.54285714" y="91.25" width="72.9142857" height="3.75" rx="1.25"></rect>
                    <rect id="Rectangle-4-Copy-15" fill="#BBC2C7" x="7.54285714" y="97.5" width="72.9142857" height="2.5" rx="1.25"></rect>
                </g>
                <g id="Group-5" transform="translate(52.000000, 0.000000)">
                    <g id="Rectangle-3">
                        <use fill="#BAC2C7" fill-rule="evenodd" xlink:href="#path-1"></use>
                        <rect stroke="#535D65" stroke-width="2" x="-1" y="-1" width="100" height="142" rx="4"></rect>
                    </g>
                    <path d="M27,24.6428571 L27,32.5 C27,33.1845272 26.7544667,33.772319 26.2633929,34.2633929 C25.772319,34.7544667 25.1845272,35 24.5,35 L10.9285714,35 C10.2440442,35 9.65625246,34.7544667 9.16517857,34.2633929 C8.67410469,33.772319 8.42857143,33.1845272 8.42857143,32.5 L8.42857143,21.7857143 C8.42857143,21.1011871 8.67410469,20.5133953 9.16517857,20.0223214 C9.65625246,19.5312475 10.2440442,19.2857143 10.9285714,19.2857143 L14.5,19.2857143 C15.1845272,19.2857143 15.772319,19.5312475 16.2633929,20.0223214 C16.7544667,20.5133953 17,21.1011871 17,21.7857143 L17,22.1428571 L24.5,22.1428571 C25.1845272,22.1428571 25.772319,22.3883904 26.2633929,22.8794643 C26.7544667,23.3705382 27,23.9583299 27,24.6428571 Z" id="" fill="#5E676F"></path>
                    <path d="M27,52.6428571 L27,60.5 C27,61.1845272 26.7544667,61.772319 26.2633929,62.2633929 C25.772319,62.7544667 25.1845272,63 24.5,63 L10.9285714,63 C10.2440442,63 9.65625246,62.7544667 9.16517857,62.2633929 C8.67410469,61.772319 8.42857143,61.1845272 8.42857143,60.5 L8.42857143,49.7857143 C8.42857143,49.1011871 8.67410469,48.5133953 9.16517857,48.0223214 C9.65625246,47.5312475 10.2440442,47.2857143 10.9285714,47.2857143 L14.5,47.2857143 C15.1845272,47.2857143 15.772319,47.5312475 16.2633929,48.0223214 C16.7544667,48.5133953 17,49.1011871 17,49.7857143 L17,50.1428571 L24.5,50.1428571 C25.1845272,50.1428571 25.772319,50.3883904 26.2633929,50.8794643 C26.7544667,51.3705382 27,51.9583299 27,52.6428571 Z" id="-copy" fill="#5E676F" opacity="0.200000003"></path>
                    <path d="M27,80.6428571 L27,88.5 C27,89.1845272 26.7544667,89.772319 26.2633929,90.2633929 C25.772319,90.7544667 25.1845272,91 24.5,91 L10.9285714,91 C10.2440442,91 9.65625246,90.7544667 9.16517857,90.2633929 C8.67410469,89.772319 8.42857143,89.1845272 8.42857143,88.5 L8.42857143,77.7857143 C8.42857143,77.1011871 8.67410469,76.5133953 9.16517857,76.0223214 C9.65625246,75.5312475 10.2440442,75.2857143 10.9285714,75.2857143 L14.5,75.2857143 C15.1845272,75.2857143 15.772319,75.5312475 16.2633929,76.0223214 C16.7544667,76.5133953 17,77.1011871 17,77.7857143 L17,78.1428571 L24.5,78.1428571 C25.1845272,78.1428571 25.772319,78.3883904 26.2633929,78.8794643 C26.7544667,79.3705382 27,79.9583299 27,80.6428571 Z" id="-copy-2" fill="#5E676F" opacity="0.200000003"></path>
                    <path d="M27,108.642857 L27,116.5 C27,117.184527 26.7544667,117.772319 26.2633929,118.263393 C25.772319,118.754467 25.1845272,119 24.5,119 L10.9285714,119 C10.2440442,119 9.65625246,118.754467 9.16517857,118.263393 C8.67410469,117.772319 8.42857143,117.184527 8.42857143,116.5 L8.42857143,105.785714 C8.42857143,105.101187 8.67410469,104.513395 9.16517857,104.022321 C9.65625246,103.531248 10.2440442,103.285714 10.9285714,103.285714 L14.5,103.285714 C15.1845272,103.285714 15.772319,103.531248 16.2633929,104.022321 C16.7544667,104.513395 17,105.101187 17,105.785714 L17,106.142857 L24.5,106.142857 C25.1845272,106.142857 25.772319,106.38839 26.2633929,106.879464 C26.7544667,107.370538 27,107.95833 27,108.642857 Z" id="-copy-3" fill="#5E676F" opacity="0.200000003"></path>
                    <rect id="Rectangle-4" fill="#535D65" x="32.2" y="18.2" width="57.4" height="4.2" rx="1.4"></rect>
                    <rect id="Rectangle-4-Copy" fill="#535D65" x="32.2" y="25.2" width="57.4" height="4.2" rx="1.4"></rect>
                    <rect id="Rectangle-4-Copy-2" fill="#535D65" x="32.2" y="32.2" width="28" height="4.2" rx="1.4"></rect>
                    <rect id="Rectangle-4-Copy-5" fill="#535D65" opacity="0.200000003" x="32.2" y="46.2" width="57.4" height="4.2" rx="1.4"></rect>
                    <rect id="Rectangle-4-Copy-4" fill="#535D65" opacity="0.200000003" x="32.2" y="53.2" width="57.4" height="4.2" rx="1.4"></rect>
                    <rect id="Rectangle-4-Copy-3" fill="#535D65" opacity="0.200000003" x="32.2" y="60.2" width="19.6" height="4.2" rx="1.4"></rect>
                    <rect id="Rectangle-4-Copy-8" fill="#535D65" opacity="0.200000003" x="32.2" y="74.2" width="57.4" height="4.2" rx="1.4"></rect>
                    <rect id="Rectangle-4-Copy-7" fill="#535D65" opacity="0.200000003" x="32.2" y="81.2" width="57.4" height="4.2" rx="1.4"></rect>
                    <rect id="Rectangle-4-Copy-6" fill="#535D65" opacity="0.200000003" x="32.2" y="88.2" width="42" height="4.2" rx="1.4"></rect>
                    <rect id="Rectangle-4-Copy-11" fill="#535D65" opacity="0.200000003" x="32.2" y="102.2" width="57.4" height="4.2" rx="1.4"></rect>
                    <rect id="Rectangle-4-Copy-10" fill="#535D65" opacity="0.200000003" x="32.2" y="109.2" width="57.4" height="4.2" rx="1.4"></rect>
                    <rect id="Rectangle-4-Copy-9" fill="#535D65" opacity="0.200000003" x="32.2" y="116.2" width="14" height="4.2" rx="1.4"></rect>
                </g>
            </g>
        </g>
    </g>
</svg>