<?xml version="1.0" encoding="UTF-8"?>
<svg width="202px" height="202px" viewBox="0 0 202 202" version="1.1" xmlns="http://www.w3.org/2000/svg" xmlns:xlink="http://www.w3.org/1999/xlink">
    <!-- Generator: Sketch 42 (36781) - http://www.bohemiancoding.com/sketch -->
    <title>Group 20 Copy</title>
    <desc>Created with Sketch.</desc>
    <defs></defs>
    <g id="Page-1" stroke="none" stroke-width="1" fill="none" fill-rule="evenodd">
        <g id="Group-20-Copy" transform="translate(1.000000, 1.000000)">
            <circle id="Oval-Copy-2" stroke="#40C681" stroke-width="2" fill-opacity="0.1" fill="#93DFB8" cx="100" cy="100" r="100"></circle>
            <path d="M133,58 L133,118" id="Path-7" stroke="#93DFB8" stroke-width="2" stroke-linecap="round" stroke-linejoin="round" stroke-dasharray="4"></path>
            <path d="M91,92 L133,92" id="Path-8" stroke="#93DFB8" stroke-width="2" stroke-linecap="round" stroke-linejoin="round" stroke-dasharray="4"></path>
            <path d="M77,102 L77,162" id="Path-7-Copy" stroke="#93DFB8" stroke-width="2" stroke-linecap="round" stroke-linejoin="round" stroke-dasharray="4"></path>
            <path d="M81,132 L123,132" id="Path-8" stroke="#93DFB8" stroke-width="2" stroke-linecap="round" stroke-linejoin="round" stroke-dasharray="4"></path>
            <g id="Group" transform="translate(122.000000, 0.000000)">
                <path d="M40.7590335,46.2344841 C38.1239191,45.4631509 33.7213826,44.1715561 33.0379082,43.4985808 C32.5386514,43.0042028 30.3337021,41.2026998 30.0747294,39.1164765 C27.5811156,40.9542166 26.7050903,41.9792097 23.9925511,41.9792097 C21.1972475,41.9792097 20.2304482,40.9024493 17.683438,39 C17.3043233,41.034456 14.9845716,42.9783192 14.3731824,43.5710551 C13.6763588,44.2466187 9.64759739,45.4527974 7.24475757,46.1723633 C2.27354896,47.660674 0.823835601,48.1395217 0.479428559,49.306875 C0.460739805,49.3767609 -1.03436053,56.4921801 1.35246036,57.4162269 C3.4295819,58.2237972 45.8744125,58.2755646 47.1399081,57.0486789 C48.341328,55.883914 48.1571103,49.8970225 47.3641731,48.8280272 C46.8035105,48.0722242 45.5326752,47.6322019 40.7590335,46.2344841 Z" id="Fill-311" stroke="#40C681" stroke-width="2" fill="#93DFB8"></path>
                <g id="Group-20" transform="translate(7.000000, 0.000000)">
                    <path d="M29.7897575,27.3897822 C29.6415998,27.4791162 29.2828083,27.4773295 28.9579323,27.4237291 L28.2439192,27.2968749 L27.9761643,27.9704528 C27.9190433,28.0794401 27.8030162,28.302775 27.8119413,28.602937 C27.956529,32.5139763 23.5849839,37.3701686 20.6896609,39.6124502 C19.822135,40.5468831 18.4690803,41.0828867 16.9714378,41.0828867 C15.5023559,41.0828867 14.1475161,40.5450964 13.2192991,39.5284763 C10.0687165,37.1504072 6.34870834,32.8534452 6.23982135,28.5600567 C6.23089618,28.2974149 6.13093435,28.0973069 6.06667318,27.9686661 L5.79534821,27.2825815 L5.07240997,27.4201558 C4.73682383,27.4809028 4.36196697,27.4809028 4.21023919,27.3879955 C3.56048729,26.9806328 2.38593579,23.7395979 2.36451539,21.8957457 C2.35023513,20.6700842 2.65904579,20.3413353 2.7090267,20.3324019 C4.01388559,20.3324019 4.10849232,20.3056018 4.21202422,20.2770149 L4.88319651,20.0912003 L4.86534618,19.3943957 C4.86356115,19.3533021 4.8225054,19.1138872 4.75467416,18.7833516 C4.98315834,17.0842203 6.09880377,12.428136 8.53358835,10.966633 C9.95982946,10.1108139 10.6667024,9.85710558 10.9897933,9.78385176 C10.9630178,10.0893738 10.8559159,10.566417 10.7845146,10.8826591 C10.5399651,11.9618129 10.263285,13.183901 11.0897551,13.8681989 C11.846609,14.4971098 12.9283388,14.1487075 13.7869395,13.773505 C18.2423811,11.8313854 19.7578739,11.9850397 21.6696439,12.1744277 C22.5282446,12.2619749 23.5010874,12.3620289 24.788096,12.2834151 C25.6966776,12.2351747 26.5160076,12.4924564 27.1782547,13.0892071 C29.107875,14.829432 29.3113688,18.6886577 29.3131538,18.7279646 L29.325649,18.7779916 C29.214977,19.1728476 29.1917716,19.2764749 29.1882015,19.4069025 L29.1703512,20.1215739 L29.8647289,20.293095 C29.9861111,20.3252552 30.0468022,20.3252552 31.2856149,20.3324019 C31.342736,20.3413353 31.6497616,20.6736575 31.6354813,21.8957457 C31.615846,23.7395979 30.4412945,26.9806328 29.7897575,27.3897822 L29.7897575,27.3897822 Z" id="Fill-917" fill="#E7DFDA"></path>
                    <path d="M32.5958289,19.1049538 C33.1652543,19.6802643 33.4347943,20.6004037 33.420514,21.9153991 C33.4026637,23.744958 32.2548877,27.9543727 30.7358249,28.903099 C30.414519,29.1049936 30.0271669,29.2211277 29.5862638,29.2479279 C29.2917334,33.6860375 24.9148333,38.6011902 21.8856328,40.9292323 C20.7931928,42.1245203 18.9617493,42.8695652 16.9714378,42.8695652 C14.9739863,42.8695652 13.1675332,42.1280936 12.0161871,40.8381117 C10.9273172,40.0376797 5.03492429,35.2958348 4.49048932,29.2515013 C4.01745566,29.2336345 3.60332808,29.1157137 3.26238683,28.9013123 C1.74867912,27.9561593 0.599118071,23.7467447 0.579482711,21.9153991 C0.56520245,20.6004037 0.836527417,19.6820509 1.40416781,19.1067405 C1.88612663,18.6189772 2.42877657,18.5457234 2.7090267,18.5457234 L2.88217487,18.5439367 C2.28597396,15.7281313 1.67549278,12.4120559 1.91111709,10.677191 C2.33238481,7.52727675 3.79075651,5.92998612 5.33302475,4.23800153 C7.82493037,1.50974338 11.8840947,0.00714671422 16.764374,0.00714671422 L17.4069858,0.0107200713 L18.8064514,4.54747351e-13 C20.3987006,4.54747351e-13 23.6081894,4.54747351e-13 24.8755626,2.72289812 C31.510529,3.30178197 31.9657124,7.85781228 32.1888415,10.0786537 C32.2227571,10.4288427 32.2531026,10.7397248 32.3030835,10.9898598 C32.6654452,12.772965 31.9603573,15.8871457 31.2409891,18.5457234 L31.2927551,18.5457234 C31.5730052,18.5457234 32.1156551,18.6171905 32.5958289,19.1049538 Z M29.7897575,27.3897822 C30.4412945,26.9806328 31.615846,23.7395979 31.6354813,21.8957457 C31.6497616,20.6736575 31.342736,20.3413353 31.2856149,20.3324019 C30.0468022,20.3252552 29.9861111,20.3252552 29.8647289,20.293095 L29.1703512,20.1215739 L29.1882015,19.4069025 C29.1917716,19.2764749 29.214977,19.1728476 29.325649,18.7779916 L29.3131538,18.7279646 C29.3113688,18.6886577 29.107875,14.829432 27.1782547,13.0892071 C26.5160076,12.4924564 25.6966776,12.2351747 24.788096,12.2834151 C23.5010874,12.3620289 22.5282446,12.2619749 21.6696439,12.1744277 C19.7578739,11.9850397 18.2423811,11.8313854 13.7869395,13.773505 C12.9283388,14.1487075 11.846609,14.4971098 11.0897551,13.8681989 C10.263285,13.183901 10.5399651,11.9618129 10.7845146,10.8826591 C10.8559159,10.566417 10.9630178,10.0893738 10.9897933,9.78385176 C10.6667024,9.85710558 9.95982946,10.1108139 8.53358835,10.966633 C6.09880377,12.428136 4.98315834,17.0842203 4.75467416,18.7833516 C4.8225054,19.1138872 4.86356115,19.3533021 4.86534618,19.3943957 L4.88319651,20.0912003 L4.21202422,20.2770149 C4.10849232,20.3056018 4.01388559,20.3324019 2.7090267,20.3324019 C2.65904579,20.3413353 2.35023513,20.6700842 2.36451539,21.8957457 C2.38593579,23.7395979 3.56048729,26.9806328 4.21023919,27.3879955 C4.36196697,27.4809028 4.73682383,27.4809028 5.07240997,27.4201558 L5.79534821,27.2825815 L6.06667318,27.9686661 C6.13093435,28.0973069 6.23089618,28.2974149 6.23982135,28.5600567 C6.34870834,32.8534452 10.0687165,37.1504072 13.2192991,39.5284763 C14.1475161,40.5450964 15.5023559,41.0828867 16.9714378,41.0828867 C18.4690803,41.0828867 19.822135,40.5468831 20.6896609,39.6124502 C23.5849839,37.3701686 27.956529,32.5139763 27.8119413,28.602937 C27.8030162,28.302775 27.9190433,28.0794401 27.9761643,27.9704528 L28.2439192,27.2968749 L28.9579323,27.4237291 C29.2828083,27.4773295 29.6415998,27.4791162 29.7897575,27.3897822 Z M25.9769277,18.7351113 C26.4695967,18.7636982 26.8444536,19.1853543 26.8158931,19.6784776 C26.7891176,20.1537341 26.3964104,20.5200032 25.9251618,20.5200032 L25.8751809,20.5182165 L23.8420286,20.4020824 C24.0847931,20.7076044 24.2508011,21.0774469 24.2508011,21.4973164 C24.2508011,22.4835629 23.4511065,23.2839949 22.4657684,23.2839949 C21.4804304,23.2839949 20.6807358,22.4835629 20.6807358,21.4973164 C20.6807358,21.0113398 20.8788744,20.5718169 21.1930401,20.2502147 L20.5200828,20.2109078 C20.0256288,20.1841076 19.6507719,19.7606648 19.6793324,19.2693282 C19.7078929,18.7779916 20.1023852,18.4099358 20.6218297,18.4278026 L25.9769277,18.7351113 Z M15.2149657,30.3753221 C14.7222967,30.3753221 14.3224493,29.9751061 14.3224493,29.4819828 C14.3224493,28.9888595 14.7222967,28.5886435 15.2149657,28.5886435 L18.785031,28.5886435 C19.2777001,28.5886435 19.6775474,28.9888595 19.6775474,29.4819828 C19.6775474,29.9751061 19.2777001,30.3753221 18.785031,30.3753221 L15.2149657,30.3753221 Z M20.1416559,34.0576666 C20.5736338,33.821825 21.1144987,33.9808394 21.350123,34.4132156 C21.5875324,34.8438052 21.4304495,35.3869554 21.0002566,35.6245837 C20.9270703,35.6656773 19.1581029,36.628697 16.9999984,36.628697 C14.8418938,36.628697 13.0729265,35.6656773 12.9997401,35.6245837 C12.5695472,35.3869554 12.4124644,34.8438052 12.6480887,34.4132156 C12.885498,33.9808394 13.4263629,33.821825 13.8583408,34.0576666 C13.8726211,34.0666 15.3167125,34.8420185 16.9999984,34.8420185 C18.6832842,34.8420185 20.1273756,34.0666 20.1416559,34.0576666 Z M13.540605,21.4973164 C13.540605,22.4835629 12.7409104,23.2839949 11.7555723,23.2839949 C10.7702343,23.2839949 9.97053966,22.4835629 9.97053966,21.4973164 C9.97053966,21.0703002 10.1419028,20.6950977 10.3882373,20.3895757 L8.12481586,20.5182165 L8.07483495,20.5200032 C7.60358632,20.5200032 7.20909409,20.1537341 7.18410364,19.6784776 C7.15554311,19.1853543 7.53039998,18.7636982 8.02485403,18.7351113 L13.3799521,18.4278026 C13.9422374,18.4099358 14.2938888,18.7779916 14.3206643,19.2693282 C14.3492248,19.7606648 13.974368,20.1841076 13.4799139,20.2109078 L13.0193755,20.237708 C13.3406814,20.5610968 13.540605,21.0059798 13.540605,21.4973164 Z" id="Combined-Shape" fill="#40C681"></path>
                </g>
            </g>
            <rect id="Rectangle-12-Copy" stroke="#BBC2C7" stroke-width="2" fill="#FFFFFF" x="100" y="33" width="44" height="28" rx="4"></rect>
            <circle id="Oval-3-Copy" fill="#EFF0F1" cx="122" cy="47" r="5"></circle>
            <g id="Group" transform="translate(20.000000, 44.000000)">
                <path d="M40.7590335,46.2344841 C38.1239191,45.4631509 33.7213826,44.1715561 33.0379082,43.4985808 C32.5386514,43.0042028 30.3337021,41.2026998 30.0747294,39.1164765 C27.5811156,40.9542166 26.7050903,41.9792097 23.9925511,41.9792097 C21.1972475,41.9792097 20.2304482,40.9024493 17.683438,39 C17.3043233,41.034456 14.9845716,42.9783192 14.3731824,43.5710551 C13.6763588,44.2466187 9.64759739,45.4527974 7.24475757,46.1723633 C2.27354896,47.660674 0.823835601,48.1395217 0.479428559,49.306875 C0.460739805,49.3767609 -1.03436053,56.4921801 1.35246036,57.4162269 C3.4295819,58.2237972 45.8744125,58.2755646 47.1399081,57.0486789 C48.341328,55.883914 48.1571103,49.8970225 47.3641731,48.8280272 C46.8035105,48.0722242 45.5326752,47.6322019 40.7590335,46.2344841 Z" id="Fill-311" stroke="#40C681" stroke-width="2" fill="#93DFB8"></path>
                <g transform="translate(5.000000, 0.000000)">
                    <path d="M18.9622,41.18325 C17.9308,41.1725 16.9444,40.6762083 15.9814,39.6262917 C14.4226,38.4563333 9.253,34.19575 8.1748,28.5018333 C8.065,27.85325 7.5844,24.17675 7.921,22.2166667 C8.4934,20.5557917 9.5176,17.592375 9.9172,17.3092917 L10.2214,17.312875 C11.4292,17.3809583 12.9736,17.2215 16.0282,14.6056667 C16.3864,14.2975 16.5556,14.2097083 16.5574,14.1810417 C16.66,14.2419583 16.8778,14.4462083 17.0542,14.6110417 C18.2854,15.7559167 20.575,17.8897917 27.91,18.9594167 C28.1026,18.9880833 28.1098,18.989875 28.3564,19.548875 C28.6552,20.2243333 29.1322,21.2276667 30.4156,22.3671667 C30.6784,24.1731667 30.2464,27.0989583 29.962,28.466 C28.8784,33.9252083 24.0976,38.0765 21.9808,39.7105 C21.0718,40.683375 20.0998,41.156375 18.9622,41.18325 L18.9622,41.18325 Z" id="Fill-953-Copy" fill="#F0EFEA"></path>
                    <path d="M37.8676,37.8901667 C37.9522,38.3219583 37.7092,38.7519583 37.2934,38.9024583 C37.0522,38.99025 31.3318,41.0435 22.6234,41.538 C21.5758,42.435625 20.2996,42.9749167 18.9928,42.9749167 L18.9442,42.9749167 C17.6824,42.962375 16.462,42.4445833 15.418,41.5415833 C6.6808,41.05425 0.9478,38.9920417 0.7048,38.9024583 C0.2854,38.7501667 0.0442,38.3147917 0.136,37.8794167 C0.1558,37.7790833 2.2384,27.7152917 2.0908,18.8160833 C2.3428,14.7669167 2.9314,5.44666667 10.8388,1.66625 C11.6398,1.284625 12.52,1.30075 13.3858,1.30254167 C13.9708,1.30970833 14.527,1.31329167 14.9878,1.19504167 C15.4216,1.08216667 15.823,0.908375 16.2262,0.736375 C17.0236,0.399541667 17.9218,0.0179166667 19.0396,0.0179166667 C23.9806,0.0179166667 27.9802,1.55158333 30.9304,4.57770833 C36.2566,10.0405 36.1684,18.2122917 36.1396,19.1278333 C35.8444,27.5110417 37.8478,37.78625 37.8676,37.8901667 Z M18.9622,41.18325 C20.0998,41.156375 21.0718,40.683375 21.9808,39.7105 C24.0976,38.0765 28.8784,33.9252083 29.962,28.466 C30.2464,27.0989583 30.6784,24.1731667 30.4156,22.3671667 C29.1322,21.2276667 28.6552,20.2243333 28.3564,19.548875 C28.1098,18.989875 28.1026,18.9880833 27.91,18.9594167 C20.575,17.8897917 18.2854,15.7559167 17.0542,14.6110417 C16.8778,14.4462083 16.66,14.2419583 16.5574,14.1810417 C16.5556,14.2097083 16.3864,14.2975 16.0282,14.6056667 C12.9736,17.2215 11.4292,17.3809583 10.2214,17.312875 L9.9172,17.3092917 C9.5176,17.592375 8.4934,20.5557917 7.921,22.2166667 C7.5844,24.17675 8.065,27.85325 8.1748,28.5018333 C9.253,34.19575 14.4226,38.4563333 15.9814,39.6262917 C16.9444,40.6762083 17.9308,41.1725 18.9622,41.18325 Z M23.0194,34.5487083 C23.257,34.9805 23.0986,35.5251667 22.6648,35.7616667 C22.5982,35.7992917 20.9944,36.6664583 19.0396,36.6664583 C17.0884,36.6664583 15.4828,35.7992917 15.4162,35.7616667 C14.9824,35.5251667 14.824,34.9805 15.0634,34.5487083 C15.2974,34.115125 15.8464,33.9574583 16.282,34.1921667 C16.2946,34.1975417 17.5636,34.8747917 19.0396,34.8747917 C20.5174,34.8747917 21.7864,34.1975417 21.799,34.1921667 C22.2346,33.9574583 22.7818,34.115125 23.0194,34.5487083 Z M22.7476,22.9405 C22.2544,22.9960417 21.8044,22.65025 21.7486,22.15575 C21.6874,21.6648333 22.042,21.2187083 22.5334,21.1595833 C22.6324,21.1488333 24.9616,20.8747083 26.1838,20.8747083 C27.5212,20.8747083 28.4662,21.8529583 28.8136,22.429875 C29.0692,22.8545 28.9288,23.4045417 28.5022,23.6589583 L28.0396,23.784375 C27.7354,23.784375 27.4348,23.6285 27.2674,23.349 C27.2674,23.349 26.8318,22.666375 26.1838,22.666375 C25.9858,22.666375 25.7446,22.677125 25.4908,22.6914583 C26.1622,23.0354583 26.6338,23.7109167 26.6338,24.5135833 C26.6338,25.6584583 25.7032,25.7444583 24.553,25.7444583 C23.401,25.7444583 22.4704,25.6584583 22.4704,24.5135833 C22.4704,23.8291667 22.825,23.25225 23.338,22.8742083 C22.996,22.9118333 22.7548,22.9387083 22.7476,22.9405 Z M18.1414,32.23925 C17.6428,32.23925 17.2396,31.8379167 17.2396,31.3434167 C17.2396,30.8489167 17.6428,30.4475833 18.1414,30.4475833 L19.9396,30.4475833 C20.4382,30.4475833 20.8414,30.8489167 20.8414,31.3434167 C20.8414,31.8379167 20.4382,32.23925 19.9396,32.23925 L18.1414,32.23925 Z M15.6106,24.5135833 C15.6106,25.6584583 14.68,25.7444583 13.528,25.7444583 C12.3796,25.7444583 11.4472,25.6584583 11.4472,24.5135833 C11.4472,23.7109167 11.9188,23.0354583 12.5902,22.6914583 C12.3364,22.677125 12.0952,22.666375 11.8972,22.666375 C11.2492,22.666375 10.8118,23.349 10.8082,23.3561667 C10.639,23.6285 10.342,23.779 10.0396,23.779 L9.5734,23.65 C9.154,23.3937917 9.0136,22.8509167 9.2674,22.429875 C9.6148,21.8529583 10.558,20.8747083 11.8972,20.8747083 C13.1212,20.8747083 15.4486,21.1488333 15.5476,21.1595833 C16.039,21.2187083 16.3936,21.6648333 16.3342,22.15575 C16.2748,22.65025 15.8284,23.005 15.3334,22.9405 C15.3262,22.9387083 15.085,22.9118333 14.743,22.8742083 C15.256,23.25225 15.6106,23.8291667 15.6106,24.5135833 Z" id="Combined-Shape" fill="#40C681"></path>
                </g>
            </g>
            <rect id="Rectangle-12-Copy-3" stroke="#BBC2C7" stroke-width="2" fill="#FFFFFF" x="46" y="77" width="44" height="28" rx="4"></rect>
            <circle id="Oval-3-Copy-3" fill="#EFF0F1" cx="68" cy="91" r="5"></circle>
            <g id="Group-Copy-2" transform="translate(142.000000, 88.000000)">
                <path d="M40.7590335,46.2344841 C38.1239191,45.4631509 33.7213826,44.1715561 33.0379082,43.4985808 C32.5386514,43.0042028 30.3337021,41.2026998 30.0747294,39.1164765 C27.5811156,40.9542166 26.7050903,41.9792097 23.9925511,41.9792097 C21.1972475,41.9792097 20.2304482,40.9024493 17.683438,39 C17.3043233,41.034456 14.9845716,42.9783192 14.3731824,43.5710551 C13.6763588,44.2466187 9.64759739,45.4527974 7.24475757,46.1723633 C2.27354896,47.660674 0.823835601,48.1395217 0.479428559,49.306875 C0.460739805,49.3767609 -1.03436053,56.4921801 1.35246036,57.4162269 C3.4295819,58.2237972 45.8744125,58.2755646 47.1399081,57.0486789 C48.341328,55.883914 48.1571103,49.8970225 47.3641731,48.8280272 C46.8035105,48.0722242 45.5326752,47.6322019 40.7590335,46.2344841 Z" id="Fill-311" stroke="#40C681" stroke-width="2" fill="#93DFB8"></path>
                <g id="Group-20" transform="translate(7.000000, 0.000000)">
                    <path d="M29.7897575,27.3897822 C29.6415998,27.4791162 29.2828083,27.4773295 28.9579323,27.4237291 L28.2439192,27.2968749 L27.9761643,27.9704528 C27.9190433,28.0794401 27.8030162,28.302775 27.8119413,28.602937 C27.956529,32.5139763 23.5849839,37.3701686 20.6896609,39.6124502 C19.822135,40.5468831 18.4690803,41.0828867 16.9714378,41.0828867 C15.5023559,41.0828867 14.1475161,40.5450964 13.2192991,39.5284763 C10.0687165,37.1504072 6.34870834,32.8534452 6.23982135,28.5600567 C6.23089618,28.2974149 6.13093435,28.0973069 6.06667318,27.9686661 L5.79534821,27.2825815 L5.07240997,27.4201558 C4.73682383,27.4809028 4.36196697,27.4809028 4.21023919,27.3879955 C3.56048729,26.9806328 2.38593579,23.7395979 2.36451539,21.8957457 C2.35023513,20.6700842 2.65904579,20.3413353 2.7090267,20.3324019 C4.01388559,20.3324019 4.10849232,20.3056018 4.21202422,20.2770149 L4.88319651,20.0912003 L4.86534618,19.3943957 C4.86356115,19.3533021 4.8225054,19.1138872 4.75467416,18.7833516 C4.98315834,17.0842203 6.09880377,12.428136 8.53358835,10.966633 C9.95982946,10.1108139 10.6667024,9.85710558 10.9897933,9.78385176 C10.9630178,10.0893738 10.8559159,10.566417 10.7845146,10.8826591 C10.5399651,11.9618129 10.263285,13.183901 11.0897551,13.8681989 C11.846609,14.4971098 12.9283388,14.1487075 13.7869395,13.773505 C18.2423811,11.8313854 19.7578739,11.9850397 21.6696439,12.1744277 C22.5282446,12.2619749 23.5010874,12.3620289 24.788096,12.2834151 C25.6966776,12.2351747 26.5160076,12.4924564 27.1782547,13.0892071 C29.107875,14.829432 29.3113688,18.6886577 29.3131538,18.7279646 L29.325649,18.7779916 C29.214977,19.1728476 29.1917716,19.2764749 29.1882015,19.4069025 L29.1703512,20.1215739 L29.8647289,20.293095 C29.9861111,20.3252552 30.0468022,20.3252552 31.2856149,20.3324019 C31.342736,20.3413353 31.6497616,20.6736575 31.6354813,21.8957457 C31.615846,23.7395979 30.4412945,26.9806328 29.7897575,27.3897822 L29.7897575,27.3897822 Z" id="Fill-917" fill="#FFF6F1"></path>
                    <path d="M32.5958289,19.1049538 C33.1652543,19.6802643 33.4347943,20.6004037 33.420514,21.9153991 C33.4026637,23.744958 32.2548877,27.9543727 30.7358249,28.903099 C30.414519,29.1049936 30.0271669,29.2211277 29.5862638,29.2479279 C29.2917334,33.6860375 24.9148333,38.6011902 21.8856328,40.9292323 C20.7931928,42.1245203 18.9617493,42.8695652 16.9714378,42.8695652 C14.9739863,42.8695652 13.1675332,42.1280936 12.0161871,40.8381117 C10.9273172,40.0376797 5.03492429,35.2958348 4.49048932,29.2515013 C4.01745566,29.2336345 3.60332808,29.1157137 3.26238683,28.9013123 C1.74867912,27.9561593 0.599118071,23.7467447 0.579482711,21.9153991 C0.56520245,20.6004037 0.836527417,19.6820509 1.40416781,19.1067405 C1.88612663,18.6189772 2.42877657,18.5457234 2.7090267,18.5457234 L2.88217487,18.5439367 C2.28597396,15.7281313 1.67549278,12.4120559 1.91111709,10.677191 C2.33238481,7.52727675 3.79075651,5.92998612 5.33302475,4.23800153 C7.82493037,1.50974338 11.8840947,0.00714671422 16.764374,0.00714671422 L17.4069858,0.0107200713 L18.8064514,4.54747351e-13 C20.3987006,4.54747351e-13 23.6081894,4.54747351e-13 24.8755626,2.72289812 C31.510529,3.30178197 31.9657124,7.85781228 32.1888415,10.0786537 C32.2227571,10.4288427 32.2531026,10.7397248 32.3030835,10.9898598 C32.6654452,12.772965 31.9603573,15.8871457 31.2409891,18.5457234 L31.2927551,18.5457234 C31.5730052,18.5457234 32.1156551,18.6171905 32.5958289,19.1049538 Z M29.7897575,27.3897822 C30.4412945,26.9806328 31.615846,23.7395979 31.6354813,21.8957457 C31.6497616,20.6736575 31.342736,20.3413353 31.2856149,20.3324019 C30.0468022,20.3252552 29.9861111,20.3252552 29.8647289,20.293095 L29.1703512,20.1215739 L29.1882015,19.4069025 C29.1917716,19.2764749 29.214977,19.1728476 29.325649,18.7779916 L29.3131538,18.7279646 C29.3113688,18.6886577 29.107875,14.829432 27.1782547,13.0892071 C26.5160076,12.4924564 25.6966776,12.2351747 24.788096,12.2834151 C23.5010874,12.3620289 22.5282446,12.2619749 21.6696439,12.1744277 C19.7578739,11.9850397 18.2423811,11.8313854 13.7869395,13.773505 C12.9283388,14.1487075 11.846609,14.4971098 11.0897551,13.8681989 C10.263285,13.183901 10.5399651,11.9618129 10.7845146,10.8826591 C10.8559159,10.566417 10.9630178,10.0893738 10.9897933,9.78385176 C10.6667024,9.85710558 9.95982946,10.1108139 8.53358835,10.966633 C6.09880377,12.428136 4.98315834,17.0842203 4.75467416,18.7833516 C4.8225054,19.1138872 4.86356115,19.3533021 4.86534618,19.3943957 L4.88319651,20.0912003 L4.21202422,20.2770149 C4.10849232,20.3056018 4.01388559,20.3324019 2.7090267,20.3324019 C2.65904579,20.3413353 2.35023513,20.6700842 2.36451539,21.8957457 C2.38593579,23.7395979 3.56048729,26.9806328 4.21023919,27.3879955 C4.36196697,27.4809028 4.73682383,27.4809028 5.07240997,27.4201558 L5.79534821,27.2825815 L6.06667318,27.9686661 C6.13093435,28.0973069 6.23089618,28.2974149 6.23982135,28.5600567 C6.34870834,32.8534452 10.0687165,37.1504072 13.2192991,39.5284763 C14.1475161,40.5450964 15.5023559,41.0828867 16.9714378,41.0828867 C18.4690803,41.0828867 19.822135,40.5468831 20.6896609,39.6124502 C23.5849839,37.3701686 27.956529,32.5139763 27.8119413,28.602937 C27.8030162,28.302775 27.9190433,28.0794401 27.9761643,27.9704528 L28.2439192,27.2968749 L28.9579323,27.4237291 C29.2828083,27.4773295 29.6415998,27.4791162 29.7897575,27.3897822 Z M25.9769277,18.7351113 C26.4695967,18.7636982 26.8444536,19.1853543 26.8158931,19.6784776 C26.7891176,20.1537341 26.3964104,20.5200032 25.9251618,20.5200032 L25.8751809,20.5182165 L23.8420286,20.4020824 C24.0847931,20.7076044 24.2508011,21.0774469 24.2508011,21.4973164 C24.2508011,22.4835629 23.4511065,23.2839949 22.4657684,23.2839949 C21.4804304,23.2839949 20.6807358,22.4835629 20.6807358,21.4973164 C20.6807358,21.0113398 20.8788744,20.5718169 21.1930401,20.2502147 L20.5200828,20.2109078 C20.0256288,20.1841076 19.6507719,19.7606648 19.6793324,19.2693282 C19.7078929,18.7779916 20.1023852,18.4099358 20.6218297,18.4278026 L25.9769277,18.7351113 Z M15.2149657,30.3753221 C14.7222967,30.3753221 14.3224493,29.9751061 14.3224493,29.4819828 C14.3224493,28.9888595 14.7222967,28.5886435 15.2149657,28.5886435 L18.785031,28.5886435 C19.2777001,28.5886435 19.6775474,28.9888595 19.6775474,29.4819828 C19.6775474,29.9751061 19.2777001,30.3753221 18.785031,30.3753221 L15.2149657,30.3753221 Z M20.1416559,34.0576666 C20.5736338,33.821825 21.1144987,33.9808394 21.350123,34.4132156 C21.5875324,34.8438052 21.4304495,35.3869554 21.0002566,35.6245837 C20.9270703,35.6656773 19.1581029,36.628697 16.9999984,36.628697 C14.8418938,36.628697 13.0729265,35.6656773 12.9997401,35.6245837 C12.5695472,35.3869554 12.4124644,34.8438052 12.6480887,34.4132156 C12.885498,33.9808394 13.4263629,33.821825 13.8583408,34.0576666 C13.8726211,34.0666 15.3167125,34.8420185 16.9999984,34.8420185 C18.6832842,34.8420185 20.1273756,34.0666 20.1416559,34.0576666 Z M13.540605,21.4973164 C13.540605,22.4835629 12.7409104,23.2839949 11.7555723,23.2839949 C10.7702343,23.2839949 9.97053966,22.4835629 9.97053966,21.4973164 C9.97053966,21.0703002 10.1419028,20.6950977 10.3882373,20.3895757 L8.12481586,20.5182165 L8.07483495,20.5200032 C7.60358632,20.5200032 7.20909409,20.1537341 7.18410364,19.6784776 C7.15554311,19.1853543 7.53039998,18.7636982 8.02485403,18.7351113 L13.3799521,18.4278026 C13.9422374,18.4099358 14.2938888,18.7779916 14.3206643,19.2693282 C14.3492248,19.7606648 13.974368,20.1841076 13.4799139,20.2109078 L13.0193755,20.237708 C13.3406814,20.5610968 13.540605,21.0059798 13.540605,21.4973164 Z" id="Combined-Shape" fill="#40C681"></path>
                </g>
            </g>
            <rect id="Rectangle-12-Copy-2" stroke="#BBC2C7" stroke-width="2" fill="#FFFFFF" x="120" y="121" width="44" height="28" rx="4"></rect>
            <circle id="Oval-3-Copy-2" fill="#EFF0F1" cx="142" cy="135" r="5"></circle>
            <g id="Group-Copy" transform="translate(30.000000, 132.000000)">
                <path d="M40.7590335,46.2344841 C38.1239191,45.4631509 33.7213826,44.1715561 33.0379082,43.4985808 C32.5386514,43.0042028 30.3337021,41.2026998 30.0747294,39.1164765 C27.5811156,40.9542166 26.7050903,41.9792097 23.9925511,41.9792097 C21.1972475,41.9792097 20.2304482,40.9024493 17.683438,39 C17.3043233,41.034456 14.9845716,42.9783192 14.3731824,43.5710551 C13.6763588,44.2466187 9.64759739,45.4527974 7.24475757,46.1723633 C2.27354896,47.660674 0.823835601,48.1395217 0.479428559,49.306875 C0.460739805,49.3767609 -1.03436053,56.4921801 1.35246036,57.4162269 C3.4295819,58.2237972 45.8744125,58.2755646 47.1399081,57.0486789 C48.341328,55.883914 48.1571103,49.8970225 47.3641731,48.8280272 C46.8035105,48.0722242 45.5326752,47.6322019 40.7590335,46.2344841 Z" id="Fill-311" stroke="#40C681" stroke-width="2" fill="#93DFB8"></path>
                <g id="Group" transform="translate(7.000000, 0.000000)">
                    <path d="M16.9622,41.18325 C15.9308,41.1725 14.9444,40.6762083 13.9814,39.6262917 C12.4226,38.4563333 7.253,34.19575 6.1748,28.5018333 C6.065,27.85325 5.5844,24.17675 5.921,22.2166667 C6.4934,20.5557917 7.5176,17.592375 7.9172,17.3092917 L8.2214,17.312875 C9.4292,17.3809583 10.9736,17.2215 14.0282,14.6056667 C14.3864,14.2975 14.5556,14.2097083 14.5574,14.1810417 C14.66,14.2419583 14.8778,14.4462083 15.0542,14.6110417 C16.2854,15.7559167 18.575,17.8897917 25.91,18.9594167 C26.1026,18.9880833 26.1098,18.989875 26.3564,19.548875 C26.6552,20.2243333 27.1322,21.2276667 28.4156,22.3671667 C28.6784,24.1731667 28.2464,27.0989583 27.962,28.466 C26.8784,33.9252083 22.0976,38.0765 19.9808,39.7105 C19.0718,40.683375 18.0998,41.156375 16.9622,41.18325 L16.9622,41.18325 Z" id="Fill-953-Copy" fill="#FFF6F0"></path>
                    <path d="M34.1396,19.1278333 C33.8444,27.5110417 35.8478,37.78625 35.8676,37.8901667 C35.9522,38.3219583 35.7092,38.7519583 35.2934,38.9024583 C35.0522,38.99025 29.3318,41.0435 20.6234,41.538 C19.5758,42.435625 18.2996,42.9749167 16.9442,42.9749167 C15.6824,42.962375 14.462,42.4445833 13.418,41.5415833 C4.6808,41.05425 0.2384,27.7152917 0.0908,18.8160833 C0.3428,14.7669167 0.9314,5.44666667 8.8388,1.66625 C9.6398,1.284625 10.52,1.30075 11.3858,1.30254167 C11.9708,1.30970833 12.527,1.31329167 12.9878,1.19504167 C13.4216,1.08216667 13.823,0.908375 14.2262,0.736375 C15.0236,0.399541667 15.9218,0.0179166667 17.0396,0.0179166667 C21.9806,0.0179166667 25.9802,1.55158333 28.9304,4.57770833 C34.2566,10.0405 34.1684,18.2122917 34.1396,19.1278333 Z M16.9622,41.18325 C18.0998,41.156375 19.0718,40.683375 19.9808,39.7105 C22.0976,38.0765 26.8784,33.9252083 27.962,28.466 C28.2464,27.0989583 28.6784,24.1731667 28.4156,22.3671667 C27.1322,21.2276667 26.6552,20.2243333 26.3564,19.548875 C26.1098,18.989875 26.1026,18.9880833 25.91,18.9594167 C18.575,17.8897917 16.2854,15.7559167 15.0542,14.6110417 C14.8778,14.4462083 14.66,14.2419583 14.5574,14.1810417 C14.5556,14.2097083 14.3864,14.2975 14.0282,14.6056667 C10.9736,17.2215 9.4292,17.3809583 8.2214,17.312875 L7.9172,17.3092917 C7.5176,17.592375 6.4934,20.5557917 5.921,22.2166667 C5.5844,24.17675 6.065,27.85325 6.1748,28.5018333 C7.253,34.19575 12.4226,38.4563333 13.9814,39.6262917 C14.9444,40.6762083 15.9308,41.1725 16.9622,41.18325 Z M21.0194,34.5487083 C21.257,34.9805 21.0986,35.5251667 20.6648,35.7616667 C20.5982,35.7992917 18.9944,36.6664583 17.0396,36.6664583 C15.0884,36.6664583 13.4828,35.7992917 13.4162,35.7616667 C12.9824,35.5251667 12.824,34.9805 13.0634,34.5487083 C13.2974,34.115125 13.8464,33.9574583 14.282,34.1921667 C14.2946,34.1975417 15.5636,34.8747917 17.0396,34.8747917 C18.5174,34.8747917 19.7864,34.1975417 19.799,34.1921667 C20.2346,33.9574583 20.7818,34.115125 21.0194,34.5487083 Z M20.7476,22.9405 C20.2544,22.9960417 19.8044,22.65025 19.7486,22.15575 C19.6874,21.6648333 20.042,21.2187083 20.5334,21.1595833 C20.6324,21.1488333 22.9616,20.8747083 24.1838,20.8747083 C25.5212,20.8747083 26.4662,21.8529583 26.8136,22.429875 C27.0692,22.8545 26.9288,23.4045417 26.5022,23.6589583 L26.0396,23.784375 C25.7354,23.784375 25.4348,23.6285 25.2674,23.349 C25.2674,23.349 24.8318,22.666375 24.1838,22.666375 C23.9858,22.666375 23.7446,22.677125 23.4908,22.6914583 C24.1622,23.0354583 24.6338,23.7109167 24.6338,24.5135833 C24.6338,25.6584583 23.7032,25.7444583 22.553,25.7444583 C21.401,25.7444583 20.4704,25.6584583 20.4704,24.5135833 C20.4704,23.8291667 20.825,23.25225 21.338,22.8742083 C20.996,22.9118333 20.7548,22.9387083 20.7476,22.9405 Z M16.1414,32.23925 C15.6428,32.23925 15.2396,31.8379167 15.2396,31.3434167 C15.2396,30.8489167 15.6428,30.4475833 16.1414,30.4475833 L17.9396,30.4475833 C18.4382,30.4475833 18.8414,30.8489167 18.8414,31.3434167 C18.8414,31.8379167 18.4382,32.23925 17.9396,32.23925 L16.1414,32.23925 Z M13.6106,24.5135833 C13.6106,25.6584583 12.68,25.7444583 11.528,25.7444583 C10.3796,25.7444583 9.4472,25.6584583 9.4472,24.5135833 C9.4472,23.7109167 9.9188,23.0354583 10.5902,22.6914583 C10.3364,22.677125 10.0952,22.666375 9.8972,22.666375 C9.2492,22.666375 8.8118,23.349 8.8082,23.3561667 C8.639,23.6285 8.342,23.779 8.0396,23.779 L7.5734,23.65 C7.154,23.3937917 7.0136,22.8509167 7.2674,22.429875 C7.6148,21.8529583 8.558,20.8747083 9.8972,20.8747083 C11.1212,20.8747083 13.4486,21.1488333 13.5476,21.1595833 C14.039,21.2187083 14.3936,21.6648333 14.3342,22.15575 C14.2748,22.65025 13.8284,23.005 13.3334,22.9405 C13.3262,22.9387083 13.085,22.9118333 12.743,22.8742083 C13.256,23.25225 13.6106,23.8291667 13.6106,24.5135833 Z" id="Combined-Shape" fill="#40C681"></path>
                </g>
            </g>
            <rect id="Rectangle-12-Copy-4" stroke="#BBC2C7" stroke-width="2" fill="#FFFFFF" x="56" y="165" width="44" height="28" rx="4"></rect>
            <circle id="Oval-3-Copy-4" fill="#EFF0F1" cx="78" cy="179" r="5"></circle>
        </g>
    </g>
</svg>