<?xml version="1.0" encoding="UTF-8"?>
<svg width="260px" height="220px" viewBox="0 0 260 220" version="1.1" xmlns="http://www.w3.org/2000/svg" xmlns:xlink="http://www.w3.org/1999/xlink">
    <!-- Generator: Sketch 43.1 (39012) - http://www.bohemiancoding.com/sketch -->
    <title>feature-time</title>
    <desc>Created with Sketch.</desc>
    <defs></defs>
    <g id="Page-1" stroke="none" stroke-width="1" fill="none" fill-rule="evenodd">
        <g id="Group-35" transform="translate(30.000000, 0.000000)">
            <g id="Group-24">
                <path d="M100,10 C155.228475,10 200,54.771525 200,110 C200,165.228475 155.228475,210 100,210 C44.771525,210 0,165.228475 0,110" id="Oval-Copy-12" stroke="#E33277" stroke-width="4" stroke-linecap="round"></path>
                <path id="Oval-Copy-12-decoration-1" d="M-3,110 L3,110" stroke="#E33277" stroke-width="4" stroke-linecap="round"></path>
                <path d="M100.07107,5.00292885 C100.071069,5.00390529 100.071068,5.00488189 100.071068,5.00585866 L100.071068,14.9941413 C100.071068,16.1029399 100.966498,17 102.071068,17 C103.183338,17 104.071068,16.1019465 104.071068,14.9941413 L104.071068,7 L112.065209,7 C113.174008,7 114.071068,6.1045695 114.071068,5 C114.071068,3.88772964 113.173014,3 112.065209,3 L102.076926,3 C102.07595,3 102.074973,3.00000069 102.073997,3.00000208 C102.073021,3.0000007 102.072045,3 102.071068,3 C101.515913,3 101.016696,3.22372251 100.655877,3.58558401 C100.294544,3.94947522 100.071068,4.44868717 100.071068,5 C100.071068,5.00097679 100.071069,5.0019534 100.07107,5.00292984 Z" id="Combined-Shape" fill="#E33277" transform="translate(107.071068, 10.000000) rotate(-45.000000) translate(-107.071068, -10.000000) "></path>
                <g id="Group-25" transform="translate(25.000000, 35.000000)">
                    <path d="M0,75 C0,116.35625 33.64375,150 75,150 C116.35625,150 150,116.35625 150,75 C150,33.64375 116.35625,0 75,0 C33.64375,0 0,33.64375 0,75 Z" id="Fill-585" stroke="#E33277" stroke-width="2" fill="#F1BBD0"></path>
                    <path d="M75,63.75 C68.7965625,63.75 63.75,68.7965625 63.75,75 C63.75,81.2034375 68.7965625,86.25 75,86.25 C81.2034375,86.25 86.25,81.2034375 86.25,75 C86.25,68.7965625 81.2034375,63.75 75,63.75 L75,63.75 Z" id="Fill-585-Copy" fill="#E33277"></path>
                    <rect id="Rectangle-28" fill="#E33277" transform="translate(57.322330, 57.322330) rotate(-45.000000) translate(-57.322330, -57.322330) " x="54.8223305" y="32.3223305" width="5" height="50" rx="2.5"></rect>
                    <rect id="Rectangle-29" fill="#E33277" x="75" y="72.5" width="31.25" height="5" rx="2.5"></rect>
                    <path d="M73.75,7.50533137 C73.75,6.812031 74.304831,6.25 75,6.25 C75.6903559,6.25 76.25,6.81371897 76.25,7.50533137 L76.25,12.4946686 C76.25,13.187969 75.695169,13.75 75,13.75 C74.3096441,13.75 73.75,13.186281 73.75,12.4946686 L73.75,7.50533137 Z M73.75,137.505331 C73.75,136.812031 74.304831,136.25 75,136.25 C75.6903559,136.25 76.25,136.813719 76.25,137.505331 L76.25,142.494669 C76.25,143.187969 75.695169,143.75 75,143.75 C74.3096441,143.75 73.75,143.186281 73.75,142.494669 L73.75,137.505331 Z M142.494669,73.75 C143.187969,73.75 143.75,74.304831 143.75,75 C143.75,75.6903559 143.186281,76.25 142.494669,76.25 L137.505331,76.25 C136.812031,76.25 136.25,75.695169 136.25,75 C136.25,74.3096441 136.813719,73.75 137.505331,73.75 L142.494669,73.75 Z M12.4946686,73.75 C13.187969,73.75 13.75,74.304831 13.75,75 C13.75,75.6903559 13.186281,76.25 12.4946686,76.25 L7.50533137,76.25 C6.812031,76.25 6.25,75.695169 6.25,75 C6.25,74.3096441 6.81371897,73.75 7.50533137,73.75 L12.4946686,73.75 Z" id="Combined-Shape" fill="#E33277"></path>
                    <path d="M75,8.75 C74.3096441,8.75 73.75,8.19035594 73.75,7.5 C73.75,6.80964406 74.3096441,6.25 75,6.25 C75.6903559,6.25 76.25,6.80964406 76.25,7.5 C76.25,8.19035594 75.6903559,8.75 75,8.75 Z M81.9250107,9.11292443 C81.2384366,9.04076259 80.7403571,8.42568558 80.8125189,7.73911148 C80.8846807,7.05253739 81.4997578,6.55445785 82.1863318,6.62661969 C82.8729059,6.69878154 83.3709855,7.31385855 83.2988236,8.00043264 C83.2266618,8.68700674 82.6115848,9.18508628 81.9250107,9.11292443 Z M88.7741495,10.1977215 C88.0988795,10.0541884 87.6678216,9.39041734 87.8113546,8.71514734 C87.9548877,8.03987733 88.6186587,7.60881938 89.2939287,7.75235245 C89.9691987,7.89588552 90.4002567,8.55965656 90.2567236,9.23492656 C90.1131906,9.91019657 89.4494195,10.3412545 88.7741495,10.1977215 Z M95.4723759,11.9925058 C94.8158084,11.7791741 94.4564948,11.0739814 94.6698265,10.4174139 C94.8831582,9.76084639 95.5883509,9.40153279 96.2449184,9.6148645 C96.9014859,9.82819622 97.2607995,10.5333889 97.0474678,11.1899564 C96.834136,11.8465239 96.1289434,12.2058375 95.4723759,11.9925058 Z M101.946303,14.4776134 C101.315631,14.1968204 101.031999,13.4579323 101.312792,12.8272608 C101.593585,12.1965893 102.332473,11.9129567 102.963144,12.1937498 C103.593816,12.4745428 103.877448,13.2134309 103.596655,13.8441024 C103.315862,14.4747739 102.576974,14.7584065 101.946303,14.4776134 Z M108.125,17.625817 C107.527134,17.280639 107.32229,16.516151 107.667468,15.9182852 C108.012646,15.3204195 108.777134,15.1155755 109.375,15.4607535 C109.972866,15.8059315 110.17771,16.5704195 109.832532,17.1682852 C109.487354,17.766151 108.722866,17.970995 108.125,17.625817 Z M113.940773,21.4026241 C113.382263,20.9968431 113.258452,20.215131 113.664233,19.6566213 C114.070014,19.0981116 114.851726,18.9743006 115.410236,19.3800816 C115.968746,19.7858627 116.092557,20.5675748 115.686776,21.1260844 C115.280995,21.6845941 114.499283,21.8084052 113.940773,21.4026241 Z M119.329903,25.7666553 C118.816868,25.304717 118.775447,24.5143455 119.237385,24.001311 C119.699323,23.4882766 120.489695,23.446855 121.002729,23.9087932 C121.515764,24.3707315 121.557185,25.1611031 121.095247,25.6741375 C120.633309,26.187172 119.842937,26.2285936 119.329903,25.7666553 Z M124.233345,30.6700973 C123.771406,30.1570629 123.812828,29.3666913 124.325862,28.904753 C124.838897,28.4428148 125.629268,28.4842364 126.091207,28.9972708 C126.553145,29.5103053 126.511723,30.3006768 125.998689,30.7626151 C125.485655,31.2245534 124.695283,31.1831318 124.233345,30.6700973 Z M128.597376,36.059227 C128.191595,35.5007174 128.315406,34.7190053 128.873916,34.3132242 C129.432425,33.9074432 130.214137,34.0312542 130.619918,34.5897639 C131.025699,35.1482736 130.901888,35.9299857 130.343379,36.3357667 C129.784869,36.7415478 129.003157,36.6177367 128.597376,36.059227 Z M132.374183,41.875 C132.029005,41.2771342 132.233849,40.5126462 132.831715,40.1674682 C133.429581,39.8222903 134.194069,40.0271342 134.539247,40.625 C134.884424,41.2228658 134.679581,41.9873538 134.081715,42.3325318 C133.483849,42.6777097 132.719361,42.4728658 132.374183,41.875 Z M135.522387,48.0536974 C135.241594,47.4230259 135.525226,46.6841378 136.155898,46.4033448 C136.786569,46.1225517 137.525457,46.4061843 137.80625,47.0368558 C138.087043,47.6675273 137.803411,48.4064154 137.172739,48.6872084 C136.542068,48.9680015 135.80318,48.6843689 135.522387,48.0536974 Z M138.007494,54.5276241 C137.794162,53.8710566 138.153476,53.165864 138.810044,52.9525322 C139.466611,52.7392005 140.171804,53.0985141 140.385135,53.7550816 C140.598467,54.4116491 140.239154,55.1168418 139.582586,55.3301735 C138.926019,55.5435052 138.220826,55.1841916 138.007494,54.5276241 Z M139.802279,61.2258505 C139.658745,60.5505805 140.089803,59.8868094 140.765073,59.7432764 C141.440343,59.5997433 142.104114,60.0308013 142.247648,60.7060713 C142.391181,61.3813413 141.960123,62.0451123 141.284853,62.1886454 C140.609583,62.3321784 139.945812,61.9011205 139.802279,61.2258505 Z M140.887076,68.0749893 C140.814914,67.3884152 141.312993,66.7733382 141.999567,66.7011764 C142.686141,66.6290145 143.301218,67.1270941 143.37338,67.8136682 C143.445542,68.5002422 142.947463,69.1153193 142.260889,69.1874811 C141.574314,69.2596429 140.959237,68.7615634 140.887076,68.0749893 Z M141.25,75 C141.25,74.3096441 141.809644,73.75 142.5,73.75 C143.190356,73.75 143.75,74.3096441 143.75,75 C143.75,75.6903559 143.190356,76.25 142.5,76.25 C141.809644,76.25 141.25,75.6903559 141.25,75 Z M140.887076,81.9250107 C140.959237,81.2384366 141.574314,80.7403571 142.260889,80.8125189 C142.947463,80.8846807 143.445542,81.4997578 143.37338,82.1863318 C143.301218,82.8729059 142.686141,83.3709855 141.999567,83.2988236 C141.312993,83.2266618 140.814914,82.6115848 140.887076,81.9250107 Z M139.802279,88.7741495 C139.945812,88.0988795 140.609583,87.6678216 141.284853,87.8113546 C141.960123,87.9548877 142.391181,88.6186587 142.247648,89.2939287 C142.104114,89.9691987 141.440343,90.4002567 140.765073,90.2567236 C140.089803,90.1131906 139.658745,89.4494195 139.802279,88.7741495 Z M138.007494,95.4723759 C138.220826,94.8158084 138.926019,94.4564948 139.582586,94.6698265 C140.239154,94.8831582 140.598467,95.5883509 140.385135,96.2449184 C140.171804,96.9014859 139.466611,97.2607995 138.810044,97.0474678 C138.153476,96.834136 137.794162,96.1289434 138.007494,95.4723759 Z M135.522387,101.946303 C135.80318,101.315631 136.542068,101.031999 137.172739,101.312792 C137.803411,101.593585 138.087043,102.332473 137.80625,102.963144 C137.525457,103.593816 136.786569,103.877448 136.155898,103.596655 C135.525226,103.315862 135.241594,102.576974 135.522387,101.946303 Z M132.374183,108.125 C132.719361,107.527134 133.483849,107.32229 134.081715,107.667468 C134.679581,108.012646 134.884424,108.777134 134.539247,109.375 C134.194069,109.972866 133.429581,110.17771 132.831715,109.832532 C132.233849,109.487354 132.029005,108.722866 132.374183,108.125 Z M128.597376,113.940773 C129.003157,113.382263 129.784869,113.258452 130.343379,113.664233 C130.901888,114.070014 131.025699,114.851726 130.619918,115.410236 C130.214137,115.968746 129.432425,116.092557 128.873916,115.686776 C128.315406,115.280995 128.191595,114.499283 128.597376,113.940773 Z M124.233345,119.329903 C124.695283,118.816868 125.485655,118.775447 125.998689,119.237385 C126.511723,119.699323 126.553145,120.489695 126.091207,121.002729 C125.629268,121.515764 124.838897,121.557185 124.325862,121.095247 C123.812828,120.633309 123.771406,119.842937 124.233345,119.329903 Z M119.329903,124.233345 C119.842937,123.771406 120.633309,123.812828 121.095247,124.325862 C121.557185,124.838897 121.515764,125.629268 121.002729,126.091207 C120.489695,126.553145 119.699323,126.511723 119.237385,125.998689 C118.775447,125.485655 118.816868,124.695283 119.329903,124.233345 Z M113.940773,128.597376 C114.499283,128.191595 115.280995,128.315406 115.686776,128.873916 C116.092557,129.432425 115.968746,130.214137 115.410236,130.619918 C114.851726,131.025699 114.070014,130.901888 113.664233,130.343379 C113.258452,129.784869 113.382263,129.003157 113.940773,128.597376 Z M108.125,132.374183 C108.722866,132.029005 109.487354,132.233849 109.832532,132.831715 C110.17771,133.429581 109.972866,134.194069 109.375,134.539247 C108.777134,134.884424 108.012646,134.679581 107.667468,134.081715 C107.32229,133.483849 107.527134,132.719361 108.125,132.374183 Z M101.946303,135.522387 C102.576974,135.241594 103.315862,135.525226 103.596655,136.155898 C103.877448,136.786569 103.593816,137.525457 102.963144,137.80625 C102.332473,138.087043 101.593585,137.803411 101.312792,137.172739 C101.031999,136.542068 101.315631,135.80318 101.946303,135.522387 Z M95.4723759,138.007494 C96.1289434,137.794162 96.834136,138.153476 97.0474678,138.810044 C97.2607995,139.466611 96.9014859,140.171804 96.2449184,140.385135 C95.5883509,140.598467 94.8831582,140.239154 94.6698265,139.582586 C94.4564948,138.926019 94.8158084,138.220826 95.4723759,138.007494 Z M88.7741495,139.802279 C89.4494195,139.658745 90.1131906,140.089803 90.2567236,140.765073 C90.4002567,141.440343 89.9691987,142.104114 89.2939287,142.247648 C88.6186587,142.391181 87.9548877,141.960123 87.8113546,141.284853 C87.6678216,140.609583 88.0988795,139.945812 88.7741495,139.802279 Z M81.9250107,140.887076 C82.6115848,140.814914 83.2266618,141.312993 83.2988236,141.999567 C83.3709855,142.686141 82.8729059,143.301218 82.1863318,143.37338 C81.4997578,143.445542 80.8846807,142.947463 80.8125189,142.260889 C80.7403571,141.574314 81.2384366,140.959237 81.9250107,140.887076 Z M75,141.25 C75.6903559,141.25 76.25,141.809644 76.25,142.5 C76.25,143.190356 75.6903559,143.75 75,143.75 C74.3096441,143.75 73.75,143.190356 73.75,142.5 C73.75,141.809644 74.3096441,141.25 75,141.25 Z M68.0749893,140.887076 C68.7615634,140.959237 69.2596429,141.574314 69.1874811,142.260889 C69.1153193,142.947463 68.5002422,143.445542 67.8136682,143.37338 C67.1270941,143.301218 66.6290145,142.686141 66.7011764,141.999567 C66.7733382,141.312993 67.3884152,140.814914 68.0749893,140.887076 Z M61.2258505,139.802279 C61.9011205,139.945812 62.3321784,140.609583 62.1886454,141.284853 C62.0451123,141.960123 61.3813413,142.391181 60.7060713,142.247648 C60.0308013,142.104114 59.5997433,141.440343 59.7432764,140.765073 C59.8868094,140.089803 60.5505805,139.658745 61.2258505,139.802279 Z M54.5276241,138.007494 C55.1841916,138.220826 55.5435052,138.926019 55.3301735,139.582586 C55.1168418,140.239154 54.4116491,140.598467 53.7550816,140.385135 C53.0985141,140.171804 52.7392005,139.466611 52.9525322,138.810044 C53.165864,138.153476 53.8710566,137.794162 54.5276241,138.007494 Z M48.0536974,135.522387 C48.6843689,135.80318 48.9680015,136.542068 48.6872084,137.172739 C48.4064154,137.803411 47.6675273,138.087043 47.0368558,137.80625 C46.4061843,137.525457 46.1225517,136.786569 46.4033448,136.155898 C46.6841378,135.525226 47.4230259,135.241594 48.0536974,135.522387 Z M41.875,132.374183 C42.4728658,132.719361 42.6777097,133.483849 42.3325318,134.081715 C41.9873538,134.679581 41.2228658,134.884424 40.625,134.539247 C40.0271342,134.194069 39.8222903,133.429581 40.1674682,132.831715 C40.5126462,132.233849 41.2771342,132.029005 41.875,132.374183 Z M36.059227,128.597376 C36.6177367,129.003157 36.7415478,129.784869 36.3357667,130.343379 C35.9299857,130.901888 35.1482736,131.025699 34.5897639,130.619918 C34.0312542,130.214137 33.9074432,129.432425 34.3132242,128.873916 C34.7190053,128.315406 35.5007174,128.191595 36.059227,128.597376 Z M30.6700973,124.233345 C31.1831318,124.695283 31.2245534,125.485655 30.7626151,125.998689 C30.3006768,126.511723 29.5103053,126.553145 28.9972708,126.091207 C28.4842364,125.629268 28.4428148,124.838897 28.904753,124.325862 C29.3666913,123.812828 30.1570629,123.771406 30.6700973,124.233345 Z M25.7666553,119.329903 C26.2285936,119.842937 26.187172,120.633309 25.6741375,121.095247 C25.1611031,121.557185 24.3707315,121.515764 23.9087932,121.002729 C23.446855,120.489695 23.4882766,119.699323 24.001311,119.237385 C24.5143455,118.775447 25.304717,118.816868 25.7666553,119.329903 Z M21.4026241,113.940773 C21.8084052,114.499283 21.6845941,115.280995 21.1260844,115.686776 C20.5675748,116.092557 19.7858627,115.968746 19.3800816,115.410236 C18.9743006,114.851726 19.0981116,114.070014 19.6566213,113.664233 C20.215131,113.258452 20.9968431,113.382263 21.4026241,113.940773 Z M17.625817,108.125 C17.970995,108.722866 17.766151,109.487354 17.1682852,109.832532 C16.5704195,110.17771 15.8059315,109.972866 15.4607535,109.375 C15.1155755,108.777134 15.3204195,108.012646 15.9182852,107.667468 C16.516151,107.32229 17.280639,107.527134 17.625817,108.125 Z M14.4776134,101.946303 C14.7584065,102.576974 14.4747739,103.315862 13.8441024,103.596655 C13.2134309,103.877448 12.4745428,103.593816 12.1937498,102.963144 C11.9129567,102.332473 12.1965893,101.593585 12.8272608,101.312792 C13.4579323,101.031999 14.1968204,101.315631 14.4776134,101.946303 Z M11.9925058,95.4723759 C12.2058375,96.1289434 11.8465239,96.834136 11.1899564,97.0474678 C10.5333889,97.2607995 9.82819622,96.9014859 9.6148645,96.2449184 C9.40153279,95.5883509 9.76084639,94.8831582 10.4174139,94.6698265 C11.0739814,94.4564948 11.7791741,94.8158084 11.9925058,95.4723759 Z M10.1977215,88.7741495 C10.3412545,89.4494195 9.91019657,90.1131906 9.23492656,90.2567236 C8.55965656,90.4002567 7.89588552,89.9691987 7.75235245,89.2939287 C7.60881938,88.6186587 8.03987733,87.9548877 8.71514734,87.8113546 C9.39041734,87.6678216 10.0541884,88.0988795 10.1977215,88.7741495 Z M9.11292443,81.9250107 C9.18508628,82.6115848 8.68700674,83.2266618 8.00043264,83.2988236 C7.31385855,83.3709855 6.69878154,82.8729059 6.62661969,82.1863318 C6.55445785,81.4997578 7.05253739,80.8846807 7.73911148,80.8125189 C8.42568558,80.7403571 9.04076259,81.2384366 9.11292443,81.9250107 Z M8.75,75 C8.75,75.6903559 8.19035594,76.25 7.5,76.25 C6.80964406,76.25 6.25,75.6903559 6.25,75 C6.25,74.3096441 6.80964406,73.75 7.5,73.75 C8.19035594,73.75 8.75,74.3096441 8.75,75 Z M9.11292443,68.0749893 C9.04076259,68.7615634 8.42568558,69.2596429 7.73911148,69.1874811 C7.05253739,69.1153193 6.55445785,68.5002422 6.62661969,67.8136682 C6.69878154,67.1270941 7.31385855,66.6290145 8.00043264,66.7011764 C8.68700674,66.7733382 9.18508628,67.3884152 9.11292443,68.0749893 Z M10.1977215,61.2258505 C10.0541884,61.9011205 9.39041734,62.3321784 8.71514734,62.1886454 C8.03987733,62.0451123 7.60881938,61.3813413 7.75235245,60.7060713 C7.89588552,60.0308013 8.55965656,59.5997433 9.23492656,59.7432764 C9.91019657,59.8868094 10.3412545,60.5505805 10.1977215,61.2258505 Z M11.9925058,54.5276241 C11.7791741,55.1841916 11.0739814,55.5435052 10.4174139,55.3301735 C9.76084639,55.1168418 9.40153279,54.4116491 9.6148645,53.7550816 C9.82819622,53.0985141 10.5333889,52.7392005 11.1899564,52.9525322 C11.8465239,53.165864 12.2058375,53.8710566 11.9925058,54.5276241 Z M14.4776134,48.0536974 C14.1968204,48.6843689 13.4579323,48.9680015 12.8272608,48.6872084 C12.1965893,48.4064154 11.9129567,47.6675273 12.1937498,47.0368558 C12.4745428,46.4061843 13.2134309,46.1225517 13.8441024,46.4033448 C14.4747739,46.6841378 14.7584065,47.4230259 14.4776134,48.0536974 Z M17.625817,41.875 C17.280639,42.4728658 16.516151,42.6777097 15.9182852,42.3325318 C15.3204195,41.9873538 15.1155755,41.2228658 15.4607535,40.625 C15.8059315,40.0271342 16.5704195,39.8222903 17.1682852,40.1674682 C17.766151,40.5126462 17.970995,41.2771342 17.625817,41.875 Z M21.4026241,36.059227 C20.9968431,36.6177367 20.215131,36.7415478 19.6566213,36.3357667 C19.0981116,35.9299857 18.9743006,35.1482736 19.3800816,34.5897639 C19.7858627,34.0312542 20.5675748,33.9074432 21.1260844,34.3132242 C21.6845941,34.7190053 21.8084052,35.5007174 21.4026241,36.059227 Z M25.7666553,30.6700973 C25.304717,31.1831318 24.5143455,31.2245534 24.001311,30.7626151 C23.4882766,30.3006768 23.446855,29.5103053 23.9087932,28.9972708 C24.3707315,28.4842364 25.1611031,28.4428148 25.6741375,28.904753 C26.187172,29.3666913 26.2285936,30.1570629 25.7666553,30.6700973 Z M30.6700973,25.7666553 C30.1570629,26.2285936 29.3666913,26.187172 28.904753,25.6741375 C28.4428148,25.1611031 28.4842364,24.3707315 28.9972708,23.9087932 C29.5103053,23.446855 30.3006768,23.4882766 30.7626151,24.001311 C31.2245534,24.5143455 31.1831318,25.304717 30.6700973,25.7666553 Z M36.059227,21.4026241 C35.5007174,21.8084052 34.7190053,21.6845941 34.3132242,21.1260844 C33.9074432,20.5675748 34.0312542,19.7858627 34.5897639,19.3800816 C35.1482736,18.9743006 35.9299857,19.0981116 36.3357667,19.6566213 C36.7415478,20.215131 36.6177367,20.9968431 36.059227,21.4026241 Z M41.875,17.625817 C41.2771342,17.970995 40.5126462,17.766151 40.1674682,17.1682852 C39.8222903,16.5704195 40.0271342,15.8059315 40.625,15.4607535 C41.2228658,15.1155755 41.9873538,15.3204195 42.3325318,15.9182852 C42.6777097,16.516151 42.4728658,17.280639 41.875,17.625817 Z M48.0536974,14.4776134 C47.4230259,14.7584065 46.6841378,14.4747739 46.4033448,13.8441024 C46.1225517,13.2134309 46.4061843,12.4745428 47.0368558,12.1937498 C47.6675273,11.9129567 48.4064154,12.1965893 48.6872084,12.8272608 C48.9680015,13.4579323 48.6843689,14.1968204 48.0536974,14.4776134 Z M54.5276241,11.9925058 C53.8710566,12.2058375 53.165864,11.8465239 52.9525322,11.1899564 C52.7392005,10.5333889 53.0985141,9.82819622 53.7550816,9.6148645 C54.4116491,9.40153279 55.1168418,9.76084639 55.3301735,10.4174139 C55.5435052,11.0739814 55.1841916,11.7791741 54.5276241,11.9925058 Z M61.2258505,10.1977215 C60.5505805,10.3412545 59.8868094,9.91019657 59.7432764,9.23492656 C59.5997433,8.55965656 60.0308013,7.89588552 60.7060713,7.75235245 C61.3813413,7.60881938 62.0451123,8.03987733 62.1886454,8.71514734 C62.3321784,9.39041734 61.9011205,10.0541884 61.2258505,10.1977215 Z M68.0749893,9.11292443 C67.3884152,9.18508628 66.7733382,8.68700674 66.7011764,8.00043264 C66.6290145,7.31385855 67.1270941,6.69878154 67.8136682,6.62661969 C68.5002422,6.55445785 69.1153193,7.05253739 69.1874811,7.73911148 C69.2596429,8.42568558 68.7615634,9.04076259 68.0749893,9.11292443 Z" id="Oval-3" fill="#E33277"></path>
                </g>
            </g>
        </g>
    </g>
</svg>