<?xml version="1.0" encoding="UTF-8"?>
<svg width="391px" height="350px" viewBox="0 0 391 350" version="1.1" xmlns="http://www.w3.org/2000/svg" xmlns:xlink="http://www.w3.org/1999/xlink">
    <!-- Generator: Sketch 42 (36781) - http://www.bohemiancoding.com/sketch -->
    <title>flat-colour-product</title>
    <desc>Created with Sketch.</desc>
    <defs></defs>
    <g id="Page-1" stroke="none" stroke-width="1" fill="none" fill-rule="evenodd">
        <g id="flat-colour-product" fill="#FFFFFF">
            <path d="M104.450145,97.6016166 L104.450145,97.6016166 L104.450145,132.371177 C104.450145,141.209105 109.815166,150.50947 117.468126,154.937963 L152.137696,175 L117.468126,195.062037 C109.81217,199.492264 104.450145,208.786051 104.450145,217.628823 L104.450145,252.398383 L90.1339058,260.682678 C86.8036745,262.609763 81.4069218,262.611279 78.0740714,260.682678 L13.0840512,223.075284 C9.75381989,221.148199 7.05413399,216.464596 7.05413399,212.625954 L7.05413399,137.374046 C7.05413399,133.530126 9.75120082,128.853317 13.0840512,126.924716 L78.0740714,89.3173223 C81.4043027,87.3902369 86.8010554,87.3887213 90.1339058,89.3173223 L104.450145,97.6016166 Z M286.549855,97.6016166 L300.866094,89.3173223 C304.196325,87.3902369 309.593078,87.3887213 312.925929,89.3173223 L377.915949,126.924716 C381.24618,128.851801 383.945866,133.535404 383.945866,137.374046 L383.945866,212.625954 C383.945866,216.469874 381.248799,221.146683 377.915949,223.075284 L312.925929,260.682678 C309.595697,262.609763 304.198945,262.611279 300.866094,260.682678 L286.549855,252.398383 L286.549855,217.628823 C286.549855,208.790895 281.184834,199.49053 273.531874,195.062037 L238.862304,175 L273.531874,154.937963 C281.18783,150.507736 286.549855,141.213949 286.549855,132.371177 L286.549855,97.6016166 L286.549855,97.6016166 Z M224.886137,183.087506 L266.519937,207.179493 C269.850169,209.106578 272.549855,213.790181 272.549855,217.628823 L272.549855,292.880731 C272.549855,296.724651 269.852788,301.40146 266.519937,303.330061 L201.529917,340.937455 C198.199686,342.86454 192.802933,342.866056 189.470083,340.937455 L124.480063,303.330061 C121.149831,301.402976 118.450145,296.719373 118.450145,292.880731 L118.450145,217.628823 C118.450145,213.784903 121.147212,209.108094 124.480063,207.179493 L166.113863,183.087506 L182.458146,192.545357 C190.128171,196.983725 200.873441,196.982792 208.541854,192.545357 L224.886137,183.087506 L224.886137,183.087506 Z M189.470083,9.06254523 C192.800314,7.13545981 198.197067,7.13394424 201.529917,9.06254523 L266.519937,46.6699388 C269.850169,48.5970243 272.549855,53.2806273 272.549855,57.1192686 L272.549855,132.371177 C272.549855,136.215097 269.852788,140.891906 266.519937,142.820507 L201.529917,180.427901 C198.199686,182.354986 192.802933,182.356502 189.470083,180.427901 L124.480063,142.820507 C121.149831,140.893422 118.450145,136.209819 118.450145,132.371177 L118.450145,57.1192686 C118.450145,53.2753486 121.147212,48.5985398 124.480063,46.6699388 L189.470083,9.06254523 Z" id="fill" opacity="0.75"></path>
            <path d="M272.058624,54.0811744 C270.949585,55.4153868 269.663426,56.5483103 268.273661,57.3525174 L203.251565,94.9784717 C201.982317,95.7129401 200.519673,96.2352262 198.975371,96.5454036 L198.975371,181.446541 C199.901817,181.20737 200.76971,180.867806 201.529917,180.427901 L266.519937,142.820507 C269.852788,140.891906 272.549855,136.215097 272.549855,132.371177 L272.549855,57.1192686 C272.549855,56.1415502 272.374714,55.1090154 272.058624,54.0811744 Z M192.024629,181.446619 L192.024629,96.5453564 C190.480142,96.2351374 189.017472,95.712818 187.748435,94.9784717 L122.726339,57.3525174 C121.336032,56.5479966 120.049681,55.414766 118.94063,54.080346 C118.62498,55.1079084 118.450145,56.1405842 118.450145,57.1192686 L118.450145,132.371177 C118.450145,136.209819 121.149831,140.893422 124.480063,142.820507 L189.470083,180.427901 C190.23051,180.867932 191.098378,181.207487 192.024629,181.446619 Z M145.296963,195.1335 L166.113863,183.087506 L166.113863,183.087506 L182.458146,192.545357 C190.128171,196.983725 200.873441,196.982792 208.541854,192.545357 L224.886137,183.087506 L245.703037,195.1335 L224.886137,183.087506 L231.83688,179.065361 L231.83688,179.065361 L270.011346,201.155555 C275.48206,204.321261 279.500597,211.299847 279.500597,217.628823 L279.500597,292.880731 C279.500597,299.212143 275.479955,306.189512 270.011346,309.353999 L204.989251,346.979953 C199.518537,350.145659 191.479358,350.144441 186.010749,346.979953 L120.988654,309.353999 C115.51794,306.188293 111.499403,299.209707 111.499403,292.880731 L111.499403,217.628823 C111.499403,211.297411 115.520045,204.320043 120.988654,201.155555 L159.16312,179.065361 L166.113863,183.087506 L145.296963,195.1335 Z M118.94063,214.5899 C118.62498,215.617463 118.450145,216.650138 118.450145,217.628823 L118.450145,292.880731 C118.450145,296.719373 121.149831,301.402976 124.480063,303.330061 L189.470083,340.937455 C190.23051,341.377486 191.098378,341.717041 192.024629,341.956173 L192.024629,257.054911 C190.480142,256.744692 189.017472,256.222372 187.748435,255.488026 L122.726339,217.862072 C121.336032,217.057551 120.049681,215.92432 118.94063,214.5899 Z M198.975371,341.956095 C199.901817,341.716924 200.76971,341.37736 201.529917,340.937455 L266.519937,303.330061 C269.852788,301.40146 272.549855,296.724651 272.549855,292.880731 L272.549855,217.628823 C272.549855,216.651104 272.374714,215.61857 272.058624,214.590729 C270.949585,215.924941 269.663426,217.057864 268.273661,217.862072 L203.251565,255.488026 C201.982317,256.222494 200.519673,256.74478 198.975371,257.054958 L198.975371,341.956095 Z M303.42064,261.701396 L303.42064,176.800133 C301.876154,176.489914 300.413483,175.967595 299.144446,175.233249 L268.801834,157.675068 L273.531874,154.937963 C281.18783,150.507736 286.549855,141.213949 286.549855,132.371177 L286.549855,97.6016166 L286.549855,97.6016166 L293.707974,93.4594695 L286.549855,97.6016166 L286.549855,89.5573255 L297.40676,83.2748236 C302.877474,80.1091177 310.916654,80.1103359 316.385263,83.2748236 L381.407358,120.900778 C386.878072,124.066484 390.896609,131.04507 390.896609,137.374046 L390.896609,212.625954 C390.896609,218.957366 386.875966,225.934734 381.407358,229.099222 L316.385263,266.725176 C310.914549,269.890882 302.875369,269.889664 297.40676,266.725176 L286.549855,260.442675 L286.549855,252.398383 L300.866094,260.682678 C301.626521,261.122709 302.494389,261.462264 303.42064,261.701396 Z M310.371383,261.701318 C311.297828,261.462147 312.165721,261.122583 312.925929,260.682678 L377.915949,223.075284 C381.248799,221.146683 383.945866,216.469874 383.945866,212.625954 L383.945866,137.374046 C383.945866,136.396327 383.770726,135.363793 383.454635,134.335951 C382.345596,135.670164 381.059437,136.803087 379.669672,137.607294 L314.647577,175.233249 C313.378329,175.967717 311.915684,176.490003 310.371383,176.800181 L310.371383,261.701318 Z M97.2920256,93.4594695 L104.450145,97.6016166 L104.450145,132.371177 C104.450145,141.209105 109.815166,150.50947 117.468126,154.937963 L122.198166,157.675068 L122.198166,157.675068 L91.855554,175.233249 C90.5863058,175.967717 89.1236615,176.490003 87.57936,176.800181 L87.57936,261.701318 C88.5058054,261.462147 89.3736982,261.122583 90.1339058,260.682678 L104.450145,252.398383 L104.450145,260.442675 L93.5932397,266.725176 C88.1225258,269.890882 80.0833461,269.889664 74.6147375,266.725176 L9.59264227,229.099222 C4.12192834,225.933516 0.103391129,218.95493 0.103391129,212.625954 L0.103391129,137.374046 C0.103391129,131.042634 4.12403361,124.065266 9.59264227,120.900778 L74.6147375,83.2748236 C80.0854514,80.1091177 88.1246311,80.1103359 93.5932397,83.2748236 L104.450145,89.5573255 L104.450145,89.5573255 L104.450145,97.6016166 L97.2920256,93.4594695 Z M7.54461835,134.335123 C7.228969,135.362686 7.05413399,136.395361 7.05413399,137.374046 L7.05413399,212.625954 C7.05413399,216.464596 9.75381989,221.148199 13.0840512,223.075284 L78.0740714,260.682678 C78.8344981,261.122709 79.7023664,261.462264 80.6286172,261.701396 L80.6286172,176.800133 C79.0841308,176.489914 77.6214604,175.967595 76.3524232,175.233249 L11.330328,137.607294 C9.94002097,136.802774 8.65366928,135.669543 7.54461835,134.335123 Z M204.989251,3.02004651 L270.011346,40.6460008 C275.48206,43.8117067 279.500597,50.7902933 279.500597,57.1192686 L279.500597,132.371177 C279.500597,138.702589 275.479955,145.679957 270.011346,148.844445 L204.989251,186.470399 C199.518537,189.636105 191.479358,189.634887 186.010749,186.470399 L120.988654,148.844445 C115.51794,145.678739 111.499403,138.700153 111.499403,132.371177 L111.499403,57.1192686 C111.499403,50.7878568 115.520045,43.8104885 120.988654,40.6460008 L186.010749,3.02004651 C191.481463,-0.145659414 199.520642,-0.144441174 204.989251,3.02004651 Z" id="outline" fill-rule="nonzero"></path>
        </g>
    </g>
</svg>