<?xml version="1.0" encoding="UTF-8"?>
<svg width="350px" height="250px" viewBox="0 0 350 250" version="1.1" xmlns="http://www.w3.org/2000/svg" xmlns:xlink="http://www.w3.org/1999/xlink">
    <!-- Generator: Sketch 42 (36781) - http://www.bohemiancoding.com/sketch -->
    <title>Group 8</title>
    <desc>Created with Sketch.</desc>
    <defs>
        <rect id="path-1" x="0" y="0" width="500" height="250"></rect>
        <path d="M51.0972839,170.65595 C55.3054072,153.07183 71.1261589,140 90,140 C97.6504037,140 104.799173,142.147754 110.876244,145.873199 C110.306574,144.016055 110,142.04383 110,140 C110,128.954305 118.954305,120 130,120 C141.045695,120 150,128.954305 150,140 C150,151.045695 141.045695,160 130,160 C127.95617,160 125.983945,159.693426 124.126801,159.123756 C127.852246,165.200827 130,172.349596 130,180 C130,191.900265 124.803283,202.586772 116.555403,209.913966 C118.785856,216.193842 120,222.955131 120,230 C120,263.137085 93.137085,290 60,290 C26.862915,290 0,263.137085 0,230 C0,199.887996 22.1821606,174.956914 51.0972839,170.65595 Z" id="path-3"></path>
        <filter x="-50%" y="-50%" width="200%" height="200%" filterUnits="objectBoundingBox" id="filter-4">
            <feOffset dx="2" dy="2" in="SourceAlpha" result="shadowOffsetInner1"></feOffset>
            <feComposite in="shadowOffsetInner1" in2="SourceAlpha" operator="arithmetic" k2="-1" k3="1" result="shadowInnerInner1"></feComposite>
            <feColorMatrix values="0 0 0 0 0.937254902   0 0 0 0 0.941176471   0 0 0 0 0.945098039  0 0 0 1 0" type="matrix" in="shadowInnerInner1" result="shadowMatrixInner1"></feColorMatrix>
            <feGaussianBlur stdDeviation="8" in="SourceAlpha" result="shadowBlurInner2"></feGaussianBlur>
            <feOffset dx="10" dy="10" in="shadowBlurInner2" result="shadowOffsetInner2"></feOffset>
            <feComposite in="shadowOffsetInner2" in2="SourceAlpha" operator="arithmetic" k2="-1" k3="1" result="shadowInnerInner2"></feComposite>
            <feColorMatrix values="0 0 0 0 0.325490196   0 0 0 0 0.368627451   0 0 0 0 0.396078431  0 0 0 0.02 0" type="matrix" in="shadowInnerInner2" result="shadowMatrixInner2"></feColorMatrix>
            <feMerge>
                <feMergeNode in="shadowMatrixInner1"></feMergeNode>
                <feMergeNode in="shadowMatrixInner2"></feMergeNode>
            </feMerge>
        </filter>
        <path d="M105.622822,227.382699 C100.697189,231.516789 94.3835871,234 87.5,234 C87.3329938,234 87.1663232,233.998538 86.9999997,233.995627 C87,250.016258 74.2401154,263 58.5,263 C42.7598846,263 30,250.016258 30,234 C30,217.983742 42.7598846,205 58.5,205 C58.6670062,205 58.8336768,205.001462 59.0000003,205.004373 C59,188.983742 71.7598846,176 87.5,176 C89.5147231,176 91.4806187,176.212723 93.3771776,176.617301 C98.3028112,172.483211 104.616413,170 111.5,170 C127.240115,170 140,182.983742 140,199 C140,215.016258 127.240115,228 111.5,228 C109.485277,228 107.519381,227.787277 105.622822,227.382699 Z" id="path-5"></path>
        <filter x="-50%" y="-50%" width="200%" height="200%" filterUnits="objectBoundingBox" id="filter-6">
            <feOffset dx="2" dy="2" in="SourceAlpha" result="shadowOffsetInner1"></feOffset>
            <feComposite in="shadowOffsetInner1" in2="SourceAlpha" operator="arithmetic" k2="-1" k3="1" result="shadowInnerInner1"></feComposite>
            <feColorMatrix values="0 0 0 0 0.937254902   0 0 0 0 0.941176471   0 0 0 0 0.945098039  0 0 0 1 0" type="matrix" in="shadowInnerInner1" result="shadowMatrixInner1"></feColorMatrix>
            <feGaussianBlur stdDeviation="8" in="SourceAlpha" result="shadowBlurInner2"></feGaussianBlur>
            <feOffset dx="10" dy="10" in="shadowBlurInner2" result="shadowOffsetInner2"></feOffset>
            <feComposite in="shadowOffsetInner2" in2="SourceAlpha" operator="arithmetic" k2="-1" k3="1" result="shadowInnerInner2"></feComposite>
            <feColorMatrix values="0 0 0 0 0.325490196   0 0 0 0 0.368627451   0 0 0 0 0.396078431  0 0 0 0.02 0" type="matrix" in="shadowInnerInner2" result="shadowMatrixInner2"></feColorMatrix>
            <feMerge>
                <feMergeNode in="shadowMatrixInner1"></feMergeNode>
                <feMergeNode in="shadowMatrixInner2"></feMergeNode>
            </feMerge>
        </filter>
        <path d="M251.097284,170.65595 C255.305407,153.07183 271.126159,140 290,140 C297.650404,140 304.799173,142.147754 310.876244,145.873199 C310.306574,144.016055 310,142.04383 310,140 C310,128.954305 318.954305,120 330,120 C341.045695,120 350,128.954305 350,140 C350,151.045695 341.045695,160 330,160 C327.95617,160 325.983945,159.693426 324.126801,159.123756 C327.852246,165.200827 330,172.349596 330,180 C330,191.900265 324.803283,202.586772 316.555403,209.913966 C318.785856,216.193842 320,222.955131 320,230 C320,263.137085 293.137085,290 260,290 C226.862915,290 200,263.137085 200,230 C200,199.887996 222.182161,174.956914 251.097284,170.65595 Z" id="path-7"></path>
        <filter x="-50%" y="-50%" width="200%" height="200%" filterUnits="objectBoundingBox" id="filter-8">
            <feOffset dx="2" dy="2" in="SourceAlpha" result="shadowOffsetInner1"></feOffset>
            <feComposite in="shadowOffsetInner1" in2="SourceAlpha" operator="arithmetic" k2="-1" k3="1" result="shadowInnerInner1"></feComposite>
            <feColorMatrix values="0 0 0 0 0.937254902   0 0 0 0 0.941176471   0 0 0 0 0.945098039  0 0 0 1 0" type="matrix" in="shadowInnerInner1" result="shadowMatrixInner1"></feColorMatrix>
            <feGaussianBlur stdDeviation="8" in="SourceAlpha" result="shadowBlurInner2"></feGaussianBlur>
            <feOffset dx="10" dy="10" in="shadowBlurInner2" result="shadowOffsetInner2"></feOffset>
            <feComposite in="shadowOffsetInner2" in2="SourceAlpha" operator="arithmetic" k2="-1" k3="1" result="shadowInnerInner2"></feComposite>
            <feColorMatrix values="0 0 0 0 0.325490196   0 0 0 0 0.368627451   0 0 0 0 0.396078431  0 0 0 0.02 0" type="matrix" in="shadowInnerInner2" result="shadowMatrixInner2"></feColorMatrix>
            <feMerge>
                <feMergeNode in="shadowMatrixInner1"></feMergeNode>
                <feMergeNode in="shadowMatrixInner2"></feMergeNode>
            </feMerge>
        </filter>
        <path d="M285.622822,227.382699 C280.697189,231.516789 274.383587,234 267.5,234 C267.332994,234 267.166323,233.998538 267,233.995627 C267,250.016258 254.240115,263 238.5,263 C222.759885,263 210,250.016258 210,234 C210,217.983742 222.759885,205 238.5,205 C238.667006,205 238.833677,205.001462 239,205.004373 C239,188.983742 251.759885,176 267.5,176 C269.514723,176 271.480619,176.212723 273.377178,176.617301 C278.302811,172.483211 284.616413,170 291.5,170 C307.240115,170 320,182.983742 320,199 C320,215.016258 307.240115,228 291.5,228 C289.485277,228 287.519381,227.787277 285.622822,227.382699 Z" id="path-9"></path>
        <filter x="-50%" y="-50%" width="200%" height="200%" filterUnits="objectBoundingBox" id="filter-10">
            <feOffset dx="2" dy="2" in="SourceAlpha" result="shadowOffsetInner1"></feOffset>
            <feComposite in="shadowOffsetInner1" in2="SourceAlpha" operator="arithmetic" k2="-1" k3="1" result="shadowInnerInner1"></feComposite>
            <feColorMatrix values="0 0 0 0 0.937254902   0 0 0 0 0.941176471   0 0 0 0 0.945098039  0 0 0 1 0" type="matrix" in="shadowInnerInner1" result="shadowMatrixInner1"></feColorMatrix>
            <feGaussianBlur stdDeviation="8" in="SourceAlpha" result="shadowBlurInner2"></feGaussianBlur>
            <feOffset dx="10" dy="10" in="shadowBlurInner2" result="shadowOffsetInner2"></feOffset>
            <feComposite in="shadowOffsetInner2" in2="SourceAlpha" operator="arithmetic" k2="-1" k3="1" result="shadowInnerInner2"></feComposite>
            <feColorMatrix values="0 0 0 0 0.325490196   0 0 0 0 0.368627451   0 0 0 0 0.396078431  0 0 0 0.02 0" type="matrix" in="shadowInnerInner2" result="shadowMatrixInner2"></feColorMatrix>
            <feMerge>
                <feMergeNode in="shadowMatrixInner1"></feMergeNode>
                <feMergeNode in="shadowMatrixInner2"></feMergeNode>
            </feMerge>
        </filter>
        <filter x="-50%" y="-50%" width="200%" height="200%" filterUnits="objectBoundingBox" id="filter-11">
            <feOffset dx="0" dy="0" in="SourceAlpha" result="shadowOffsetOuter1"></feOffset>
            <feGaussianBlur stdDeviation="5" in="shadowOffsetOuter1" result="shadowBlurOuter1"></feGaussianBlur>
            <feColorMatrix values="0 0 0 0 0.88627451   0 0 0 0 0.411764706   0 0 0 0 0.192156863  0 0 0 0.25 0" type="matrix" in="shadowBlurOuter1" result="shadowMatrixOuter1"></feColorMatrix>
            <feMerge>
                <feMergeNode in="shadowMatrixOuter1"></feMergeNode>
                <feMergeNode in="SourceGraphic"></feMergeNode>
            </feMerge>
        </filter>
        <linearGradient x1="50%" y1="100%" x2="50%" y2="3.061617e-15%" id="linearGradient-12">
            <stop stop-color="#000000" stop-opacity="0" offset="0%"></stop>
            <stop stop-color="#000000" offset="100%"></stop>
        </linearGradient>
        <path d="M175.500181,79 C179.893492,79.2431536 183.244574,82.7684613 182.985986,86.875 C182.985986,91.87125 177.962373,100 175.500181,100 C173.037989,100 168.014002,91.87125 168.014002,86.875 C167.755524,82.7683668 171.10677,79.2430627 175.500181,79 L175.500181,79 Z" id="path-13"></path>
        <filter x="-50%" y="-50%" width="200%" height="200%" filterUnits="objectBoundingBox" id="filter-14">
            <feOffset dx="0" dy="0" in="SourceAlpha" result="shadowOffsetOuter1"></feOffset>
            <feGaussianBlur stdDeviation="5" in="shadowOffsetOuter1" result="shadowBlurOuter1"></feGaussianBlur>
            <feColorMatrix values="0 0 0 0 0.964705882   0 0 0 0 0.956862745   0 0 0 0 0.180392157  0 0 0 0.4 0" type="matrix" in="shadowBlurOuter1"></feColorMatrix>
        </filter>
        <path d="M177.84061,15.2092042 C177.051551,14.4359633 176.104682,14.0493437 175,14.0493437 C173.895318,14.0493437 172.948449,14.4359633 172.15939,15.2092042 C171.37033,15.9824451 170.975802,16.9103327 170.975802,17.992869 C170.975802,19.0754052 171.37033,20.0032929 172.15939,20.7765337 C172.948447,21.5497729 173.895318,21.9363942 175,21.9363942 C176.104682,21.9363942 177.051551,21.5497746 177.84061,20.7765337 C178.62967,20.0032929 179.024198,19.0754052 179.024198,17.992869 C179.024198,16.9103327 178.629668,15.9824433 177.84061,15.2092042 Z M175.94687,0.362992549 C180.858758,5.17641273 184.360205,10.0671572 186.451209,15.0352241 C188.542214,20.0032929 189.597581,25.9379105 189.617306,32.8390806 C189.597579,35.9513722 189.410179,39.5372725 189.055101,43.5967833 L199.6778,55.1663882 C199.953973,55.5143465 200.052604,55.9202976 199.973698,56.3842414 L195.239346,74.0141178 C195.180167,74.2267591 195.061809,74.4200672 194.88427,74.5940472 C194.647553,74.8260182 194.331931,74.9613353 193.937402,74.9999983 L190.14992,74.9999983 C189.617306,74.9806668 189.222778,74.7486957 188.966332,74.3040834 L183.314703,63.8363427 L166.685295,63.8363445 L161.033666,74.3040816 C160.994214,74.3814059 160.915306,74.4780617 160.796948,74.5940472 C160.520777,74.8646812 160.205155,74.9999983 159.850078,75 L156.062598,74.9999983 C155.352445,74.9613353 154.918464,74.6327102 154.760652,74.0141161 L150.026302,56.3842414 C149.947396,55.9202976 150.046027,55.5143465 150.322198,55.1663899 L160.944895,43.5967833 C160.589821,39.5372725 160.402419,35.9513704 160.382692,32.8390788 C160.402419,25.5899539 161.388742,19.6360048 163.341662,14.9772314 C165.294581,10.3184597 168.845344,5.46637828 173.99395,0.420987045 C174.27012,0.150352993 174.600538,0.0102017926 174.985204,0.000536909363 C175.36987,-0.00912797392 175.690426,0.111689995 175.94687,0.362992549 Z" id="path-15"></path>
        <mask id="mask-16" maskContentUnits="userSpaceOnUse" maskUnits="objectBoundingBox" x="0" y="0" width="50" height="75" fill="white">
            <use xlink:href="#path-15"></use>
        </mask>
    </defs>
    <g id="Page-1" stroke="none" stroke-width="1" fill="none" fill-rule="evenodd">
        <g id="Group-8" transform="translate(-75.000000, 0.000000)">
            <mask id="mask-2" fill="white">
                <use xlink:href="#path-1"></use>
            </mask>
            <g id="Rectangle-5"></g>
            <g id="Group-7" mask="url(#mask-2)">
                <g transform="translate(75.000000, 0.000000)">
                    <g id="Combined-Shape" stroke="none" fill="none" opacity="0.5">
                        <use fill-opacity="0" fill="#EFF0F1" fill-rule="evenodd" xlink:href="#path-3"></use>
                        <use fill="black" fill-opacity="1" filter="url(#filter-4)" xlink:href="#path-3"></use>
                    </g>
                    <g id="Combined-Shape" stroke="none" fill="none" opacity="0.5">
                        <use fill-opacity="0" fill="#EFF0F1" fill-rule="evenodd" xlink:href="#path-5"></use>
                        <use fill="black" fill-opacity="1" filter="url(#filter-6)" xlink:href="#path-5"></use>
                    </g>
                    <g id="Combined-Shape-Copy-2" stroke="none" fill="none" opacity="0.5" transform="translate(275.000000, 205.000000) scale(-1, 1) translate(-275.000000, -205.000000) ">
                        <use fill-opacity="0" fill="#EFF0F1" fill-rule="evenodd" xlink:href="#path-7"></use>
                        <use fill="black" fill-opacity="1" filter="url(#filter-8)" xlink:href="#path-7"></use>
                    </g>
                    <g id="Combined-Shape-Copy-3" stroke="none" fill="none" opacity="0.5" transform="translate(265.000000, 216.500000) scale(-1, 1) translate(-265.000000, -216.500000) ">
                        <use fill-opacity="0" fill="#EFF0F1" fill-rule="evenodd" xlink:href="#path-9"></use>
                        <use fill="black" fill-opacity="1" filter="url(#filter-10)" xlink:href="#path-9"></use>
                    </g>
                    <g id="Group" filter="url(#filter-11)" stroke="none" stroke-width="1" fill="none" fill-rule="evenodd" transform="translate(137.000000, 110.000000)" stroke-linecap="round" fill-opacity="0" stroke-dasharray="4">
                        <path d="M0,120 L25,0 M51,0 L76,120" id="Rectangle-14" stroke="#EBC597" stroke-width="2" fill="#EFF0F1"></path>
                        <path d="M49,37 L56,84" id="Rectangle-2" stroke="#EBC597" stroke-width="2" fill="#EFF0F1"></path>
                        <polyline id="Rectangle-2-Copy" stroke="#EBC597" stroke-width="2" fill="#EFF0F1" points="17 110 30 27 30 27"></polyline>
                        <path d="M39,94 L39,65" id="Rectangle-6" stroke="#EBC597" stroke-width="2" fill="#EFF0F1"></path>
                    </g>
                    <g id="Path" stroke="none" fill="none">
                        <use fill="black" fill-opacity="1" filter="url(#filter-14)" xlink:href="#path-13"></use>
                        <use fill="#EBC597" fill-rule="evenodd" xlink:href="#path-13"></use>
                        <use fill-opacity="0.599999964" fill="url(#linearGradient-12)" fill-rule="evenodd" style="mix-blend-mode: overlay;" xlink:href="#path-13"></use>
                    </g>
                    <use id="Shape" stroke-opacity="0.2" stroke="#535E65" mask="url(#mask-16)" stroke-width="2" fill="#EAA6A6" fill-rule="nonzero" xlink:href="#path-15"></use>
                </g>
            </g>
        </g>
    </g>
</svg>