<?xml version="1.0" encoding="UTF-8"?>
<svg width="702px" height="244px" viewBox="0 0 702 244" version="1.1" xmlns="http://www.w3.org/2000/svg" xmlns:xlink="http://www.w3.org/1999/xlink">
    <!-- Generator: Sketch 42 (36781) - http://www.bohemiancoding.com/sketch -->
    <title>Group 15</title>
    <desc>Created with Sketch.</desc>
    <defs>
        <linearGradient x1="0.25781251%" y1="49.7500002%" x2="101.257813%" y2="49.7500002%" id="linearGradient-1">
            <stop stop-color="#BAC2C7" offset="0%"></stop>
            <stop stop-color="#B5D8EB" offset="100%"></stop>
        </linearGradient>
        <path d="M0,5.00824656 C0,2.24226836 2.22921371,0 5.00945433,0 L494.990546,0 C497.757191,0 500,2.23126713 500,5.00824656 L500,160 L0,160 L0,5.00824656 Z" id="path-2"></path>
        <filter x="-50%" y="-50%" width="200%" height="200%" filterUnits="objectBoundingBox" id="filter-4">
            <feMorphology radius="1" operator="dilate" in="SourceAlpha" result="shadowSpreadOuter1"></feMorphology>
            <feOffset dx="0" dy="0" in="shadowSpreadOuter1" result="shadowOffsetOuter1"></feOffset>
            <feGaussianBlur stdDeviation="12.5" in="shadowOffsetOuter1" result="shadowBlurOuter1"></feGaussianBlur>
            <feComposite in="shadowBlurOuter1" in2="SourceAlpha" operator="out" result="shadowBlurOuter1"></feComposite>
            <feColorMatrix values="0 0 0 0 0.937254902   0 0 0 0 0.941176471   0 0 0 0 0.945098039  0 0 0 1 0" type="matrix" in="shadowBlurOuter1"></feColorMatrix>
        </filter>
        <mask id="mask-5" maskContentUnits="userSpaceOnUse" maskUnits="objectBoundingBox" x="-1" y="-1" width="502" height="162">
            <rect x="-1" y="-1" width="502" height="162" fill="white"></rect>
            <use xlink:href="#path-2" fill="black"></use>
        </mask>
        <rect id="path-6" x="15" y="10" width="50" height="40" rx="4"></rect>
        <mask id="mask-7" maskContentUnits="userSpaceOnUse" maskUnits="objectBoundingBox" x="0" y="0" width="50" height="40" fill="white">
            <use xlink:href="#path-6"></use>
        </mask>
        <rect id="path-8" x="70" y="10" width="75" height="40" rx="4"></rect>
        <mask id="mask-9" maskContentUnits="userSpaceOnUse" maskUnits="objectBoundingBox" x="0" y="0" width="75" height="40" fill="white">
            <use xlink:href="#path-8"></use>
        </mask>
        <rect id="path-10" x="150" y="10" width="75" height="40" rx="4"></rect>
        <mask id="mask-11" maskContentUnits="userSpaceOnUse" maskUnits="objectBoundingBox" x="0" y="0" width="75" height="40" fill="white">
            <use xlink:href="#path-10"></use>
        </mask>
        <rect id="path-12" x="230" y="10" width="75" height="40" rx="4"></rect>
        <mask id="mask-13" maskContentUnits="userSpaceOnUse" maskUnits="objectBoundingBox" x="0" y="0" width="75" height="40" fill="white">
            <use xlink:href="#path-12"></use>
        </mask>
        <rect id="path-14" x="310" y="10" width="75" height="40" rx="4"></rect>
        <mask id="mask-15" maskContentUnits="userSpaceOnUse" maskUnits="objectBoundingBox" x="0" y="0" width="75" height="40" fill="white">
            <use xlink:href="#path-14"></use>
        </mask>
        <rect id="path-16" x="435" y="10" width="50" height="40" rx="4"></rect>
        <mask id="mask-17" maskContentUnits="userSpaceOnUse" maskUnits="objectBoundingBox" x="0" y="0" width="50" height="40" fill="white">
            <use xlink:href="#path-16"></use>
        </mask>
        <rect id="path-18" x="15" y="150" width="50" height="20" rx="4"></rect>
        <mask id="mask-19" maskContentUnits="userSpaceOnUse" maskUnits="objectBoundingBox" x="0" y="0" width="50" height="20" fill="white">
            <use xlink:href="#path-18"></use>
        </mask>
        <rect id="path-20" x="70" y="150" width="50" height="20" rx="4"></rect>
        <mask id="mask-21" maskContentUnits="userSpaceOnUse" maskUnits="objectBoundingBox" x="0" y="0" width="50" height="20" fill="white">
            <use xlink:href="#path-20"></use>
        </mask>
        <rect id="path-22" x="125" y="150" width="50" height="20" rx="4"></rect>
        <mask id="mask-23" maskContentUnits="userSpaceOnUse" maskUnits="objectBoundingBox" x="0" y="0" width="50" height="20" fill="white">
            <use xlink:href="#path-22"></use>
        </mask>
        <rect id="path-24" x="180" y="150" width="50" height="20" rx="4"></rect>
        <mask id="mask-25" maskContentUnits="userSpaceOnUse" maskUnits="objectBoundingBox" x="0" y="0" width="50" height="20" fill="white">
            <use xlink:href="#path-24"></use>
        </mask>
    </defs>
    <g id="Page-1" stroke="none" stroke-width="1" fill="none" fill-rule="evenodd">
        <g id="Group-15" transform="translate(-4.000000, -1.000000)">
            <path d="M66,166 L71,166 C71.5522847,166 72,165.552285 72,165 C72,164.447715 71.5522847,164 71,164 L66,164 C65.4477153,164 65,164.447715 65,165 C65,165.552285 65.4477153,166 66,166 Z M76,166 L81,166 C81.5522847,166 82,165.552285 82,165 C82,164.447715 81.5522847,164 81,164 L76,164 C75.4477153,164 75,164.447715 75,165 C75,165.552285 75.4477153,166 76,166 Z M86,166 L91,166 C91.5522847,166 92,165.552285 92,165 C92,164.447715 91.5522847,164 91,164 L86,164 C85.4477153,164 85,164.447715 85,165 C85,165.552285 85.4477153,166 86,166 Z M96,166 L101,166 C101.552285,166 102,165.552285 102,165 C102,164.447715 101.552285,164 101,164 L96,164 C95.4477153,164 95,164.447715 95,165 C95,165.552285 95.4477153,166 96,166 Z M106,166 L111,166 C111.552285,166 112,165.552285 112,165 C112,164.447715 111.552285,164 111,164 L106,164 C105.447715,164 105,164.447715 105,165 C105,165.552285 105.447715,166 106,166 Z M116,166 L121,166 C121.552285,166 122,165.552285 122,165 C122,164.447715 121.552285,164 121,164 L116,164 C115.447715,164 115,164.447715 115,165 C115,165.552285 115.447715,166 116,166 Z M126,166 L131,166 C131.552285,166 132,165.552285 132,165 C132,164.447715 131.552285,164 131,164 L126,164 C125.447715,164 125,164.447715 125,165 C125,165.552285 125.447715,166 126,166 Z M136,166 L141,166 C141.552285,166 142,165.552285 142,165 C142,164.447715 141.552285,164 141,164 L136,164 C135.447715,164 135,164.447715 135,165 C135,165.552285 135.447715,166 136,166 Z M146,166 L151,166 C151.552285,166 152,165.552285 152,165 C152,164.447715 151.552285,164 151,164 L146,164 C145.447715,164 145,164.447715 145,165 C145,165.552285 145.447715,166 146,166 Z M156,166 L161,166 C161.552285,166 162,165.552285 162,165 C162,164.447715 161.552285,164 161,164 L156,164 C155.447715,164 155,164.447715 155,165 C155,165.552285 155.447715,166 156,166 Z M166.083661,163.191668 C166.654763,162.282711 166.97372,161.234702 166.998443,160.140859 L167,157.656702 C167.000292,157.104418 166.552813,156.656466 166.000529,156.656174 C165.448244,156.655882 165.000292,157.103361 165,157.655645 L164.998699,160.117734 C164.982448,160.825945 164.770503,161.522339 164.390184,162.12765 C164.096363,162.59529 164.237272,163.212577 164.704913,163.506397 C165.172554,163.800218 165.78984,163.659309 166.083661,163.191668 Z M167,152.656174 L167,147.656174 C167,147.103889 166.552285,146.656174 166,146.656174 C165.447715,146.656174 165,147.103889 165,147.656174 L165,152.656174 C165,153.208459 165.447715,153.656174 166,153.656174 C166.552285,153.656174 167,153.208459 167,152.656174 Z M167,142.656174 L167,137.656174 C167,137.103889 166.552285,136.656174 166,136.656174 C165.447715,136.656174 165,137.103889 165,137.656174 L165,142.656174 C165,143.208459 165.447715,143.656174 166,143.656174 C166.552285,143.656174 167,143.208459 167,142.656174 Z M167,132.656174 L167,127.656174 C167,127.103889 166.552285,126.656174 166,126.656174 C165.447715,126.656174 165,127.103889 165,127.656174 L165,132.656174 C165,133.208459 165.447715,133.656174 166,133.656174 C166.552285,133.656174 167,133.208459 167,132.656174 Z M167,122.656174 L167,117.656174 C167,117.103889 166.552285,116.656174 166,116.656174 C165.447715,116.656174 165,117.103889 165,117.656174 L165,122.656174 C165,123.208459 165.447715,123.656174 166,123.656174 C166.552285,123.656174 167,123.208459 167,122.656174 Z M167,112.656174 L167,107.656174 C167,107.103889 166.552285,106.656174 166,106.656174 C165.447715,106.656174 165,107.103889 165,107.656174 L165,112.656174 C165,113.208459 165.447715,113.656174 166,113.656174 C166.552285,113.656174 167,113.208459 167,112.656174 Z M167,102.656174 L167,97.6561739 C167,97.1038891 166.552285,96.6561739 166,96.6561739 C165.447715,96.6561739 165,97.1038891 165,97.6561739 L165,102.656174 C165,103.208459 165.447715,103.656174 166,103.656174 C166.552285,103.656174 167,103.208459 167,102.656174 Z M167,92.6561739 L167,87.6561739 C167,87.1038891 166.552285,86.6561739 166,86.6561739 C165.447715,86.6561739 165,87.1038891 165,87.6561739 L165,92.6561739 C165,93.2084586 165.447715,93.6561739 166,93.6561739 C166.552285,93.6561739 167,93.2084586 167,92.6561739 Z M167,82.6561739 L167,77.6561739 C167,77.1038891 166.552285,76.6561739 166,76.6561739 C165.447715,76.6561739 165,77.1038891 165,77.6561739 L165,82.6561739 C165,83.2084586 165.447715,83.6561739 166,83.6561739 C166.552285,83.6561739 167,83.2084586 167,82.6561739 Z M167,72.6561739 L167,67.6561739 C167,67.1038891 166.552285,66.6561739 166,66.6561739 C165.447715,66.6561739 165,67.1038891 165,67.6561739 L165,72.6561739 C165,73.2084586 165.447715,73.6561739 166,73.6561739 C166.552285,73.6561739 167,73.2084586 167,72.6561739 Z M167,62.6561739 L167,57.6561739 C167,57.1038891 166.552285,56.6561739 166,56.6561739 C165.447715,56.6561739 165,57.1038891 165,57.6561739 L165,62.6561739 C165,63.2084586 165.447715,63.6561739 166,63.6561739 C166.552285,63.6561739 167,63.2084586 167,62.6561739 Z M167,52.6561739 L167,47.6561739 C167,47.1038891 166.552285,46.6561739 166,46.6561739 C165.447715,46.6561739 165,47.1038891 165,47.6561739 L165,52.6561739 C165,53.2084586 165.447715,53.6561739 166,53.6561739 C166.552285,53.6561739 167,53.2084586 167,52.6561739 Z M167,42.6561739 L167,39.9910482 C167,39.3499656 167.150392,38.7326818 167.43504,38.1760655 C167.6865,37.6843476 167.491732,37.0818832 167.000014,36.8304235 C166.508296,36.5789638 165.905832,36.7737315 165.654372,37.2654494 C165.226373,38.1023826 165,39.0315294 165,39.9910482 L165,42.6561739 C165,43.2084586 165.447715,43.6561739 166,43.6561739 C166.552285,43.6561739 167,43.2084586 167,42.6561739 Z M170.726742,36.008548 C170.807954,36.0032702 170.889597,36.0004282 170.971609,36.0000448 L175.685563,36 C176.237848,35.9999935 176.685558,35.5522729 176.685552,34.9999882 C176.685545,34.4477034 176.237825,33.9999935 175.68554,34 L170.966923,34.0000557 C170.84009,34.0006377 170.718311,34.0048769 170.597038,34.0127582 C170.045916,34.0485748 169.628178,34.5243826 169.663995,35.0755048 C169.699812,35.6266269 170.17562,36.0443646 170.726742,36.008548 Z M180.685552,36 L185.685552,36 C186.237836,36 186.685552,35.5522847 186.685552,35 C186.685552,34.4477153 186.237836,34 185.685552,34 L180.685552,34 C180.133267,34 179.685552,34.4477153 179.685552,35 C179.685552,35.5522847 180.133267,36 180.685552,36 Z M190.685552,36 L195.685552,36 C196.237836,36 196.685552,35.5522847 196.685552,35 C196.685552,34.4477153 196.237836,34 195.685552,34 L190.685552,34 C190.133267,34 189.685552,34.4477153 189.685552,35 C189.685552,35.5522847 190.133267,36 190.685552,36 Z M200.685552,36 L205.685552,36 C206.237836,36 206.685552,35.5522847 206.685552,35 C206.685552,34.4477153 206.237836,34 205.685552,34 L200.685552,34 C200.133267,34 199.685552,34.4477153 199.685552,35 C199.685552,35.5522847 200.133267,36 200.685552,36 Z M210.685552,36 L215.685552,36 C216.237836,36 216.685552,35.5522847 216.685552,35 C216.685552,34.4477153 216.237836,34 215.685552,34 L210.685552,34 C210.133267,34 209.685552,34.4477153 209.685552,35 C209.685552,35.5522847 210.133267,36 210.685552,36 Z M220.685552,36 L225.685552,36 C226.237836,36 226.685552,35.5522847 226.685552,35 C226.685552,34.4477153 226.237836,34 225.685552,34 L220.685552,34 C220.133267,34 219.685552,34.4477153 219.685552,35 C219.685552,35.5522847 220.133267,36 220.685552,36 Z M230.685552,36 L235.685552,36 C236.237836,36 236.685552,35.5522847 236.685552,35 C236.685552,34.4477153 236.237836,34 235.685552,34 L230.685552,34 C230.133267,34 229.685552,34.4477153 229.685552,35 C229.685552,35.5522847 230.133267,36 230.685552,36 Z M240.685552,36 L245.685552,36 C246.237836,36 246.685552,35.5522847 246.685552,35 C246.685552,34.4477153 246.237836,34 245.685552,34 L240.685552,34 C240.133267,34 239.685552,34.4477153 239.685552,35 C239.685552,35.5522847 240.133267,36 240.685552,36 Z" id="Path-2" fill="#EFF0F1" fill-rule="nonzero"></path>
            <path d="M313,36 L318,36 C318.552285,36 319,35.5522847 319,35 C319,34.4477153 318.552285,34 318,34 L313,34 C312.447715,34 312,34.4477153 312,35 C312,35.5522847 312.447715,36 313,36 Z M323,36 L328,36 C328.552285,36 329,35.5522847 329,35 C329,34.4477153 328.552285,34 328,34 L323,34 C322.447715,34 322,34.4477153 322,35 C322,35.5522847 322.447715,36 323,36 Z M333,36 L338,36 C338.552285,36 339,35.5522847 339,35 C339,34.4477153 338.552285,34 338,34 L333,34 C332.447715,34 332,34.4477153 332,35 C332,35.5522847 332.447715,36 333,36 Z M343,36 L348,36 C348.552285,36 349,35.5522847 349,35 C349,34.4477153 348.552285,34 348,34 L343,34 C342.447715,34 342,34.4477153 342,35 C342,35.5522847 342.447715,36 343,36 Z M353,36 L358,36 C358.552285,36 359,35.5522847 359,35 C359,34.4477153 358.552285,34 358,34 L353,34 C352.447715,34 352,34.4477153 352,35 C352,35.5522847 352.447715,36 353,36 Z M363,36 L368,36 C368.552285,36 369,35.5522847 369,35 C369,34.4477153 368.552285,34 368,34 L363,34 C362.447715,34 362,34.4477153 362,35 C362,35.5522847 362.447715,36 363,36 Z M373,36 L378,36 C378.552285,36 379,35.5522847 379,35 C379,34.4477153 378.552285,34 378,34 L373,34 C372.447715,34 372,34.4477153 372,35 C372,35.5522847 372.447715,36 373,36 Z M383,36 L388,36 C388.552285,36 389,35.5522847 389,35 C389,34.4477153 388.552285,34 388,34 L383,34 C382.447715,34 382,34.4477153 382,35 C382,35.5522847 382.447715,36 383,36 Z" id="Path-3" fill="url(#linearGradient-1)" fill-rule="nonzero"></path>
            <path d="M537,165 L537,160 C537,159.447715 536.552285,159 536,159 C535.447715,159 535,159.447715 535,160 L535,165 C535,165.552285 535.447715,166 536,166 C536.552285,166 537,165.552285 537,165 Z M537,155 L537,150 C537,149.447715 536.552285,149 536,149 C535.447715,149 535,149.447715 535,150 L535,155 C535,155.552285 535.447715,156 536,156 C536.552285,156 537,155.552285 537,155 Z M537,145 L537,140 C537,139.447715 536.552285,139 536,139 C535.447715,139 535,139.447715 535,140 L535,145 C535,145.552285 535.447715,146 536,146 C536.552285,146 537,145.552285 537,145 Z M537,135 L537,130 C537,129.447715 536.552285,129 536,129 C535.447715,129 535,129.447715 535,130 L535,135 C535,135.552285 535.447715,136 536,136 C536.552285,136 537,135.552285 537,135 Z M537,125 L537,120 C537,119.447715 536.552285,119 536,119 C535.447715,119 535,119.447715 535,120 L535,125 C535,125.552285 535.447715,126 536,126 C536.552285,126 537,125.552285 537,125 Z M537,115 L537,110 C537,109.447715 536.552285,109 536,109 C535.447715,109 535,109.447715 535,110 L535,115 C535,115.552285 535.447715,116 536,116 C536.552285,116 537,115.552285 537,115 Z M537,105 L537,100 C537,99.4477153 536.552285,99 536,99 C535.447715,99 535,99.4477153 535,100 L535,105 C535,105.552285 535.447715,106 536,106 C536.552285,106 537,105.552285 537,105 Z M537,95 L537,90 C537,89.4477153 536.552285,89 536,89 C535.447715,89 535,89.4477153 535,90 L535,95 C535,95.5522847 535.447715,96 536,96 C536.552285,96 537,95.5522847 537,95 Z M537,85 L537,80 C537,79.4477153 536.552285,79 536,79 C535.447715,79 535,79.4477153 535,80 L535,85 C535,85.5522847 535.447715,86 536,86 C536.552285,86 537,85.5522847 537,85 Z M537,75 L537,70 C537,69.4477153 536.552285,69 536,69 C535.447715,69 535,69.4477153 535,70 L535,75 C535,75.5522847 535.447715,76 536,76 C536.552285,76 537,75.5522847 537,75 Z M537,65 L537,60 C537,59.4477153 536.552285,59 536,59 C535.447715,59 535,59.4477153 535,60 L535,65 C535,65.5522847 535.447715,66 536,66 C536.552285,66 537,65.5522847 537,65 Z M537,55 L537,50 C537,49.4477153 536.552285,49 536,49 C535.447715,49 535,49.4477153 535,50 L535,55 C535,55.5522847 535.447715,56 536,56 C536.552285,56 537,55.5522847 537,55 Z M537,45 L537,40 C537,39.4477153 536.552285,39 536,39 C535.447715,39 535,39.4477153 535,40 L535,45 C535,45.5522847 535.447715,46 536,46 C536.552285,46 537,45.5522847 537,45 Z M534.193745,34.9153018 C533.28591,34.3447945 532.239236,34.0262076 531.146694,34.0015502 L528.6588,34.0000001 C528.106515,33.99971 527.658565,34.4471899 527.658275,34.9994746 C527.657985,35.5517593 528.105464,35.9997097 528.657749,35.9999999 L531.123605,36.0012954 C531.83046,36.0174913 532.52544,36.2290295 533.129579,36.608686 C533.597194,36.9025474 534.214493,36.7616922 534.508354,36.294077 C534.802216,35.8264619 534.66136,35.2091632 534.193745,34.9153018 Z M523.658275,34 L518.658275,34 C518.10599,34 517.658275,34.4477153 517.658275,35 C517.658275,35.5522847 518.10599,36 518.658275,36 L523.658275,36 C524.210559,36 524.658275,35.5522847 524.658275,35 C524.658275,34.4477153 524.210559,34 523.658275,34 Z M513.658275,34 L508.658275,34 C508.10599,34 507.658275,34.4477153 507.658275,35 C507.658275,35.5522847 508.10599,36 508.658275,36 L513.658275,36 C514.210559,36 514.658275,35.5522847 514.658275,35 C514.658275,34.4477153 514.210559,34 513.658275,34 Z M503.658275,34 L498.658275,34 C498.10599,34 497.658275,34.4477153 497.658275,35 C497.658275,35.5522847 498.10599,36 498.658275,36 L503.658275,36 C504.210559,36 504.658275,35.5522847 504.658275,35 C504.658275,34.4477153 504.210559,34 503.658275,34 Z M493.658275,34 L488.658275,34 C488.10599,34 487.658275,34.4477153 487.658275,35 C487.658275,35.5522847 488.10599,36 488.658275,36 L493.658275,36 C494.210559,36 494.658275,35.5522847 494.658275,35 C494.658275,34.4477153 494.210559,34 493.658275,34 Z M483.658275,34 L478.658275,34 C478.10599,34 477.658275,34.4477153 477.658275,35 C477.658275,35.5522847 478.10599,36 478.658275,36 L483.658275,36 C484.210559,36 484.658275,35.5522847 484.658275,35 C484.658275,34.4477153 484.210559,34 483.658275,34 Z M473.658275,34 L468.658275,34 C468.10599,34 467.658275,34.4477153 467.658275,35 C467.658275,35.5522847 468.10599,36 468.658275,36 L473.658275,36 C474.210559,36 474.658275,35.5522847 474.658275,35 C474.658275,34.4477153 474.210559,34 473.658275,34 Z M463.658275,34 L458.658275,34 C458.10599,34 457.658275,34.4477153 457.658275,35 C457.658275,35.5522847 458.10599,36 458.658275,36 L463.658275,36 C464.210559,36 464.658275,35.5522847 464.658275,35 C464.658275,34.4477153 464.210559,34 463.658275,34 Z M453.658275,34 L451,34 C450.447715,34 450,34.4477153 450,35 C450,35.5522847 450.447715,36 451,36 L453.658275,36 C454.210559,36 454.658275,35.5522847 454.658275,35 C454.658275,34.4477153 454.210559,34 453.658275,34 Z" id="Path-2-Copy" fill="#B5D8EB" fill-rule="nonzero"></path>
            <path d="M636,164 L631,164 C630.447715,164 630,164.447715 630,165 C630,165.552285 630.447715,166 631,166 L636,166 C636.552285,166 637,165.552285 637,165 C637,164.447715 636.552285,164 636,164 Z M626,164 L621,164 C620.447715,164 620,164.447715 620,165 C620,165.552285 620.447715,166 621,166 L626,166 C626.552285,166 627,165.552285 627,165 C627,164.447715 626.552285,164 626,164 Z M616,164 L611,164 C610.447715,164 610,164.447715 610,165 C610,165.552285 610.447715,166 611,166 L616,166 C616.552285,166 617,165.552285 617,165 C617,164.447715 616.552285,164 616,164 Z M606,164 L601,164 C600.447715,164 600,164.447715 600,165 C600,165.552285 600.447715,166 601,166 L606,166 C606.552285,166 607,165.552285 607,165 C607,164.447715 606.552285,164 606,164 Z M596,164 L591,164 C590.447715,164 590,164.447715 590,165 C590,165.552285 590.447715,166 591,166 L596,166 C596.552285,166 597,165.552285 597,165 C597,164.447715 596.552285,164 596,164 Z M586,164 L581,164 C580.447715,164 580,164.447715 580,165 C580,165.552285 580.447715,166 581,166 L586,166 C586.552285,166 587,165.552285 587,165 C587,164.447715 586.552285,164 586,164 Z M576,164 L571,164 C570.447715,164 570,164.447715 570,165 C570,165.552285 570.447715,166 571,166 L576,166 C576.552285,166 577,165.552285 577,165 C577,164.447715 576.552285,164 576,164 Z M566,164 L561,164 C560.447715,164 560,164.447715 560,165 C560,165.552285 560.447715,166 561,166 L566,166 C566.552285,166 567,165.552285 567,165 C567,164.447715 566.552285,164 566,164 Z M556,164 L551,164 C550.447715,164 550,164.447715 550,165 C550,165.552285 550.447715,166 551,166 L556,166 C556.552285,166 557,165.552285 557,165 C557,164.447715 556.552285,164 556,164 Z M546,164 L541,164 C540.447715,164 540,164.447715 540,165 C540,165.552285 540.447715,166 541,166 L546,166 C546.552285,166 547,165.552285 547,165 C547,164.447715 546.552285,164 546,164 Z" id="Path-2-Copy-2" fill="#EBC597" fill-rule="nonzero"></path>
            <g id="Group-14" transform="translate(101.000000, 85.000000)">
                <mask id="mask-3" fill="white">
                    <use xlink:href="#path-2"></use>
                </mask>
                <g id="Rectangle-8">
                    <use fill="black" fill-opacity="1" filter="url(#filter-4)" xlink:href="#path-2"></use>
                    <use fill="#FEFEFE" fill-rule="evenodd" xlink:href="#path-2"></use>
                    <use stroke-opacity="0.05" stroke="#535E65" mask="url(#mask-5)" stroke-width="2" xlink:href="#path-2"></use>
                </g>
                <g id="Rectangle-11" mask="url(#mask-3)">
                    <use fill-opacity="0" fill="#FFFFFF" xlink:href="#path-6"></use>
                    <use stroke-opacity="0.05" stroke="#535E65" mask="url(#mask-7)" stroke-width="2" fill-opacity="0.05" fill="#535D65" xlink:href="#path-6"></use>
                </g>
                <g id="Rectangle-11-Copy" mask="url(#mask-3)">
                    <use fill-opacity="0" fill="#FFFFFF" xlink:href="#path-8"></use>
                    <use stroke-opacity="0.2" stroke="#B5D8EB" mask="url(#mask-9)" stroke-width="2" fill-opacity="0.1" fill="#B5D8EB" xlink:href="#path-8"></use>
                </g>
                <g id="Rectangle-11-Copy-2" mask="url(#mask-3)">
                    <use fill-opacity="0" fill="#FFFFFF" xlink:href="#path-10"></use>
                    <use stroke-opacity="0.2" stroke="#EAA6A6" mask="url(#mask-11)" stroke-width="2" fill-opacity="0.1" fill="#EAA6A6" xlink:href="#path-10"></use>
                </g>
                <g id="Rectangle-11-Copy-3" mask="url(#mask-3)">
                    <use fill-opacity="0" fill="#FFFFFF" xlink:href="#path-12"></use>
                    <use stroke-opacity="0.2" stroke="#C8B5EB" mask="url(#mask-13)" stroke-width="2" fill-opacity="0.1" fill="#C8B5EB" xlink:href="#path-12"></use>
                </g>
                <g id="Rectangle-11-Copy-4" mask="url(#mask-3)">
                    <use fill-opacity="0" fill="#FFFFFF" xlink:href="#path-14"></use>
                    <use stroke-opacity="0.2" stroke="#93DFB8" mask="url(#mask-15)" stroke-width="2" fill-opacity="0.1" fill="#93DFB8" xlink:href="#path-14"></use>
                </g>
                <g id="Rectangle-11-Copy-5" mask="url(#mask-3)">
                    <use fill-opacity="0" fill="#FFFFFF" xlink:href="#path-16"></use>
                    <use stroke-opacity="0.05" stroke="#535E65" mask="url(#mask-17)" stroke-width="2" fill-opacity="0.05" fill="#535D65" xlink:href="#path-16"></use>
                </g>
                <rect id="Rectangle-9" fill="#EFF0F1" opacity="0.5" mask="url(#mask-3)" x="15" y="80" width="40" height="40" rx="3"></rect>
                <rect id="Rectangle-10" fill="#EFF0F1" opacity="0.5" mask="url(#mask-3)" x="65" y="80" width="100" height="25" rx="3"></rect>
                <rect id="Rectangle-10-Copy" fill="#EFF0F1" opacity="0.5" mask="url(#mask-3)" x="65" y="110" width="50" height="10" rx="3"></rect>
                <g id="Rectangle-11" mask="url(#mask-3)">
                    <use fill-opacity="0" fill="#FFFFFF" xlink:href="#path-18"></use>
                    <use stroke-opacity="0.05" stroke="#535E65" mask="url(#mask-19)" stroke-width="2" fill-opacity="0.05" fill="#535D65" xlink:href="#path-18"></use>
                </g>
                <g id="Rectangle-11-Copy-6" mask="url(#mask-3)">
                    <use fill-opacity="0" fill="#FFFFFF" xlink:href="#path-20"></use>
                    <use stroke-opacity="0.05" stroke="#535E65" mask="url(#mask-21)" stroke-width="2" fill-opacity="0.05" fill="#535D65" xlink:href="#path-20"></use>
                </g>
                <g id="Rectangle-11-Copy-7" mask="url(#mask-3)">
                    <use fill-opacity="0" fill="#FFFFFF" xlink:href="#path-22"></use>
                    <use stroke-opacity="0.05" stroke="#535E65" mask="url(#mask-23)" stroke-width="2" fill-opacity="0.05" fill="#535D65" xlink:href="#path-22"></use>
                </g>
                <g id="Rectangle-11-Copy-8" mask="url(#mask-3)">
                    <use fill-opacity="0" fill="#FFFFFF" xlink:href="#path-24"></use>
                    <use stroke-opacity="0.05" stroke="#535E65" mask="url(#mask-25)" stroke-width="2" fill-opacity="0.05" fill="#535D65" xlink:href="#path-24"></use>
                </g>
            </g>
            <path d="M31.2071059,132.189828 C33.3018635,130.98042 36.6945942,130.978374 38.7928941,132.189828 L61.517995,145.310172 C63.6127526,146.51958 65.3108891,149.456749 65.3108891,151.879657 L65.3108891,178.120343 C65.3108891,180.539161 63.6162949,183.478374 61.517995,184.689828 L38.7928941,197.810172 C36.6981365,199.01958 33.3054058,199.021626 31.2071059,197.810172 L8.48200497,184.689828 C6.3872474,183.48042 4.68911087,180.543251 4.68911087,178.120343 L4.68911087,151.879657 C4.68911087,149.460839 6.38370507,146.521626 8.48200497,145.310172 L31.2071059,132.189828 Z" id="Polygon-2" fill="#EFF0F1"></path>
            <text id="" font-family="FontAwesome" font-size="32" font-weight="normal" fill="#FFFFFF">
                <tspan x="17.8571429" y="176"></tspan>
            </text>
            <path d="M276.207106,2.18982843 C278.301863,0.980419584 281.694594,0.978374421 283.792894,2.18982843 L306.517995,15.3101716 C308.612753,16.5195804 310.310889,19.4567488 310.310889,21.8796569 L310.310889,48.1203431 C310.310889,50.5391608 308.616295,53.4783744 306.517995,54.6898284 L283.792894,67.8101716 C281.698137,69.0195804 278.305406,69.0216256 276.207106,67.8101716 L253.482005,54.6898284 C251.387247,53.4804196 249.689111,50.5432512 249.689111,48.1203431 L249.689111,21.8796569 C249.689111,19.4608392 251.383705,16.5216256 253.482005,15.3101716 L276.207106,2.18982843 Z" id="Polygon-2-Copy-2" fill="#BBC2C7"></path>
            <text id="" font-family="FontAwesome" font-size="32" font-weight="normal" fill="#FFFFFF">
                <tspan x="266.285714" y="46"></tspan>
            </text>
            <path d="M418.207106,2.18982843 C420.301863,0.980419584 423.694594,0.978374421 425.792894,2.18982843 L448.517995,15.3101716 C450.612753,16.5195804 452.310889,19.4567488 452.310889,21.8796569 L452.310889,48.1203431 C452.310889,50.5391608 450.616295,53.4783744 448.517995,54.6898284 L425.792894,67.8101716 C423.698137,69.0195804 420.305406,69.0216256 418.207106,67.8101716 L395.482005,54.6898284 C393.387247,53.4804196 391.689111,50.5432512 391.689111,48.1203431 L391.689111,21.8796569 C391.689111,19.4608392 393.383705,16.5216256 395.482005,15.3101716 L418.207106,2.18982843 Z" id="Polygon-2-Copy-4" fill="#B5D8EB"></path>
            <text id="" font-family="FontAwesome" font-size="32" font-weight="normal" fill="#FFFFFF">
                <tspan x="404.857143" y="46"></tspan>
            </text>
            <path d="M666.665264,127.502661 C669.059273,126.12048 672.936679,126.118142 675.334736,127.502661 L701.30628,142.497339 C703.700289,143.87952 705.641016,147.236284 705.641016,150.005322 L705.641016,179.994678 C705.641016,182.759041 703.704337,186.118142 701.30628,187.502661 L675.334736,202.497339 C672.940727,203.87952 669.063321,203.881858 666.665264,202.497339 L640.69372,187.502661 C638.299711,186.12048 636.358984,182.763716 636.358984,179.994678 L636.358984,150.005322 C636.358984,147.240959 638.295663,143.881858 640.69372,142.497339 L666.665264,127.502661 Z" id="Polygon-2-Copy" fill="#EBC597"></path>
            <text id="" font-family="FontAwesome" font-size="32" font-weight="normal" fill="#FFFFFF">
                <tspan x="653.857143" y="176"></tspan>
            </text>
        </g>
    </g>
</svg>